<?xml version="1.0" encoding="UTF-8" standalone="no"?><svg xmlns="http://www.w3.org/2000/svg" xmlns:xlink="http://www.w3.org/1999/xlink" contentScriptType="application/ecmascript" contentStyleType="text/css" height="294px" preserveAspectRatio="none" style="width:239px;height:294px;" version="1.1" viewBox="0 0 239 294" width="239px" zoomAndPan="magnify"><defs><filter height="300%" id="f1snugyf4gth0i" width="300%" x="-1" y="-1"><feGaussianBlur result="blurOut" stdDeviation="2.0"/><feColorMatrix in="blurOut" result="blurOut2" type="matrix" values="0 0 0 0 0 0 0 0 0 0 0 0 0 0 0 0 0 0 .4 0"/><feOffset dx="4.0" dy="4.0" in="blurOut2" result="blurOut3"/><feBlend in="SourceGraphic" in2="blurOut3" mode="normal"/></filter></defs><g><!--MD5=[76bbd3767638c6589f3bd0ec5a7d6a7d]
class de.unibremen.sfb.persistence.ArchivDAO--><a href="ArchivDAO.html" target="_top" title="ArchivDAO.html" xlink:actuate="onRequest" xlink:href="ArchivDAO.html" xlink:show="new" xlink:title="ArchivDAO.html" xlink:type="simple"><rect fill="#FEFECE" filter="url(#f1snugyf4gth0i)" height="109.9609" id="de.unibremen.sfb.persistence.ArchivDAO" style="stroke: #A80036; stroke-width: 1.5;" width="175" x="28" y="152"/><ellipse cx="43" cy="170.9688" fill="#ADD1B2" rx="11" ry="11" style="stroke: #A80036; stroke-width: 1.0;"/><path d="M45.9688,176.6094 Q45.3906,176.9063 44.75,177.0469 Q44.1094,177.2031 43.4063,177.2031 Q40.9063,177.2031 39.5781,175.5625 Q38.2656,173.9063 38.2656,170.7813 Q38.2656,167.6563 39.5781,166 Q40.9063,164.3438 43.4063,164.3438 Q44.1094,164.3438 44.75,164.5 Q45.4063,164.6563 45.9688,164.9531 L45.9688,167.6719 Q45.3438,167.0938 44.75,166.8281 Q44.1563,166.5469 43.5313,166.5469 Q42.1875,166.5469 41.5,167.625 Q40.8125,168.6875 40.8125,170.7813 Q40.8125,172.875 41.5,173.9531 Q42.1875,175.0156 43.5313,175.0156 Q44.1563,175.0156 44.75,174.75 Q45.3438,174.4688 45.9688,173.8906 L45.9688,176.6094 Z "/><text fill="#000000" font-family="sans-serif" font-size="14" lengthAdjust="spacingAndGlyphs" textLength="72" x="92.5" y="169.9951">ArchivDAO</text><text fill="#000000" font-family="sans-serif" font-size="10" lengthAdjust="spacingAndGlyphs" textLength="143" x="57" y="182.5791">de.unibremen.sfb.persistence</text><line style="stroke: #A80036; stroke-width: 1.5;" x1="29" x2="202" y1="189.9375" y2="189.9375"/><ellipse cx="39" cy="200.9375" fill="#84BE84" rx="3" ry="3" style="stroke: #038048; stroke-width: 1.0;"/><text fill="#000000" font-family="sans-serif" font-size="11" lengthAdjust="spacingAndGlyphs" textLength="113" x="48" y="204.1479">persist(Archiv): void</text><ellipse cx="39" cy="213.7422" fill="#84BE84" rx="3" ry="3" style="stroke: #038048; stroke-width: 1.0;"/><text fill="#000000" font-family="sans-serif" font-size="11" lengthAdjust="spacingAndGlyphs" textLength="112" x="48" y="216.9526">update(Archiv): void</text><ellipse cx="39" cy="226.5469" fill="#84BE84" rx="3" ry="3" style="stroke: #038048; stroke-width: 1.0;"/><text fill="#000000" font-family="sans-serif" font-size="11" lengthAdjust="spacingAndGlyphs" textLength="116" x="48" y="229.7573">remove(Archiv): void</text><ellipse cx="39" cy="239.3516" fill="#84BE84" rx="3" ry="3" style="stroke: #038048; stroke-width: 1.0;"/><text fill="#000000" font-family="sans-serif" font-size="11" lengthAdjust="spacingAndGlyphs" textLength="118" x="48" y="242.562">get(): Class&lt;Archiv&gt;</text><ellipse cx="39" cy="252.1563" fill="#84BE84" rx="3" ry="3" style="stroke: #038048; stroke-width: 1.0;"/><text fill="#000000" font-family="sans-serif" font-size="11" lengthAdjust="spacingAndGlyphs" textLength="125" x="48" y="255.3667">getObjById(int): Archiv</text></a><!--MD5=[b2d6b04f3aa6a06e16ff5fa7acfed0d5]
class de.unibremen.sfb.persistence.ObjectDAO--><a href="ObjectDAO.html" target="_top" title="ObjectDAO.html" xlink:actuate="onRequest" xlink:href="ObjectDAO.html" xlink:show="new" xlink:title="ObjectDAO.html" xlink:type="simple"><rect fill="#FEFECE" filter="url(#f1snugyf4gth0i)" height="84.3516" id="de.unibremen.sfb.persistence.ObjectDAO" style="stroke: #A80036; stroke-width: 1.5;" width="219" x="6" y="8"/><ellipse cx="21" cy="26.9688" fill="#A9DCDF" rx="11" ry="11" style="stroke: #A80036; stroke-width: 1.0;"/><path d="M21.1094,22.3125 L19.9531,27.3906 L22.2813,27.3906 L21.1094,22.3125 Z M19.625,20.0781 L22.6094,20.0781 L25.9688,32.4688 L23.5156,32.4688 L22.75,29.4063 L19.4688,29.4063 L18.7188,32.4688 L16.2813,32.4688 L19.625,20.0781 Z "/><text fill="#000000" font-family="sans-serif" font-size="14" font-style="italic" lengthAdjust="spacingAndGlyphs" textLength="77" x="69.5" y="25.9951">ObjectDAO</text><text fill="#000000" font-family="sans-serif" font-size="10" font-style="italic" lengthAdjust="spacingAndGlyphs" textLength="146" x="35" y="38.5791">de.unibremen.sfb.persistence</text><rect fill="#FFFFFF" height="15.9688" style="stroke: #000000; stroke-width: 1.0; stroke-dasharray: 2.0,2.0;" width="39" x="189" y="5"/><text fill="#000000" font-family="sans-serif" font-size="12" font-style="italic" lengthAdjust="spacingAndGlyphs" textLength="37" x="190" y="17.1387">Archiv</text><line style="stroke: #A80036; stroke-width: 1.5;" x1="7" x2="224" y1="45.9375" y2="45.9375"/><ellipse cx="17" cy="56.9375" fill="#84BE84" rx="3" ry="3" style="stroke: #038048; stroke-width: 1.0;"/><text fill="#000000" font-family="sans-serif" font-size="11" font-style="italic" lengthAdjust="spacingAndGlyphs" textLength="114" x="26" y="60.1479">persist(Archiv): void</text><ellipse cx="17" cy="69.7422" fill="#84BE84" rx="3" ry="3" style="stroke: #038048; stroke-width: 1.0;"/><text fill="#000000" font-family="sans-serif" font-size="11" font-style="italic" lengthAdjust="spacingAndGlyphs" textLength="115" x="26" y="72.9526">update(Archiv): void</text><ellipse cx="17" cy="82.5469" fill="#84BE84" rx="3" ry="3" style="stroke: #038048; stroke-width: 1.0;"/><text fill="#000000" font-family="sans-serif" font-size="11" font-style="italic" lengthAdjust="spacingAndGlyphs" textLength="120" x="26" y="85.7573">remove(Archiv): void</text></a><!--MD5=[be7d3737f216f73ebee3e80e821528cf]
reverse link de.unibremen.sfb.persistence.ObjectDAO to de.unibremen.sfb.persistence.ArchivDAO--><path d="M115.5,112.48 C115.5,125.48 115.5,139.11 115.5,151.82 " fill="none" id="de.unibremen.sfb.persistence.ObjectDAO&lt;-de.unibremen.sfb.persistence.ArchivDAO" style="stroke: #A80036; stroke-width: 1.0;"/><polygon fill="none" points="108.5,112.13,115.5,92.13,122.5,112.13,108.5,112.13" style="stroke: #A80036; stroke-width: 1.0;"/><text fill="#888888" font-family="sans-serif" font-size="10" lengthAdjust="spacingAndGlyphs" textLength="186" x="28.5" y="281.2822">UMLDoclet 2.0.7, PlantUML 1.2019.12</text><!--MD5=[69c9be1ae4f973f592e279a8fd500dae]
@startuml
    set namespaceSeparator none
    hide empty fields
    hide empty methods

    class "<size:14>ArchivDAO\n<size:10>de.unibremen.sfb.persistence" as de.unibremen.sfb.persistence.ArchivDAO [[ArchivDAO.html]] {
        +persist(Archiv): void
        +update(Archiv): void
        +remove(Archiv): void
        +get(): Class<Archiv>
        +getObjById(int): Archiv
    }

    abstract class "<size:14>ObjectDAO\n<size:10>de.unibremen.sfb.persistence" as de.unibremen.sfb.persistence.ObjectDAO<Archiv> [[ObjectDAO.html]] {
        {abstract} +persist(Archiv): void
        {abstract} +update(Archiv): void
        {abstract} +remove(Archiv): void
    }

    de.unibremen.sfb.persistence.ObjectDAO <|- - de.unibremen.sfb.persistence.ArchivDAO

    center footer UMLDoclet 2.0.7, PlantUML 1.2019.12
@enduml

PlantUML version 1.2019.12(Sun Nov 03 11:24:54 CET 2019)
(APACHE source distribution)
Java Runtime: OpenJDK Runtime Environment
JVM: OpenJDK 64-Bit Server VM
Java Version: 13.0.2+8
Operating System: Linux
Default Encoding: UTF-8
Language: de
Country: DE
--></g></svg>