<?xml version="1.0" encoding="UTF-8" standalone="no"?><svg xmlns="http://www.w3.org/2000/svg" xmlns:xlink="http://www.w3.org/1999/xlink" contentScriptType="application/ecmascript" contentStyleType="text/css" height="281px" preserveAspectRatio="none" style="width:277px;height:281px;" version="1.1" viewBox="0 0 277 281" width="277px" zoomAndPan="magnify"><defs><filter height="300%" id="f1801drle11fom" width="300%" x="-1" y="-1"><feGaussianBlur result="blurOut" stdDeviation="2.0"/><feColorMatrix in="blurOut" result="blurOut2" type="matrix" values="0 0 0 0 0 0 0 0 0 0 0 0 0 0 0 0 0 0 .4 0"/><feOffset dx="4.0" dy="4.0" in="blurOut2" result="blurOut3"/><feBlend in="SourceGraphic" in2="blurOut3" mode="normal"/></filter></defs><g><!--MD5=[cceafdfe3d21eafdced495adf978263f]
class de.unibremen.sfb.persistence.AuftragsLogDAO--><a href="AuftragsLogDAO.html" target="_top" title="AuftragsLogDAO.html" xlink:actuate="onRequest" xlink:href="AuftragsLogDAO.html" xlink:show="new" xlink:title="AuftragsLogDAO.html" xlink:type="simple"><rect fill="#FEFECE" filter="url(#f1801drle11fom)" height="97.1563" id="de.unibremen.sfb.persistence.AuftragsLogDAO" style="stroke: #A80036; stroke-width: 1.5;" width="178" x="45.5" y="152"/><ellipse cx="61.85" cy="170.9688" fill="#ADD1B2" rx="11" ry="11" style="stroke: #A80036; stroke-width: 1.0;"/><path d="M64.8188,176.6094 Q64.2406,176.9063 63.6,177.0469 Q62.9594,177.2031 62.2563,177.2031 Q59.7563,177.2031 58.4281,175.5625 Q57.1156,173.9063 57.1156,170.7813 Q57.1156,167.6563 58.4281,166 Q59.7563,164.3438 62.2563,164.3438 Q62.9594,164.3438 63.6,164.5 Q64.2563,164.6563 64.8188,164.9531 L64.8188,167.6719 Q64.1938,167.0938 63.6,166.8281 Q63.0063,166.5469 62.3813,166.5469 Q61.0375,166.5469 60.35,167.625 Q59.6625,168.6875 59.6625,170.7813 Q59.6625,172.875 60.35,173.9531 Q61.0375,175.0156 62.3813,175.0156 Q63.0063,175.0156 63.6,174.75 Q64.1938,174.4688 64.8188,173.8906 L64.8188,176.6094 Z "/><text fill="#000000" font-family="sans-serif" font-size="14" lengthAdjust="spacingAndGlyphs" textLength="113" x="91.15" y="169.9951">AuftragsLogDAO</text><text fill="#000000" font-family="sans-serif" font-size="10" lengthAdjust="spacingAndGlyphs" textLength="143" x="76.15" y="182.5791">de.unibremen.sfb.persistence</text><line style="stroke: #A80036; stroke-width: 1.5;" x1="46.5" x2="222.5" y1="189.9375" y2="189.9375"/><ellipse cx="56.5" cy="200.9375" fill="#84BE84" rx="3" ry="3" style="stroke: #038048; stroke-width: 1.0;"/><text fill="#000000" font-family="sans-serif" font-size="11" lengthAdjust="spacingAndGlyphs" textLength="147" x="65.5" y="204.1479">persist(AuftragsLog): void</text><ellipse cx="56.5" cy="213.7422" fill="#84BE84" rx="3" ry="3" style="stroke: #038048; stroke-width: 1.0;"/><text fill="#000000" font-family="sans-serif" font-size="11" lengthAdjust="spacingAndGlyphs" textLength="146" x="65.5" y="216.9526">update(AuftragsLog): void</text><ellipse cx="56.5" cy="226.5469" fill="#84BE84" rx="3" ry="3" style="stroke: #038048; stroke-width: 1.0;"/><text fill="#000000" font-family="sans-serif" font-size="11" lengthAdjust="spacingAndGlyphs" textLength="150" x="65.5" y="229.7573">remove(AuftragsLog): void</text><ellipse cx="56.5" cy="239.3516" fill="#84BE84" rx="3" ry="3" style="stroke: #038048; stroke-width: 1.0;"/><text fill="#000000" font-family="sans-serif" font-size="11" lengthAdjust="spacingAndGlyphs" textLength="152" x="65.5" y="242.562">get(): Class&lt;AuftragsLog&gt;</text></a><!--MD5=[b2d6b04f3aa6a06e16ff5fa7acfed0d5]
class de.unibremen.sfb.persistence.ObjectDAO--><a href="ObjectDAO.html" target="_top" title="ObjectDAO.html" xlink:actuate="onRequest" xlink:href="ObjectDAO.html" xlink:show="new" xlink:title="ObjectDAO.html" xlink:type="simple"><rect fill="#FEFECE" filter="url(#f1801drle11fom)" height="84.3516" id="de.unibremen.sfb.persistence.ObjectDAO" style="stroke: #A80036; stroke-width: 1.5;" width="257" x="6" y="8"/><ellipse cx="21" cy="26.9688" fill="#A9DCDF" rx="11" ry="11" style="stroke: #A80036; stroke-width: 1.0;"/><path d="M21.1094,22.3125 L19.9531,27.3906 L22.2813,27.3906 L21.1094,22.3125 Z M19.625,20.0781 L22.6094,20.0781 L25.9688,32.4688 L23.5156,32.4688 L22.75,29.4063 L19.4688,29.4063 L18.7188,32.4688 L16.2813,32.4688 L19.625,20.0781 Z "/><text fill="#000000" font-family="sans-serif" font-size="14" font-style="italic" lengthAdjust="spacingAndGlyphs" textLength="77" x="69.5" y="25.9951">ObjectDAO</text><text fill="#000000" font-family="sans-serif" font-size="10" font-style="italic" lengthAdjust="spacingAndGlyphs" textLength="146" x="35" y="38.5791">de.unibremen.sfb.persistence</text><rect fill="#FFFFFF" height="15.9688" style="stroke: #000000; stroke-width: 1.0; stroke-dasharray: 2.0,2.0;" width="77" x="189" y="5"/><text fill="#000000" font-family="sans-serif" font-size="12" font-style="italic" lengthAdjust="spacingAndGlyphs" textLength="75" x="190" y="17.1387">AuftragsLog</text><line style="stroke: #A80036; stroke-width: 1.5;" x1="7" x2="262" y1="45.9375" y2="45.9375"/><ellipse cx="17" cy="56.9375" fill="#84BE84" rx="3" ry="3" style="stroke: #038048; stroke-width: 1.0;"/><text fill="#000000" font-family="sans-serif" font-size="11" font-style="italic" lengthAdjust="spacingAndGlyphs" textLength="146" x="26" y="60.1479">persist(AuftragsLog): void</text><ellipse cx="17" cy="69.7422" fill="#84BE84" rx="3" ry="3" style="stroke: #038048; stroke-width: 1.0;"/><text fill="#000000" font-family="sans-serif" font-size="11" font-style="italic" lengthAdjust="spacingAndGlyphs" textLength="147" x="26" y="72.9526">update(AuftragsLog): void</text><ellipse cx="17" cy="82.5469" fill="#84BE84" rx="3" ry="3" style="stroke: #038048; stroke-width: 1.0;"/><text fill="#000000" font-family="sans-serif" font-size="11" font-style="italic" lengthAdjust="spacingAndGlyphs" textLength="152" x="26" y="85.7573">remove(AuftragsLog): void</text></a><!--MD5=[b3d8aec5dddd2a8b302d7d41b1df3d76]
reverse link de.unibremen.sfb.persistence.ObjectDAO to de.unibremen.sfb.persistence.AuftragsLogDAO--><path d="M134.5,112.82 C134.5,125.84 134.5,139.39 134.5,151.8 " fill="none" id="de.unibremen.sfb.persistence.ObjectDAO&lt;-de.unibremen.sfb.persistence.AuftragsLogDAO" style="stroke: #A80036; stroke-width: 1.0;"/><polygon fill="none" points="127.5,112.37,134.5,92.37,141.5,112.37,127.5,112.37" style="stroke: #A80036; stroke-width: 1.0;"/><text fill="#888888" font-family="sans-serif" font-size="10" lengthAdjust="spacingAndGlyphs" textLength="186" x="47.5" y="268.2822">UMLDoclet 2.0.7, PlantUML 1.2019.12</text><!--MD5=[2bcc5f674fb0220767d099ad5668c9c6]
@startuml
    set namespaceSeparator none
    hide empty fields
    hide empty methods

    class "<size:14>AuftragsLogDAO\n<size:10>de.unibremen.sfb.persistence" as de.unibremen.sfb.persistence.AuftragsLogDAO [[AuftragsLogDAO.html]] {
        +persist(AuftragsLog): void
        +update(AuftragsLog): void
        +remove(AuftragsLog): void
        +get(): Class<AuftragsLog>
    }

    abstract class "<size:14>ObjectDAO\n<size:10>de.unibremen.sfb.persistence" as de.unibremen.sfb.persistence.ObjectDAO<AuftragsLog> [[ObjectDAO.html]] {
        {abstract} +persist(AuftragsLog): void
        {abstract} +update(AuftragsLog): void
        {abstract} +remove(AuftragsLog): void
    }

    de.unibremen.sfb.persistence.ObjectDAO <|- - de.unibremen.sfb.persistence.AuftragsLogDAO

    center footer UMLDoclet 2.0.7, PlantUML 1.2019.12
@enduml

PlantUML version 1.2019.12(Sun Nov 03 11:24:54 CET 2019)
(APACHE source distribution)
Java Runtime: OpenJDK Runtime Environment
JVM: OpenJDK 64-Bit Server VM
Java Version: 13.0.2+8
Operating System: Linux
Default Encoding: UTF-8
Language: de
Country: DE
--></g></svg>