<?xml version="1.0" encoding="UTF-8" standalone="no"?><svg xmlns="http://www.w3.org/2000/svg" xmlns:xlink="http://www.w3.org/1999/xlink" contentScriptType="application/ecmascript" contentStyleType="text/css" height="281px" preserveAspectRatio="none" style="width:274px;height:281px;" version="1.1" viewBox="0 0 274 281" width="274px" zoomAndPan="magnify"><defs><filter height="300%" id="f1jmdc3jn74hd6" width="300%" x="-1" y="-1"><feGaussianBlur result="blurOut" stdDeviation="2.0"/><feColorMatrix in="blurOut" result="blurOut2" type="matrix" values="0 0 0 0 0 0 0 0 0 0 0 0 0 0 0 0 0 0 .4 0"/><feOffset dx="4.0" dy="4.0" in="blurOut2" result="blurOut3"/><feBlend in="SourceGraphic" in2="blurOut3" mode="normal"/></filter></defs><g><!--MD5=[4a22f75e462e4c1f7fe408615c77ba46]
class de.unibremen.sfb.persistence.KommentarDAO--><a href="KommentarDAO.html" target="_top" title="KommentarDAO.html" xlink:actuate="onRequest" xlink:href="KommentarDAO.html" xlink:show="new" xlink:title="KommentarDAO.html" xlink:type="simple"><rect fill="#FEFECE" filter="url(#f1jmdc3jn74hd6)" height="97.1563" id="de.unibremen.sfb.persistence.KommentarDAO" style="stroke: #A80036; stroke-width: 1.5;" width="176" x="45" y="152"/><ellipse cx="60.45" cy="170.9688" fill="#ADD1B2" rx="11" ry="11" style="stroke: #A80036; stroke-width: 1.0;"/><path d="M63.4188,176.6094 Q62.8406,176.9063 62.2,177.0469 Q61.5594,177.2031 60.8563,177.2031 Q58.3563,177.2031 57.0281,175.5625 Q55.7156,173.9063 55.7156,170.7813 Q55.7156,167.6563 57.0281,166 Q58.3563,164.3438 60.8563,164.3438 Q61.5594,164.3438 62.2,164.5 Q62.8563,164.6563 63.4188,164.9531 L63.4188,167.6719 Q62.7938,167.0938 62.2,166.8281 Q61.6063,166.5469 60.9813,166.5469 Q59.6375,166.5469 58.95,167.625 Q58.2625,168.6875 58.2625,170.7813 Q58.2625,172.875 58.95,173.9531 Q59.6375,175.0156 60.9813,175.0156 Q61.6063,175.0156 62.2,174.75 Q62.7938,174.4688 63.4188,173.8906 L63.4188,176.6094 Z "/><text fill="#000000" font-family="sans-serif" font-size="14" lengthAdjust="spacingAndGlyphs" textLength="111" x="90.55" y="169.9951">KommentarDAO</text><text fill="#000000" font-family="sans-serif" font-size="10" lengthAdjust="spacingAndGlyphs" textLength="143" x="74.55" y="182.5791">de.unibremen.sfb.persistence</text><line style="stroke: #A80036; stroke-width: 1.5;" x1="46" x2="220" y1="189.9375" y2="189.9375"/><ellipse cx="56" cy="200.9375" fill="#84BE84" rx="3" ry="3" style="stroke: #038048; stroke-width: 1.0;"/><text fill="#000000" font-family="sans-serif" font-size="11" lengthAdjust="spacingAndGlyphs" textLength="145" x="65" y="204.1479">persist(Kommentar): void</text><ellipse cx="56" cy="213.7422" fill="#84BE84" rx="3" ry="3" style="stroke: #038048; stroke-width: 1.0;"/><text fill="#000000" font-family="sans-serif" font-size="11" lengthAdjust="spacingAndGlyphs" textLength="144" x="65" y="216.9526">update(Kommentar): void</text><ellipse cx="56" cy="226.5469" fill="#84BE84" rx="3" ry="3" style="stroke: #038048; stroke-width: 1.0;"/><text fill="#000000" font-family="sans-serif" font-size="11" lengthAdjust="spacingAndGlyphs" textLength="150" x="65" y="229.7573">get(): Class&lt;Kommentar&gt;</text><ellipse cx="56" cy="239.3516" fill="#84BE84" rx="3" ry="3" style="stroke: #038048; stroke-width: 1.0;"/><text fill="#000000" font-family="sans-serif" font-size="11" lengthAdjust="spacingAndGlyphs" textLength="148" x="65" y="242.562">remove(Kommentar): void</text></a><!--MD5=[b2d6b04f3aa6a06e16ff5fa7acfed0d5]
class de.unibremen.sfb.persistence.ObjectDAO--><a href="ObjectDAO.html" target="_top" title="ObjectDAO.html" xlink:actuate="onRequest" xlink:href="ObjectDAO.html" xlink:show="new" xlink:title="ObjectDAO.html" xlink:type="simple"><rect fill="#FEFECE" filter="url(#f1jmdc3jn74hd6)" height="84.3516" id="de.unibremen.sfb.persistence.ObjectDAO" style="stroke: #A80036; stroke-width: 1.5;" width="254" x="6" y="8"/><ellipse cx="21" cy="26.9688" fill="#A9DCDF" rx="11" ry="11" style="stroke: #A80036; stroke-width: 1.0;"/><path d="M21.1094,22.3125 L19.9531,27.3906 L22.2813,27.3906 L21.1094,22.3125 Z M19.625,20.0781 L22.6094,20.0781 L25.9688,32.4688 L23.5156,32.4688 L22.75,29.4063 L19.4688,29.4063 L18.7188,32.4688 L16.2813,32.4688 L19.625,20.0781 Z "/><text fill="#000000" font-family="sans-serif" font-size="14" font-style="italic" lengthAdjust="spacingAndGlyphs" textLength="77" x="69.5" y="25.9951">ObjectDAO</text><text fill="#000000" font-family="sans-serif" font-size="10" font-style="italic" lengthAdjust="spacingAndGlyphs" textLength="146" x="35" y="38.5791">de.unibremen.sfb.persistence</text><rect fill="#FFFFFF" height="15.9688" style="stroke: #000000; stroke-width: 1.0; stroke-dasharray: 2.0,2.0;" width="74" x="189" y="5"/><text fill="#000000" font-family="sans-serif" font-size="12" font-style="italic" lengthAdjust="spacingAndGlyphs" textLength="72" x="190" y="17.1387">Kommentar</text><line style="stroke: #A80036; stroke-width: 1.5;" x1="7" x2="259" y1="45.9375" y2="45.9375"/><ellipse cx="17" cy="56.9375" fill="#84BE84" rx="3" ry="3" style="stroke: #038048; stroke-width: 1.0;"/><text fill="#000000" font-family="sans-serif" font-size="11" font-style="italic" lengthAdjust="spacingAndGlyphs" textLength="144" x="26" y="60.1479">persist(Kommentar): void</text><ellipse cx="17" cy="69.7422" fill="#84BE84" rx="3" ry="3" style="stroke: #038048; stroke-width: 1.0;"/><text fill="#000000" font-family="sans-serif" font-size="11" font-style="italic" lengthAdjust="spacingAndGlyphs" textLength="145" x="26" y="72.9526">update(Kommentar): void</text><ellipse cx="17" cy="82.5469" fill="#84BE84" rx="3" ry="3" style="stroke: #038048; stroke-width: 1.0;"/><text fill="#000000" font-family="sans-serif" font-size="11" font-style="italic" lengthAdjust="spacingAndGlyphs" textLength="150" x="26" y="85.7573">remove(Kommentar): void</text></a><!--MD5=[68256c1d0fff144db8c0023e46f0bb15]
reverse link de.unibremen.sfb.persistence.ObjectDAO to de.unibremen.sfb.persistence.KommentarDAO--><path d="M133,112.82 C133,125.84 133,139.39 133,151.8 " fill="none" id="de.unibremen.sfb.persistence.ObjectDAO&lt;-de.unibremen.sfb.persistence.KommentarDAO" style="stroke: #A80036; stroke-width: 1.0;"/><polygon fill="none" points="126,112.37,133,92.37,140,112.37,126,112.37" style="stroke: #A80036; stroke-width: 1.0;"/><text fill="#888888" font-family="sans-serif" font-size="10" lengthAdjust="spacingAndGlyphs" textLength="186" x="46" y="268.2822">UMLDoclet 2.0.7, PlantUML 1.2019.12</text><!--MD5=[6e0de265f007dda84a799dfb67ed60c8]
@startuml
    set namespaceSeparator none
    hide empty fields
    hide empty methods

    class "<size:14>KommentarDAO\n<size:10>de.unibremen.sfb.persistence" as de.unibremen.sfb.persistence.KommentarDAO [[KommentarDAO.html]] {
        +persist(Kommentar): void
        +update(Kommentar): void
        +get(): Class<Kommentar>
        +remove(Kommentar): void
    }

    abstract class "<size:14>ObjectDAO\n<size:10>de.unibremen.sfb.persistence" as de.unibremen.sfb.persistence.ObjectDAO<Kommentar> [[ObjectDAO.html]] {
        {abstract} +persist(Kommentar): void
        {abstract} +update(Kommentar): void
        {abstract} +remove(Kommentar): void
    }

    de.unibremen.sfb.persistence.ObjectDAO <|- - de.unibremen.sfb.persistence.KommentarDAO

    center footer UMLDoclet 2.0.7, PlantUML 1.2019.12
@enduml

PlantUML version 1.2019.12(Sun Nov 03 11:24:54 CET 2019)
(APACHE source distribution)
Java Runtime: OpenJDK Runtime Environment
JVM: OpenJDK 64-Bit Server VM
Java Version: 13.0.2+8
Operating System: Linux
Default Encoding: UTF-8
Language: de
Country: DE
--></g></svg>