<?xml version="1.0" encoding="UTF-8" standalone="no"?><svg xmlns="http://www.w3.org/2000/svg" xmlns:xlink="http://www.w3.org/1999/xlink" contentScriptType="application/ecmascript" contentStyleType="text/css" height="358px" preserveAspectRatio="none" style="width:298px;height:358px;" version="1.1" viewBox="0 0 298 358" width="298px" zoomAndPan="magnify"><defs><filter height="300%" id="f1l5zgb953qn1u" width="300%" x="-1" y="-1"><feGaussianBlur result="blurOut" stdDeviation="2.0"/><feColorMatrix in="blurOut" result="blurOut2" type="matrix" values="0 0 0 0 0 0 0 0 0 0 0 0 0 0 0 0 0 0 .4 0"/><feOffset dx="4.0" dy="4.0" in="blurOut2" result="blurOut3"/><feBlend in="SourceGraphic" in2="blurOut3" mode="normal"/></filter></defs><g><!--MD5=[b733515dbf2b895e0e7d602b56cadff9]
class de.unibremen.sfb.persistence.ProbeDAO--><a href="ProbeDAO.html" target="_top" title="ProbeDAO.html" xlink:actuate="onRequest" xlink:href="ProbeDAO.html" xlink:show="new" xlink:title="ProbeDAO.html" xlink:type="simple"><rect fill="#FEFECE" filter="url(#f1l5zgb953qn1u)" height="173.9844" id="de.unibremen.sfb.persistence.ProbeDAO" style="stroke: #A80036; stroke-width: 1.5;" width="281" x="6" y="152"/><ellipse cx="70.75" cy="170.9688" fill="#ADD1B2" rx="11" ry="11" style="stroke: #A80036; stroke-width: 1.0;"/><path d="M73.7188,176.6094 Q73.1406,176.9063 72.5,177.0469 Q71.8594,177.2031 71.1563,177.2031 Q68.6563,177.2031 67.3281,175.5625 Q66.0156,173.9063 66.0156,170.7813 Q66.0156,167.6563 67.3281,166 Q68.6563,164.3438 71.1563,164.3438 Q71.8594,164.3438 72.5,164.5 Q73.1563,164.6563 73.7188,164.9531 L73.7188,167.6719 Q73.0938,167.0938 72.5,166.8281 Q71.9063,166.5469 71.2813,166.5469 Q69.9375,166.5469 69.25,167.625 Q68.5625,168.6875 68.5625,170.7813 Q68.5625,172.875 69.25,173.9531 Q69.9375,175.0156 71.2813,175.0156 Q71.9063,175.0156 72.5,174.75 Q73.0938,174.4688 73.7188,173.8906 L73.7188,176.6094 Z "/><text fill="#000000" font-family="sans-serif" font-size="14" lengthAdjust="spacingAndGlyphs" textLength="72" x="126.75" y="169.9951">ProbeDAO</text><text fill="#000000" font-family="sans-serif" font-size="10" lengthAdjust="spacingAndGlyphs" textLength="143" x="91.25" y="182.5791">de.unibremen.sfb.persistence</text><line style="stroke: #A80036; stroke-width: 1.5;" x1="7" x2="286" y1="189.9375" y2="189.9375"/><ellipse cx="17" cy="200.9375" fill="#84BE84" rx="3" ry="3" style="stroke: #038048; stroke-width: 1.0;"/><text fill="#000000" font-family="sans-serif" font-size="11" lengthAdjust="spacingAndGlyphs" textLength="112" x="26" y="204.1479">persist(Probe): void</text><ellipse cx="17" cy="213.7422" fill="#84BE84" rx="3" ry="3" style="stroke: #038048; stroke-width: 1.0;"/><text fill="#000000" font-family="sans-serif" font-size="11" lengthAdjust="spacingAndGlyphs" textLength="111" x="26" y="216.9526">update(Probe): void</text><ellipse cx="17" cy="226.5469" fill="#84BE84" rx="3" ry="3" style="stroke: #038048; stroke-width: 1.0;"/><text fill="#000000" font-family="sans-serif" font-size="11" lengthAdjust="spacingAndGlyphs" textLength="115" x="26" y="229.7573">remove(Probe): void</text><ellipse cx="17" cy="239.3516" fill="#84BE84" rx="3" ry="3" style="stroke: #038048; stroke-width: 1.0;"/><text fill="#000000" font-family="sans-serif" font-size="11" lengthAdjust="spacingAndGlyphs" textLength="117" x="26" y="242.562">get(): Class&lt;Probe&gt;</text><ellipse cx="17" cy="252.1563" fill="#84BE84" rx="3" ry="3" style="stroke: #038048; stroke-width: 1.0;"/><text fill="#000000" font-family="sans-serif" font-size="11" lengthAdjust="spacingAndGlyphs" textLength="144" x="26" y="255.3667">getObjById(String): Probe</text><ellipse cx="17" cy="264.9609" fill="#84BE84" rx="3" ry="3" style="stroke: #038048; stroke-width: 1.0;"/><text fill="#000000" font-family="sans-serif" font-size="11" lengthAdjust="spacingAndGlyphs" textLength="255" x="26" y="268.1714">getProbenByLocation(Standort): List&lt;Probe&gt;</text><ellipse cx="17" cy="277.7656" fill="#84BE84" rx="3" ry="3" style="stroke: #038048; stroke-width: 1.0;"/><text fill="#000000" font-family="sans-serif" font-size="11" lengthAdjust="spacingAndGlyphs" textLength="249" x="26" y="280.9761">getProbenByTraeger(Traeger): List&lt;Probe&gt;</text><ellipse cx="17" cy="290.5703" fill="#84BE84" rx="3" ry="3" style="stroke: #038048; stroke-width: 1.0;"/><text fill="#000000" font-family="sans-serif" font-size="11" lengthAdjust="spacingAndGlyphs" textLength="121" x="26" y="293.7808">getProbenCount(): int</text><ellipse cx="17" cy="303.375" fill="#84BE84" rx="3" ry="3" style="stroke: #038048; stroke-width: 1.0;"/><text fill="#000000" font-family="sans-serif" font-size="11" lengthAdjust="spacingAndGlyphs" textLength="166" x="26" y="306.5854">getAllArchived(): List&lt;Probe&gt;</text><ellipse cx="17" cy="316.1797" fill="#84BE84" rx="3" ry="3" style="stroke: #038048; stroke-width: 1.0;"/><text fill="#000000" font-family="sans-serif" font-size="11" lengthAdjust="spacingAndGlyphs" textLength="118" x="26" y="319.3901">getAll(): List&lt;Probe&gt;</text></a><!--MD5=[b2d6b04f3aa6a06e16ff5fa7acfed0d5]
class de.unibremen.sfb.persistence.ObjectDAO--><a href="ObjectDAO.html" target="_top" title="ObjectDAO.html" xlink:actuate="onRequest" xlink:href="ObjectDAO.html" xlink:show="new" xlink:title="ObjectDAO.html" xlink:type="simple"><rect fill="#FEFECE" filter="url(#f1l5zgb953qn1u)" height="84.3516" id="de.unibremen.sfb.persistence.ObjectDAO" style="stroke: #A80036; stroke-width: 1.5;" width="218" x="37.5" y="8"/><ellipse cx="52.5" cy="26.9688" fill="#A9DCDF" rx="11" ry="11" style="stroke: #A80036; stroke-width: 1.0;"/><path d="M52.6094,22.3125 L51.4531,27.3906 L53.7813,27.3906 L52.6094,22.3125 Z M51.125,20.0781 L54.1094,20.0781 L57.4688,32.4688 L55.0156,32.4688 L54.25,29.4063 L50.9688,29.4063 L50.2188,32.4688 L47.7813,32.4688 L51.125,20.0781 Z "/><text fill="#000000" font-family="sans-serif" font-size="14" font-style="italic" lengthAdjust="spacingAndGlyphs" textLength="77" x="101" y="25.9951">ObjectDAO</text><text fill="#000000" font-family="sans-serif" font-size="10" font-style="italic" lengthAdjust="spacingAndGlyphs" textLength="146" x="66.5" y="38.5791">de.unibremen.sfb.persistence</text><rect fill="#FFFFFF" height="15.9688" style="stroke: #000000; stroke-width: 1.0; stroke-dasharray: 2.0,2.0;" width="38" x="220.5" y="5"/><text fill="#000000" font-family="sans-serif" font-size="12" font-style="italic" lengthAdjust="spacingAndGlyphs" textLength="36" x="221.5" y="17.1387">Probe</text><line style="stroke: #A80036; stroke-width: 1.5;" x1="38.5" x2="254.5" y1="45.9375" y2="45.9375"/><ellipse cx="48.5" cy="56.9375" fill="#84BE84" rx="3" ry="3" style="stroke: #038048; stroke-width: 1.0;"/><text fill="#000000" font-family="sans-serif" font-size="11" font-style="italic" lengthAdjust="spacingAndGlyphs" textLength="111" x="57.5" y="60.1479">persist(Probe): void</text><ellipse cx="48.5" cy="69.7422" fill="#84BE84" rx="3" ry="3" style="stroke: #038048; stroke-width: 1.0;"/><text fill="#000000" font-family="sans-serif" font-size="11" font-style="italic" lengthAdjust="spacingAndGlyphs" textLength="112" x="57.5" y="72.9526">update(Probe): void</text><ellipse cx="48.5" cy="82.5469" fill="#84BE84" rx="3" ry="3" style="stroke: #038048; stroke-width: 1.0;"/><text fill="#000000" font-family="sans-serif" font-size="11" font-style="italic" lengthAdjust="spacingAndGlyphs" textLength="117" x="57.5" y="85.7573">remove(Probe): void</text></a><!--MD5=[b591b6f1d22cde6f8509b15f9493cdf0]
reverse link de.unibremen.sfb.persistence.ObjectDAO to de.unibremen.sfb.persistence.ProbeDAO--><path d="M146.5,112.28 C146.5,124.93 146.5,138.47 146.5,151.81 " fill="none" id="de.unibremen.sfb.persistence.ObjectDAO&lt;-de.unibremen.sfb.persistence.ProbeDAO" style="stroke: #A80036; stroke-width: 1.0;"/><polygon fill="none" points="139.5,112.04,146.5,92.04,153.5,112.04,139.5,112.04" style="stroke: #A80036; stroke-width: 1.0;"/><text fill="#888888" font-family="sans-serif" font-size="10" lengthAdjust="spacingAndGlyphs" textLength="186" x="59.5" y="345.2822">UMLDoclet 2.0.7, PlantUML 1.2019.12</text><!--MD5=[28d44a8b842c8952c4b4d6bcf0d9d13c]
@startuml
    set namespaceSeparator none
    hide empty fields
    hide empty methods

    class "<size:14>ProbeDAO\n<size:10>de.unibremen.sfb.persistence" as de.unibremen.sfb.persistence.ProbeDAO [[ProbeDAO.html]] {
        +persist(Probe): void
        +update(Probe): void
        +remove(Probe): void
        +get(): Class<Probe>
        +getObjById(String): Probe
        +getProbenByLocation(Standort): List<Probe>
        +getProbenByTraeger(Traeger): List<Probe>
        +getProbenCount(): int
        +getAllArchived(): List<Probe>
        +getAll(): List<Probe>
    }

    abstract class "<size:14>ObjectDAO\n<size:10>de.unibremen.sfb.persistence" as de.unibremen.sfb.persistence.ObjectDAO<Probe> [[ObjectDAO.html]] {
        {abstract} +persist(Probe): void
        {abstract} +update(Probe): void
        {abstract} +remove(Probe): void
    }

    de.unibremen.sfb.persistence.ObjectDAO <|- - de.unibremen.sfb.persistence.ProbeDAO

    center footer UMLDoclet 2.0.7, PlantUML 1.2019.12
@enduml

PlantUML version 1.2019.12(Sun Nov 03 11:24:54 CET 2019)
(APACHE source distribution)
Java Runtime: OpenJDK Runtime Environment
JVM: OpenJDK 64-Bit Server VM
Java Version: 13.0.2+8
Operating System: Linux
Default Encoding: UTF-8
Language: de
Country: DE
--></g></svg>