<?xml version="1.0" encoding="UTF-8" standalone="no"?><svg xmlns="http://www.w3.org/2000/svg" xmlns:xlink="http://www.w3.org/1999/xlink" contentScriptType="application/ecmascript" contentStyleType="text/css" height="281px" preserveAspectRatio="none" style="width:312px;height:281px;" version="1.1" viewBox="0 0 312 281" width="312px" zoomAndPan="magnify"><defs><filter height="300%" id="f1i9fs6f215iwu" width="300%" x="-1" y="-1"><feGaussianBlur result="blurOut" stdDeviation="2.0"/><feColorMatrix in="blurOut" result="blurOut2" type="matrix" values="0 0 0 0 0 0 0 0 0 0 0 0 0 0 0 0 0 0 .4 0"/><feOffset dx="4.0" dy="4.0" in="blurOut2" result="blurOut3"/><feBlend in="SourceGraphic" in2="blurOut3" mode="normal"/></filter></defs><g><!--MD5=[abdaa49bb237e6c473f53a5c21b6dbbc]
class de.unibremen.sfb.persistence.ProzessSchrittLogDAO--><a href="ProzessSchrittLogDAO.html" target="_top" title="ProzessSchrittLogDAO.html" xlink:actuate="onRequest" xlink:href="ProzessSchrittLogDAO.html" xlink:show="new" xlink:title="ProzessSchrittLogDAO.html" xlink:type="simple"><rect fill="#FEFECE" filter="url(#f1i9fs6f215iwu)" height="97.1563" id="de.unibremen.sfb.persistence.ProzessSchrittLogDAO" style="stroke: #A80036; stroke-width: 1.5;" width="212" x="46" y="152"/><ellipse cx="71.8" cy="170.9688" fill="#ADD1B2" rx="11" ry="11" style="stroke: #A80036; stroke-width: 1.0;"/><path d="M74.7688,176.6094 Q74.1906,176.9063 73.55,177.0469 Q72.9094,177.2031 72.2063,177.2031 Q69.7063,177.2031 68.3781,175.5625 Q67.0656,173.9063 67.0656,170.7813 Q67.0656,167.6563 68.3781,166 Q69.7063,164.3438 72.2063,164.3438 Q72.9094,164.3438 73.55,164.5 Q74.2063,164.6563 74.7688,164.9531 L74.7688,167.6719 Q74.1438,167.0938 73.55,166.8281 Q72.9563,166.5469 72.3313,166.5469 Q70.9875,166.5469 70.3,167.625 Q69.6125,168.6875 69.6125,170.7813 Q69.6125,172.875 70.3,173.9531 Q70.9875,175.0156 72.3313,175.0156 Q72.9563,175.0156 73.55,174.75 Q74.1438,174.4688 74.7688,173.8906 L74.7688,176.6094 Z "/><text fill="#000000" font-family="sans-serif" font-size="14" lengthAdjust="spacingAndGlyphs" textLength="156" x="88.2" y="169.9951">ProzessSchrittLogDAO</text><text fill="#000000" font-family="sans-serif" font-size="10" lengthAdjust="spacingAndGlyphs" textLength="143" x="94.7" y="182.5791">de.unibremen.sfb.persistence</text><line style="stroke: #A80036; stroke-width: 1.5;" x1="47" x2="257" y1="189.9375" y2="189.9375"/><ellipse cx="57" cy="200.9375" fill="#84BE84" rx="3" ry="3" style="stroke: #038048; stroke-width: 1.0;"/><text fill="#000000" font-family="sans-serif" font-size="11" lengthAdjust="spacingAndGlyphs" textLength="181" x="66" y="204.1479">persist(ProzessSchrittLog): void</text><ellipse cx="57" cy="213.7422" fill="#84BE84" rx="3" ry="3" style="stroke: #038048; stroke-width: 1.0;"/><text fill="#000000" font-family="sans-serif" font-size="11" lengthAdjust="spacingAndGlyphs" textLength="180" x="66" y="216.9526">update(ProzessSchrittLog): void</text><ellipse cx="57" cy="226.5469" fill="#84BE84" rx="3" ry="3" style="stroke: #038048; stroke-width: 1.0;"/><text fill="#000000" font-family="sans-serif" font-size="11" lengthAdjust="spacingAndGlyphs" textLength="184" x="66" y="229.7573">remove(ProzessSchrittLog): void</text><ellipse cx="57" cy="239.3516" fill="#84BE84" rx="3" ry="3" style="stroke: #038048; stroke-width: 1.0;"/><text fill="#000000" font-family="sans-serif" font-size="11" lengthAdjust="spacingAndGlyphs" textLength="186" x="66" y="242.562">get(): Class&lt;ProzessSchrittLog&gt;</text></a><!--MD5=[b2d6b04f3aa6a06e16ff5fa7acfed0d5]
class de.unibremen.sfb.persistence.ObjectDAO--><a href="ObjectDAO.html" target="_top" title="ObjectDAO.html" xlink:actuate="onRequest" xlink:href="ObjectDAO.html" xlink:show="new" xlink:title="ObjectDAO.html" xlink:type="simple"><rect fill="#FEFECE" filter="url(#f1i9fs6f215iwu)" height="84.3516" id="de.unibremen.sfb.persistence.ObjectDAO" style="stroke: #A80036; stroke-width: 1.5;" width="292" x="6" y="8"/><ellipse cx="21" cy="26.9688" fill="#A9DCDF" rx="11" ry="11" style="stroke: #A80036; stroke-width: 1.0;"/><path d="M21.1094,22.3125 L19.9531,27.3906 L22.2813,27.3906 L21.1094,22.3125 Z M19.625,20.0781 L22.6094,20.0781 L25.9688,32.4688 L23.5156,32.4688 L22.75,29.4063 L19.4688,29.4063 L18.7188,32.4688 L16.2813,32.4688 L19.625,20.0781 Z "/><text fill="#000000" font-family="sans-serif" font-size="14" font-style="italic" lengthAdjust="spacingAndGlyphs" textLength="77" x="69.5" y="25.9951">ObjectDAO</text><text fill="#000000" font-family="sans-serif" font-size="10" font-style="italic" lengthAdjust="spacingAndGlyphs" textLength="146" x="35" y="38.5791">de.unibremen.sfb.persistence</text><rect fill="#FFFFFF" height="15.9688" style="stroke: #000000; stroke-width: 1.0; stroke-dasharray: 2.0,2.0;" width="112" x="189" y="5"/><text fill="#000000" font-family="sans-serif" font-size="12" font-style="italic" lengthAdjust="spacingAndGlyphs" textLength="110" x="190" y="17.1387">ProzessSchrittLog</text><line style="stroke: #A80036; stroke-width: 1.5;" x1="7" x2="297" y1="45.9375" y2="45.9375"/><ellipse cx="17" cy="56.9375" fill="#84BE84" rx="3" ry="3" style="stroke: #038048; stroke-width: 1.0;"/><text fill="#000000" font-family="sans-serif" font-size="11" font-style="italic" lengthAdjust="spacingAndGlyphs" textLength="178" x="26" y="60.1479">persist(ProzessSchrittLog): void</text><ellipse cx="17" cy="69.7422" fill="#84BE84" rx="3" ry="3" style="stroke: #038048; stroke-width: 1.0;"/><text fill="#000000" font-family="sans-serif" font-size="11" font-style="italic" lengthAdjust="spacingAndGlyphs" textLength="179" x="26" y="72.9526">update(ProzessSchrittLog): void</text><ellipse cx="17" cy="82.5469" fill="#84BE84" rx="3" ry="3" style="stroke: #038048; stroke-width: 1.0;"/><text fill="#000000" font-family="sans-serif" font-size="11" font-style="italic" lengthAdjust="spacingAndGlyphs" textLength="184" x="26" y="85.7573">remove(ProzessSchrittLog): void</text></a><!--MD5=[a5faa1d252b11754d5996673e9a234e5]
reverse link de.unibremen.sfb.persistence.ObjectDAO to de.unibremen.sfb.persistence.ProzessSchrittLogDAO--><path d="M152,112.82 C152,125.84 152,139.39 152,151.8 " fill="none" id="de.unibremen.sfb.persistence.ObjectDAO&lt;-de.unibremen.sfb.persistence.ProzessSchrittLogDAO" style="stroke: #A80036; stroke-width: 1.0;"/><polygon fill="none" points="145,112.37,152,92.37,159,112.37,145,112.37" style="stroke: #A80036; stroke-width: 1.0;"/><text fill="#888888" font-family="sans-serif" font-size="10" lengthAdjust="spacingAndGlyphs" textLength="186" x="65" y="268.2822">UMLDoclet 2.0.7, PlantUML 1.2019.12</text><!--MD5=[2ec7b3aeacf191e322c4d95a22317c74]
@startuml
    set namespaceSeparator none
    hide empty fields
    hide empty methods

    class "<size:14>ProzessSchrittLogDAO\n<size:10>de.unibremen.sfb.persistence" as de.unibremen.sfb.persistence.ProzessSchrittLogDAO [[ProzessSchrittLogDAO.html]] {
        +persist(ProzessSchrittLog): void
        +update(ProzessSchrittLog): void
        +remove(ProzessSchrittLog): void
        +get(): Class<ProzessSchrittLog>
    }

    abstract class "<size:14>ObjectDAO\n<size:10>de.unibremen.sfb.persistence" as de.unibremen.sfb.persistence.ObjectDAO<ProzessSchrittLog> [[ObjectDAO.html]] {
        {abstract} +persist(ProzessSchrittLog): void
        {abstract} +update(ProzessSchrittLog): void
        {abstract} +remove(ProzessSchrittLog): void
    }

    de.unibremen.sfb.persistence.ObjectDAO <|- - de.unibremen.sfb.persistence.ProzessSchrittLogDAO

    center footer UMLDoclet 2.0.7, PlantUML 1.2019.12
@enduml

PlantUML version 1.2019.12(Sun Nov 03 11:24:54 CET 2019)
(APACHE source distribution)
Java Runtime: OpenJDK Runtime Environment
JVM: OpenJDK 64-Bit Server VM
Java Version: 13.0.2+8
Operating System: Linux
Default Encoding: UTF-8
Language: de
Country: DE
--></g></svg>