<?xml version="1.0" encoding="UTF-8" standalone="no"?><svg xmlns="http://www.w3.org/2000/svg" xmlns:xlink="http://www.w3.org/1999/xlink" contentScriptType="application/ecmascript" contentStyleType="text/css" height="320px" preserveAspectRatio="none" style="width:289px;height:320px;" version="1.1" viewBox="0 0 289 320" width="289px" zoomAndPan="magnify"><defs><filter height="300%" id="fiwxo43pwgo6h" width="300%" x="-1" y="-1"><feGaussianBlur result="blurOut" stdDeviation="2.0"/><feColorMatrix in="blurOut" result="blurOut2" type="matrix" values="0 0 0 0 0 0 0 0 0 0 0 0 0 0 0 0 0 0 .4 0"/><feOffset dx="4.0" dy="4.0" in="blurOut2" result="blurOut3"/><feBlend in="SourceGraphic" in2="blurOut3" mode="normal"/></filter></defs><g><!--MD5=[d4bd573e977ca24561317dda7fa08cc9]
class de.unibremen.sfb.persistence.ProzessSchrittDAO--><a href="ProzessSchrittDAO.html" target="_top" title="ProzessSchrittDAO.html" xlink:actuate="onRequest" xlink:href="ProzessSchrittDAO.html" xlink:show="new" xlink:title="ProzessSchrittDAO.html" xlink:type="simple"><rect fill="#FEFECE" filter="url(#fiwxo43pwgo6h)" height="135.5703" id="de.unibremen.sfb.persistence.ProzessSchrittDAO" style="stroke: #A80036; stroke-width: 1.5;" width="243" x="19" y="152"/><ellipse cx="64.75" cy="170.9688" fill="#ADD1B2" rx="11" ry="11" style="stroke: #A80036; stroke-width: 1.0;"/><path d="M67.7188,176.6094 Q67.1406,176.9063 66.5,177.0469 Q65.8594,177.2031 65.1563,177.2031 Q62.6563,177.2031 61.3281,175.5625 Q60.0156,173.9063 60.0156,170.7813 Q60.0156,167.6563 61.3281,166 Q62.6563,164.3438 65.1563,164.3438 Q65.8594,164.3438 66.5,164.5 Q67.1563,164.6563 67.7188,164.9531 L67.7188,167.6719 Q67.0938,167.0938 66.5,166.8281 Q65.9063,166.5469 65.2813,166.5469 Q63.9375,166.5469 63.25,167.625 Q62.5625,168.6875 62.5625,170.7813 Q62.5625,172.875 63.25,173.9531 Q63.9375,175.0156 65.2813,175.0156 Q65.9063,175.0156 66.5,174.75 Q67.0938,174.4688 67.7188,173.8906 L67.7188,176.6094 Z "/><text fill="#000000" font-family="sans-serif" font-size="14" lengthAdjust="spacingAndGlyphs" textLength="131" x="91.25" y="169.9951">ProzessSchrittDAO</text><text fill="#000000" font-family="sans-serif" font-size="10" lengthAdjust="spacingAndGlyphs" textLength="143" x="85.25" y="182.5791">de.unibremen.sfb.persistence</text><line style="stroke: #A80036; stroke-width: 1.5;" x1="20" x2="261" y1="189.9375" y2="189.9375"/><ellipse cx="30" cy="200.9375" fill="#84BE84" rx="3" ry="3" style="stroke: #038048; stroke-width: 1.0;"/><text fill="#000000" font-family="sans-serif" font-size="11" lengthAdjust="spacingAndGlyphs" textLength="161" x="39" y="204.1479">persist(ProzessSchritt): void</text><ellipse cx="30" cy="213.7422" fill="#84BE84" rx="3" ry="3" style="stroke: #038048; stroke-width: 1.0;"/><text fill="#000000" font-family="sans-serif" font-size="11" lengthAdjust="spacingAndGlyphs" textLength="160" x="39" y="216.9526">update(ProzessSchritt): void</text><ellipse cx="30" cy="226.5469" fill="#84BE84" rx="3" ry="3" style="stroke: #038048; stroke-width: 1.0;"/><text fill="#000000" font-family="sans-serif" font-size="11" lengthAdjust="spacingAndGlyphs" textLength="164" x="39" y="229.7573">remove(ProzessSchritt): void</text><ellipse cx="30" cy="239.3516" fill="#84BE84" rx="3" ry="3" style="stroke: #038048; stroke-width: 1.0;"/><text fill="#000000" font-family="sans-serif" font-size="11" lengthAdjust="spacingAndGlyphs" textLength="166" x="39" y="242.562">get(): Class&lt;ProzessSchritt&gt;</text><ellipse cx="30" cy="252.1563" fill="#84BE84" rx="3" ry="3" style="stroke: #038048; stroke-width: 1.0;"/><text fill="#000000" font-family="sans-serif" font-size="11" lengthAdjust="spacingAndGlyphs" textLength="173" x="39" y="255.3667">getObjById(int): ProzessSchritt</text><ellipse cx="30" cy="264.9609" fill="#84BE84" rx="3" ry="3" style="stroke: #038048; stroke-width: 1.0;"/><text fill="#000000" font-family="sans-serif" font-size="11" lengthAdjust="spacingAndGlyphs" textLength="167" x="39" y="268.1714">getAll(): List&lt;ProzessSchritt&gt;</text><ellipse cx="30" cy="277.7656" fill="#84BE84" rx="3" ry="3" style="stroke: #038048; stroke-width: 1.0;"/><text fill="#000000" font-family="sans-serif" font-size="11" lengthAdjust="spacingAndGlyphs" textLength="217" x="39" y="280.9761">getAllAvailable(): List&lt;ProzessSchritt&gt;</text></a><!--MD5=[b2d6b04f3aa6a06e16ff5fa7acfed0d5]
class de.unibremen.sfb.persistence.ObjectDAO--><a href="ObjectDAO.html" target="_top" title="ObjectDAO.html" xlink:actuate="onRequest" xlink:href="ObjectDAO.html" xlink:show="new" xlink:title="ObjectDAO.html" xlink:type="simple"><rect fill="#FEFECE" filter="url(#fiwxo43pwgo6h)" height="84.3516" id="de.unibremen.sfb.persistence.ObjectDAO" style="stroke: #A80036; stroke-width: 1.5;" width="269" x="6" y="8"/><ellipse cx="21" cy="26.9688" fill="#A9DCDF" rx="11" ry="11" style="stroke: #A80036; stroke-width: 1.0;"/><path d="M21.1094,22.3125 L19.9531,27.3906 L22.2813,27.3906 L21.1094,22.3125 Z M19.625,20.0781 L22.6094,20.0781 L25.9688,32.4688 L23.5156,32.4688 L22.75,29.4063 L19.4688,29.4063 L18.7188,32.4688 L16.2813,32.4688 L19.625,20.0781 Z "/><text fill="#000000" font-family="sans-serif" font-size="14" font-style="italic" lengthAdjust="spacingAndGlyphs" textLength="77" x="69.5" y="25.9951">ObjectDAO</text><text fill="#000000" font-family="sans-serif" font-size="10" font-style="italic" lengthAdjust="spacingAndGlyphs" textLength="146" x="35" y="38.5791">de.unibremen.sfb.persistence</text><rect fill="#FFFFFF" height="15.9688" style="stroke: #000000; stroke-width: 1.0; stroke-dasharray: 2.0,2.0;" width="89" x="189" y="5"/><text fill="#000000" font-family="sans-serif" font-size="12" font-style="italic" lengthAdjust="spacingAndGlyphs" textLength="87" x="190" y="17.1387">ProzessSchritt</text><line style="stroke: #A80036; stroke-width: 1.5;" x1="7" x2="274" y1="45.9375" y2="45.9375"/><ellipse cx="17" cy="56.9375" fill="#84BE84" rx="3" ry="3" style="stroke: #038048; stroke-width: 1.0;"/><text fill="#000000" font-family="sans-serif" font-size="11" font-style="italic" lengthAdjust="spacingAndGlyphs" textLength="158" x="26" y="60.1479">persist(ProzessSchritt): void</text><ellipse cx="17" cy="69.7422" fill="#84BE84" rx="3" ry="3" style="stroke: #038048; stroke-width: 1.0;"/><text fill="#000000" font-family="sans-serif" font-size="11" font-style="italic" lengthAdjust="spacingAndGlyphs" textLength="159" x="26" y="72.9526">update(ProzessSchritt): void</text><ellipse cx="17" cy="82.5469" fill="#84BE84" rx="3" ry="3" style="stroke: #038048; stroke-width: 1.0;"/><text fill="#000000" font-family="sans-serif" font-size="11" font-style="italic" lengthAdjust="spacingAndGlyphs" textLength="164" x="26" y="85.7573">remove(ProzessSchritt): void</text></a><!--MD5=[a7359beab19c6ce54e42f9f2915304da]
reverse link de.unibremen.sfb.persistence.ObjectDAO to de.unibremen.sfb.persistence.ProzessSchrittDAO--><path d="M140.5,112.16 C140.5,125.06 140.5,138.72 140.5,151.82 " fill="none" id="de.unibremen.sfb.persistence.ObjectDAO&lt;-de.unibremen.sfb.persistence.ProzessSchrittDAO" style="stroke: #A80036; stroke-width: 1.0;"/><polygon fill="none" points="133.5,112.1,140.5,92.1,147.5,112.1,133.5,112.1" style="stroke: #A80036; stroke-width: 1.0;"/><text fill="#888888" font-family="sans-serif" font-size="10" lengthAdjust="spacingAndGlyphs" textLength="186" x="53.5" y="307.2822">UMLDoclet 2.0.7, PlantUML 1.2019.12</text><!--MD5=[95edfefb0c33c8aa38c82b5553cd4844]
@startuml
    set namespaceSeparator none
    hide empty fields
    hide empty methods

    class "<size:14>ProzessSchrittDAO\n<size:10>de.unibremen.sfb.persistence" as de.unibremen.sfb.persistence.ProzessSchrittDAO [[ProzessSchrittDAO.html]] {
        +persist(ProzessSchritt): void
        +update(ProzessSchritt): void
        +remove(ProzessSchritt): void
        +get(): Class<ProzessSchritt>
        +getObjById(int): ProzessSchritt
        +getAll(): List<ProzessSchritt>
        +getAllAvailable(): List<ProzessSchritt>
    }

    abstract class "<size:14>ObjectDAO\n<size:10>de.unibremen.sfb.persistence" as de.unibremen.sfb.persistence.ObjectDAO<ProzessSchritt> [[ObjectDAO.html]] {
        {abstract} +persist(ProzessSchritt): void
        {abstract} +update(ProzessSchritt): void
        {abstract} +remove(ProzessSchritt): void
    }

    de.unibremen.sfb.persistence.ObjectDAO <|- - de.unibremen.sfb.persistence.ProzessSchrittDAO

    center footer UMLDoclet 2.0.7, PlantUML 1.2019.12
@enduml

PlantUML version 1.2019.12(Sun Nov 03 11:24:54 CET 2019)
(APACHE source distribution)
Java Runtime: OpenJDK Runtime Environment
JVM: OpenJDK 64-Bit Server VM
Java Version: 13.0.2+8
Operating System: Linux
Default Encoding: UTF-8
Language: de
Country: DE
--></g></svg>