<?xml version="1.0" encoding="UTF-8" standalone="no"?><svg xmlns="http://www.w3.org/2000/svg" xmlns:xlink="http://www.w3.org/1999/xlink" contentScriptType="application/ecmascript" contentStyleType="text/css" height="320px" preserveAspectRatio="none" style="width:277px;height:320px;" version="1.1" viewBox="0 0 277 320" width="277px" zoomAndPan="magnify"><defs><filter height="300%" id="fdime7mgr3irh" width="300%" x="-1" y="-1"><feGaussianBlur result="blurOut" stdDeviation="2.0"/><feColorMatrix in="blurOut" result="blurOut2" type="matrix" values="0 0 0 0 0 0 0 0 0 0 0 0 0 0 0 0 0 0 .4 0"/><feOffset dx="4.0" dy="4.0" in="blurOut2" result="blurOut3"/><feBlend in="SourceGraphic" in2="blurOut3" mode="normal"/></filter></defs><g><!--MD5=[62b2aebd0b0108ad75d709747718ee38]
class de.unibremen.sfb.persistence.RoleDao--><a href="RoleDao.html" target="_top" title="RoleDao.html" xlink:actuate="onRequest" xlink:href="RoleDao.html" xlink:show="new" xlink:title="RoleDao.html" xlink:type="simple"><rect fill="#FEFECE" filter="url(#fdime7mgr3irh)" height="135.5703" id="de.unibremen.sfb.persistence.RoleDao" style="stroke: #A80036; stroke-width: 1.5;" width="260" x="6" y="152"/><ellipse cx="60.25" cy="170.9688" fill="#ADD1B2" rx="11" ry="11" style="stroke: #A80036; stroke-width: 1.0;"/><path d="M63.2188,176.6094 Q62.6406,176.9063 62,177.0469 Q61.3594,177.2031 60.6563,177.2031 Q58.1563,177.2031 56.8281,175.5625 Q55.5156,173.9063 55.5156,170.7813 Q55.5156,167.6563 56.8281,166 Q58.1563,164.3438 60.6563,164.3438 Q61.3594,164.3438 62,164.5 Q62.6563,164.6563 63.2188,164.9531 L63.2188,167.6719 Q62.5938,167.0938 62,166.8281 Q61.4063,166.5469 60.7813,166.5469 Q59.4375,166.5469 58.75,167.625 Q58.0625,168.6875 58.0625,170.7813 Q58.0625,172.875 58.75,173.9531 Q59.4375,175.0156 60.7813,175.0156 Q61.4063,175.0156 62,174.75 Q62.5938,174.4688 63.2188,173.8906 L63.2188,176.6094 Z "/><text fill="#000000" font-family="sans-serif" font-size="14" lengthAdjust="spacingAndGlyphs" textLength="59" x="122.75" y="169.9951">RoleDao</text><text fill="#000000" font-family="sans-serif" font-size="10" lengthAdjust="spacingAndGlyphs" textLength="143" x="80.75" y="182.5791">de.unibremen.sfb.persistence</text><line style="stroke: #A80036; stroke-width: 1.5;" x1="7" x2="265" y1="189.9375" y2="189.9375"/><ellipse cx="17" cy="200.9375" fill="#84BE84" rx="3" ry="3" style="stroke: #038048; stroke-width: 1.0;"/><text fill="#000000" font-family="sans-serif" font-size="11" lengthAdjust="spacingAndGlyphs" textLength="103" x="26" y="204.1479">persist(Role): void</text><ellipse cx="17" cy="213.7422" fill="#84BE84" rx="3" ry="3" style="stroke: #038048; stroke-width: 1.0;"/><text fill="#000000" font-family="sans-serif" font-size="11" lengthAdjust="spacingAndGlyphs" textLength="102" x="26" y="216.9526">update(Role): void</text><ellipse cx="17" cy="226.5469" fill="#84BE84" rx="3" ry="3" style="stroke: #038048; stroke-width: 1.0;"/><text fill="#000000" font-family="sans-serif" font-size="11" lengthAdjust="spacingAndGlyphs" textLength="106" x="26" y="229.7573">remove(Role): void</text><ellipse cx="17" cy="239.3516" fill="#84BE84" rx="3" ry="3" style="stroke: #038048; stroke-width: 1.0;"/><text fill="#000000" font-family="sans-serif" font-size="11" lengthAdjust="spacingAndGlyphs" textLength="108" x="26" y="242.562">get(): Class&lt;Role&gt;</text><ellipse cx="17" cy="252.1563" fill="#84BE84" rx="3" ry="3" style="stroke: #038048; stroke-width: 1.0;"/><text fill="#000000" font-family="sans-serif" font-size="11" lengthAdjust="spacingAndGlyphs" textLength="109" x="26" y="255.3667">getAll(): List&lt;Role&gt;</text><ellipse cx="17" cy="264.9609" fill="#84BE84" rx="3" ry="3" style="stroke: #038048; stroke-width: 1.0;"/><text fill="#000000" font-family="sans-serif" font-size="11" lengthAdjust="spacingAndGlyphs" textLength="174" x="26" y="268.1714">getObjByID(String): List&lt;Role&gt;</text><ellipse cx="17" cy="277.7656" fill="#84BE84" rx="3" ry="3" style="stroke: #038048; stroke-width: 1.0;"/><text fill="#000000" font-family="sans-serif" font-size="11" lengthAdjust="spacingAndGlyphs" textLength="234" x="26" y="280.9761">getRolesByUsername(String): List&lt;Role&gt;</text></a><!--MD5=[b2d6b04f3aa6a06e16ff5fa7acfed0d5]
class de.unibremen.sfb.persistence.ObjectDAO--><a href="ObjectDAO.html" target="_top" title="ObjectDAO.html" xlink:actuate="onRequest" xlink:href="ObjectDAO.html" xlink:show="new" xlink:title="ObjectDAO.html" xlink:type="simple"><rect fill="#FEFECE" filter="url(#fdime7mgr3irh)" height="84.3516" id="de.unibremen.sfb.persistence.ObjectDAO" style="stroke: #A80036; stroke-width: 1.5;" width="209" x="31.5" y="8"/><ellipse cx="46.5" cy="26.9688" fill="#A9DCDF" rx="11" ry="11" style="stroke: #A80036; stroke-width: 1.0;"/><path d="M46.6094,22.3125 L45.4531,27.3906 L47.7813,27.3906 L46.6094,22.3125 Z M45.125,20.0781 L48.1094,20.0781 L51.4688,32.4688 L49.0156,32.4688 L48.25,29.4063 L44.9688,29.4063 L44.2188,32.4688 L41.7813,32.4688 L45.125,20.0781 Z "/><text fill="#000000" font-family="sans-serif" font-size="14" font-style="italic" lengthAdjust="spacingAndGlyphs" textLength="77" x="95" y="25.9951">ObjectDAO</text><text fill="#000000" font-family="sans-serif" font-size="10" font-style="italic" lengthAdjust="spacingAndGlyphs" textLength="146" x="60.5" y="38.5791">de.unibremen.sfb.persistence</text><rect fill="#FFFFFF" height="15.9688" style="stroke: #000000; stroke-width: 1.0; stroke-dasharray: 2.0,2.0;" width="29" x="214.5" y="5"/><text fill="#000000" font-family="sans-serif" font-size="12" font-style="italic" lengthAdjust="spacingAndGlyphs" textLength="27" x="215.5" y="17.1387">Role</text><line style="stroke: #A80036; stroke-width: 1.5;" x1="32.5" x2="239.5" y1="45.9375" y2="45.9375"/><ellipse cx="42.5" cy="56.9375" fill="#84BE84" rx="3" ry="3" style="stroke: #038048; stroke-width: 1.0;"/><text fill="#000000" font-family="sans-serif" font-size="11" font-style="italic" lengthAdjust="spacingAndGlyphs" textLength="103" x="51.5" y="60.1479">persist(Role): void</text><ellipse cx="42.5" cy="69.7422" fill="#84BE84" rx="3" ry="3" style="stroke: #038048; stroke-width: 1.0;"/><text fill="#000000" font-family="sans-serif" font-size="11" font-style="italic" lengthAdjust="spacingAndGlyphs" textLength="104" x="51.5" y="72.9526">update(Role): void</text><ellipse cx="42.5" cy="82.5469" fill="#84BE84" rx="3" ry="3" style="stroke: #038048; stroke-width: 1.0;"/><text fill="#000000" font-family="sans-serif" font-size="11" font-style="italic" lengthAdjust="spacingAndGlyphs" textLength="109" x="51.5" y="85.7573">remove(Role): void</text></a><!--MD5=[0f044417c667be361890c9b3979c9427]
reverse link de.unibremen.sfb.persistence.ObjectDAO to de.unibremen.sfb.persistence.RoleDao--><path d="M136,112.16 C136,125.06 136,138.72 136,151.82 " fill="none" id="de.unibremen.sfb.persistence.ObjectDAO&lt;-de.unibremen.sfb.persistence.RoleDao" style="stroke: #A80036; stroke-width: 1.0;"/><polygon fill="none" points="129,112.1,136,92.1,143,112.1,129,112.1" style="stroke: #A80036; stroke-width: 1.0;"/><text fill="#888888" font-family="sans-serif" font-size="10" lengthAdjust="spacingAndGlyphs" textLength="186" x="49" y="307.2822">UMLDoclet 2.0.7, PlantUML 1.2019.12</text><!--MD5=[30ebd2a5ea0c09c34424a6ab0b53c3b4]
@startuml
    set namespaceSeparator none
    hide empty fields
    hide empty methods

    class "<size:14>RoleDao\n<size:10>de.unibremen.sfb.persistence" as de.unibremen.sfb.persistence.RoleDao [[RoleDao.html]] {
        +persist(Role): void
        +update(Role): void
        +remove(Role): void
        +get(): Class<Role>
        +getAll(): List<Role>
        +getObjByID(String): List<Role>
        +getRolesByUsername(String): List<Role>
    }

    abstract class "<size:14>ObjectDAO\n<size:10>de.unibremen.sfb.persistence" as de.unibremen.sfb.persistence.ObjectDAO<Role> [[ObjectDAO.html]] {
        {abstract} +persist(Role): void
        {abstract} +update(Role): void
        {abstract} +remove(Role): void
    }

    de.unibremen.sfb.persistence.ObjectDAO <|- - de.unibremen.sfb.persistence.RoleDao

    center footer UMLDoclet 2.0.7, PlantUML 1.2019.12
@enduml

PlantUML version 1.2019.12(Sun Nov 03 11:24:54 CET 2019)
(APACHE source distribution)
Java Runtime: OpenJDK Runtime Environment
JVM: OpenJDK 64-Bit Server VM
Java Version: 13.0.2+8
Operating System: Linux
Default Encoding: UTF-8
Language: de
Country: DE
--></g></svg>