<?xml version="1.0" encoding="UTF-8" standalone="no"?><svg xmlns="http://www.w3.org/2000/svg" xmlns:xlink="http://www.w3.org/1999/xlink" contentScriptType="application/ecmascript" contentStyleType="text/css" height="320px" preserveAspectRatio="none" style="width:257px;height:320px;" version="1.1" viewBox="0 0 257 320" width="257px" zoomAndPan="magnify"><defs><filter height="300%" id="f1t5wdsqkzau6w" width="300%" x="-1" y="-1"><feGaussianBlur result="blurOut" stdDeviation="2.0"/><feColorMatrix in="blurOut" result="blurOut2" type="matrix" values="0 0 0 0 0 0 0 0 0 0 0 0 0 0 0 0 0 0 .4 0"/><feOffset dx="4.0" dy="4.0" in="blurOut2" result="blurOut3"/><feBlend in="SourceGraphic" in2="blurOut3" mode="normal"/></filter></defs><g><!--MD5=[d3e1f336cacb1b182adccb8049a53f55]
class de.unibremen.sfb.persistence.StandortDAO--><a href="StandortDAO.html" target="_top" title="StandortDAO.html" xlink:actuate="onRequest" xlink:href="StandortDAO.html" xlink:show="new" xlink:title="StandortDAO.html" xlink:type="simple"><rect fill="#FEFECE" filter="url(#f1t5wdsqkzau6w)" height="135.5703" id="de.unibremen.sfb.persistence.StandortDAO" style="stroke: #A80036; stroke-width: 1.5;" width="175" x="37" y="152"/><ellipse cx="52" cy="170.9688" fill="#ADD1B2" rx="11" ry="11" style="stroke: #A80036; stroke-width: 1.0;"/><path d="M54.9688,176.6094 Q54.3906,176.9063 53.75,177.0469 Q53.1094,177.2031 52.4063,177.2031 Q49.9063,177.2031 48.5781,175.5625 Q47.2656,173.9063 47.2656,170.7813 Q47.2656,167.6563 48.5781,166 Q49.9063,164.3438 52.4063,164.3438 Q53.1094,164.3438 53.75,164.5 Q54.4063,164.6563 54.9688,164.9531 L54.9688,167.6719 Q54.3438,167.0938 53.75,166.8281 Q53.1563,166.5469 52.5313,166.5469 Q51.1875,166.5469 50.5,167.625 Q49.8125,168.6875 49.8125,170.7813 Q49.8125,172.875 50.5,173.9531 Q51.1875,175.0156 52.5313,175.0156 Q53.1563,175.0156 53.75,174.75 Q54.3438,174.4688 54.9688,173.8906 L54.9688,176.6094 Z "/><text fill="#000000" font-family="sans-serif" font-size="14" lengthAdjust="spacingAndGlyphs" textLength="90" x="92.5" y="169.9951">StandortDAO</text><text fill="#000000" font-family="sans-serif" font-size="10" lengthAdjust="spacingAndGlyphs" textLength="143" x="66" y="182.5791">de.unibremen.sfb.persistence</text><line style="stroke: #A80036; stroke-width: 1.5;" x1="38" x2="211" y1="189.9375" y2="189.9375"/><ellipse cx="48" cy="200.9375" fill="#84BE84" rx="3" ry="3" style="stroke: #038048; stroke-width: 1.0;"/><text fill="#000000" font-family="sans-serif" font-size="11" lengthAdjust="spacingAndGlyphs" textLength="128" x="57" y="204.1479">persist(Standort): void</text><ellipse cx="48" cy="213.7422" fill="#84BE84" rx="3" ry="3" style="stroke: #038048; stroke-width: 1.0;"/><text fill="#000000" font-family="sans-serif" font-size="11" lengthAdjust="spacingAndGlyphs" textLength="127" x="57" y="216.9526">update(Standort): void</text><ellipse cx="48" cy="226.5469" fill="#84BE84" rx="3" ry="3" style="stroke: #038048; stroke-width: 1.0;"/><text fill="#000000" font-family="sans-serif" font-size="11" lengthAdjust="spacingAndGlyphs" textLength="131" x="57" y="229.7573">remove(Standort): void</text><ellipse cx="48" cy="239.3516" fill="#84BE84" rx="3" ry="3" style="stroke: #038048; stroke-width: 1.0;"/><text fill="#000000" font-family="sans-serif" font-size="11" lengthAdjust="spacingAndGlyphs" textLength="133" x="57" y="242.562">get(): Class&lt;Standort&gt;</text><ellipse cx="48" cy="252.1563" fill="#84BE84" rx="3" ry="3" style="stroke: #038048; stroke-width: 1.0;"/><text fill="#000000" font-family="sans-serif" font-size="11" lengthAdjust="spacingAndGlyphs" textLength="140" x="57" y="255.3667">getObjById(int): Standort</text><ellipse cx="48" cy="264.9609" fill="#84BE84" rx="3" ry="3" style="stroke: #038048; stroke-width: 1.0;"/><text fill="#000000" font-family="sans-serif" font-size="11" lengthAdjust="spacingAndGlyphs" textLength="149" x="57" y="268.1714">getByOrt(String): Standort</text><ellipse cx="48" cy="277.7656" fill="#84BE84" rx="3" ry="3" style="stroke: #038048; stroke-width: 1.0;"/><text fill="#000000" font-family="sans-serif" font-size="11" lengthAdjust="spacingAndGlyphs" textLength="134" x="57" y="280.9761">getAll(): List&lt;Standort&gt;</text></a><!--MD5=[b2d6b04f3aa6a06e16ff5fa7acfed0d5]
class de.unibremen.sfb.persistence.ObjectDAO--><a href="ObjectDAO.html" target="_top" title="ObjectDAO.html" xlink:actuate="onRequest" xlink:href="ObjectDAO.html" xlink:show="new" xlink:title="ObjectDAO.html" xlink:type="simple"><rect fill="#FEFECE" filter="url(#f1t5wdsqkzau6w)" height="84.3516" id="de.unibremen.sfb.persistence.ObjectDAO" style="stroke: #A80036; stroke-width: 1.5;" width="237" x="6" y="8"/><ellipse cx="21" cy="26.9688" fill="#A9DCDF" rx="11" ry="11" style="stroke: #A80036; stroke-width: 1.0;"/><path d="M21.1094,22.3125 L19.9531,27.3906 L22.2813,27.3906 L21.1094,22.3125 Z M19.625,20.0781 L22.6094,20.0781 L25.9688,32.4688 L23.5156,32.4688 L22.75,29.4063 L19.4688,29.4063 L18.7188,32.4688 L16.2813,32.4688 L19.625,20.0781 Z "/><text fill="#000000" font-family="sans-serif" font-size="14" font-style="italic" lengthAdjust="spacingAndGlyphs" textLength="77" x="69.5" y="25.9951">ObjectDAO</text><text fill="#000000" font-family="sans-serif" font-size="10" font-style="italic" lengthAdjust="spacingAndGlyphs" textLength="146" x="35" y="38.5791">de.unibremen.sfb.persistence</text><rect fill="#FFFFFF" height="15.9688" style="stroke: #000000; stroke-width: 1.0; stroke-dasharray: 2.0,2.0;" width="57" x="189" y="5"/><text fill="#000000" font-family="sans-serif" font-size="12" font-style="italic" lengthAdjust="spacingAndGlyphs" textLength="55" x="190" y="17.1387">Standort</text><line style="stroke: #A80036; stroke-width: 1.5;" x1="7" x2="242" y1="45.9375" y2="45.9375"/><ellipse cx="17" cy="56.9375" fill="#84BE84" rx="3" ry="3" style="stroke: #038048; stroke-width: 1.0;"/><text fill="#000000" font-family="sans-serif" font-size="11" font-style="italic" lengthAdjust="spacingAndGlyphs" textLength="126" x="26" y="60.1479">persist(Standort): void</text><ellipse cx="17" cy="69.7422" fill="#84BE84" rx="3" ry="3" style="stroke: #038048; stroke-width: 1.0;"/><text fill="#000000" font-family="sans-serif" font-size="11" font-style="italic" lengthAdjust="spacingAndGlyphs" textLength="127" x="26" y="72.9526">update(Standort): void</text><ellipse cx="17" cy="82.5469" fill="#84BE84" rx="3" ry="3" style="stroke: #038048; stroke-width: 1.0;"/><text fill="#000000" font-family="sans-serif" font-size="11" font-style="italic" lengthAdjust="spacingAndGlyphs" textLength="132" x="26" y="85.7573">remove(Standort): void</text></a><!--MD5=[a77403d8016698d9df9993742165b650]
reverse link de.unibremen.sfb.persistence.ObjectDAO to de.unibremen.sfb.persistence.StandortDAO--><path d="M124.5,112.16 C124.5,125.06 124.5,138.72 124.5,151.82 " fill="none" id="de.unibremen.sfb.persistence.ObjectDAO&lt;-de.unibremen.sfb.persistence.StandortDAO" style="stroke: #A80036; stroke-width: 1.0;"/><polygon fill="none" points="117.5,112.1,124.5,92.1,131.5,112.1,117.5,112.1" style="stroke: #A80036; stroke-width: 1.0;"/><text fill="#888888" font-family="sans-serif" font-size="10" lengthAdjust="spacingAndGlyphs" textLength="186" x="37.5" y="307.2822">UMLDoclet 2.0.7, PlantUML 1.2019.12</text><!--MD5=[54083df8426787d8e0ab572741b0c729]
@startuml
    set namespaceSeparator none
    hide empty fields
    hide empty methods

    class "<size:14>StandortDAO\n<size:10>de.unibremen.sfb.persistence" as de.unibremen.sfb.persistence.StandortDAO [[StandortDAO.html]] {
        +persist(Standort): void
        +update(Standort): void
        +remove(Standort): void
        +get(): Class<Standort>
        +getObjById(int): Standort
        +getByOrt(String): Standort
        +getAll(): List<Standort>
    }

    abstract class "<size:14>ObjectDAO\n<size:10>de.unibremen.sfb.persistence" as de.unibremen.sfb.persistence.ObjectDAO<Standort> [[ObjectDAO.html]] {
        {abstract} +persist(Standort): void
        {abstract} +update(Standort): void
        {abstract} +remove(Standort): void
    }

    de.unibremen.sfb.persistence.ObjectDAO <|- - de.unibremen.sfb.persistence.StandortDAO

    center footer UMLDoclet 2.0.7, PlantUML 1.2019.12
@enduml

PlantUML version 1.2019.12(Sun Nov 03 11:24:54 CET 2019)
(APACHE source distribution)
Java Runtime: OpenJDK Runtime Environment
JVM: OpenJDK 64-Bit Server VM
Java Version: 13.0.2+8
Operating System: Linux
Default Encoding: UTF-8
Language: de
Country: DE
--></g></svg>