<?xml version="1.0" encoding="UTF-8" standalone="no"?><svg xmlns="http://www.w3.org/2000/svg" xmlns:xlink="http://www.w3.org/1999/xlink" contentScriptType="application/ecmascript" contentStyleType="text/css" height="307px" preserveAspectRatio="none" style="width:251px;height:307px;" version="1.1" viewBox="0 0 251 307" width="251px" zoomAndPan="magnify"><defs><filter height="300%" id="f1ledi5n85dikr" width="300%" x="-1" y="-1"><feGaussianBlur result="blurOut" stdDeviation="2.0"/><feColorMatrix in="blurOut" result="blurOut2" type="matrix" values="0 0 0 0 0 0 0 0 0 0 0 0 0 0 0 0 0 0 .4 0"/><feOffset dx="4.0" dy="4.0" in="blurOut2" result="blurOut3"/><feBlend in="SourceGraphic" in2="blurOut3" mode="normal"/></filter></defs><g><!--MD5=[ba7caf9ca4a00888c0f2dcbac66d3176]
class de.unibremen.sfb.persistence.TraegerDAO--><a href="TraegerDAO.html" target="_top" title="TraegerDAO.html" xlink:actuate="onRequest" xlink:href="TraegerDAO.html" xlink:show="new" xlink:title="TraegerDAO.html" xlink:type="simple"><rect fill="#FEFECE" filter="url(#f1ledi5n85dikr)" height="122.7656" id="de.unibremen.sfb.persistence.TraegerDAO" style="stroke: #A80036; stroke-width: 1.5;" width="175" x="34" y="152"/><ellipse cx="49" cy="170.9688" fill="#ADD1B2" rx="11" ry="11" style="stroke: #A80036; stroke-width: 1.0;"/><path d="M51.9688,176.6094 Q51.3906,176.9063 50.75,177.0469 Q50.1094,177.2031 49.4063,177.2031 Q46.9063,177.2031 45.5781,175.5625 Q44.2656,173.9063 44.2656,170.7813 Q44.2656,167.6563 45.5781,166 Q46.9063,164.3438 49.4063,164.3438 Q50.1094,164.3438 50.75,164.5 Q51.4063,164.6563 51.9688,164.9531 L51.9688,167.6719 Q51.3438,167.0938 50.75,166.8281 Q50.1563,166.5469 49.5313,166.5469 Q48.1875,166.5469 47.5,167.625 Q46.8125,168.6875 46.8125,170.7813 Q46.8125,172.875 47.5,173.9531 Q48.1875,175.0156 49.5313,175.0156 Q50.1563,175.0156 50.75,174.75 Q51.3438,174.4688 51.9688,173.8906 L51.9688,176.6094 Z "/><text fill="#000000" font-family="sans-serif" font-size="14" lengthAdjust="spacingAndGlyphs" textLength="85" x="92" y="169.9951">TraegerDAO</text><text fill="#000000" font-family="sans-serif" font-size="10" lengthAdjust="spacingAndGlyphs" textLength="143" x="63" y="182.5791">de.unibremen.sfb.persistence</text><line style="stroke: #A80036; stroke-width: 1.5;" x1="35" x2="208" y1="189.9375" y2="189.9375"/><ellipse cx="45" cy="200.9375" fill="#84BE84" rx="3" ry="3" style="stroke: #038048; stroke-width: 1.0;"/><text fill="#000000" font-family="sans-serif" font-size="11" lengthAdjust="spacingAndGlyphs" textLength="124" x="54" y="204.1479">persist(Traeger): void</text><ellipse cx="45" cy="213.7422" fill="#84BE84" rx="3" ry="3" style="stroke: #038048; stroke-width: 1.0;"/><text fill="#000000" font-family="sans-serif" font-size="11" lengthAdjust="spacingAndGlyphs" textLength="123" x="54" y="216.9526">update(Traeger): void</text><ellipse cx="45" cy="226.5469" fill="#84BE84" rx="3" ry="3" style="stroke: #038048; stroke-width: 1.0;"/><text fill="#000000" font-family="sans-serif" font-size="11" lengthAdjust="spacingAndGlyphs" textLength="127" x="54" y="229.7573">remove(Traeger): void</text><ellipse cx="45" cy="239.3516" fill="#84BE84" rx="3" ry="3" style="stroke: #038048; stroke-width: 1.0;"/><text fill="#000000" font-family="sans-serif" font-size="11" lengthAdjust="spacingAndGlyphs" textLength="129" x="54" y="242.562">get(): Class&lt;Traeger&gt;</text><ellipse cx="45" cy="252.1563" fill="#84BE84" rx="3" ry="3" style="stroke: #038048; stroke-width: 1.0;"/><text fill="#000000" font-family="sans-serif" font-size="11" lengthAdjust="spacingAndGlyphs" textLength="136" x="54" y="255.3667">getObjById(int): Traeger</text><ellipse cx="45" cy="264.9609" fill="#84BE84" rx="3" ry="3" style="stroke: #038048; stroke-width: 1.0;"/><text fill="#000000" font-family="sans-serif" font-size="11" lengthAdjust="spacingAndGlyphs" textLength="130" x="54" y="268.1714">getAll(): List&lt;Traeger&gt;</text></a><!--MD5=[b2d6b04f3aa6a06e16ff5fa7acfed0d5]
class de.unibremen.sfb.persistence.ObjectDAO--><a href="ObjectDAO.html" target="_top" title="ObjectDAO.html" xlink:actuate="onRequest" xlink:href="ObjectDAO.html" xlink:show="new" xlink:title="ObjectDAO.html" xlink:type="simple"><rect fill="#FEFECE" filter="url(#f1ledi5n85dikr)" height="84.3516" id="de.unibremen.sfb.persistence.ObjectDAO" style="stroke: #A80036; stroke-width: 1.5;" width="231" x="6" y="8"/><ellipse cx="21" cy="26.9688" fill="#A9DCDF" rx="11" ry="11" style="stroke: #A80036; stroke-width: 1.0;"/><path d="M21.1094,22.3125 L19.9531,27.3906 L22.2813,27.3906 L21.1094,22.3125 Z M19.625,20.0781 L22.6094,20.0781 L25.9688,32.4688 L23.5156,32.4688 L22.75,29.4063 L19.4688,29.4063 L18.7188,32.4688 L16.2813,32.4688 L19.625,20.0781 Z "/><text fill="#000000" font-family="sans-serif" font-size="14" font-style="italic" lengthAdjust="spacingAndGlyphs" textLength="77" x="69.5" y="25.9951">ObjectDAO</text><text fill="#000000" font-family="sans-serif" font-size="10" font-style="italic" lengthAdjust="spacingAndGlyphs" textLength="146" x="35" y="38.5791">de.unibremen.sfb.persistence</text><rect fill="#FFFFFF" height="15.9688" style="stroke: #000000; stroke-width: 1.0; stroke-dasharray: 2.0,2.0;" width="51" x="189" y="5"/><text fill="#000000" font-family="sans-serif" font-size="12" font-style="italic" lengthAdjust="spacingAndGlyphs" textLength="49" x="190" y="17.1387">Traeger</text><line style="stroke: #A80036; stroke-width: 1.5;" x1="7" x2="236" y1="45.9375" y2="45.9375"/><ellipse cx="17" cy="56.9375" fill="#84BE84" rx="3" ry="3" style="stroke: #038048; stroke-width: 1.0;"/><text fill="#000000" font-family="sans-serif" font-size="11" font-style="italic" lengthAdjust="spacingAndGlyphs" textLength="123" x="26" y="60.1479">persist(Traeger): void</text><ellipse cx="17" cy="69.7422" fill="#84BE84" rx="3" ry="3" style="stroke: #038048; stroke-width: 1.0;"/><text fill="#000000" font-family="sans-serif" font-size="11" font-style="italic" lengthAdjust="spacingAndGlyphs" textLength="124" x="26" y="72.9526">update(Traeger): void</text><ellipse cx="17" cy="82.5469" fill="#84BE84" rx="3" ry="3" style="stroke: #038048; stroke-width: 1.0;"/><text fill="#000000" font-family="sans-serif" font-size="11" font-style="italic" lengthAdjust="spacingAndGlyphs" textLength="129" x="26" y="85.7573">remove(Traeger): void</text></a><!--MD5=[3cbc993fb548ac6f66dea35529b901f0]
reverse link de.unibremen.sfb.persistence.ObjectDAO to de.unibremen.sfb.persistence.TraegerDAO--><path d="M121.5,112.37 C121.5,125.32 121.5,138.97 121.5,151.89 " fill="none" id="de.unibremen.sfb.persistence.ObjectDAO&lt;-de.unibremen.sfb.persistence.TraegerDAO" style="stroke: #A80036; stroke-width: 1.0;"/><polygon fill="none" points="114.5,112.17,121.5,92.17,128.5,112.17,114.5,112.17" style="stroke: #A80036; stroke-width: 1.0;"/><text fill="#888888" font-family="sans-serif" font-size="10" lengthAdjust="spacingAndGlyphs" textLength="186" x="34.5" y="294.2822">UMLDoclet 2.0.7, PlantUML 1.2019.12</text><!--MD5=[cf4996f0661f56fbe9578ee3102c31b5]
@startuml
    set namespaceSeparator none
    hide empty fields
    hide empty methods

    class "<size:14>TraegerDAO\n<size:10>de.unibremen.sfb.persistence" as de.unibremen.sfb.persistence.TraegerDAO [[TraegerDAO.html]] {
        +persist(Traeger): void
        +update(Traeger): void
        +remove(Traeger): void
        +get(): Class<Traeger>
        +getObjById(int): Traeger
        +getAll(): List<Traeger>
    }

    abstract class "<size:14>ObjectDAO\n<size:10>de.unibremen.sfb.persistence" as de.unibremen.sfb.persistence.ObjectDAO<Traeger> [[ObjectDAO.html]] {
        {abstract} +persist(Traeger): void
        {abstract} +update(Traeger): void
        {abstract} +remove(Traeger): void
    }

    de.unibremen.sfb.persistence.ObjectDAO <|- - de.unibremen.sfb.persistence.TraegerDAO

    center footer UMLDoclet 2.0.7, PlantUML 1.2019.12
@enduml

PlantUML version 1.2019.12(Sun Nov 03 11:24:54 CET 2019)
(APACHE source distribution)
Java Runtime: OpenJDK Runtime Environment
JVM: OpenJDK 64-Bit Server VM
Java Version: 13.0.2+8
Operating System: Linux
Default Encoding: UTF-8
Language: de
Country: DE
--></g></svg>