<?xml version="1.0" encoding="UTF-8" standalone="no"?><svg xmlns="http://www.w3.org/2000/svg" xmlns:xlink="http://www.w3.org/1999/xlink" contentScriptType="application/ecmascript" contentStyleType="text/css" height="320px" preserveAspectRatio="none" style="width:269px;height:320px;" version="1.1" viewBox="0 0 269 320" width="269px" zoomAndPan="magnify"><defs><filter height="300%" id="f29k5rpevhac3" width="300%" x="-1" y="-1"><feGaussianBlur result="blurOut" stdDeviation="2.0"/><feColorMatrix in="blurOut" result="blurOut2" type="matrix" values="0 0 0 0 0 0 0 0 0 0 0 0 0 0 0 0 0 0 .4 0"/><feOffset dx="4.0" dy="4.0" in="blurOut2" result="blurOut3"/><feBlend in="SourceGraphic" in2="blurOut3" mode="normal"/></filter></defs><g><!--MD5=[d986b8fc972cd5ef391ed7207fb3ffc9]
class de.unibremen.sfb.persistence.TraegerArtDAO--><a href="TraegerArtDAO.html" target="_top" title="TraegerArtDAO.html" xlink:actuate="onRequest" xlink:href="TraegerArtDAO.html" xlink:show="new" xlink:title="TraegerArtDAO.html" xlink:type="simple"><rect fill="#FEFECE" filter="url(#f29k5rpevhac3)" height="135.5703" id="de.unibremen.sfb.persistence.TraegerArtDAO" style="stroke: #A80036; stroke-width: 1.5;" width="202" x="29.5" y="152"/><ellipse cx="56.65" cy="170.9688" fill="#ADD1B2" rx="11" ry="11" style="stroke: #A80036; stroke-width: 1.0;"/><path d="M59.6188,176.6094 Q59.0406,176.9063 58.4,177.0469 Q57.7594,177.2031 57.0563,177.2031 Q54.5563,177.2031 53.2281,175.5625 Q51.9156,173.9063 51.9156,170.7813 Q51.9156,167.6563 53.2281,166 Q54.5563,164.3438 57.0563,164.3438 Q57.7594,164.3438 58.4,164.5 Q59.0563,164.6563 59.6188,164.9531 L59.6188,167.6719 Q58.9938,167.0938 58.4,166.8281 Q57.8063,166.5469 57.1813,166.5469 Q55.8375,166.5469 55.15,167.625 Q54.4625,168.6875 54.4625,170.7813 Q54.4625,172.875 55.15,173.9531 Q55.8375,175.0156 57.1813,175.0156 Q57.8063,175.0156 58.4,174.75 Q58.9938,174.4688 59.6188,173.8906 L59.6188,176.6094 Z "/><text fill="#000000" font-family="sans-serif" font-size="14" lengthAdjust="spacingAndGlyphs" textLength="104" x="92.85" y="169.9951">TraegerArtDAO</text><text fill="#000000" font-family="sans-serif" font-size="10" lengthAdjust="spacingAndGlyphs" textLength="143" x="73.35" y="182.5791">de.unibremen.sfb.persistence</text><line style="stroke: #A80036; stroke-width: 1.5;" x1="30.5" x2="230.5" y1="189.9375" y2="189.9375"/><ellipse cx="40.5" cy="200.9375" fill="#84BE84" rx="3" ry="3" style="stroke: #038048; stroke-width: 1.0;"/><text fill="#000000" font-family="sans-serif" font-size="11" lengthAdjust="spacingAndGlyphs" textLength="140" x="49.5" y="204.1479">persist(TraegerArt): void</text><ellipse cx="40.5" cy="213.7422" fill="#84BE84" rx="3" ry="3" style="stroke: #038048; stroke-width: 1.0;"/><text fill="#000000" font-family="sans-serif" font-size="11" lengthAdjust="spacingAndGlyphs" textLength="139" x="49.5" y="216.9526">update(TraegerArt): void</text><ellipse cx="40.5" cy="226.5469" fill="#84BE84" rx="3" ry="3" style="stroke: #038048; stroke-width: 1.0;"/><text fill="#000000" font-family="sans-serif" font-size="11" lengthAdjust="spacingAndGlyphs" textLength="143" x="49.5" y="229.7573">remove(TraegerArt): void</text><ellipse cx="40.5" cy="239.3516" fill="#84BE84" rx="3" ry="3" style="stroke: #038048; stroke-width: 1.0;"/><text fill="#000000" font-family="sans-serif" font-size="11" lengthAdjust="spacingAndGlyphs" textLength="145" x="49.5" y="242.562">get(): Class&lt;TraegerArt&gt;</text><ellipse cx="40.5" cy="252.1563" fill="#84BE84" rx="3" ry="3" style="stroke: #038048; stroke-width: 1.0;"/><text fill="#000000" font-family="sans-serif" font-size="11" lengthAdjust="spacingAndGlyphs" textLength="146" x="49.5" y="255.3667">getAll(): List&lt;TraegerArt&gt;</text><ellipse cx="40.5" cy="264.9609" fill="#84BE84" rx="3" ry="3" style="stroke: #038048; stroke-width: 1.0;"/><text fill="#000000" font-family="sans-serif" font-size="11" lengthAdjust="spacingAndGlyphs" textLength="176" x="49.5" y="268.1714">getByName(String): TraegerArt</text><ellipse cx="40.5" cy="277.7656" fill="#84BE84" rx="3" ry="3" style="stroke: #038048; stroke-width: 1.0;"/><text fill="#000000" font-family="sans-serif" font-size="11" lengthAdjust="spacingAndGlyphs" textLength="133" x="49.5" y="280.9761">getById(int): TraegerArt</text></a><!--MD5=[b2d6b04f3aa6a06e16ff5fa7acfed0d5]
class de.unibremen.sfb.persistence.ObjectDAO--><a href="ObjectDAO.html" target="_top" title="ObjectDAO.html" xlink:actuate="onRequest" xlink:href="ObjectDAO.html" xlink:show="new" xlink:title="ObjectDAO.html" xlink:type="simple"><rect fill="#FEFECE" filter="url(#f29k5rpevhac3)" height="84.3516" id="de.unibremen.sfb.persistence.ObjectDAO" style="stroke: #A80036; stroke-width: 1.5;" width="249" x="6" y="8"/><ellipse cx="21" cy="26.9688" fill="#A9DCDF" rx="11" ry="11" style="stroke: #A80036; stroke-width: 1.0;"/><path d="M21.1094,22.3125 L19.9531,27.3906 L22.2813,27.3906 L21.1094,22.3125 Z M19.625,20.0781 L22.6094,20.0781 L25.9688,32.4688 L23.5156,32.4688 L22.75,29.4063 L19.4688,29.4063 L18.7188,32.4688 L16.2813,32.4688 L19.625,20.0781 Z "/><text fill="#000000" font-family="sans-serif" font-size="14" font-style="italic" lengthAdjust="spacingAndGlyphs" textLength="77" x="69.5" y="25.9951">ObjectDAO</text><text fill="#000000" font-family="sans-serif" font-size="10" font-style="italic" lengthAdjust="spacingAndGlyphs" textLength="146" x="35" y="38.5791">de.unibremen.sfb.persistence</text><rect fill="#FFFFFF" height="15.9688" style="stroke: #000000; stroke-width: 1.0; stroke-dasharray: 2.0,2.0;" width="69" x="189" y="5"/><text fill="#000000" font-family="sans-serif" font-size="12" font-style="italic" lengthAdjust="spacingAndGlyphs" textLength="67" x="190" y="17.1387">TraegerArt</text><line style="stroke: #A80036; stroke-width: 1.5;" x1="7" x2="254" y1="45.9375" y2="45.9375"/><ellipse cx="17" cy="56.9375" fill="#84BE84" rx="3" ry="3" style="stroke: #038048; stroke-width: 1.0;"/><text fill="#000000" font-family="sans-serif" font-size="11" font-style="italic" lengthAdjust="spacingAndGlyphs" textLength="140" x="26" y="60.1479">persist(TraegerArt): void</text><ellipse cx="17" cy="69.7422" fill="#84BE84" rx="3" ry="3" style="stroke: #038048; stroke-width: 1.0;"/><text fill="#000000" font-family="sans-serif" font-size="11" font-style="italic" lengthAdjust="spacingAndGlyphs" textLength="141" x="26" y="72.9526">update(TraegerArt): void</text><ellipse cx="17" cy="82.5469" fill="#84BE84" rx="3" ry="3" style="stroke: #038048; stroke-width: 1.0;"/><text fill="#000000" font-family="sans-serif" font-size="11" font-style="italic" lengthAdjust="spacingAndGlyphs" textLength="146" x="26" y="85.7573">remove(TraegerArt): void</text></a><!--MD5=[b2babbfc20cb10caf2c7f4bed0464151]
reverse link de.unibremen.sfb.persistence.ObjectDAO to de.unibremen.sfb.persistence.TraegerArtDAO--><path d="M130.5,112.16 C130.5,125.06 130.5,138.72 130.5,151.82 " fill="none" id="de.unibremen.sfb.persistence.ObjectDAO&lt;-de.unibremen.sfb.persistence.TraegerArtDAO" style="stroke: #A80036; stroke-width: 1.0;"/><polygon fill="none" points="123.5,112.1,130.5,92.1,137.5,112.1,123.5,112.1" style="stroke: #A80036; stroke-width: 1.0;"/><text fill="#888888" font-family="sans-serif" font-size="10" lengthAdjust="spacingAndGlyphs" textLength="186" x="43.5" y="307.2822">UMLDoclet 2.0.7, PlantUML 1.2019.12</text><!--MD5=[8b2c32f264ba5af89ed39e61451170b2]
@startuml
    set namespaceSeparator none
    hide empty fields
    hide empty methods

    class "<size:14>TraegerArtDAO\n<size:10>de.unibremen.sfb.persistence" as de.unibremen.sfb.persistence.TraegerArtDAO [[TraegerArtDAO.html]] {
        +persist(TraegerArt): void
        +update(TraegerArt): void
        +remove(TraegerArt): void
        +get(): Class<TraegerArt>
        +getAll(): List<TraegerArt>
        +getByName(String): TraegerArt
        +getById(int): TraegerArt
    }

    abstract class "<size:14>ObjectDAO\n<size:10>de.unibremen.sfb.persistence" as de.unibremen.sfb.persistence.ObjectDAO<TraegerArt> [[ObjectDAO.html]] {
        {abstract} +persist(TraegerArt): void
        {abstract} +update(TraegerArt): void
        {abstract} +remove(TraegerArt): void
    }

    de.unibremen.sfb.persistence.ObjectDAO <|- - de.unibremen.sfb.persistence.TraegerArtDAO

    center footer UMLDoclet 2.0.7, PlantUML 1.2019.12
@enduml

PlantUML version 1.2019.12(Sun Nov 03 11:24:54 CET 2019)
(APACHE source distribution)
Java Runtime: OpenJDK Runtime Environment
JVM: OpenJDK 64-Bit Server VM
Java Version: 13.0.2+8
Operating System: Linux
Default Encoding: UTF-8
Language: de
Country: DE
--></g></svg>