<?xml version="1.0" encoding="UTF-8" standalone="no"?><svg xmlns="http://www.w3.org/2000/svg" xmlns:xlink="http://www.w3.org/1999/xlink" contentScriptType="application/ecmascript" contentStyleType="text/css" height="294px" preserveAspectRatio="none" style="width:310px;height:294px;" version="1.1" viewBox="0 0 310 294" width="310px" zoomAndPan="magnify"><defs><filter height="300%" id="f1o26palcpbztc" width="300%" x="-1" y="-1"><feGaussianBlur result="blurOut" stdDeviation="2.0"/><feColorMatrix in="blurOut" result="blurOut2" type="matrix" values="0 0 0 0 0 0 0 0 0 0 0 0 0 0 0 0 0 0 .4 0"/><feOffset dx="4.0" dy="4.0" in="blurOut2" result="blurOut3"/><feBlend in="SourceGraphic" in2="blurOut3" mode="normal"/></filter></defs><g><!--MD5=[62dc4f142266b14172f867e23d63c0df]
class de.unibremen.sfb.persistence.TransportAuftragDAO--><a href="TransportAuftragDAO.html" target="_top" title="TransportAuftragDAO.html" xlink:actuate="onRequest" xlink:href="TransportAuftragDAO.html" xlink:show="new" xlink:title="TransportAuftragDAO.html" xlink:type="simple"><rect fill="#FEFECE" filter="url(#f1o26palcpbztc)" height="109.9609" id="de.unibremen.sfb.persistence.TransportAuftragDAO" style="stroke: #A80036; stroke-width: 1.5;" width="292" x="6" y="152"/><ellipse cx="74.25" cy="170.9688" fill="#ADD1B2" rx="11" ry="11" style="stroke: #A80036; stroke-width: 1.0;"/><path d="M77.2188,176.6094 Q76.6406,176.9063 76,177.0469 Q75.3594,177.2031 74.6563,177.2031 Q72.1563,177.2031 70.8281,175.5625 Q69.5156,173.9063 69.5156,170.7813 Q69.5156,167.6563 70.8281,166 Q72.1563,164.3438 74.6563,164.3438 Q75.3594,164.3438 76,164.5 Q76.6563,164.6563 77.2188,164.9531 L77.2188,167.6719 Q76.5938,167.0938 76,166.8281 Q75.4063,166.5469 74.7813,166.5469 Q73.4375,166.5469 72.75,167.625 Q72.0625,168.6875 72.0625,170.7813 Q72.0625,172.875 72.75,173.9531 Q73.4375,175.0156 74.7813,175.0156 Q75.4063,175.0156 76,174.75 Q76.5938,174.4688 77.2188,173.8906 L77.2188,176.6094 Z "/><text fill="#000000" font-family="sans-serif" font-size="14" lengthAdjust="spacingAndGlyphs" textLength="147" x="94.75" y="169.9951">TransportAuftragDAO</text><text fill="#000000" font-family="sans-serif" font-size="10" lengthAdjust="spacingAndGlyphs" textLength="143" x="96.75" y="182.5791">de.unibremen.sfb.persistence</text><line style="stroke: #A80036; stroke-width: 1.5;" x1="7" x2="297" y1="189.9375" y2="189.9375"/><ellipse cx="17" cy="200.9375" fill="#84BE84" rx="3" ry="3" style="stroke: #038048; stroke-width: 1.0;"/><text fill="#000000" font-family="sans-serif" font-size="11" lengthAdjust="spacingAndGlyphs" textLength="176" x="26" y="204.1479">persist(TransportAuftrag): void</text><ellipse cx="17" cy="213.7422" fill="#84BE84" rx="3" ry="3" style="stroke: #038048; stroke-width: 1.0;"/><text fill="#000000" font-family="sans-serif" font-size="11" lengthAdjust="spacingAndGlyphs" textLength="175" x="26" y="216.9526">update(TransportAuftrag): void</text><ellipse cx="17" cy="226.5469" fill="#84BE84" rx="3" ry="3" style="stroke: #038048; stroke-width: 1.0;"/><text fill="#000000" font-family="sans-serif" font-size="11" lengthAdjust="spacingAndGlyphs" textLength="179" x="26" y="229.7573">remove(TransportAuftrag): void</text><ellipse cx="17" cy="239.3516" fill="#84BE84" rx="3" ry="3" style="stroke: #038048; stroke-width: 1.0;"/><text fill="#000000" font-family="sans-serif" font-size="11" lengthAdjust="spacingAndGlyphs" textLength="181" x="26" y="242.562">get(): Class&lt;TransportAuftrag&gt;</text><ellipse cx="17" cy="252.1563" fill="#84BE84" rx="3" ry="3" style="stroke: #038048; stroke-width: 1.0;"/><text fill="#000000" font-family="sans-serif" font-size="11" lengthAdjust="spacingAndGlyphs" textLength="266" x="26" y="255.3667">getTransportAuftragById(int): TransportAuftrag</text></a><!--MD5=[b2d6b04f3aa6a06e16ff5fa7acfed0d5]
class de.unibremen.sfb.persistence.ObjectDAO--><a href="ObjectDAO.html" target="_top" title="ObjectDAO.html" xlink:actuate="onRequest" xlink:href="ObjectDAO.html" xlink:show="new" xlink:title="ObjectDAO.html" xlink:type="simple"><rect fill="#FEFECE" filter="url(#f1o26palcpbztc)" height="84.3516" id="de.unibremen.sfb.persistence.ObjectDAO" style="stroke: #A80036; stroke-width: 1.5;" width="288" x="8" y="8"/><ellipse cx="23" cy="26.9688" fill="#A9DCDF" rx="11" ry="11" style="stroke: #A80036; stroke-width: 1.0;"/><path d="M23.1094,22.3125 L21.9531,27.3906 L24.2813,27.3906 L23.1094,22.3125 Z M21.625,20.0781 L24.6094,20.0781 L27.9688,32.4688 L25.5156,32.4688 L24.75,29.4063 L21.4688,29.4063 L20.7188,32.4688 L18.2813,32.4688 L21.625,20.0781 Z "/><text fill="#000000" font-family="sans-serif" font-size="14" font-style="italic" lengthAdjust="spacingAndGlyphs" textLength="77" x="71.5" y="25.9951">ObjectDAO</text><text fill="#000000" font-family="sans-serif" font-size="10" font-style="italic" lengthAdjust="spacingAndGlyphs" textLength="146" x="37" y="38.5791">de.unibremen.sfb.persistence</text><rect fill="#FFFFFF" height="15.9688" style="stroke: #000000; stroke-width: 1.0; stroke-dasharray: 2.0,2.0;" width="108" x="191" y="5"/><text fill="#000000" font-family="sans-serif" font-size="12" font-style="italic" lengthAdjust="spacingAndGlyphs" textLength="106" x="192" y="17.1387">TransportAuftrag</text><line style="stroke: #A80036; stroke-width: 1.5;" x1="9" x2="295" y1="45.9375" y2="45.9375"/><ellipse cx="19" cy="56.9375" fill="#84BE84" rx="3" ry="3" style="stroke: #038048; stroke-width: 1.0;"/><text fill="#000000" font-family="sans-serif" font-size="11" font-style="italic" lengthAdjust="spacingAndGlyphs" textLength="175" x="28" y="60.1479">persist(TransportAuftrag): void</text><ellipse cx="19" cy="69.7422" fill="#84BE84" rx="3" ry="3" style="stroke: #038048; stroke-width: 1.0;"/><text fill="#000000" font-family="sans-serif" font-size="11" font-style="italic" lengthAdjust="spacingAndGlyphs" textLength="176" x="28" y="72.9526">update(TransportAuftrag): void</text><ellipse cx="19" cy="82.5469" fill="#84BE84" rx="3" ry="3" style="stroke: #038048; stroke-width: 1.0;"/><text fill="#000000" font-family="sans-serif" font-size="11" font-style="italic" lengthAdjust="spacingAndGlyphs" textLength="181" x="28" y="85.7573">remove(TransportAuftrag): void</text></a><!--MD5=[48fddca15e68e20c194b0f949a227e26]
reverse link de.unibremen.sfb.persistence.ObjectDAO to de.unibremen.sfb.persistence.TransportAuftragDAO--><path d="M152,112.48 C152,125.48 152,139.11 152,151.82 " fill="none" id="de.unibremen.sfb.persistence.ObjectDAO&lt;-de.unibremen.sfb.persistence.TransportAuftragDAO" style="stroke: #A80036; stroke-width: 1.0;"/><polygon fill="none" points="145,112.13,152,92.13,159,112.13,145,112.13" style="stroke: #A80036; stroke-width: 1.0;"/><text fill="#888888" font-family="sans-serif" font-size="10" lengthAdjust="spacingAndGlyphs" textLength="186" x="65" y="281.2822">UMLDoclet 2.0.7, PlantUML 1.2019.12</text><!--MD5=[6c9558ad2480ab6afde0fea77f89b1b7]
@startuml
    set namespaceSeparator none
    hide empty fields
    hide empty methods

    class "<size:14>TransportAuftragDAO\n<size:10>de.unibremen.sfb.persistence" as de.unibremen.sfb.persistence.TransportAuftragDAO [[TransportAuftragDAO.html]] {
        +persist(TransportAuftrag): void
        +update(TransportAuftrag): void
        +remove(TransportAuftrag): void
        +get(): Class<TransportAuftrag>
        +getTransportAuftragById(int): TransportAuftrag
    }

    abstract class "<size:14>ObjectDAO\n<size:10>de.unibremen.sfb.persistence" as de.unibremen.sfb.persistence.ObjectDAO<TransportAuftrag> [[ObjectDAO.html]] {
        {abstract} +persist(TransportAuftrag): void
        {abstract} +update(TransportAuftrag): void
        {abstract} +remove(TransportAuftrag): void
    }

    de.unibremen.sfb.persistence.ObjectDAO <|- - de.unibremen.sfb.persistence.TransportAuftragDAO

    center footer UMLDoclet 2.0.7, PlantUML 1.2019.12
@enduml

PlantUML version 1.2019.12(Sun Nov 03 11:24:54 CET 2019)
(APACHE source distribution)
Java Runtime: OpenJDK Runtime Environment
JVM: OpenJDK 64-Bit Server VM
Java Version: 13.0.2+8
Operating System: Linux
Default Encoding: UTF-8
Language: de
Country: DE
--></g></svg>