<?xml version="1.0" encoding="UTF-8" standalone="no"?><svg xmlns="http://www.w3.org/2000/svg" xmlns:xlink="http://www.w3.org/1999/xlink" contentScriptType="application/ecmascript" contentStyleType="text/css" height="332px" preserveAspectRatio="none" style="width:230px;height:332px;" version="1.1" viewBox="0 0 230 332" width="230px" zoomAndPan="magnify"><defs><filter height="300%" id="f153sqjvvlb0jn" width="300%" x="-1" y="-1"><feGaussianBlur result="blurOut" stdDeviation="2.0"/><feColorMatrix in="blurOut" result="blurOut2" type="matrix" values="0 0 0 0 0 0 0 0 0 0 0 0 0 0 0 0 0 0 .4 0"/><feOffset dx="4.0" dy="4.0" in="blurOut2" result="blurOut3"/><feBlend in="SourceGraphic" in2="blurOut3" mode="normal"/></filter></defs><g><!--MD5=[e358e98ec6f0f01ca675a4bc55ff50ef]
class de.unibremen.sfb.persistence.UserDAO--><a href="UserDAO.html" target="_top" title="UserDAO.html" xlink:actuate="onRequest" xlink:href="UserDAO.html" xlink:show="new" xlink:title="UserDAO.html" xlink:type="simple"><rect fill="#FEFECE" filter="url(#f153sqjvvlb0jn)" height="148.375" id="de.unibremen.sfb.persistence.UserDAO" style="stroke: #A80036; stroke-width: 1.5;" width="195" x="13.5" y="152"/><ellipse cx="37.5" cy="170.9688" fill="#ADD1B2" rx="11" ry="11" style="stroke: #A80036; stroke-width: 1.0;"/><path d="M40.4688,176.6094 Q39.8906,176.9063 39.25,177.0469 Q38.6094,177.2031 37.9063,177.2031 Q35.4063,177.2031 34.0781,175.5625 Q32.7656,173.9063 32.7656,170.7813 Q32.7656,167.6563 34.0781,166 Q35.4063,164.3438 37.9063,164.3438 Q38.6094,164.3438 39.25,164.5 Q39.9063,164.6563 40.4688,164.9531 L40.4688,167.6719 Q39.8438,167.0938 39.25,166.8281 Q38.6563,166.5469 38.0313,166.5469 Q36.6875,166.5469 36,167.625 Q35.3125,168.6875 35.3125,170.7813 Q35.3125,172.875 36,173.9531 Q36.6875,175.0156 38.0313,175.0156 Q38.6563,175.0156 39.25,174.75 Q39.8438,174.4688 40.4688,173.8906 L40.4688,176.6094 Z "/><text fill="#000000" font-family="sans-serif" font-size="14" lengthAdjust="spacingAndGlyphs" textLength="63" x="93.5" y="169.9951">UserDAO</text><text fill="#000000" font-family="sans-serif" font-size="10" lengthAdjust="spacingAndGlyphs" textLength="143" x="53.5" y="182.5791">de.unibremen.sfb.persistence</text><line style="stroke: #A80036; stroke-width: 1.5;" x1="14.5" x2="207.5" y1="189.9375" y2="189.9375"/><ellipse cx="24.5" cy="200.9375" fill="#84BE84" rx="3" ry="3" style="stroke: #038048; stroke-width: 1.0;"/><text fill="#000000" font-family="sans-serif" font-size="11" lengthAdjust="spacingAndGlyphs" textLength="106" x="33.5" y="204.1479">persist(User): void</text><ellipse cx="24.5" cy="213.7422" fill="#84BE84" rx="3" ry="3" style="stroke: #038048; stroke-width: 1.0;"/><text fill="#000000" font-family="sans-serif" font-size="11" lengthAdjust="spacingAndGlyphs" textLength="105" x="33.5" y="216.9526">update(User): void</text><ellipse cx="24.5" cy="226.5469" fill="#84BE84" rx="3" ry="3" style="stroke: #038048; stroke-width: 1.0;"/><text fill="#000000" font-family="sans-serif" font-size="11" lengthAdjust="spacingAndGlyphs" textLength="109" x="33.5" y="229.7573">remove(User): void</text><ellipse cx="24.5" cy="239.3516" fill="#84BE84" rx="3" ry="3" style="stroke: #038048; stroke-width: 1.0;"/><text fill="#000000" font-family="sans-serif" font-size="11" lengthAdjust="spacingAndGlyphs" textLength="111" x="33.5" y="242.562">get(): Class&lt;User&gt;</text><ellipse cx="24.5" cy="252.1563" fill="#84BE84" rx="3" ry="3" style="stroke: #038048; stroke-width: 1.0;"/><text fill="#000000" font-family="sans-serif" font-size="11" lengthAdjust="spacingAndGlyphs" textLength="126" x="33.5" y="255.3667">getUserById(int): User</text><ellipse cx="24.5" cy="264.9609" fill="#84BE84" rx="3" ry="3" style="stroke: #038048; stroke-width: 1.0;"/><text fill="#000000" font-family="sans-serif" font-size="11" lengthAdjust="spacingAndGlyphs" textLength="169" x="33.5" y="268.1714">getUserByName(String): User</text><ellipse cx="24.5" cy="277.7656" fill="#84BE84" rx="3" ry="3" style="stroke: #038048; stroke-width: 1.0;"/><text fill="#000000" font-family="sans-serif" font-size="11" lengthAdjust="spacingAndGlyphs" textLength="158" x="33.5" y="280.9761">getUserByMail(String): User</text><ellipse cx="24.5" cy="290.5703" fill="#84BE84" rx="3" ry="3" style="stroke: #038048; stroke-width: 1.0;"/><text fill="#000000" font-family="sans-serif" font-size="11" lengthAdjust="spacingAndGlyphs" textLength="112" x="33.5" y="293.7808">getAll(): List&lt;User&gt;</text></a><!--MD5=[b2d6b04f3aa6a06e16ff5fa7acfed0d5]
class de.unibremen.sfb.persistence.ObjectDAO--><a href="ObjectDAO.html" target="_top" title="ObjectDAO.html" xlink:actuate="onRequest" xlink:href="ObjectDAO.html" xlink:show="new" xlink:title="ObjectDAO.html" xlink:type="simple"><rect fill="#FEFECE" filter="url(#f153sqjvvlb0jn)" height="84.3516" id="de.unibremen.sfb.persistence.ObjectDAO" style="stroke: #A80036; stroke-width: 1.5;" width="210" x="6" y="8"/><ellipse cx="21" cy="26.9688" fill="#A9DCDF" rx="11" ry="11" style="stroke: #A80036; stroke-width: 1.0;"/><path d="M21.1094,22.3125 L19.9531,27.3906 L22.2813,27.3906 L21.1094,22.3125 Z M19.625,20.0781 L22.6094,20.0781 L25.9688,32.4688 L23.5156,32.4688 L22.75,29.4063 L19.4688,29.4063 L18.7188,32.4688 L16.2813,32.4688 L19.625,20.0781 Z "/><text fill="#000000" font-family="sans-serif" font-size="14" font-style="italic" lengthAdjust="spacingAndGlyphs" textLength="77" x="69.5" y="25.9951">ObjectDAO</text><text fill="#000000" font-family="sans-serif" font-size="10" font-style="italic" lengthAdjust="spacingAndGlyphs" textLength="146" x="35" y="38.5791">de.unibremen.sfb.persistence</text><rect fill="#FFFFFF" height="15.9688" style="stroke: #000000; stroke-width: 1.0; stroke-dasharray: 2.0,2.0;" width="30" x="189" y="5"/><text fill="#000000" font-family="sans-serif" font-size="12" font-style="italic" lengthAdjust="spacingAndGlyphs" textLength="28" x="190" y="17.1387">User</text><line style="stroke: #A80036; stroke-width: 1.5;" x1="7" x2="215" y1="45.9375" y2="45.9375"/><ellipse cx="17" cy="56.9375" fill="#84BE84" rx="3" ry="3" style="stroke: #038048; stroke-width: 1.0;"/><text fill="#000000" font-family="sans-serif" font-size="11" font-style="italic" lengthAdjust="spacingAndGlyphs" textLength="104" x="26" y="60.1479">persist(User): void</text><ellipse cx="17" cy="69.7422" fill="#84BE84" rx="3" ry="3" style="stroke: #038048; stroke-width: 1.0;"/><text fill="#000000" font-family="sans-serif" font-size="11" font-style="italic" lengthAdjust="spacingAndGlyphs" textLength="105" x="26" y="72.9526">update(User): void</text><ellipse cx="17" cy="82.5469" fill="#84BE84" rx="3" ry="3" style="stroke: #038048; stroke-width: 1.0;"/><text fill="#000000" font-family="sans-serif" font-size="11" font-style="italic" lengthAdjust="spacingAndGlyphs" textLength="110" x="26" y="85.7573">remove(User): void</text></a><!--MD5=[855085933b016e5d8fe9d534369bfb8d]
reverse link de.unibremen.sfb.persistence.ObjectDAO to de.unibremen.sfb.persistence.UserDAO--><path d="M111,112.58 C111,125.24 111,138.69 111,151.71 " fill="none" id="de.unibremen.sfb.persistence.ObjectDAO&lt;-de.unibremen.sfb.persistence.UserDAO" style="stroke: #A80036; stroke-width: 1.0;"/><polygon fill="none" points="104,112.24,111,92.24,118,112.24,104,112.24" style="stroke: #A80036; stroke-width: 1.0;"/><text fill="#888888" font-family="sans-serif" font-size="10" lengthAdjust="spacingAndGlyphs" textLength="186" x="24" y="319.2822">UMLDoclet 2.0.7, PlantUML 1.2019.12</text><!--MD5=[f0069f1de60be77ace64bdeb75adbca0]
@startuml
    set namespaceSeparator none
    hide empty fields
    hide empty methods

    class "<size:14>UserDAO\n<size:10>de.unibremen.sfb.persistence" as de.unibremen.sfb.persistence.UserDAO [[UserDAO.html]] {
        +persist(User): void
        +update(User): void
        +remove(User): void
        +get(): Class<User>
        +getUserById(int): User
        +getUserByName(String): User
        +getUserByMail(String): User
        +getAll(): List<User>
    }

    abstract class "<size:14>ObjectDAO\n<size:10>de.unibremen.sfb.persistence" as de.unibremen.sfb.persistence.ObjectDAO<User> [[ObjectDAO.html]] {
        {abstract} +persist(User): void
        {abstract} +update(User): void
        {abstract} +remove(User): void
    }

    de.unibremen.sfb.persistence.ObjectDAO <|- - de.unibremen.sfb.persistence.UserDAO

    center footer UMLDoclet 2.0.7, PlantUML 1.2019.12
@enduml

PlantUML version 1.2019.12(Sun Nov 03 11:24:54 CET 2019)
(APACHE source distribution)
Java Runtime: OpenJDK Runtime Environment
JVM: OpenJDK 64-Bit Server VM
Java Version: 13.0.2+8
Operating System: Linux
Default Encoding: UTF-8
Language: de
Country: DE
--></g></svg>