<?xml version="1.0" encoding="UTF-8" standalone="no"?><svg xmlns="http://www.w3.org/2000/svg" xmlns:xlink="http://www.w3.org/1999/xlink" contentScriptType="application/ecmascript" contentStyleType="text/css" height="74px" preserveAspectRatio="none" style="width:198px;height:74px;" version="1.1" viewBox="0 0 198 74" width="198px" zoomAndPan="magnify"><defs><filter height="300%" id="f1i8ff6t6k81qk" width="300%" x="-1" y="-1"><feGaussianBlur result="blurOut" stdDeviation="2.0"/><feColorMatrix in="blurOut" result="blurOut2" type="matrix" values="0 0 0 0 0 0 0 0 0 0 0 0 0 0 0 0 0 0 .4 0"/><feOffset dx="4.0" dy="4.0" in="blurOut2" result="blurOut3"/><feBlend in="SourceGraphic" in2="blurOut3" mode="normal"/></filter></defs><g><!--MD5=[0d28ee633a096698c6daacfc41df7215]
class de.unibremen.sfb.model.Archiv--><a href="Archiv.html" target="_top" title="Archiv.html" xlink:actuate="onRequest" xlink:href="Archiv.html" xlink:show="new" xlink:title="Archiv.html" xlink:type="simple"><rect fill="#FEFECE" filter="url(#f1i8ff6t6k81qk)" height="37.9375" id="de.unibremen.sfb.model.Archiv" style="stroke: #A80036; stroke-width: 1.5;" width="150" x="18" y="7"/><ellipse cx="33" cy="25.9688" fill="#ADD1B2" rx="11" ry="11" style="stroke: #A80036; stroke-width: 1.0;"/><path d="M35.9688,31.6094 Q35.3906,31.9063 34.75,32.0469 Q34.1094,32.2031 33.4063,32.2031 Q30.9063,32.2031 29.5781,30.5625 Q28.2656,28.9063 28.2656,25.7813 Q28.2656,22.6563 29.5781,21 Q30.9063,19.3438 33.4063,19.3438 Q34.1094,19.3438 34.75,19.5 Q35.4063,19.6563 35.9688,19.9531 L35.9688,22.6719 Q35.3438,22.0938 34.75,21.8281 Q34.1563,21.5469 33.5313,21.5469 Q32.1875,21.5469 31.5,22.625 Q30.8125,23.6875 30.8125,25.7813 Q30.8125,27.875 31.5,28.9531 Q32.1875,30.0156 33.5313,30.0156 Q34.1563,30.0156 34.75,29.75 Q35.3438,29.4688 35.9688,28.8906 L35.9688,31.6094 Z "/><text fill="#000000" font-family="sans-serif" font-size="14" lengthAdjust="spacingAndGlyphs" textLength="41" x="85.5" y="24.9951">Archiv</text><text fill="#000000" font-family="sans-serif" font-size="10" lengthAdjust="spacingAndGlyphs" textLength="118" x="47" y="37.5791">de.unibremen.sfb.model</text></a><text fill="#888888" font-family="sans-serif" font-size="10" lengthAdjust="spacingAndGlyphs" textLength="186" x="0" y="61.2197">UMLDoclet 2.0.7, PlantUML 1.2019.12</text><!--MD5=[5ed5c7f106cff5081470a6fdf113f9a8]
@startuml
    set namespaceSeparator none
    hide empty fields
    hide empty methods

    class "<size:14>Archiv\n<size:10>de.unibremen.sfb.model" as de.unibremen.sfb.model.Archiv [[Archiv.html]] {
    }

    center footer UMLDoclet 2.0.7, PlantUML 1.2019.12
@enduml

PlantUML version 1.2019.12(Sun Nov 03 11:24:54 CET 2019)
(APACHE source distribution)
Java Runtime: OpenJDK Runtime Environment
JVM: OpenJDK 64-Bit Server VM
Java Version: 13.0.2+8
Operating System: Linux
Default Encoding: UTF-8
Language: de
Country: DE
--></g></svg>