<?xml version="1.0" encoding="UTF-8" standalone="no"?><svg xmlns="http://www.w3.org/2000/svg" xmlns:xlink="http://www.w3.org/1999/xlink" contentScriptType="application/ecmascript" contentStyleType="text/css" height="176px" preserveAspectRatio="none" style="width:273px;height:176px;" version="1.1" viewBox="0 0 273 176" width="273px" zoomAndPan="magnify"><defs><filter height="300%" id="f8e2be6ucv2dz" width="300%" x="-1" y="-1"><feGaussianBlur result="blurOut" stdDeviation="2.0"/><feColorMatrix in="blurOut" result="blurOut2" type="matrix" values="0 0 0 0 0 0 0 0 0 0 0 0 0 0 0 0 0 0 .4 0"/><feOffset dx="4.0" dy="4.0" in="blurOut2" result="blurOut3"/><feBlend in="SourceGraphic" in2="blurOut3" mode="normal"/></filter></defs><g><!--MD5=[43fae5678282f78aff2a9bef42ac09e0]
class de.unibremen.sfb.model.ProzessSchrittZustandsAutomat--><a href="ProzessSchrittZustandsAutomat.html" target="_top" title="ProzessSchrittZustandsAutomat.html" xlink:actuate="onRequest" xlink:href="ProzessSchrittZustandsAutomat.html" xlink:show="new" xlink:title="ProzessSchrittZustandsAutomat.html" xlink:type="simple"><rect fill="#FEFECE" filter="url(#f8e2be6ucv2dz)" height="37.9375" id="de.unibremen.sfb.model.ProzessSchrittZustandsAutomat" style="stroke: #A80036; stroke-width: 1.5;" width="256" x="6" y="106"/><ellipse cx="21" cy="124.9688" fill="#ADD1B2" rx="11" ry="11" style="stroke: #A80036; stroke-width: 1.0;"/><path d="M23.9688,130.6094 Q23.3906,130.9063 22.75,131.0469 Q22.1094,131.2031 21.4063,131.2031 Q18.9063,131.2031 17.5781,129.5625 Q16.2656,127.9063 16.2656,124.7813 Q16.2656,121.6563 17.5781,120 Q18.9063,118.3438 21.4063,118.3438 Q22.1094,118.3438 22.75,118.5 Q23.4063,118.6563 23.9688,118.9531 L23.9688,121.6719 Q23.3438,121.0938 22.75,120.8281 Q22.1563,120.5469 21.5313,120.5469 Q20.1875,120.5469 19.5,121.625 Q18.8125,122.6875 18.8125,124.7813 Q18.8125,126.875 19.5,127.9531 Q20.1875,129.0156 21.5313,129.0156 Q22.1563,129.0156 22.75,128.75 Q23.3438,128.4688 23.9688,127.8906 L23.9688,130.6094 Z "/><text fill="#000000" font-family="sans-serif" font-size="14" lengthAdjust="spacingAndGlyphs" textLength="224" x="35" y="123.9951">ProzessSchrittZustandsAutomat</text><text fill="#000000" font-family="sans-serif" font-size="10" lengthAdjust="spacingAndGlyphs" textLength="118" x="88" y="136.5791">de.unibremen.sfb.model</text></a><!--MD5=[5a5af9b0547913863cbe0ddf55a9ab5e]
class java.io.Serializable--><a href="https://docs.oracle.com/en/java/javase/11/docs/api/java.base/java/io/Serializable.html?is-external=true" target="_top" title="https://docs.oracle.com/en/java/javase/11/docs/api/java.base/java/io/Serializable.html?is-external=true" xlink:actuate="onRequest" xlink:href="https://docs.oracle.com/en/java/javase/11/docs/api/java.base/java/io/Serializable.html?is-external=true" xlink:show="new" xlink:title="https://docs.oracle.com/en/java/javase/11/docs/api/java.base/java/io/Serializable.html?is-external=true" xlink:type="simple"><rect fill="#FEFECE" filter="url(#f8e2be6ucv2dz)" height="37.9375" id="java.io.Serializable" style="stroke: #A80036; stroke-width: 1.5;" width="108" x="80" y="8"/><ellipse cx="95" cy="26.9688" fill="#B4A7E5" rx="11" ry="11" style="stroke: #A80036; stroke-width: 1.0;"/><path d="M90.9219,22.7344 L90.9219,20.5781 L98.3125,20.5781 L98.3125,22.7344 L95.8438,22.7344 L95.8438,30.8125 L98.3125,30.8125 L98.3125,32.9688 L90.9219,32.9688 L90.9219,30.8125 L93.3906,30.8125 L93.3906,22.7344 L90.9219,22.7344 Z "/><text fill="#000000" font-family="sans-serif" font-size="14" font-style="italic" lengthAdjust="spacingAndGlyphs" textLength="76" x="109" y="25.9951">Serializable</text><text fill="#000000" font-family="sans-serif" font-size="10" font-style="italic" lengthAdjust="spacingAndGlyphs" textLength="33" x="130.5" y="38.5791">java.io</text></a><!--MD5=[6fac516abe0ba59365b04b04c1297fd8]
reverse link java.io.Serializable to de.unibremen.sfb.model.ProzessSchrittZustandsAutomat--><path d="M134,66.43 C134,79.98 134,94.59 134,105.7 " fill="none" id="java.io.Serializable&lt;-de.unibremen.sfb.model.ProzessSchrittZustandsAutomat" style="stroke: #A80036; stroke-width: 1.0; stroke-dasharray: 7.0,7.0;"/><polygon fill="none" points="127,66.06,134,46.06,141,66.06,127,66.06" style="stroke: #A80036; stroke-width: 1.0;"/><text fill="#888888" font-family="sans-serif" font-size="10" lengthAdjust="spacingAndGlyphs" textLength="186" x="47" y="163.2822">UMLDoclet 2.0.7, PlantUML 1.2019.12</text><!--MD5=[c6b994dab10061a1d9788286261e05aa]
@startuml
    set namespaceSeparator none
    hide empty fields
    hide empty methods

    class "<size:14>ProzessSchrittZustandsAutomat\n<size:10>de.unibremen.sfb.model" as de.unibremen.sfb.model.ProzessSchrittZustandsAutomat [[ProzessSchrittZustandsAutomat.html]] {
    }

    interface "<size:14>Serializable\n<size:10>java.io" as java.io.Serializable [[https://docs.oracle.com/en/java/javase/11/docs/api/java.base/java/io/Serializable.html?is-external=true]]

    java.io.Serializable <|.. de.unibremen.sfb.model.ProzessSchrittZustandsAutomat

    center footer UMLDoclet 2.0.7, PlantUML 1.2019.12
@enduml

PlantUML version 1.2019.12(Sun Nov 03 11:24:54 CET 2019)
(APACHE source distribution)
Java Runtime: OpenJDK Runtime Environment
JVM: OpenJDK 64-Bit Server VM
Java Version: 13.0.2+8
Operating System: Linux
Default Encoding: UTF-8
Language: de
Country: DE
--></g></svg>