<?xml version="1.0" encoding="UTF-8" standalone="no"?><svg xmlns="http://www.w3.org/2000/svg" xmlns:xlink="http://www.w3.org/1999/xlink" contentScriptType="application/ecmascript" contentStyleType="text/css" height="176px" preserveAspectRatio="none" style="width:198px;height:176px;" version="1.1" viewBox="0 0 198 176" width="198px" zoomAndPan="magnify"><defs><filter height="300%" id="f321hhjxc2xjh" width="300%" x="-1" y="-1"><feGaussianBlur result="blurOut" stdDeviation="2.0"/><feColorMatrix in="blurOut" result="blurOut2" type="matrix" values="0 0 0 0 0 0 0 0 0 0 0 0 0 0 0 0 0 0 .4 0"/><feOffset dx="4.0" dy="4.0" in="blurOut2" result="blurOut3"/><feBlend in="SourceGraphic" in2="blurOut3" mode="normal"/></filter></defs><g><!--MD5=[313c75893e1f044b46a49f10e3fff2e0]
class de.unibremen.sfb.model.ProzessSchrittLog--><a href="ProzessSchrittLog.html" target="_top" title="ProzessSchrittLog.html" xlink:actuate="onRequest" xlink:href="ProzessSchrittLog.html" xlink:show="new" xlink:title="ProzessSchrittLog.html" xlink:type="simple"><rect fill="#FEFECE" filter="url(#f321hhjxc2xjh)" height="37.9375" id="de.unibremen.sfb.model.ProzessSchrittLog" style="stroke: #A80036; stroke-width: 1.5;" width="157" x="8.5" y="106"/><ellipse cx="23.5" cy="124.9688" fill="#ADD1B2" rx="11" ry="11" style="stroke: #A80036; stroke-width: 1.0;"/><path d="M26.4688,130.6094 Q25.8906,130.9063 25.25,131.0469 Q24.6094,131.2031 23.9063,131.2031 Q21.4063,131.2031 20.0781,129.5625 Q18.7656,127.9063 18.7656,124.7813 Q18.7656,121.6563 20.0781,120 Q21.4063,118.3438 23.9063,118.3438 Q24.6094,118.3438 25.25,118.5 Q25.9063,118.6563 26.4688,118.9531 L26.4688,121.6719 Q25.8438,121.0938 25.25,120.8281 Q24.6563,120.5469 24.0313,120.5469 Q22.6875,120.5469 22,121.625 Q21.3125,122.6875 21.3125,124.7813 Q21.3125,126.875 22,127.9531 Q22.6875,129.0156 24.0313,129.0156 Q24.6563,129.0156 25.25,128.75 Q25.8438,128.4688 26.4688,127.8906 L26.4688,130.6094 Z "/><text fill="#000000" font-family="sans-serif" font-size="14" lengthAdjust="spacingAndGlyphs" textLength="125" x="37.5" y="123.9951">ProzessSchrittLog</text><text fill="#000000" font-family="sans-serif" font-size="10" lengthAdjust="spacingAndGlyphs" textLength="118" x="41" y="136.5791">de.unibremen.sfb.model</text></a><!--MD5=[5a5af9b0547913863cbe0ddf55a9ab5e]
class java.io.Serializable--><a href="https://docs.oracle.com/en/java/javase/11/docs/api/java.base/java/io/Serializable.html?is-external=true" target="_top" title="https://docs.oracle.com/en/java/javase/11/docs/api/java.base/java/io/Serializable.html?is-external=true" xlink:actuate="onRequest" xlink:href="https://docs.oracle.com/en/java/javase/11/docs/api/java.base/java/io/Serializable.html?is-external=true" xlink:show="new" xlink:title="https://docs.oracle.com/en/java/javase/11/docs/api/java.base/java/io/Serializable.html?is-external=true" xlink:type="simple"><rect fill="#FEFECE" filter="url(#f321hhjxc2xjh)" height="37.9375" id="java.io.Serializable" style="stroke: #A80036; stroke-width: 1.5;" width="108" x="33" y="8"/><ellipse cx="48" cy="26.9688" fill="#B4A7E5" rx="11" ry="11" style="stroke: #A80036; stroke-width: 1.0;"/><path d="M43.9219,22.7344 L43.9219,20.5781 L51.3125,20.5781 L51.3125,22.7344 L48.8438,22.7344 L48.8438,30.8125 L51.3125,30.8125 L51.3125,32.9688 L43.9219,32.9688 L43.9219,30.8125 L46.3906,30.8125 L46.3906,22.7344 L43.9219,22.7344 Z "/><text fill="#000000" font-family="sans-serif" font-size="14" font-style="italic" lengthAdjust="spacingAndGlyphs" textLength="76" x="62" y="25.9951">Serializable</text><text fill="#000000" font-family="sans-serif" font-size="10" font-style="italic" lengthAdjust="spacingAndGlyphs" textLength="33" x="83.5" y="38.5791">java.io</text></a><!--MD5=[1e375d9b0edad56ba7e8be9b1ac870d1]
reverse link java.io.Serializable to de.unibremen.sfb.model.ProzessSchrittLog--><path d="M87,66.43 C87,79.98 87,94.59 87,105.7 " fill="none" id="java.io.Serializable&lt;-de.unibremen.sfb.model.ProzessSchrittLog" style="stroke: #A80036; stroke-width: 1.0; stroke-dasharray: 7.0,7.0;"/><polygon fill="none" points="80,66.06,87,46.06,94,66.06,80,66.06" style="stroke: #A80036; stroke-width: 1.0;"/><text fill="#888888" font-family="sans-serif" font-size="10" lengthAdjust="spacingAndGlyphs" textLength="186" x="0" y="163.2822">UMLDoclet 2.0.7, PlantUML 1.2019.12</text><!--MD5=[a854d277051f295e5808981e98f4b42e]
@startuml
    set namespaceSeparator none
    hide empty fields
    hide empty methods

    class "<size:14>ProzessSchrittLog\n<size:10>de.unibremen.sfb.model" as de.unibremen.sfb.model.ProzessSchrittLog [[ProzessSchrittLog.html]] {
    }

    interface "<size:14>Serializable\n<size:10>java.io" as java.io.Serializable [[https://docs.oracle.com/en/java/javase/11/docs/api/java.base/java/io/Serializable.html?is-external=true]]

    java.io.Serializable <|.. de.unibremen.sfb.model.ProzessSchrittLog

    center footer UMLDoclet 2.0.7, PlantUML 1.2019.12
@enduml

PlantUML version 1.2019.12(Sun Nov 03 11:24:54 CET 2019)
(APACHE source distribution)
Java Runtime: OpenJDK Runtime Environment
JVM: OpenJDK 64-Bit Server VM
Java Version: 13.0.2+8
Operating System: Linux
Default Encoding: UTF-8
Language: de
Country: DE
--></g></svg>