<?xml version="1.0" encoding="UTF-8" standalone="no"?><svg xmlns="http://www.w3.org/2000/svg" xmlns:xlink="http://www.w3.org/1999/xlink" contentScriptType="application/ecmascript" contentStyleType="text/css" height="210px" preserveAspectRatio="none" style="width:336px;height:210px;" version="1.1" viewBox="0 0 336 210" width="336px" zoomAndPan="magnify"><defs><filter height="300%" id="f1ax6qyjsch8yp" width="300%" x="-1" y="-1"><feGaussianBlur result="blurOut" stdDeviation="2.0"/><feColorMatrix in="blurOut" result="blurOut2" type="matrix" values="0 0 0 0 0 0 0 0 0 0 0 0 0 0 0 0 0 0 .4 0"/><feOffset dx="4.0" dy="4.0" in="blurOut2" result="blurOut3"/><feBlend in="SourceGraphic" in2="blurOut3" mode="normal"/></filter></defs><g><!--MD5=[08236cfedfa47a39d6e6d190926e7d0c]
class de.unibremen.sfb.model.QuantitativeEigenschaft--><a href="QuantitativeEigenschaft.html" target="_top" title="QuantitativeEigenschaft.html" xlink:actuate="onRequest" xlink:href="QuantitativeEigenschaft.html" xlink:show="new" xlink:title="QuantitativeEigenschaft.html" xlink:type="simple"><rect fill="#FEFECE" filter="url(#f1ax6qyjsch8yp)" height="71.5469" id="de.unibremen.sfb.model.QuantitativeEigenschaft" style="stroke: #A80036; stroke-width: 1.5;" width="319" x="6" y="106"/><ellipse cx="79.75" cy="124.9688" fill="#ADD1B2" rx="11" ry="11" style="stroke: #A80036; stroke-width: 1.0;"/><path d="M82.7188,130.6094 Q82.1406,130.9063 81.5,131.0469 Q80.8594,131.2031 80.1563,131.2031 Q77.6563,131.2031 76.3281,129.5625 Q75.0156,127.9063 75.0156,124.7813 Q75.0156,121.6563 76.3281,120 Q77.6563,118.3438 80.1563,118.3438 Q80.8594,118.3438 81.5,118.5 Q82.1563,118.6563 82.7188,118.9531 L82.7188,121.6719 Q82.0938,121.0938 81.5,120.8281 Q80.9063,120.5469 80.2813,120.5469 Q78.9375,120.5469 78.25,121.625 Q77.5625,122.6875 77.5625,124.7813 Q77.5625,126.875 78.25,127.9531 Q78.9375,129.0156 80.2813,129.0156 Q80.9063,129.0156 81.5,128.75 Q82.0938,128.4688 82.7188,127.8906 L82.7188,130.6094 Z "/><text fill="#000000" font-family="sans-serif" font-size="14" lengthAdjust="spacingAndGlyphs" textLength="163" x="100.25" y="123.9951">QuantitativeEigenschaft</text><text fill="#000000" font-family="sans-serif" font-size="10" lengthAdjust="spacingAndGlyphs" textLength="118" x="122.75" y="136.5791">de.unibremen.sfb.model</text><line style="stroke: #A80036; stroke-width: 1.5;" x1="7" x2="324" y1="143.9375" y2="143.9375"/><ellipse cx="17" cy="154.9375" fill="#84BE84" rx="3" ry="3" style="stroke: #038048; stroke-width: 1.0;"/><text fill="#000000" font-family="sans-serif" font-size="11" lengthAdjust="spacingAndGlyphs" textLength="293" x="26" y="158.1479">QuantitativeEigenschaft(int, String, Number, String)</text><ellipse cx="17" cy="167.7422" fill="#84BE84" rx="3" ry="3" style="stroke: #038048; stroke-width: 1.0;"/><text fill="#000000" font-family="sans-serif" font-size="11" lengthAdjust="spacingAndGlyphs" textLength="271" x="26" y="170.9526">QuantitativeEigenschaft(String, Number, String)</text></a><!--MD5=[30648cb6a4eaad645c0aeb71e999401d]
class de.unibremen.sfb.model.QualitativeEigenschaft--><a href="QualitativeEigenschaft.html" target="_top" title="QualitativeEigenschaft.html" xlink:actuate="onRequest" xlink:href="QualitativeEigenschaft.html" xlink:show="new" xlink:title="QualitativeEigenschaft.html" xlink:type="simple"><rect fill="#FEFECE" filter="url(#f1ax6qyjsch8yp)" height="37.9375" id="de.unibremen.sfb.model.QualitativeEigenschaft" style="stroke: #A80036; stroke-width: 1.5;" width="184" x="73.5" y="8"/><ellipse cx="88.5" cy="26.9688" fill="#ADD1B2" rx="11" ry="11" style="stroke: #A80036; stroke-width: 1.0;"/><path d="M91.4688,32.6094 Q90.8906,32.9063 90.25,33.0469 Q89.6094,33.2031 88.9063,33.2031 Q86.4063,33.2031 85.0781,31.5625 Q83.7656,29.9063 83.7656,26.7813 Q83.7656,23.6563 85.0781,22 Q86.4063,20.3438 88.9063,20.3438 Q89.6094,20.3438 90.25,20.5 Q90.9063,20.6563 91.4688,20.9531 L91.4688,23.6719 Q90.8438,23.0938 90.25,22.8281 Q89.6563,22.5469 89.0313,22.5469 Q87.6875,22.5469 87,23.625 Q86.3125,24.6875 86.3125,26.7813 Q86.3125,28.875 87,29.9531 Q87.6875,31.0156 89.0313,31.0156 Q89.6563,31.0156 90.25,30.75 Q90.8438,30.4688 91.4688,29.8906 L91.4688,32.6094 Z "/><text fill="#000000" font-family="sans-serif" font-size="14" lengthAdjust="spacingAndGlyphs" textLength="152" x="102.5" y="25.9951">QualitativeEigenschaft</text><text fill="#000000" font-family="sans-serif" font-size="10" lengthAdjust="spacingAndGlyphs" textLength="118" x="119.5" y="38.5791">de.unibremen.sfb.model</text></a><!--MD5=[3c6d32237e98474d805f7baed4e9d88b]
reverse link de.unibremen.sfb.model.QualitativeEigenschaft to de.unibremen.sfb.model.QuantitativeEigenschaft--><path d="M165.5,66.3 C165.5,79 165.5,93.08 165.5,105.56 " fill="none" id="de.unibremen.sfb.model.QualitativeEigenschaft&lt;-de.unibremen.sfb.model.QuantitativeEigenschaft" style="stroke: #A80036; stroke-width: 1.0;"/><polygon fill="none" points="158.5,66.16,165.5,46.16,172.5,66.16,158.5,66.16" style="stroke: #A80036; stroke-width: 1.0;"/><text fill="#888888" font-family="sans-serif" font-size="10" lengthAdjust="spacingAndGlyphs" textLength="186" x="78.5" y="197.2822">UMLDoclet 2.0.7, PlantUML 1.2019.12</text><!--MD5=[89a199e9acdbef1ea256c248246067e4]
@startuml
    set namespaceSeparator none
    hide empty fields
    hide empty methods

    class "<size:14>QuantitativeEigenschaft\n<size:10>de.unibremen.sfb.model" as de.unibremen.sfb.model.QuantitativeEigenschaft [[QuantitativeEigenschaft.html]] {
        +QuantitativeEigenschaft(int, String, Number, String)
        +QuantitativeEigenschaft(String, Number, String)
    }

    class "<size:14>QualitativeEigenschaft\n<size:10>de.unibremen.sfb.model" as de.unibremen.sfb.model.QualitativeEigenschaft [[QualitativeEigenschaft.html]]

    de.unibremen.sfb.model.QualitativeEigenschaft <|- - de.unibremen.sfb.model.QuantitativeEigenschaft

    center footer UMLDoclet 2.0.7, PlantUML 1.2019.12
@enduml

PlantUML version 1.2019.12(Sun Nov 03 11:24:54 CET 2019)
(APACHE source distribution)
Java Runtime: OpenJDK Runtime Environment
JVM: OpenJDK 64-Bit Server VM
Java Version: 13.0.2+8
Operating System: Linux
Default Encoding: UTF-8
Language: de
Country: DE
--></g></svg>