<?xml version="1.0" encoding="UTF-8" standalone="no"?><svg xmlns="http://www.w3.org/2000/svg" xmlns:xlink="http://www.w3.org/1999/xlink" contentScriptType="application/ecmascript" contentStyleType="text/css" height="176px" preserveAspectRatio="none" style="width:198px;height:176px;" version="1.1" viewBox="0 0 198 176" width="198px" zoomAndPan="magnify"><defs><filter height="300%" id="fltinlh3reiep" width="300%" x="-1" y="-1"><feGaussianBlur result="blurOut" stdDeviation="2.0"/><feColorMatrix in="blurOut" result="blurOut2" type="matrix" values="0 0 0 0 0 0 0 0 0 0 0 0 0 0 0 0 0 0 .4 0"/><feOffset dx="4.0" dy="4.0" in="blurOut2" result="blurOut3"/><feBlend in="SourceGraphic" in2="blurOut3" mode="normal"/></filter></defs><g><!--MD5=[0fc8bf1d775b8d78059b55e8ea92ecc5]
class de.unibremen.sfb.model.Standort--><a href="Standort.html" target="_top" title="Standort.html" xlink:actuate="onRequest" xlink:href="Standort.html" xlink:show="new" xlink:title="Standort.html" xlink:type="simple"><rect fill="#FEFECE" filter="url(#fltinlh3reiep)" height="37.9375" id="de.unibremen.sfb.model.Standort" style="stroke: #A80036; stroke-width: 1.5;" width="150" x="12" y="106"/><ellipse cx="27" cy="124.9688" fill="#ADD1B2" rx="11" ry="11" style="stroke: #A80036; stroke-width: 1.0;"/><path d="M29.9688,130.6094 Q29.3906,130.9063 28.75,131.0469 Q28.1094,131.2031 27.4063,131.2031 Q24.9063,131.2031 23.5781,129.5625 Q22.2656,127.9063 22.2656,124.7813 Q22.2656,121.6563 23.5781,120 Q24.9063,118.3438 27.4063,118.3438 Q28.1094,118.3438 28.75,118.5 Q29.4063,118.6563 29.9688,118.9531 L29.9688,121.6719 Q29.3438,121.0938 28.75,120.8281 Q28.1563,120.5469 27.5313,120.5469 Q26.1875,120.5469 25.5,121.625 Q24.8125,122.6875 24.8125,124.7813 Q24.8125,126.875 25.5,127.9531 Q26.1875,129.0156 27.5313,129.0156 Q28.1563,129.0156 28.75,128.75 Q29.3438,128.4688 29.9688,127.8906 L29.9688,130.6094 Z "/><text fill="#000000" font-family="sans-serif" font-size="14" lengthAdjust="spacingAndGlyphs" textLength="59" x="70.5" y="123.9951">Standort</text><text fill="#000000" font-family="sans-serif" font-size="10" lengthAdjust="spacingAndGlyphs" textLength="118" x="41" y="136.5791">de.unibremen.sfb.model</text></a><!--MD5=[5a5af9b0547913863cbe0ddf55a9ab5e]
class java.io.Serializable--><a href="https://docs.oracle.com/en/java/javase/11/docs/api/java.base/java/io/Serializable.html?is-external=true" target="_top" title="https://docs.oracle.com/en/java/javase/11/docs/api/java.base/java/io/Serializable.html?is-external=true" xlink:actuate="onRequest" xlink:href="https://docs.oracle.com/en/java/javase/11/docs/api/java.base/java/io/Serializable.html?is-external=true" xlink:show="new" xlink:title="https://docs.oracle.com/en/java/javase/11/docs/api/java.base/java/io/Serializable.html?is-external=true" xlink:type="simple"><rect fill="#FEFECE" filter="url(#fltinlh3reiep)" height="37.9375" id="java.io.Serializable" style="stroke: #A80036; stroke-width: 1.5;" width="108" x="33" y="8"/><ellipse cx="48" cy="26.9688" fill="#B4A7E5" rx="11" ry="11" style="stroke: #A80036; stroke-width: 1.0;"/><path d="M43.9219,22.7344 L43.9219,20.5781 L51.3125,20.5781 L51.3125,22.7344 L48.8438,22.7344 L48.8438,30.8125 L51.3125,30.8125 L51.3125,32.9688 L43.9219,32.9688 L43.9219,30.8125 L46.3906,30.8125 L46.3906,22.7344 L43.9219,22.7344 Z "/><text fill="#000000" font-family="sans-serif" font-size="14" font-style="italic" lengthAdjust="spacingAndGlyphs" textLength="76" x="62" y="25.9951">Serializable</text><text fill="#000000" font-family="sans-serif" font-size="10" font-style="italic" lengthAdjust="spacingAndGlyphs" textLength="33" x="83.5" y="38.5791">java.io</text></a><!--MD5=[7d29bf1f43b5688d6c9cefab9bacec5e]
reverse link java.io.Serializable to de.unibremen.sfb.model.Standort--><path d="M87,66.43 C87,79.98 87,94.59 87,105.7 " fill="none" id="java.io.Serializable&lt;-de.unibremen.sfb.model.Standort" style="stroke: #A80036; stroke-width: 1.0; stroke-dasharray: 7.0,7.0;"/><polygon fill="none" points="80,66.06,87,46.06,94,66.06,80,66.06" style="stroke: #A80036; stroke-width: 1.0;"/><text fill="#888888" font-family="sans-serif" font-size="10" lengthAdjust="spacingAndGlyphs" textLength="186" x="0" y="163.2822">UMLDoclet 2.0.7, PlantUML 1.2019.12</text><!--MD5=[94166ab7594ffc86a2df425af971b536]
@startuml
    set namespaceSeparator none
    hide empty fields
    hide empty methods

    class "<size:14>Standort\n<size:10>de.unibremen.sfb.model" as de.unibremen.sfb.model.Standort [[Standort.html]] {
    }

    interface "<size:14>Serializable\n<size:10>java.io" as java.io.Serializable [[https://docs.oracle.com/en/java/javase/11/docs/api/java.base/java/io/Serializable.html?is-external=true]]

    java.io.Serializable <|.. de.unibremen.sfb.model.Standort

    center footer UMLDoclet 2.0.7, PlantUML 1.2019.12
@enduml

PlantUML version 1.2019.12(Sun Nov 03 11:24:54 CET 2019)
(APACHE source distribution)
Java Runtime: OpenJDK Runtime Environment
JVM: OpenJDK 64-Bit Server VM
Java Version: 13.0.2+8
Operating System: Linux
Default Encoding: UTF-8
Language: de
Country: DE
--></g></svg>