<?xml version="1.0" encoding="UTF-8" standalone="no"?><svg xmlns="http://www.w3.org/2000/svg" xmlns:xlink="http://www.w3.org/1999/xlink" contentScriptType="application/ecmascript" contentStyleType="text/css" height="176px" preserveAspectRatio="none" style="width:241px;height:176px;" version="1.1" viewBox="0 0 241 176" width="241px" zoomAndPan="magnify"><defs><filter height="300%" id="fl4xbpja2xgfn" width="300%" x="-1" y="-1"><feGaussianBlur result="blurOut" stdDeviation="2.0"/><feColorMatrix in="blurOut" result="blurOut2" type="matrix" values="0 0 0 0 0 0 0 0 0 0 0 0 0 0 0 0 0 0 .4 0"/><feOffset dx="4.0" dy="4.0" in="blurOut2" result="blurOut3"/><feBlend in="SourceGraphic" in2="blurOut3" mode="normal"/></filter></defs><g><!--MD5=[24a4661feea392a491316760dde7163b]
class de.unibremen.sfb.exception.DuplicateStandortException--><a href="DuplicateStandortException.html" target="_top" title="DuplicateStandortException.html" xlink:actuate="onRequest" xlink:href="DuplicateStandortException.html" xlink:show="new" xlink:title="DuplicateStandortException.html" xlink:type="simple"><rect fill="#FEFECE" filter="url(#fl4xbpja2xgfn)" height="37.9375" id="de.unibremen.sfb.exception.DuplicateStandortException" style="stroke: #A80036; stroke-width: 1.5;" width="224" x="6" y="106"/><ellipse cx="21" cy="124.9688" fill="#ADD1B2" rx="11" ry="11" style="stroke: #A80036; stroke-width: 1.0;"/><path d="M23.9688,130.6094 Q23.3906,130.9063 22.75,131.0469 Q22.1094,131.2031 21.4063,131.2031 Q18.9063,131.2031 17.5781,129.5625 Q16.2656,127.9063 16.2656,124.7813 Q16.2656,121.6563 17.5781,120 Q18.9063,118.3438 21.4063,118.3438 Q22.1094,118.3438 22.75,118.5 Q23.4063,118.6563 23.9688,118.9531 L23.9688,121.6719 Q23.3438,121.0938 22.75,120.8281 Q22.1563,120.5469 21.5313,120.5469 Q20.1875,120.5469 19.5,121.625 Q18.8125,122.6875 18.8125,124.7813 Q18.8125,126.875 19.5,127.9531 Q20.1875,129.0156 21.5313,129.0156 Q22.1563,129.0156 22.75,128.75 Q23.3438,128.4688 23.9688,127.8906 L23.9688,130.6094 Z "/><text fill="#000000" font-family="sans-serif" font-size="14" lengthAdjust="spacingAndGlyphs" textLength="192" x="35" y="123.9951">DuplicateStandortException</text><text fill="#000000" font-family="sans-serif" font-size="10" lengthAdjust="spacingAndGlyphs" textLength="135" x="63.5" y="136.5791">de.unibremen.sfb.exception</text></a><!--MD5=[46c05dfe24a0851e179497c4631d3ff2]
class java.lang.Exception--><a href="https://docs.oracle.com/en/java/javase/11/docs/api/java.base/java/lang/Exception.html?is-external=true" target="_top" title="https://docs.oracle.com/en/java/javase/11/docs/api/java.base/java/lang/Exception.html?is-external=true" xlink:actuate="onRequest" xlink:href="https://docs.oracle.com/en/java/javase/11/docs/api/java.base/java/lang/Exception.html?is-external=true" xlink:show="new" xlink:title="https://docs.oracle.com/en/java/javase/11/docs/api/java.base/java/lang/Exception.html?is-external=true" xlink:type="simple"><rect fill="#FEFECE" filter="url(#fl4xbpja2xgfn)" height="37.9375" id="java.lang.Exception" style="stroke: #A80036; stroke-width: 1.5;" width="100" x="68" y="8"/><ellipse cx="83" cy="26.9688" fill="#ADD1B2" rx="11" ry="11" style="stroke: #A80036; stroke-width: 1.0;"/><path d="M85.9688,32.6094 Q85.3906,32.9063 84.75,33.0469 Q84.1094,33.2031 83.4063,33.2031 Q80.9063,33.2031 79.5781,31.5625 Q78.2656,29.9063 78.2656,26.7813 Q78.2656,23.6563 79.5781,22 Q80.9063,20.3438 83.4063,20.3438 Q84.1094,20.3438 84.75,20.5 Q85.4063,20.6563 85.9688,20.9531 L85.9688,23.6719 Q85.3438,23.0938 84.75,22.8281 Q84.1563,22.5469 83.5313,22.5469 Q82.1875,22.5469 81.5,23.625 Q80.8125,24.6875 80.8125,26.7813 Q80.8125,28.875 81.5,29.9531 Q82.1875,31.0156 83.5313,31.0156 Q84.1563,31.0156 84.75,30.75 Q85.3438,30.4688 85.9688,29.8906 L85.9688,32.6094 Z "/><text fill="#000000" font-family="sans-serif" font-size="14" lengthAdjust="spacingAndGlyphs" textLength="68" x="97" y="25.9951">Exception</text><text fill="#000000" font-family="sans-serif" font-size="10" lengthAdjust="spacingAndGlyphs" textLength="43" x="109.5" y="38.5791">java.lang</text></a><!--MD5=[99f3380529af9279a666f6b27207e19c]
reverse link java.lang.Exception to de.unibremen.sfb.exception.DuplicateStandortException--><path d="M118,66.43 C118,79.98 118,94.59 118,105.7 " fill="none" id="java.lang.Exception&lt;-de.unibremen.sfb.exception.DuplicateStandortException" style="stroke: #A80036; stroke-width: 1.0;"/><polygon fill="none" points="111,66.06,118,46.06,125,66.06,111,66.06" style="stroke: #A80036; stroke-width: 1.0;"/><text fill="#888888" font-family="sans-serif" font-size="10" lengthAdjust="spacingAndGlyphs" textLength="186" x="31" y="163.2822">UMLDoclet 2.0.7, PlantUML 1.2019.12</text><!--MD5=[bacca59aaf04651273825dabeed58534]
@startuml
    set namespaceSeparator none
    hide empty fields
    hide empty methods

    class "<size:14>DuplicateStandortException\n<size:10>de.unibremen.sfb.exception" as de.unibremen.sfb.exception.DuplicateStandortException [[DuplicateStandortException.html]]

    class "<size:14>Exception\n<size:10>java.lang" as java.lang.Exception [[https://docs.oracle.com/en/java/javase/11/docs/api/java.base/java/lang/Exception.html?is-external=true]]

    java.lang.Exception <|- - de.unibremen.sfb.exception.DuplicateStandortException

    center footer UMLDoclet 2.0.7, PlantUML 1.2019.12
@enduml

PlantUML version 1.2019.12(Sun Nov 03 11:24:54 CET 2019)
(APACHE source distribution)
Java Runtime: OpenJDK Runtime Environment
JVM: OpenJDK 64-Bit Server VM
Java Version: 13.0.2+8
Operating System: Linux
Default Encoding: UTF-8
Language: de
Country: DE
--></g></svg>