<?xml version="1.0" encoding="UTF-8" standalone="no"?><svg xmlns="http://www.w3.org/2000/svg" xmlns:xlink="http://www.w3.org/1999/xlink" contentScriptType="application/ecmascript" contentStyleType="text/css" height="299px" preserveAspectRatio="none" style="width:225px;height:299px;" version="1.1" viewBox="0 0 225 299" width="225px" zoomAndPan="magnify"><defs><filter height="300%" id="f1808pf24sxafu" width="300%" x="-1" y="-1"><feGaussianBlur result="blurOut" stdDeviation="2.0"/><feColorMatrix in="blurOut" result="blurOut2" type="matrix" values="0 0 0 0 0 0 0 0 0 0 0 0 0 0 0 0 0 0 .4 0"/><feOffset dx="4.0" dy="4.0" in="blurOut2" result="blurOut3"/><feBlend in="SourceGraphic" in2="blurOut3" mode="normal"/></filter></defs><g><!--MD5=[2b1e04c61b4eda957cf92bb2afb4bcbf]
class de.unibremen.sfb.boundary.AuftragView--><a href="AuftragView.html" target="_top" title="AuftragView.html" xlink:actuate="onRequest" xlink:href="AuftragView.html" xlink:show="new" xlink:title="AuftragView.html" xlink:type="simple"><rect fill="#FEFECE" filter="url(#f1808pf24sxafu)" height="161.1797" id="de.unibremen.sfb.boundary.AuftragView" style="stroke: #A80036; stroke-width: 1.5;" width="208" x="6" y="106"/><ellipse cx="39.9" cy="124.9688" fill="#ADD1B2" rx="11" ry="11" style="stroke: #A80036; stroke-width: 1.0;"/><path d="M42.8688,130.6094 Q42.2906,130.9063 41.65,131.0469 Q41.0094,131.2031 40.3063,131.2031 Q37.8063,131.2031 36.4781,129.5625 Q35.1656,127.9063 35.1656,124.7813 Q35.1656,121.6563 36.4781,120 Q37.8063,118.3438 40.3063,118.3438 Q41.0094,118.3438 41.65,118.5 Q42.3063,118.6563 42.8688,118.9531 L42.8688,121.6719 Q42.2438,121.0938 41.65,120.8281 Q41.0563,120.5469 40.4313,120.5469 Q39.0875,120.5469 38.4,121.625 Q37.7125,122.6875 37.7125,124.7813 Q37.7125,126.875 38.4,127.9531 Q39.0875,129.0156 40.4313,129.0156 Q41.0563,129.0156 41.65,128.75 Q42.2438,128.4688 42.8688,127.8906 L42.8688,130.6094 Z "/><text fill="#000000" font-family="sans-serif" font-size="14" lengthAdjust="spacingAndGlyphs" textLength="81" x="84.6" y="123.9951">AuftragView</text><text fill="#000000" font-family="sans-serif" font-size="10" lengthAdjust="spacingAndGlyphs" textLength="134" x="58.1" y="136.5791">de.unibremen.sfb.boundary</text><line style="stroke: #A80036; stroke-width: 1.5;" x1="7" x2="213" y1="143.9375" y2="143.9375"/><ellipse cx="17" cy="154.9375" fill="#84BE84" rx="3" ry="3" style="stroke: #038048; stroke-width: 1.0;"/><text fill="#000000" font-family="sans-serif" font-size="11" lengthAdjust="spacingAndGlyphs" textLength="92" x="26" y="158.1479">createJob(): void</text><ellipse cx="17" cy="167.7422" fill="#84BE84" rx="3" ry="3" style="stroke: #038048; stroke-width: 1.0;"/><text fill="#000000" font-family="sans-serif" font-size="11" lengthAdjust="spacingAndGlyphs" textLength="171" x="26" y="170.9526">createJobFromAvailable(): void</text><ellipse cx="17" cy="180.5469" fill="#84BE84" rx="3" ry="3" style="stroke: #038048; stroke-width: 1.0;"/><text fill="#000000" font-family="sans-serif" font-size="11" lengthAdjust="spacingAndGlyphs" textLength="74" x="26" y="183.7573">edit(int): void</text><ellipse cx="17" cy="193.3516" fill="#84BE84" rx="3" ry="3" style="stroke: #038048; stroke-width: 1.0;"/><text fill="#000000" font-family="sans-serif" font-size="11" lengthAdjust="spacingAndGlyphs" textLength="96" x="26" y="196.562">remove(int): void</text><ellipse cx="17" cy="206.1563" fill="#84BE84" rx="3" ry="3" style="stroke: #038048; stroke-width: 1.0;"/><text fill="#000000" font-family="sans-serif" font-size="11" lengthAdjust="spacingAndGlyphs" textLength="95" x="26" y="209.3667">stopJob(int): void</text><ellipse cx="17" cy="218.9609" fill="#84BE84" rx="3" ry="3" style="stroke: #038048; stroke-width: 1.0;"/><text fill="#000000" font-family="sans-serif" font-size="11" lengthAdjust="spacingAndGlyphs" textLength="113" x="26" y="222.1714">setStarted(int): void</text><ellipse cx="17" cy="231.7656" fill="#84BE84" rx="3" ry="3" style="stroke: #038048; stroke-width: 1.0;"/><text fill="#000000" font-family="sans-serif" font-size="11" lengthAdjust="spacingAndGlyphs" textLength="182" x="26" y="234.9761">getES(int): ExperimentierStation</text><ellipse cx="17" cy="244.5703" fill="#84BE84" rx="3" ry="3" style="stroke: #038048; stroke-width: 1.0;"/><text fill="#000000" font-family="sans-serif" font-size="11" lengthAdjust="spacingAndGlyphs" textLength="108" x="26" y="247.7808">setES(int, int): void</text><ellipse cx="17" cy="257.375" fill="#84BE84" rx="3" ry="3" style="stroke: #038048; stroke-width: 1.0;"/><text fill="#000000" font-family="sans-serif" font-size="11" lengthAdjust="spacingAndGlyphs" textLength="149" x="26" y="260.5854">onRowEditCanceled(): void</text></a><!--MD5=[5a5af9b0547913863cbe0ddf55a9ab5e]
class java.io.Serializable--><a href="https://docs.oracle.com/en/java/javase/11/docs/api/java.base/java/io/Serializable.html?is-external=true" target="_top" title="https://docs.oracle.com/en/java/javase/11/docs/api/java.base/java/io/Serializable.html?is-external=true" xlink:actuate="onRequest" xlink:href="https://docs.oracle.com/en/java/javase/11/docs/api/java.base/java/io/Serializable.html?is-external=true" xlink:show="new" xlink:title="https://docs.oracle.com/en/java/javase/11/docs/api/java.base/java/io/Serializable.html?is-external=true" xlink:type="simple"><rect fill="#FEFECE" filter="url(#f1808pf24sxafu)" height="37.9375" id="java.io.Serializable" style="stroke: #A80036; stroke-width: 1.5;" width="108" x="56" y="8"/><ellipse cx="71" cy="26.9688" fill="#B4A7E5" rx="11" ry="11" style="stroke: #A80036; stroke-width: 1.0;"/><path d="M66.9219,22.7344 L66.9219,20.5781 L74.3125,20.5781 L74.3125,22.7344 L71.8438,22.7344 L71.8438,30.8125 L74.3125,30.8125 L74.3125,32.9688 L66.9219,32.9688 L66.9219,30.8125 L69.3906,30.8125 L69.3906,22.7344 L66.9219,22.7344 Z "/><text fill="#000000" font-family="sans-serif" font-size="14" font-style="italic" lengthAdjust="spacingAndGlyphs" textLength="76" x="85" y="25.9951">Serializable</text><text fill="#000000" font-family="sans-serif" font-size="10" font-style="italic" lengthAdjust="spacingAndGlyphs" textLength="33" x="106.5" y="38.5791">java.io</text></a><!--MD5=[d98a7e86a0fb1e0c07afc238d3fa68d2]
reverse link java.io.Serializable to de.unibremen.sfb.boundary.AuftragView--><path d="M110,66.08 C110,78.14 110,91.96 110,105.82 " fill="none" id="java.io.Serializable&lt;-de.unibremen.sfb.boundary.AuftragView" style="stroke: #A80036; stroke-width: 1.0; stroke-dasharray: 7.0,7.0;"/><polygon fill="none" points="103,66.07,110,46.07,117,66.07,103,66.07" style="stroke: #A80036; stroke-width: 1.0;"/><text fill="#888888" font-family="sans-serif" font-size="10" lengthAdjust="spacingAndGlyphs" textLength="186" x="23" y="286.2822">UMLDoclet 2.0.7, PlantUML 1.2019.12</text><!--MD5=[d2de650fc07f725337d81a14fb0b4c2a]
@startuml
    set namespaceSeparator none
    hide empty fields
    hide empty methods

    class "<size:14>AuftragView\n<size:10>de.unibremen.sfb.boundary" as de.unibremen.sfb.boundary.AuftragView [[AuftragView.html]] {
        +createJob(): void
        +createJobFromAvailable(): void
        +edit(int): void
        +remove(int): void
        +stopJob(int): void
        +setStarted(int): void
        +getES(int): ExperimentierStation
        +setES(int, int): void
        +onRowEditCanceled(): void
    }

    interface "<size:14>Serializable\n<size:10>java.io" as java.io.Serializable [[https://docs.oracle.com/en/java/javase/11/docs/api/java.base/java/io/Serializable.html?is-external=true]]

    java.io.Serializable <|.. de.unibremen.sfb.boundary.AuftragView

    center footer UMLDoclet 2.0.7, PlantUML 1.2019.12
@enduml

PlantUML version 1.2019.12(Sun Nov 03 11:24:54 CET 2019)
(APACHE source distribution)
Java Runtime: OpenJDK Runtime Environment
JVM: OpenJDK 64-Bit Server VM
Java Version: 13.0.2+8
Operating System: Linux
Default Encoding: UTF-8
Language: de
Country: DE
--></g></svg>