<?xml version="1.0" encoding="UTF-8" standalone="no"?><svg xmlns="http://www.w3.org/2000/svg" xmlns:xlink="http://www.w3.org/1999/xlink" contentScriptType="application/ecmascript" contentStyleType="text/css" height="210px" preserveAspectRatio="none" style="width:392px;height:210px;" version="1.1" viewBox="0 0 392 210" width="392px" zoomAndPan="magnify"><defs><filter height="300%" id="f11h93xmnifpyf" width="300%" x="-1" y="-1"><feGaussianBlur result="blurOut" stdDeviation="2.0"/><feColorMatrix in="blurOut" result="blurOut2" type="matrix" values="0 0 0 0 0 0 0 0 0 0 0 0 0 0 0 0 0 0 .4 0"/><feOffset dx="4.0" dy="4.0" in="blurOut2" result="blurOut3"/><feBlend in="SourceGraphic" in2="blurOut3" mode="normal"/></filter></defs><g><!--MD5=[d842b8ba67eeac7ff2dcf02bb8063365]
class de.unibremen.sfb.boundary.bearbeitbareListPSVBean--><a href="bearbeitbareListPSVBean.html" target="_top" title="bearbeitbareListPSVBean.html" xlink:actuate="onRequest" xlink:href="bearbeitbareListPSVBean.html" xlink:show="new" xlink:title="bearbeitbareListPSVBean.html" xlink:type="simple"><rect fill="#FEFECE" filter="url(#f11h93xmnifpyf)" height="71.5469" id="de.unibremen.sfb.boundary.bearbeitbareListPSVBean" style="stroke: #A80036; stroke-width: 1.5;" width="375" x="6" y="106"/><ellipse cx="102.25" cy="124.9688" fill="#ADD1B2" rx="11" ry="11" style="stroke: #A80036; stroke-width: 1.0;"/><path d="M105.2188,130.6094 Q104.6406,130.9063 104,131.0469 Q103.3594,131.2031 102.6563,131.2031 Q100.1563,131.2031 98.8281,129.5625 Q97.5156,127.9063 97.5156,124.7813 Q97.5156,121.6563 98.8281,120 Q100.1563,118.3438 102.6563,118.3438 Q103.3594,118.3438 104,118.5 Q104.6563,118.6563 105.2188,118.9531 L105.2188,121.6719 Q104.5938,121.0938 104,120.8281 Q103.4063,120.5469 102.7813,120.5469 Q101.4375,120.5469 100.75,121.625 Q100.0625,122.6875 100.0625,124.7813 Q100.0625,126.875 100.75,127.9531 Q101.4375,129.0156 102.7813,129.0156 Q103.4063,129.0156 104,128.75 Q104.5938,128.4688 105.2188,127.8906 L105.2188,130.6094 Z "/><text fill="#000000" font-family="sans-serif" font-size="14" lengthAdjust="spacingAndGlyphs" textLength="174" x="122.75" y="123.9951">bearbeitbareListPSVBean</text><text fill="#000000" font-family="sans-serif" font-size="10" lengthAdjust="spacingAndGlyphs" textLength="134" x="142.75" y="136.5791">de.unibremen.sfb.boundary</text><line style="stroke: #A80036; stroke-width: 1.5;" x1="7" x2="380" y1="143.9375" y2="143.9375"/><ellipse cx="17" cy="154.9375" fill="#84BE84" rx="3" ry="3" style="stroke: #038048; stroke-width: 1.0;"/><text fill="#000000" font-family="sans-serif" font-size="11" lengthAdjust="spacingAndGlyphs" textLength="315" x="26" y="158.1479">onRowEdit(RowEditEvent&lt;ProzessSchrittVorlage&gt;): void</text><ellipse cx="17" cy="167.7422" fill="#84BE84" rx="3" ry="3" style="stroke: #038048; stroke-width: 1.0;"/><text fill="#000000" font-family="sans-serif" font-size="11" lengthAdjust="spacingAndGlyphs" textLength="349" x="26" y="170.9526">onRowCancel(RowEditEvent&lt;ProzessSchrittParameter&gt;): void</text></a><!--MD5=[5a5af9b0547913863cbe0ddf55a9ab5e]
class java.io.Serializable--><a href="https://docs.oracle.com/en/java/javase/11/docs/api/java.base/java/io/Serializable.html?is-external=true" target="_top" title="https://docs.oracle.com/en/java/javase/11/docs/api/java.base/java/io/Serializable.html?is-external=true" xlink:actuate="onRequest" xlink:href="https://docs.oracle.com/en/java/javase/11/docs/api/java.base/java/io/Serializable.html?is-external=true" xlink:show="new" xlink:title="https://docs.oracle.com/en/java/javase/11/docs/api/java.base/java/io/Serializable.html?is-external=true" xlink:type="simple"><rect fill="#FEFECE" filter="url(#f11h93xmnifpyf)" height="37.9375" id="java.io.Serializable" style="stroke: #A80036; stroke-width: 1.5;" width="108" x="139.5" y="8"/><ellipse cx="154.5" cy="26.9688" fill="#B4A7E5" rx="11" ry="11" style="stroke: #A80036; stroke-width: 1.0;"/><path d="M150.4219,22.7344 L150.4219,20.5781 L157.8125,20.5781 L157.8125,22.7344 L155.3438,22.7344 L155.3438,30.8125 L157.8125,30.8125 L157.8125,32.9688 L150.4219,32.9688 L150.4219,30.8125 L152.8906,30.8125 L152.8906,22.7344 L150.4219,22.7344 Z "/><text fill="#000000" font-family="sans-serif" font-size="14" font-style="italic" lengthAdjust="spacingAndGlyphs" textLength="76" x="168.5" y="25.9951">Serializable</text><text fill="#000000" font-family="sans-serif" font-size="10" font-style="italic" lengthAdjust="spacingAndGlyphs" textLength="33" x="190" y="38.5791">java.io</text></a><!--MD5=[8196063144fe97f8269a6e00aa440541]
reverse link java.io.Serializable to de.unibremen.sfb.boundary.bearbeitbareListPSVBean--><path d="M193.5,66.3 C193.5,79 193.5,93.08 193.5,105.56 " fill="none" id="java.io.Serializable&lt;-de.unibremen.sfb.boundary.bearbeitbareListPSVBean" style="stroke: #A80036; stroke-width: 1.0; stroke-dasharray: 7.0,7.0;"/><polygon fill="none" points="186.5,66.16,193.5,46.16,200.5,66.16,186.5,66.16" style="stroke: #A80036; stroke-width: 1.0;"/><text fill="#888888" font-family="sans-serif" font-size="10" lengthAdjust="spacingAndGlyphs" textLength="186" x="106.5" y="197.2822">UMLDoclet 2.0.7, PlantUML 1.2019.12</text><!--MD5=[0d18a42ec3eada1a8c2633cc8cd9f674]
@startuml
    set namespaceSeparator none
    hide empty fields
    hide empty methods

    class "<size:14>bearbeitbareListPSVBean\n<size:10>de.unibremen.sfb.boundary" as de.unibremen.sfb.boundary.bearbeitbareListPSVBean [[bearbeitbareListPSVBean.html]] {
        +onRowEdit(RowEditEvent<ProzessSchrittVorlage>): void
        +onRowCancel(RowEditEvent<ProzessSchrittParameter>): void
    }

    interface "<size:14>Serializable\n<size:10>java.io" as java.io.Serializable [[https://docs.oracle.com/en/java/javase/11/docs/api/java.base/java/io/Serializable.html?is-external=true]]

    java.io.Serializable <|.. de.unibremen.sfb.boundary.bearbeitbareListPSVBean

    center footer UMLDoclet 2.0.7, PlantUML 1.2019.12
@enduml

PlantUML version 1.2019.12(Sun Nov 03 11:24:54 CET 2019)
(APACHE source distribution)
Java Runtime: OpenJDK Runtime Environment
JVM: OpenJDK 64-Bit Server VM
Java Version: 13.0.2+8
Operating System: Linux
Default Encoding: UTF-8
Language: de
Country: DE
--></g></svg>