<?xml version="1.0" encoding="UTF-8" standalone="no"?><svg xmlns="http://www.w3.org/2000/svg" xmlns:xlink="http://www.w3.org/1999/xlink" contentScriptType="application/ecmascript" contentStyleType="text/css" height="146px" preserveAspectRatio="none" style="width:268px;height:146px;" version="1.1" viewBox="0 0 268 146" width="268px" zoomAndPan="magnify"><defs><filter height="300%" id="f116fi2xxehs37" width="300%" x="-1" y="-1"><feGaussianBlur result="blurOut" stdDeviation="2.0"/><feColorMatrix in="blurOut" result="blurOut2" type="matrix" values="0 0 0 0 0 0 0 0 0 0 0 0 0 0 0 0 0 0 .4 0"/><feOffset dx="4.0" dy="4.0" in="blurOut2" result="blurOut3"/><feBlend in="SourceGraphic" in2="blurOut3" mode="normal"/></filter></defs><g><!--MD5=[7a1af5476f4b3c8cf1ab2b1602a98bdf]
class de.unibremen.sfb.boundary.FileUploadView--><a href="FileUploadView.html" target="_top" title="FileUploadView.html" xlink:actuate="onRequest" xlink:href="FileUploadView.html" xlink:show="new" xlink:title="FileUploadView.html" xlink:type="simple"><rect fill="#FEFECE" filter="url(#f116fi2xxehs37)" height="109.9609" id="de.unibremen.sfb.boundary.FileUploadView" style="stroke: #A80036; stroke-width: 1.5;" width="250" x="7" y="7"/><ellipse cx="60.75" cy="25.9688" fill="#ADD1B2" rx="11" ry="11" style="stroke: #A80036; stroke-width: 1.0;"/><path d="M63.7188,31.6094 Q63.1406,31.9063 62.5,32.0469 Q61.8594,32.2031 61.1563,32.2031 Q58.6563,32.2031 57.3281,30.5625 Q56.0156,28.9063 56.0156,25.7813 Q56.0156,22.6563 57.3281,21 Q58.6563,19.3438 61.1563,19.3438 Q61.8594,19.3438 62.5,19.5 Q63.1563,19.6563 63.7188,19.9531 L63.7188,22.6719 Q63.0938,22.0938 62.5,21.8281 Q61.9063,21.5469 61.2813,21.5469 Q59.9375,21.5469 59.25,22.625 Q58.5625,23.6875 58.5625,25.7813 Q58.5625,27.875 59.25,28.9531 Q59.9375,30.0156 61.2813,30.0156 Q61.9063,30.0156 62.5,29.75 Q63.0938,29.4688 63.7188,28.8906 L63.7188,31.6094 Z "/><text fill="#000000" font-family="sans-serif" font-size="14" lengthAdjust="spacingAndGlyphs" textLength="103" x="96.75" y="24.9951">FileUploadView</text><text fill="#000000" font-family="sans-serif" font-size="10" lengthAdjust="spacingAndGlyphs" textLength="134" x="81.25" y="37.5791">de.unibremen.sfb.boundary</text><line style="stroke: #A80036; stroke-width: 1.5;" x1="8" x2="256" y1="44.9375" y2="44.9375"/><ellipse cx="18" cy="55.9375" fill="#84BE84" rx="3" ry="3" style="stroke: #038048; stroke-width: 1.0;"/><text fill="#000000" font-family="sans-serif" font-size="11" lengthAdjust="spacingAndGlyphs" textLength="125" x="27" y="59.1479">getFile(): UploadedFile</text><ellipse cx="18" cy="68.7422" fill="#84BE84" rx="3" ry="3" style="stroke: #038048; stroke-width: 1.0;"/><text fill="#000000" font-family="sans-serif" font-size="11" lengthAdjust="spacingAndGlyphs" textLength="148" x="27" y="71.9526">setFile(UploadedFile): void</text><ellipse cx="18" cy="81.5469" fill="#84BE84" rx="3" ry="3" style="stroke: #038048; stroke-width: 1.0;"/><text fill="#000000" font-family="sans-serif" font-size="11" lengthAdjust="spacingAndGlyphs" textLength="77" x="27" y="84.7573">upload(): void</text><ellipse cx="18" cy="94.3516" fill="#84BE84" rx="3" ry="3" style="stroke: #038048; stroke-width: 1.0;"/><text fill="#000000" font-family="sans-serif" font-size="11" lengthAdjust="spacingAndGlyphs" textLength="146" x="27" y="97.562">toDisk(UploadedFile): void</text><ellipse cx="18" cy="107.1563" fill="#84BE84" rx="3" ry="3" style="stroke: #038048; stroke-width: 1.0;"/><text fill="#000000" font-family="sans-serif" font-size="11" lengthAdjust="spacingAndGlyphs" textLength="224" x="27" y="110.3667">handleFileUpload(FileUploadEvent): void</text></a><text fill="#888888" font-family="sans-serif" font-size="10" lengthAdjust="spacingAndGlyphs" textLength="186" x="39" y="133.2432">UMLDoclet 2.0.7, PlantUML 1.2019.12</text><!--MD5=[cd6bb5190c6b904cdc8f8c7db1dd712d]
@startuml
    set namespaceSeparator none
    hide empty fields
    hide empty methods

    class "<size:14>FileUploadView\n<size:10>de.unibremen.sfb.boundary" as de.unibremen.sfb.boundary.FileUploadView [[FileUploadView.html]] {
        +getFile(): UploadedFile
        +setFile(UploadedFile): void
        +upload(): void
        +toDisk(UploadedFile): void
        +handleFileUpload(FileUploadEvent): void
    }

    center footer UMLDoclet 2.0.7, PlantUML 1.2019.12
@enduml

PlantUML version 1.2019.12(Sun Nov 03 11:24:54 CET 2019)
(APACHE source distribution)
Java Runtime: OpenJDK Runtime Environment
JVM: OpenJDK 64-Bit Server VM
Java Version: 13.0.2+8
Operating System: Linux
Default Encoding: UTF-8
Language: de
Country: DE
--></g></svg>