<?xml version="1.0" encoding="UTF-8" standalone="no"?><svg xmlns="http://www.w3.org/2000/svg" xmlns:xlink="http://www.w3.org/1999/xlink" contentScriptType="application/ecmascript" contentStyleType="text/css" height="248px" preserveAspectRatio="none" style="width:344px;height:248px;" version="1.1" viewBox="0 0 344 248" width="344px" zoomAndPan="magnify"><defs><filter height="300%" id="f9a72wl0r5lh8" width="300%" x="-1" y="-1"><feGaussianBlur result="blurOut" stdDeviation="2.0"/><feColorMatrix in="blurOut" result="blurOut2" type="matrix" values="0 0 0 0 0 0 0 0 0 0 0 0 0 0 0 0 0 0 .4 0"/><feOffset dx="4.0" dy="4.0" in="blurOut2" result="blurOut3"/><feBlend in="SourceGraphic" in2="blurOut3" mode="normal"/></filter></defs><g><!--MD5=[6c4c5f193371410bc60aae1f3b411e37]
class de.unibremen.sfb.boundary.LanguageBean--><a href="LanguageBean.html" target="_top" title="LanguageBean.html" xlink:actuate="onRequest" xlink:href="LanguageBean.html" xlink:show="new" xlink:title="LanguageBean.html" xlink:type="simple"><rect fill="#FEFECE" filter="url(#f9a72wl0r5lh8)" height="109.9609" id="de.unibremen.sfb.boundary.LanguageBean" style="stroke: #A80036; stroke-width: 1.5;" width="327" x="6" y="106"/><ellipse cx="98.25" cy="124.9688" fill="#ADD1B2" rx="11" ry="11" style="stroke: #A80036; stroke-width: 1.0;"/><path d="M101.2188,130.6094 Q100.6406,130.9063 100,131.0469 Q99.3594,131.2031 98.6563,131.2031 Q96.1563,131.2031 94.8281,129.5625 Q93.5156,127.9063 93.5156,124.7813 Q93.5156,121.6563 94.8281,120 Q96.1563,118.3438 98.6563,118.3438 Q99.3594,118.3438 100,118.5 Q100.6563,118.6563 101.2188,118.9531 L101.2188,121.6719 Q100.5938,121.0938 100,120.8281 Q99.4063,120.5469 98.7813,120.5469 Q97.4375,120.5469 96.75,121.625 Q96.0625,122.6875 96.0625,124.7813 Q96.0625,126.875 96.75,127.9531 Q97.4375,129.0156 98.7813,129.0156 Q99.4063,129.0156 100,128.75 Q100.5938,128.4688 101.2188,127.8906 L101.2188,130.6094 Z "/><text fill="#000000" font-family="sans-serif" font-size="14" lengthAdjust="spacingAndGlyphs" textLength="104" x="133.75" y="123.9951">LanguageBean</text><text fill="#000000" font-family="sans-serif" font-size="10" lengthAdjust="spacingAndGlyphs" textLength="134" x="118.75" y="136.5791">de.unibremen.sfb.boundary</text><line style="stroke: #A80036; stroke-width: 1.5;" x1="7" x2="332" y1="143.9375" y2="143.9375"/><ellipse cx="17" cy="154.9375" fill="#84BE84" rx="3" ry="3" style="stroke: #038048; stroke-width: 1.0;"/><text fill="#000000" font-family="sans-serif" font-size="11" lengthAdjust="spacingAndGlyphs" textLength="241" x="26" y="158.1479">getCountriesInMap(): Map&lt;String, Object&gt;</text><ellipse cx="17" cy="167.7422" fill="#84BE84" rx="3" ry="3" style="stroke: #038048; stroke-width: 1.0;"/><text fill="#000000" font-family="sans-serif" font-size="11" lengthAdjust="spacingAndGlyphs" textLength="133" x="26" y="170.9526">getLocaleCode(): String</text><ellipse cx="17" cy="180.5469" fill="#84BE84" rx="3" ry="3" style="stroke: #038048; stroke-width: 1.0;"/><text fill="#000000" font-family="sans-serif" font-size="11" lengthAdjust="spacingAndGlyphs" textLength="156" x="26" y="183.7573">setLocaleCode(String): void</text><ellipse cx="17" cy="193.3516" fill="#84BE84" rx="3" ry="3" style="stroke: #038048; stroke-width: 1.0;"/><text fill="#000000" font-family="sans-serif" font-size="11" lengthAdjust="spacingAndGlyphs" textLength="301" x="26" y="196.562">countryLocaleCodeChanged(ValueChangeEvent): void</text><ellipse cx="17" cy="206.1563" fill="#84BE84" rx="3" ry="3" style="stroke: #038048; stroke-width: 1.0;"/><text fill="#000000" font-family="sans-serif" font-size="11" lengthAdjust="spacingAndGlyphs" textLength="112" x="26" y="209.3667">setLanguage(): void</text></a><!--MD5=[5a5af9b0547913863cbe0ddf55a9ab5e]
class java.io.Serializable--><a href="https://docs.oracle.com/en/java/javase/11/docs/api/java.base/java/io/Serializable.html?is-external=true" target="_top" title="https://docs.oracle.com/en/java/javase/11/docs/api/java.base/java/io/Serializable.html?is-external=true" xlink:actuate="onRequest" xlink:href="https://docs.oracle.com/en/java/javase/11/docs/api/java.base/java/io/Serializable.html?is-external=true" xlink:show="new" xlink:title="https://docs.oracle.com/en/java/javase/11/docs/api/java.base/java/io/Serializable.html?is-external=true" xlink:type="simple"><rect fill="#FEFECE" filter="url(#f9a72wl0r5lh8)" height="37.9375" id="java.io.Serializable" style="stroke: #A80036; stroke-width: 1.5;" width="108" x="115.5" y="8"/><ellipse cx="130.5" cy="26.9688" fill="#B4A7E5" rx="11" ry="11" style="stroke: #A80036; stroke-width: 1.0;"/><path d="M126.4219,22.7344 L126.4219,20.5781 L133.8125,20.5781 L133.8125,22.7344 L131.3438,22.7344 L131.3438,30.8125 L133.8125,30.8125 L133.8125,32.9688 L126.4219,32.9688 L126.4219,30.8125 L128.8906,30.8125 L128.8906,22.7344 L126.4219,22.7344 Z "/><text fill="#000000" font-family="sans-serif" font-size="14" font-style="italic" lengthAdjust="spacingAndGlyphs" textLength="76" x="144.5" y="25.9951">Serializable</text><text fill="#000000" font-family="sans-serif" font-size="10" font-style="italic" lengthAdjust="spacingAndGlyphs" textLength="33" x="166" y="38.5791">java.io</text></a><!--MD5=[d3a3acc548e8985468a3cca2c12f476b]
reverse link java.io.Serializable to de.unibremen.sfb.boundary.LanguageBean--><path d="M169.5,66.19 C169.5,78.61 169.5,92.62 169.5,105.97 " fill="none" id="java.io.Serializable&lt;-de.unibremen.sfb.boundary.LanguageBean" style="stroke: #A80036; stroke-width: 1.0; stroke-dasharray: 7.0,7.0;"/><polygon fill="none" points="162.5,66.08,169.5,46.08,176.5,66.08,162.5,66.08" style="stroke: #A80036; stroke-width: 1.0;"/><text fill="#888888" font-family="sans-serif" font-size="10" lengthAdjust="spacingAndGlyphs" textLength="186" x="82.5" y="235.2822">UMLDoclet 2.0.7, PlantUML 1.2019.12</text><!--MD5=[b5b153666ae1229ca8bdc24265f608a0]
@startuml
    set namespaceSeparator none
    hide empty fields
    hide empty methods

    class "<size:14>LanguageBean\n<size:10>de.unibremen.sfb.boundary" as de.unibremen.sfb.boundary.LanguageBean [[LanguageBean.html]] {
        +getCountriesInMap(): Map<String, Object>
        +getLocaleCode(): String
        +setLocaleCode(String): void
        +countryLocaleCodeChanged(ValueChangeEvent): void
        +setLanguage(): void
    }

    interface "<size:14>Serializable\n<size:10>java.io" as java.io.Serializable [[https://docs.oracle.com/en/java/javase/11/docs/api/java.base/java/io/Serializable.html?is-external=true]]

    java.io.Serializable <|.. de.unibremen.sfb.boundary.LanguageBean

    center footer UMLDoclet 2.0.7, PlantUML 1.2019.12
@enduml

PlantUML version 1.2019.12(Sun Nov 03 11:24:54 CET 2019)
(APACHE source distribution)
Java Runtime: OpenJDK Runtime Environment
JVM: OpenJDK 64-Bit Server VM
Java Version: 13.0.2+8
Operating System: Linux
Default Encoding: UTF-8
Language: de
Country: DE
--></g></svg>