<?xml version="1.0" encoding="UTF-8" standalone="no"?><svg xmlns="http://www.w3.org/2000/svg" xmlns:xlink="http://www.w3.org/1999/xlink" contentScriptType="application/ecmascript" contentStyleType="text/css" height="210px" preserveAspectRatio="none" style="width:211px;height:210px;" version="1.1" viewBox="0 0 211 210" width="211px" zoomAndPan="magnify"><defs><filter height="300%" id="f1fzrixm9vxxkb" width="300%" x="-1" y="-1"><feGaussianBlur result="blurOut" stdDeviation="2.0"/><feColorMatrix in="blurOut" result="blurOut2" type="matrix" values="0 0 0 0 0 0 0 0 0 0 0 0 0 0 0 0 0 0 .4 0"/><feOffset dx="4.0" dy="4.0" in="blurOut2" result="blurOut3"/><feBlend in="SourceGraphic" in2="blurOut3" mode="normal"/></filter></defs><g><!--MD5=[2019e08f6adfff9bc99dd5c4d68dd0ca]
class de.unibremen.sfb.boundary.pkAdminJSON--><a href="pkAdminJSON.html" target="_top" title="pkAdminJSON.html" xlink:actuate="onRequest" xlink:href="pkAdminJSON.html" xlink:show="new" xlink:title="pkAdminJSON.html" xlink:type="simple"><rect fill="#FEFECE" filter="url(#f1fzrixm9vxxkb)" height="173.9844" id="de.unibremen.sfb.boundary.pkAdminJSON" style="stroke: #A80036; stroke-width: 1.5;" width="193" x="7" y="7"/><ellipse cx="34.15" cy="25.9688" fill="#ADD1B2" rx="11" ry="11" style="stroke: #A80036; stroke-width: 1.0;"/><path d="M37.1188,31.6094 Q36.5406,31.9063 35.9,32.0469 Q35.2594,32.2031 34.5563,32.2031 Q32.0563,32.2031 30.7281,30.5625 Q29.4156,28.9063 29.4156,25.7813 Q29.4156,22.6563 30.7281,21 Q32.0563,19.3438 34.5563,19.3438 Q35.2594,19.3438 35.9,19.5 Q36.5563,19.6563 37.1188,19.9531 L37.1188,22.6719 Q36.4938,22.0938 35.9,21.8281 Q35.3063,21.5469 34.6813,21.5469 Q33.3375,21.5469 32.65,22.625 Q31.9625,23.6875 31.9625,25.7813 Q31.9625,27.875 32.65,28.9531 Q33.3375,30.0156 34.6813,30.0156 Q35.3063,30.0156 35.9,29.75 Q36.4938,29.4688 37.1188,28.8906 L37.1188,31.6094 Z "/><text fill="#000000" font-family="sans-serif" font-size="14" lengthAdjust="spacingAndGlyphs" textLength="93" x="71.35" y="24.9951">pkAdminJSON</text><text fill="#000000" font-family="sans-serif" font-size="10" lengthAdjust="spacingAndGlyphs" textLength="134" x="50.85" y="37.5791">de.unibremen.sfb.boundary</text><line style="stroke: #A80036; stroke-width: 1.5;" x1="8" x2="199" y1="44.9375" y2="44.9375"/><ellipse cx="18" cy="55.9375" fill="#84BE84" rx="3" ry="3" style="stroke: #038048; stroke-width: 1.0;"/><text fill="#000000" font-family="sans-serif" font-size="11" lengthAdjust="spacingAndGlyphs" textLength="123" x="27" y="59.1479">exportAuftrags(): void</text><ellipse cx="18" cy="68.7422" fill="#84BE84" rx="3" ry="3" style="stroke: #038048; stroke-width: 1.0;"/><text fill="#000000" font-family="sans-serif" font-size="11" lengthAdjust="spacingAndGlyphs" textLength="96" x="27" y="71.9526">exportPKV(): void</text><ellipse cx="18" cy="81.5469" fill="#84BE84" rx="3" ry="3" style="stroke: #038048; stroke-width: 1.0;"/><text fill="#000000" font-family="sans-serif" font-size="11" lengthAdjust="spacingAndGlyphs" textLength="89" x="27" y="84.7573">exportTA(): void</text><ellipse cx="18" cy="94.3516" fill="#84BE84" rx="3" ry="3" style="stroke: #038048; stroke-width: 1.0;"/><text fill="#000000" font-family="sans-serif" font-size="11" lengthAdjust="spacingAndGlyphs" textLength="90" x="27" y="97.562">exportPS(): void</text><ellipse cx="18" cy="107.1563" fill="#84BE84" rx="3" ry="3" style="stroke: #038048; stroke-width: 1.0;"/><text fill="#000000" font-family="sans-serif" font-size="11" lengthAdjust="spacingAndGlyphs" textLength="97" x="27" y="110.3667">exportPSV(): void</text><ellipse cx="18" cy="119.9609" fill="#84BE84" rx="3" ry="3" style="stroke: #038048; stroke-width: 1.0;"/><text fill="#000000" font-family="sans-serif" font-size="11" lengthAdjust="spacingAndGlyphs" textLength="97" x="27" y="123.1714">exportPSP(): void</text><ellipse cx="18" cy="132.7656" fill="#84BE84" rx="3" ry="3" style="stroke: #038048; stroke-width: 1.0;"/><text fill="#000000" font-family="sans-serif" font-size="11" lengthAdjust="spacingAndGlyphs" textLength="90" x="27" y="135.9761">exportES(): void</text><ellipse cx="18" cy="145.5703" fill="#84BE84" rx="3" ry="3" style="stroke: #038048; stroke-width: 1.0;"/><text fill="#000000" font-family="sans-serif" font-size="11" lengthAdjust="spacingAndGlyphs" textLength="109" x="27" y="148.7808">exportUsers(): void</text><ellipse cx="18" cy="158.375" fill="#84BE84" rx="3" ry="3" style="stroke: #038048; stroke-width: 1.0;"/><text fill="#000000" font-family="sans-serif" font-size="11" lengthAdjust="spacingAndGlyphs" textLength="167" x="27" y="161.5854">exportProcessStepLog(): void</text><ellipse cx="18" cy="171.1797" fill="#84BE84" rx="3" ry="3" style="stroke: #038048; stroke-width: 1.0;"/><text fill="#000000" font-family="sans-serif" font-size="11" lengthAdjust="spacingAndGlyphs" textLength="143" x="27" y="174.3901">exportAuftragsLog(): void</text></a><text fill="#888888" font-family="sans-serif" font-size="10" lengthAdjust="spacingAndGlyphs" textLength="186" x="10.5" y="197.2666">UMLDoclet 2.0.7, PlantUML 1.2019.12</text><!--MD5=[8cd47fcaca4e95e3f853eda5633e7a7e]
@startuml
    set namespaceSeparator none
    hide empty fields
    hide empty methods

    class "<size:14>pkAdminJSON\n<size:10>de.unibremen.sfb.boundary" as de.unibremen.sfb.boundary.pkAdminJSON [[pkAdminJSON.html]] {
        +exportAuftrags(): void
        +exportPKV(): void
        +exportTA(): void
        +exportPS(): void
        +exportPSV(): void
        +exportPSP(): void
        +exportES(): void
        +exportUsers(): void
        +exportProcessStepLog(): void
        +exportAuftragsLog(): void
    }

    center footer UMLDoclet 2.0.7, PlantUML 1.2019.12
@enduml

PlantUML version 1.2019.12(Sun Nov 03 11:24:54 CET 2019)
(APACHE source distribution)
Java Runtime: OpenJDK Runtime Environment
JVM: OpenJDK 64-Bit Server VM
Java Version: 13.0.2+8
Operating System: Linux
Default Encoding: UTF-8
Language: de
Country: DE
--></g></svg>