<?xml version="1.0" encoding="UTF-8" standalone="no"?><svg xmlns="http://www.w3.org/2000/svg" xmlns:xlink="http://www.w3.org/1999/xlink" contentScriptType="application/ecmascript" contentStyleType="text/css" height="261px" preserveAspectRatio="none" style="width:230px;height:261px;" version="1.1" viewBox="0 0 230 261" width="230px" zoomAndPan="magnify"><defs><filter height="300%" id="f5svb8pp0i98v" width="300%" x="-1" y="-1"><feGaussianBlur result="blurOut" stdDeviation="2.0"/><feColorMatrix in="blurOut" result="blurOut2" type="matrix" values="0 0 0 0 0 0 0 0 0 0 0 0 0 0 0 0 0 0 .4 0"/><feOffset dx="4.0" dy="4.0" in="blurOut2" result="blurOut3"/><feBlend in="SourceGraphic" in2="blurOut3" mode="normal"/></filter></defs><g><!--MD5=[db0efbba30f207d4a957a7f2c27d2e0d]
class de.unibremen.sfb.boundary.ProbeMeldenView--><a href="ProbeMeldenView.html" target="_top" title="ProbeMeldenView.html" xlink:actuate="onRequest" xlink:href="ProbeMeldenView.html" xlink:show="new" xlink:title="ProbeMeldenView.html" xlink:type="simple"><rect fill="#FEFECE" filter="url(#f5svb8pp0i98v)" height="122.7656" id="de.unibremen.sfb.boundary.ProbeMeldenView" style="stroke: #A80036; stroke-width: 1.5;" width="213" x="6" y="106"/><ellipse cx="42.15" cy="124.9688" fill="#ADD1B2" rx="11" ry="11" style="stroke: #A80036; stroke-width: 1.0;"/><path d="M45.1188,130.6094 Q44.5406,130.9063 43.9,131.0469 Q43.2594,131.2031 42.5563,131.2031 Q40.0563,131.2031 38.7281,129.5625 Q37.4156,127.9063 37.4156,124.7813 Q37.4156,121.6563 38.7281,120 Q40.0563,118.3438 42.5563,118.3438 Q43.2594,118.3438 43.9,118.5 Q44.5563,118.6563 45.1188,118.9531 L45.1188,121.6719 Q44.4938,121.0938 43.9,120.8281 Q43.3063,120.5469 42.6813,120.5469 Q41.3375,120.5469 40.65,121.625 Q39.9625,122.6875 39.9625,124.7813 Q39.9625,126.875 40.65,127.9531 Q41.3375,129.0156 42.6813,129.0156 Q43.3063,129.0156 43.9,128.75 Q44.4938,128.4688 45.1188,127.8906 L45.1188,130.6094 Z "/><text fill="#000000" font-family="sans-serif" font-size="14" lengthAdjust="spacingAndGlyphs" textLength="124" x="65.85" y="123.9951">ProbeMeldenView</text><text fill="#000000" font-family="sans-serif" font-size="10" lengthAdjust="spacingAndGlyphs" textLength="134" x="60.85" y="136.5791">de.unibremen.sfb.boundary</text><line style="stroke: #A80036; stroke-width: 1.5;" x1="7" x2="218" y1="143.9375" y2="143.9375"/><ellipse cx="17" cy="154.9375" fill="#84BE84" rx="3" ry="3" style="stroke: #038048; stroke-width: 1.0;"/><text fill="#000000" font-family="sans-serif" font-size="11" lengthAdjust="spacingAndGlyphs" textLength="98" x="26" y="158.1479">reportLost(): void</text><ellipse cx="17" cy="167.7422" fill="#84BE84" rx="3" ry="3" style="stroke: #038048; stroke-width: 1.0;"/><text fill="#000000" font-family="sans-serif" font-size="11" lengthAdjust="spacingAndGlyphs" textLength="105" x="26" y="170.9526">alleLost(): boolean</text><ellipse cx="17" cy="180.5469" fill="#84BE84" rx="3" ry="3" style="stroke: #038048; stroke-width: 1.0;"/><text fill="#000000" font-family="sans-serif" font-size="11" lengthAdjust="spacingAndGlyphs" textLength="186" x="26" y="183.7573">reportLostProbe(Probe, int): void</text><ellipse cx="17" cy="193.3516" fill="#84BE84" rx="3" ry="3" style="stroke: #038048; stroke-width: 1.0;"/><text fill="#000000" font-family="sans-serif" font-size="11" lengthAdjust="spacingAndGlyphs" textLength="187" x="26" y="196.562">reportLostProbe(String, int): void</text><ellipse cx="17" cy="206.1563" fill="#84BE84" rx="3" ry="3" style="stroke: #038048; stroke-width: 1.0;"/><text fill="#000000" font-family="sans-serif" font-size="11" lengthAdjust="spacingAndGlyphs" textLength="131" x="26" y="209.3667">reportLostProbe(): void</text><ellipse cx="17" cy="218.9609" fill="#84BE84" rx="3" ry="3" style="stroke: #038048; stroke-width: 1.0;"/><text fill="#000000" font-family="sans-serif" font-size="11" lengthAdjust="spacingAndGlyphs" textLength="153" x="26" y="222.1714">errorMessage(String): void</text></a><!--MD5=[5a5af9b0547913863cbe0ddf55a9ab5e]
class java.io.Serializable--><a href="https://docs.oracle.com/en/java/javase/11/docs/api/java.base/java/io/Serializable.html?is-external=true" target="_top" title="https://docs.oracle.com/en/java/javase/11/docs/api/java.base/java/io/Serializable.html?is-external=true" xlink:actuate="onRequest" xlink:href="https://docs.oracle.com/en/java/javase/11/docs/api/java.base/java/io/Serializable.html?is-external=true" xlink:show="new" xlink:title="https://docs.oracle.com/en/java/javase/11/docs/api/java.base/java/io/Serializable.html?is-external=true" xlink:type="simple"><rect fill="#FEFECE" filter="url(#f5svb8pp0i98v)" height="37.9375" id="java.io.Serializable" style="stroke: #A80036; stroke-width: 1.5;" width="108" x="58.5" y="8"/><ellipse cx="73.5" cy="26.9688" fill="#B4A7E5" rx="11" ry="11" style="stroke: #A80036; stroke-width: 1.0;"/><path d="M69.4219,22.7344 L69.4219,20.5781 L76.8125,20.5781 L76.8125,22.7344 L74.3438,22.7344 L74.3438,30.8125 L76.8125,30.8125 L76.8125,32.9688 L69.4219,32.9688 L69.4219,30.8125 L71.8906,30.8125 L71.8906,22.7344 L69.4219,22.7344 Z "/><text fill="#000000" font-family="sans-serif" font-size="14" font-style="italic" lengthAdjust="spacingAndGlyphs" textLength="76" x="87.5" y="25.9951">Serializable</text><text fill="#000000" font-family="sans-serif" font-size="10" font-style="italic" lengthAdjust="spacingAndGlyphs" textLength="33" x="109" y="38.5791">java.io</text></a><!--MD5=[6fcbae9d45d059b11eaf65cddce0c82c]
reverse link java.io.Serializable to de.unibremen.sfb.boundary.ProbeMeldenView--><path d="M112.5,66.43 C112.5,78.6 112.5,92.36 112.5,105.7 " fill="none" id="java.io.Serializable&lt;-de.unibremen.sfb.boundary.ProbeMeldenView" style="stroke: #A80036; stroke-width: 1.0; stroke-dasharray: 7.0,7.0;"/><polygon fill="none" points="105.5,66.11,112.5,46.11,119.5,66.11,105.5,66.11" style="stroke: #A80036; stroke-width: 1.0;"/><text fill="#888888" font-family="sans-serif" font-size="10" lengthAdjust="spacingAndGlyphs" textLength="186" x="25.5" y="248.2822">UMLDoclet 2.0.7, PlantUML 1.2019.12</text><!--MD5=[b65134b0db88f910fa95bcc1fe795bc4]
@startuml
    set namespaceSeparator none
    hide empty fields
    hide empty methods

    class "<size:14>ProbeMeldenView\n<size:10>de.unibremen.sfb.boundary" as de.unibremen.sfb.boundary.ProbeMeldenView [[ProbeMeldenView.html]] {
        +reportLost(): void
        +alleLost(): boolean
        +reportLostProbe(Probe, int): void
        +reportLostProbe(String, int): void
        +reportLostProbe(): void
        +errorMessage(String): void
    }

    interface "<size:14>Serializable\n<size:10>java.io" as java.io.Serializable [[https://docs.oracle.com/en/java/javase/11/docs/api/java.base/java/io/Serializable.html?is-external=true]]

    java.io.Serializable <|.. de.unibremen.sfb.boundary.ProbeMeldenView

    center footer UMLDoclet 2.0.7, PlantUML 1.2019.12
@enduml

PlantUML version 1.2019.12(Sun Nov 03 11:24:54 CET 2019)
(APACHE source distribution)
Java Runtime: OpenJDK Runtime Environment
JVM: OpenJDK 64-Bit Server VM
Java Version: 13.0.2+8
Operating System: Linux
Default Encoding: UTF-8
Language: de
Country: DE
--></g></svg>