<?xml version="1.0" encoding="UTF-8" standalone="no"?><svg xmlns="http://www.w3.org/2000/svg" xmlns:xlink="http://www.w3.org/1999/xlink" contentScriptType="application/ecmascript" contentStyleType="text/css" height="222px" preserveAspectRatio="none" style="width:406px;height:222px;" version="1.1" viewBox="0 0 406 222" width="406px" zoomAndPan="magnify"><defs><filter height="300%" id="f31kc9qt8zkq2" width="300%" x="-1" y="-1"><feGaussianBlur result="blurOut" stdDeviation="2.0"/><feColorMatrix in="blurOut" result="blurOut2" type="matrix" values="0 0 0 0 0 0 0 0 0 0 0 0 0 0 0 0 0 0 .4 0"/><feOffset dx="4.0" dy="4.0" in="blurOut2" result="blurOut3"/><feBlend in="SourceGraphic" in2="blurOut3" mode="normal"/></filter></defs><g><!--MD5=[b13e321352debf5d1016c83080ff6963]
class de.unibremen.sfb.boundary.PspQeAbhangView--><a href="PspQeAbhangView.html" target="_top" title="PspQeAbhangView.html" xlink:actuate="onRequest" xlink:href="PspQeAbhangView.html" xlink:show="new" xlink:title="PspQeAbhangView.html" xlink:type="simple"><rect fill="#FEFECE" filter="url(#f31kc9qt8zkq2)" height="84.3516" id="de.unibremen.sfb.boundary.PspQeAbhangView" style="stroke: #A80036; stroke-width: 1.5;" width="389" x="6" y="106"/><ellipse cx="129.25" cy="124.9688" fill="#ADD1B2" rx="11" ry="11" style="stroke: #A80036; stroke-width: 1.0;"/><path d="M132.2188,130.6094 Q131.6406,130.9063 131,131.0469 Q130.3594,131.2031 129.6563,131.2031 Q127.1563,131.2031 125.8281,129.5625 Q124.5156,127.9063 124.5156,124.7813 Q124.5156,121.6563 125.8281,120 Q127.1563,118.3438 129.6563,118.3438 Q130.3594,118.3438 131,118.5 Q131.6563,118.6563 132.2188,118.9531 L132.2188,121.6719 Q131.5938,121.0938 131,120.8281 Q130.4063,120.5469 129.7813,120.5469 Q128.4375,120.5469 127.75,121.625 Q127.0625,122.6875 127.0625,124.7813 Q127.0625,126.875 127.75,127.9531 Q128.4375,129.0156 129.7813,129.0156 Q130.4063,129.0156 131,128.75 Q131.5938,128.4688 132.2188,127.8906 L132.2188,130.6094 Z "/><text fill="#000000" font-family="sans-serif" font-size="14" lengthAdjust="spacingAndGlyphs" textLength="131" x="151.25" y="123.9951">PspQeAbhangView</text><text fill="#000000" font-family="sans-serif" font-size="10" lengthAdjust="spacingAndGlyphs" textLength="134" x="149.75" y="136.5791">de.unibremen.sfb.boundary</text><line style="stroke: #A80036; stroke-width: 1.5;" x1="7" x2="394" y1="143.9375" y2="143.9375"/><ellipse cx="17" cy="154.9375" fill="#84BE84" rx="3" ry="3" style="stroke: #038048; stroke-width: 1.0;"/><text fill="#000000" font-family="sans-serif" font-size="11" lengthAdjust="spacingAndGlyphs" textLength="56" x="26" y="158.1479">init(): void</text><ellipse cx="17" cy="167.7422" fill="#84BE84" rx="3" ry="3" style="stroke: #038048; stroke-width: 1.0;"/><text fill="#000000" font-family="sans-serif" font-size="11" lengthAdjust="spacingAndGlyphs" textLength="363" x="26" y="170.9526">getProzessSchrittParameters(): List&lt;ProzessSchrittParameter&gt;</text><ellipse cx="17" cy="180.5469" fill="#84BE84" rx="3" ry="3" style="stroke: #038048; stroke-width: 1.0;"/><text fill="#000000" font-family="sans-serif" font-size="11" lengthAdjust="spacingAndGlyphs" textLength="88" x="26" y="183.7573">linkQIE(): String</text></a><!--MD5=[5a5af9b0547913863cbe0ddf55a9ab5e]
class java.io.Serializable--><a href="https://docs.oracle.com/en/java/javase/11/docs/api/java.base/java/io/Serializable.html?is-external=true" target="_top" title="https://docs.oracle.com/en/java/javase/11/docs/api/java.base/java/io/Serializable.html?is-external=true" xlink:actuate="onRequest" xlink:href="https://docs.oracle.com/en/java/javase/11/docs/api/java.base/java/io/Serializable.html?is-external=true" xlink:show="new" xlink:title="https://docs.oracle.com/en/java/javase/11/docs/api/java.base/java/io/Serializable.html?is-external=true" xlink:type="simple"><rect fill="#FEFECE" filter="url(#f31kc9qt8zkq2)" height="37.9375" id="java.io.Serializable" style="stroke: #A80036; stroke-width: 1.5;" width="108" x="146.5" y="8"/><ellipse cx="161.5" cy="26.9688" fill="#B4A7E5" rx="11" ry="11" style="stroke: #A80036; stroke-width: 1.0;"/><path d="M157.4219,22.7344 L157.4219,20.5781 L164.8125,20.5781 L164.8125,22.7344 L162.3438,22.7344 L162.3438,30.8125 L164.8125,30.8125 L164.8125,32.9688 L157.4219,32.9688 L157.4219,30.8125 L159.8906,30.8125 L159.8906,22.7344 L157.4219,22.7344 Z "/><text fill="#000000" font-family="sans-serif" font-size="14" font-style="italic" lengthAdjust="spacingAndGlyphs" textLength="76" x="175.5" y="25.9951">Serializable</text><text fill="#000000" font-family="sans-serif" font-size="10" font-style="italic" lengthAdjust="spacingAndGlyphs" textLength="33" x="197" y="38.5791">java.io</text></a><!--MD5=[498449b4f546ff92c74ea7d3ceeaf4a9]
reverse link java.io.Serializable to de.unibremen.sfb.boundary.PspQeAbhangView--><path d="M200.5,66.54 C200.5,79.08 200.5,93.05 200.5,105.78 " fill="none" id="java.io.Serializable&lt;-de.unibremen.sfb.boundary.PspQeAbhangView" style="stroke: #A80036; stroke-width: 1.0; stroke-dasharray: 7.0,7.0;"/><polygon fill="none" points="193.5,66.07,200.5,46.07,207.5,66.07,193.5,66.07" style="stroke: #A80036; stroke-width: 1.0;"/><text fill="#888888" font-family="sans-serif" font-size="10" lengthAdjust="spacingAndGlyphs" textLength="186" x="113.5" y="209.2822">UMLDoclet 2.0.7, PlantUML 1.2019.12</text><!--MD5=[689049a758502f78e0ab8bcf1f7f5ea4]
@startuml
    set namespaceSeparator none
    hide empty fields
    hide empty methods

    class "<size:14>PspQeAbhangView\n<size:10>de.unibremen.sfb.boundary" as de.unibremen.sfb.boundary.PspQeAbhangView [[PspQeAbhangView.html]] {
        +init(): void
        +getProzessSchrittParameters(): List<ProzessSchrittParameter>
        +linkQIE(): String
    }

    interface "<size:14>Serializable\n<size:10>java.io" as java.io.Serializable [[https://docs.oracle.com/en/java/javase/11/docs/api/java.base/java/io/Serializable.html?is-external=true]]

    java.io.Serializable <|.. de.unibremen.sfb.boundary.PspQeAbhangView

    center footer UMLDoclet 2.0.7, PlantUML 1.2019.12
@enduml

PlantUML version 1.2019.12(Sun Nov 03 11:24:54 CET 2019)
(APACHE source distribution)
Java Runtime: OpenJDK Runtime Environment
JVM: OpenJDK 64-Bit Server VM
Java Version: 13.0.2+8
Operating System: Linux
Default Encoding: UTF-8
Language: de
Country: DE
--></g></svg>