<?xml version="1.0" encoding="UTF-8" standalone="no"?><svg xmlns="http://www.w3.org/2000/svg" xmlns:xlink="http://www.w3.org/1999/xlink" contentScriptType="application/ecmascript" contentStyleType="text/css" height="235px" preserveAspectRatio="none" style="width:204px;height:235px;" version="1.1" viewBox="0 0 204 235" width="204px" zoomAndPan="magnify"><defs><filter height="300%" id="f1qlyer01d30gl" width="300%" x="-1" y="-1"><feGaussianBlur result="blurOut" stdDeviation="2.0"/><feColorMatrix in="blurOut" result="blurOut2" type="matrix" values="0 0 0 0 0 0 0 0 0 0 0 0 0 0 0 0 0 0 .4 0"/><feOffset dx="4.0" dy="4.0" in="blurOut2" result="blurOut3"/><feBlend in="SourceGraphic" in2="blurOut3" mode="normal"/></filter></defs><g><!--MD5=[0659d4ea76c4d13b820fb849d9c678f8]
class de.unibremen.sfb.boundary.PSPView--><a href="PSPView.html" target="_top" title="PSPView.html" xlink:actuate="onRequest" xlink:href="PSPView.html" xlink:show="new" xlink:title="PSPView.html" xlink:type="simple"><rect fill="#FEFECE" filter="url(#f1qlyer01d30gl)" height="97.1563" id="de.unibremen.sfb.boundary.PSPView" style="stroke: #A80036; stroke-width: 1.5;" width="175" x="6" y="106"/><ellipse cx="25.05" cy="124.9688" fill="#ADD1B2" rx="11" ry="11" style="stroke: #A80036; stroke-width: 1.0;"/><path d="M28.0188,130.6094 Q27.4406,130.9063 26.8,131.0469 Q26.1594,131.2031 25.4563,131.2031 Q22.9563,131.2031 21.6281,129.5625 Q20.3156,127.9063 20.3156,124.7813 Q20.3156,121.6563 21.6281,120 Q22.9563,118.3438 25.4563,118.3438 Q26.1594,118.3438 26.8,118.5 Q27.4563,118.6563 28.0188,118.9531 L28.0188,121.6719 Q27.3938,121.0938 26.8,120.8281 Q26.2063,120.5469 25.5813,120.5469 Q24.2375,120.5469 23.55,121.625 Q22.8625,122.6875 22.8625,124.7813 Q22.8625,126.875 23.55,127.9531 Q24.2375,129.0156 25.5813,129.0156 Q26.2063,129.0156 26.8,128.75 Q27.3938,128.4688 28.0188,127.8906 L28.0188,130.6094 Z "/><text fill="#000000" font-family="sans-serif" font-size="14" lengthAdjust="spacingAndGlyphs" textLength="59" x="77.45" y="123.9951">PSPView</text><text fill="#000000" font-family="sans-serif" font-size="10" lengthAdjust="spacingAndGlyphs" textLength="134" x="39.95" y="136.5791">de.unibremen.sfb.boundary</text><line style="stroke: #A80036; stroke-width: 1.5;" x1="7" x2="180" y1="143.9375" y2="143.9375"/><ellipse cx="17" cy="154.9375" fill="#84BE84" rx="3" ry="3" style="stroke: #038048; stroke-width: 1.0;"/><text fill="#000000" font-family="sans-serif" font-size="11" lengthAdjust="spacingAndGlyphs" textLength="97" x="26" y="158.1479">createPSP(): void</text><ellipse cx="17" cy="167.7422" fill="#84BE84" rx="3" ry="3" style="stroke: #038048; stroke-width: 1.0;"/><text fill="#000000" font-family="sans-serif" font-size="11" lengthAdjust="spacingAndGlyphs" textLength="96" x="26" y="170.9526">editPSP(int): void</text><ellipse cx="17" cy="180.5469" fill="#84BE84" rx="3" ry="3" style="stroke: #038048; stroke-width: 1.0;"/><text fill="#000000" font-family="sans-serif" font-size="11" lengthAdjust="spacingAndGlyphs" textLength="118" x="26" y="183.7573">removePSP(int): void</text><ellipse cx="17" cy="193.3516" fill="#84BE84" rx="3" ry="3" style="stroke: #038048; stroke-width: 1.0;"/><text fill="#000000" font-family="sans-serif" font-size="11" lengthAdjust="spacingAndGlyphs" textLength="149" x="26" y="196.562">onRowEditCanceled(): void</text></a><!--MD5=[5a5af9b0547913863cbe0ddf55a9ab5e]
class java.io.Serializable--><a href="https://docs.oracle.com/en/java/javase/11/docs/api/java.base/java/io/Serializable.html?is-external=true" target="_top" title="https://docs.oracle.com/en/java/javase/11/docs/api/java.base/java/io/Serializable.html?is-external=true" xlink:actuate="onRequest" xlink:href="https://docs.oracle.com/en/java/javase/11/docs/api/java.base/java/io/Serializable.html?is-external=true" xlink:show="new" xlink:title="https://docs.oracle.com/en/java/javase/11/docs/api/java.base/java/io/Serializable.html?is-external=true" xlink:type="simple"><rect fill="#FEFECE" filter="url(#f1qlyer01d30gl)" height="37.9375" id="java.io.Serializable" style="stroke: #A80036; stroke-width: 1.5;" width="108" x="39.5" y="8"/><ellipse cx="54.5" cy="26.9688" fill="#B4A7E5" rx="11" ry="11" style="stroke: #A80036; stroke-width: 1.0;"/><path d="M50.4219,22.7344 L50.4219,20.5781 L57.8125,20.5781 L57.8125,22.7344 L55.3438,22.7344 L55.3438,30.8125 L57.8125,30.8125 L57.8125,32.9688 L50.4219,32.9688 L50.4219,30.8125 L52.8906,30.8125 L52.8906,22.7344 L50.4219,22.7344 Z "/><text fill="#000000" font-family="sans-serif" font-size="14" font-style="italic" lengthAdjust="spacingAndGlyphs" textLength="76" x="68.5" y="25.9951">Serializable</text><text fill="#000000" font-family="sans-serif" font-size="10" font-style="italic" lengthAdjust="spacingAndGlyphs" textLength="33" x="90" y="38.5791">java.io</text></a><!--MD5=[d364e7a1bc97c25ed4d110107b5514b2]
reverse link java.io.Serializable to de.unibremen.sfb.boundary.PSPView--><path d="M93.5,66.52 C93.5,78.97 93.5,92.93 93.5,105.96 " fill="none" id="java.io.Serializable&lt;-de.unibremen.sfb.boundary.PSPView" style="stroke: #A80036; stroke-width: 1.0; stroke-dasharray: 7.0,7.0;"/><polygon fill="none" points="86.5,66.25,93.5,46.25,100.5,66.25,86.5,66.25" style="stroke: #A80036; stroke-width: 1.0;"/><text fill="#888888" font-family="sans-serif" font-size="10" lengthAdjust="spacingAndGlyphs" textLength="186" x="6.5" y="222.2822">UMLDoclet 2.0.7, PlantUML 1.2019.12</text><!--MD5=[9e4a8e50bddfc72b802ab86a186f5b17]
@startuml
    set namespaceSeparator none
    hide empty fields
    hide empty methods

    class "<size:14>PSPView\n<size:10>de.unibremen.sfb.boundary" as de.unibremen.sfb.boundary.PSPView [[PSPView.html]] {
        +createPSP(): void
        +editPSP(int): void
        +removePSP(int): void
        +onRowEditCanceled(): void
    }

    interface "<size:14>Serializable\n<size:10>java.io" as java.io.Serializable [[https://docs.oracle.com/en/java/javase/11/docs/api/java.base/java/io/Serializable.html?is-external=true]]

    java.io.Serializable <|.. de.unibremen.sfb.boundary.PSPView

    center footer UMLDoclet 2.0.7, PlantUML 1.2019.12
@enduml

PlantUML version 1.2019.12(Sun Nov 03 11:24:54 CET 2019)
(APACHE source distribution)
Java Runtime: OpenJDK Runtime Environment
JVM: OpenJDK 64-Bit Server VM
Java Version: 13.0.2+8
Operating System: Linux
Default Encoding: UTF-8
Language: de
Country: DE
--></g></svg>