<?xml version="1.0" encoding="UTF-8" standalone="no"?><svg xmlns="http://www.w3.org/2000/svg" xmlns:xlink="http://www.w3.org/1999/xlink" contentScriptType="application/ecmascript" contentStyleType="text/css" height="274px" preserveAspectRatio="none" style="width:212px;height:274px;" version="1.1" viewBox="0 0 212 274" width="212px" zoomAndPan="magnify"><defs><filter height="300%" id="fhbmcdkk4owof" width="300%" x="-1" y="-1"><feGaussianBlur result="blurOut" stdDeviation="2.0"/><feColorMatrix in="blurOut" result="blurOut2" type="matrix" values="0 0 0 0 0 0 0 0 0 0 0 0 0 0 0 0 0 0 .4 0"/><feOffset dx="4.0" dy="4.0" in="blurOut2" result="blurOut3"/><feBlend in="SourceGraphic" in2="blurOut3" mode="normal"/></filter></defs><g><!--MD5=[fd74262932be1812e4ff9917ba3b4786]
class de.unibremen.sfb.boundary.QlEView--><a href="QlEView.html" target="_top" title="QlEView.html" xlink:actuate="onRequest" xlink:href="QlEView.html" xlink:show="new" xlink:title="QlEView.html" xlink:type="simple"><rect fill="#FEFECE" filter="url(#fhbmcdkk4owof)" height="135.5703" id="de.unibremen.sfb.boundary.QlEView" style="stroke: #A80036; stroke-width: 1.5;" width="190" x="6" y="106"/><ellipse cx="31.8" cy="124.9688" fill="#ADD1B2" rx="11" ry="11" style="stroke: #A80036; stroke-width: 1.0;"/><path d="M34.7688,130.6094 Q34.1906,130.9063 33.55,131.0469 Q32.9094,131.2031 32.2063,131.2031 Q29.7063,131.2031 28.3781,129.5625 Q27.0656,127.9063 27.0656,124.7813 Q27.0656,121.6563 28.3781,120 Q29.7063,118.3438 32.2063,118.3438 Q32.9094,118.3438 33.55,118.5 Q34.2063,118.6563 34.7688,118.9531 L34.7688,121.6719 Q34.1438,121.0938 33.55,120.8281 Q32.9563,120.5469 32.3313,120.5469 Q30.9875,120.5469 30.3,121.625 Q29.6125,122.6875 29.6125,124.7813 Q29.6125,126.875 30.3,127.9531 Q30.9875,129.0156 32.3313,129.0156 Q32.9563,129.0156 33.55,128.75 Q34.1438,128.4688 34.7688,127.8906 L34.7688,130.6094 Z "/><text fill="#000000" font-family="sans-serif" font-size="14" lengthAdjust="spacingAndGlyphs" textLength="55" x="87.7" y="123.9951">QlEView</text><text fill="#000000" font-family="sans-serif" font-size="10" lengthAdjust="spacingAndGlyphs" textLength="134" x="48.2" y="136.5791">de.unibremen.sfb.boundary</text><line style="stroke: #A80036; stroke-width: 1.5;" x1="7" x2="195" y1="143.9375" y2="143.9375"/><ellipse cx="17" cy="154.9375" fill="#84BE84" rx="3" ry="3" style="stroke: #038048; stroke-width: 1.0;"/><text fill="#000000" font-family="sans-serif" font-size="11" lengthAdjust="spacingAndGlyphs" textLength="120" x="26" y="158.1479">addQualitative(): void</text><ellipse cx="17" cy="167.7422" fill="#84BE84" rx="3" ry="3" style="stroke: #038048; stroke-width: 1.0;"/><text fill="#000000" font-family="sans-serif" font-size="11" lengthAdjust="spacingAndGlyphs" textLength="128" x="26" y="170.9526">addQuantitative(): void</text><ellipse cx="17" cy="180.5469" fill="#84BE84" rx="3" ry="3" style="stroke: #038048; stroke-width: 1.0;"/><text fill="#000000" font-family="sans-serif" font-size="11" lengthAdjust="spacingAndGlyphs" textLength="134" x="26" y="183.7573">editQualitative(int): void</text><ellipse cx="17" cy="193.3516" fill="#84BE84" rx="3" ry="3" style="stroke: #038048; stroke-width: 1.0;"/><text fill="#000000" font-family="sans-serif" font-size="11" lengthAdjust="spacingAndGlyphs" textLength="142" x="26" y="196.562">editQuantitative(int): void</text><ellipse cx="17" cy="206.1563" fill="#84BE84" rx="3" ry="3" style="stroke: #038048; stroke-width: 1.0;"/><text fill="#000000" font-family="sans-serif" font-size="11" lengthAdjust="spacingAndGlyphs" textLength="156" x="26" y="209.3667">removeQualitative(int): void</text><ellipse cx="17" cy="218.9609" fill="#84BE84" rx="3" ry="3" style="stroke: #038048; stroke-width: 1.0;"/><text fill="#000000" font-family="sans-serif" font-size="11" lengthAdjust="spacingAndGlyphs" textLength="164" x="26" y="222.1714">removeQuantitative(int): void</text><ellipse cx="17" cy="231.7656" fill="#84BE84" rx="3" ry="3" style="stroke: #038048; stroke-width: 1.0;"/><text fill="#000000" font-family="sans-serif" font-size="11" lengthAdjust="spacingAndGlyphs" textLength="152" x="26" y="234.9761">onRowEditCancelled(): void</text></a><!--MD5=[5a5af9b0547913863cbe0ddf55a9ab5e]
class java.io.Serializable--><a href="https://docs.oracle.com/en/java/javase/11/docs/api/java.base/java/io/Serializable.html?is-external=true" target="_top" title="https://docs.oracle.com/en/java/javase/11/docs/api/java.base/java/io/Serializable.html?is-external=true" xlink:actuate="onRequest" xlink:href="https://docs.oracle.com/en/java/javase/11/docs/api/java.base/java/io/Serializable.html?is-external=true" xlink:show="new" xlink:title="https://docs.oracle.com/en/java/javase/11/docs/api/java.base/java/io/Serializable.html?is-external=true" xlink:type="simple"><rect fill="#FEFECE" filter="url(#fhbmcdkk4owof)" height="37.9375" id="java.io.Serializable" style="stroke: #A80036; stroke-width: 1.5;" width="108" x="47" y="8"/><ellipse cx="62" cy="26.9688" fill="#B4A7E5" rx="11" ry="11" style="stroke: #A80036; stroke-width: 1.0;"/><path d="M57.9219,22.7344 L57.9219,20.5781 L65.3125,20.5781 L65.3125,22.7344 L62.8438,22.7344 L62.8438,30.8125 L65.3125,30.8125 L65.3125,32.9688 L57.9219,32.9688 L57.9219,30.8125 L60.3906,30.8125 L60.3906,22.7344 L57.9219,22.7344 Z "/><text fill="#000000" font-family="sans-serif" font-size="14" font-style="italic" lengthAdjust="spacingAndGlyphs" textLength="76" x="76" y="25.9951">Serializable</text><text fill="#000000" font-family="sans-serif" font-size="10" font-style="italic" lengthAdjust="spacingAndGlyphs" textLength="33" x="97.5" y="38.5791">java.io</text></a><!--MD5=[69f5e6bea87fd5de31f963e5039e9141]
reverse link java.io.Serializable to de.unibremen.sfb.boundary.QlEView--><path d="M101,66.35 C101,78.53 101,92.37 101,105.96 " fill="none" id="java.io.Serializable&lt;-de.unibremen.sfb.boundary.QlEView" style="stroke: #A80036; stroke-width: 1.0; stroke-dasharray: 7.0,7.0;"/><polygon fill="none" points="94,66.07,101,46.07,108,66.07,94,66.07" style="stroke: #A80036; stroke-width: 1.0;"/><text fill="#888888" font-family="sans-serif" font-size="10" lengthAdjust="spacingAndGlyphs" textLength="186" x="14" y="261.2822">UMLDoclet 2.0.7, PlantUML 1.2019.12</text><!--MD5=[4ba702eec5e54374e86dcc6899c56f25]
@startuml
    set namespaceSeparator none
    hide empty fields
    hide empty methods

    class "<size:14>QlEView\n<size:10>de.unibremen.sfb.boundary" as de.unibremen.sfb.boundary.QlEView [[QlEView.html]] {
        +addQualitative(): void
        +addQuantitative(): void
        +editQualitative(int): void
        +editQuantitative(int): void
        +removeQualitative(int): void
        +removeQuantitative(int): void
        +onRowEditCancelled(): void
    }

    interface "<size:14>Serializable\n<size:10>java.io" as java.io.Serializable [[https://docs.oracle.com/en/java/javase/11/docs/api/java.base/java/io/Serializable.html?is-external=true]]

    java.io.Serializable <|.. de.unibremen.sfb.boundary.QlEView

    center footer UMLDoclet 2.0.7, PlantUML 1.2019.12
@enduml

PlantUML version 1.2019.12(Sun Nov 03 11:24:54 CET 2019)
(APACHE source distribution)
Java Runtime: OpenJDK Runtime Environment
JVM: OpenJDK 64-Bit Server VM
Java Version: 13.0.2+8
Operating System: Linux
Default Encoding: UTF-8
Language: de
Country: DE
--></g></svg>