<?xml version="1.0" encoding="UTF-8" standalone="no"?><svg xmlns="http://www.w3.org/2000/svg" xmlns:xlink="http://www.w3.org/1999/xlink" contentScriptType="application/ecmascript" contentStyleType="text/css" height="274px" preserveAspectRatio="none" style="width:224px;height:274px;" version="1.1" viewBox="0 0 224 274" width="224px" zoomAndPan="magnify"><defs><filter height="300%" id="f6gsbvl8kojd5" width="300%" x="-1" y="-1"><feGaussianBlur result="blurOut" stdDeviation="2.0"/><feColorMatrix in="blurOut" result="blurOut2" type="matrix" values="0 0 0 0 0 0 0 0 0 0 0 0 0 0 0 0 0 0 .4 0"/><feOffset dx="4.0" dy="4.0" in="blurOut2" result="blurOut3"/><feBlend in="SourceGraphic" in2="blurOut3" mode="normal"/></filter></defs><g><!--MD5=[71529a8a86dd943647501e047f5834b6]
class de.unibremen.sfb.boundary.ShiroLoginBean--><a href="ShiroLoginBean.html" target="_top" title="ShiroLoginBean.html" xlink:actuate="onRequest" xlink:href="ShiroLoginBean.html" xlink:show="new" xlink:title="ShiroLoginBean.html" xlink:type="simple"><rect fill="#FEFECE" filter="url(#f6gsbvl8kojd5)" height="135.5703" id="de.unibremen.sfb.boundary.ShiroLoginBean" style="stroke: #A80036; stroke-width: 1.5;" width="207" x="6" y="106"/><ellipse cx="39.45" cy="124.9688" fill="#ADD1B2" rx="11" ry="11" style="stroke: #A80036; stroke-width: 1.0;"/><path d="M42.4188,130.6094 Q41.8406,130.9063 41.2,131.0469 Q40.5594,131.2031 39.8563,131.2031 Q37.3563,131.2031 36.0281,129.5625 Q34.7156,127.9063 34.7156,124.7813 Q34.7156,121.6563 36.0281,120 Q37.3563,118.3438 39.8563,118.3438 Q40.5594,118.3438 41.2,118.5 Q41.8563,118.6563 42.4188,118.9531 L42.4188,121.6719 Q41.7938,121.0938 41.2,120.8281 Q40.6063,120.5469 39.9813,120.5469 Q38.6375,120.5469 37.95,121.625 Q37.2625,122.6875 37.2625,124.7813 Q37.2625,126.875 37.95,127.9531 Q38.6375,129.0156 39.9813,129.0156 Q40.6063,129.0156 41.2,128.75 Q41.7938,128.4688 42.4188,127.8906 L42.4188,130.6094 Z "/><text fill="#000000" font-family="sans-serif" font-size="14" lengthAdjust="spacingAndGlyphs" textLength="108" x="70.55" y="123.9951">ShiroLoginBean</text><text fill="#000000" font-family="sans-serif" font-size="10" lengthAdjust="spacingAndGlyphs" textLength="134" x="57.55" y="136.5791">de.unibremen.sfb.boundary</text><line style="stroke: #A80036; stroke-width: 1.5;" x1="7" x2="212" y1="143.9375" y2="143.9375"/><ellipse cx="17" cy="154.9375" fill="#84BE84" rx="3" ry="3" style="stroke: #038048; stroke-width: 1.0;"/><text fill="#000000" font-family="sans-serif" font-size="11" lengthAdjust="spacingAndGlyphs" textLength="83" x="26" y="158.1479">doLogin(): void</text><ellipse cx="17" cy="167.7422" fill="#84BE84" rx="3" ry="3" style="stroke: #038048; stroke-width: 1.0;"/><text fill="#000000" font-family="sans-serif" font-size="11" lengthAdjust="spacingAndGlyphs" textLength="127" x="26" y="170.9526">getUsername(): String</text><ellipse cx="17" cy="180.5469" fill="#84BE84" rx="3" ry="3" style="stroke: #038048; stroke-width: 1.0;"/><text fill="#000000" font-family="sans-serif" font-size="11" lengthAdjust="spacingAndGlyphs" textLength="150" x="26" y="183.7573">setUsername(String): void</text><ellipse cx="17" cy="193.3516" fill="#84BE84" rx="3" ry="3" style="stroke: #038048; stroke-width: 1.0;"/><text fill="#000000" font-family="sans-serif" font-size="11" lengthAdjust="spacingAndGlyphs" textLength="124" x="26" y="196.562">getPassword(): String</text><ellipse cx="17" cy="206.1563" fill="#84BE84" rx="3" ry="3" style="stroke: #038048; stroke-width: 1.0;"/><text fill="#000000" font-family="sans-serif" font-size="11" lengthAdjust="spacingAndGlyphs" textLength="147" x="26" y="209.3667">setPassword(String): void</text><ellipse cx="17" cy="218.9609" fill="#84BE84" rx="3" ry="3" style="stroke: #038048; stroke-width: 1.0;"/><text fill="#000000" font-family="sans-serif" font-size="11" lengthAdjust="spacingAndGlyphs" textLength="158" x="26" y="222.1714">getRememberMe(): Boolean</text><ellipse cx="17" cy="231.7656" fill="#84BE84" rx="3" ry="3" style="stroke: #038048; stroke-width: 1.0;"/><text fill="#000000" font-family="sans-serif" font-size="11" lengthAdjust="spacingAndGlyphs" textLength="181" x="26" y="234.9761">setRememberMe(Boolean): void</text></a><!--MD5=[5a5af9b0547913863cbe0ddf55a9ab5e]
class java.io.Serializable--><a href="https://docs.oracle.com/en/java/javase/11/docs/api/java.base/java/io/Serializable.html?is-external=true" target="_top" title="https://docs.oracle.com/en/java/javase/11/docs/api/java.base/java/io/Serializable.html?is-external=true" xlink:actuate="onRequest" xlink:href="https://docs.oracle.com/en/java/javase/11/docs/api/java.base/java/io/Serializable.html?is-external=true" xlink:show="new" xlink:title="https://docs.oracle.com/en/java/javase/11/docs/api/java.base/java/io/Serializable.html?is-external=true" xlink:type="simple"><rect fill="#FEFECE" filter="url(#f6gsbvl8kojd5)" height="37.9375" id="java.io.Serializable" style="stroke: #A80036; stroke-width: 1.5;" width="108" x="55.5" y="8"/><ellipse cx="70.5" cy="26.9688" fill="#B4A7E5" rx="11" ry="11" style="stroke: #A80036; stroke-width: 1.0;"/><path d="M66.4219,22.7344 L66.4219,20.5781 L73.8125,20.5781 L73.8125,22.7344 L71.3438,22.7344 L71.3438,30.8125 L73.8125,30.8125 L73.8125,32.9688 L66.4219,32.9688 L66.4219,30.8125 L68.8906,30.8125 L68.8906,22.7344 L66.4219,22.7344 Z "/><text fill="#000000" font-family="sans-serif" font-size="14" font-style="italic" lengthAdjust="spacingAndGlyphs" textLength="76" x="84.5" y="25.9951">Serializable</text><text fill="#000000" font-family="sans-serif" font-size="10" font-style="italic" lengthAdjust="spacingAndGlyphs" textLength="33" x="106" y="38.5791">java.io</text></a><!--MD5=[5f03444db2105a3b4309027b266909cf]
reverse link java.io.Serializable to de.unibremen.sfb.boundary.ShiroLoginBean--><path d="M109.5,66.35 C109.5,78.53 109.5,92.37 109.5,105.96 " fill="none" id="java.io.Serializable&lt;-de.unibremen.sfb.boundary.ShiroLoginBean" style="stroke: #A80036; stroke-width: 1.0; stroke-dasharray: 7.0,7.0;"/><polygon fill="none" points="102.5,66.07,109.5,46.07,116.5,66.07,102.5,66.07" style="stroke: #A80036; stroke-width: 1.0;"/><text fill="#888888" font-family="sans-serif" font-size="10" lengthAdjust="spacingAndGlyphs" textLength="186" x="22.5" y="261.2822">UMLDoclet 2.0.7, PlantUML 1.2019.12</text><!--MD5=[5d9f10bb32979dc19f8b3fd215cb6a89]
@startuml
    set namespaceSeparator none
    hide empty fields
    hide empty methods

    class "<size:14>ShiroLoginBean\n<size:10>de.unibremen.sfb.boundary" as de.unibremen.sfb.boundary.ShiroLoginBean [[ShiroLoginBean.html]] {
        +doLogin(): void
        +getUsername(): String
        +setUsername(String): void
        +getPassword(): String
        +setPassword(String): void
        +getRememberMe(): Boolean
        +setRememberMe(Boolean): void
    }

    interface "<size:14>Serializable\n<size:10>java.io" as java.io.Serializable [[https://docs.oracle.com/en/java/javase/11/docs/api/java.base/java/io/Serializable.html?is-external=true]]

    java.io.Serializable <|.. de.unibremen.sfb.boundary.ShiroLoginBean

    center footer UMLDoclet 2.0.7, PlantUML 1.2019.12
@enduml

PlantUML version 1.2019.12(Sun Nov 03 11:24:54 CET 2019)
(APACHE source distribution)
Java Runtime: OpenJDK Runtime Environment
JVM: OpenJDK 64-Bit Server VM
Java Version: 13.0.2+8
Operating System: Linux
Default Encoding: UTF-8
Language: de
Country: DE
--></g></svg>