<?xml version="1.0" encoding="UTF-8" standalone="no"?><svg xmlns="http://www.w3.org/2000/svg" xmlns:xlink="http://www.w3.org/1999/xlink" contentScriptType="application/ecmascript" contentStyleType="text/css" height="222px" preserveAspectRatio="none" style="width:286px;height:222px;" version="1.1" viewBox="0 0 286 222" width="286px" zoomAndPan="magnify"><defs><filter height="300%" id="f1t1axenlkxlco" width="300%" x="-1" y="-1"><feGaussianBlur result="blurOut" stdDeviation="2.0"/><feColorMatrix in="blurOut" result="blurOut2" type="matrix" values="0 0 0 0 0 0 0 0 0 0 0 0 0 0 0 0 0 0 .4 0"/><feOffset dx="4.0" dy="4.0" in="blurOut2" result="blurOut3"/><feBlend in="SourceGraphic" in2="blurOut3" mode="normal"/></filter></defs><g><!--MD5=[d667cec387caba53e617b897a41abd97]
class de.unibremen.sfb.boundary.SingleStationBean--><a href="SingleStationBean.html" target="_top" title="SingleStationBean.html" xlink:actuate="onRequest" xlink:href="SingleStationBean.html" xlink:show="new" xlink:title="SingleStationBean.html" xlink:type="simple"><rect fill="#FEFECE" filter="url(#f1t1axenlkxlco)" height="84.3516" id="de.unibremen.sfb.boundary.SingleStationBean" style="stroke: #A80036; stroke-width: 1.5;" width="269" x="6" y="106"/><ellipse cx="69.25" cy="124.9688" fill="#ADD1B2" rx="11" ry="11" style="stroke: #A80036; stroke-width: 1.0;"/><path d="M72.2188,130.6094 Q71.6406,130.9063 71,131.0469 Q70.3594,131.2031 69.6563,131.2031 Q67.1563,131.2031 65.8281,129.5625 Q64.5156,127.9063 64.5156,124.7813 Q64.5156,121.6563 65.8281,120 Q67.1563,118.3438 69.6563,118.3438 Q70.3594,118.3438 71,118.5 Q71.6563,118.6563 72.2188,118.9531 L72.2188,121.6719 Q71.5938,121.0938 71,120.8281 Q70.4063,120.5469 69.7813,120.5469 Q68.4375,120.5469 67.75,121.625 Q67.0625,122.6875 67.0625,124.7813 Q67.0625,126.875 67.75,127.9531 Q68.4375,129.0156 69.7813,129.0156 Q70.4063,129.0156 71,128.75 Q71.5938,128.4688 72.2188,127.8906 L72.2188,130.6094 Z "/><text fill="#000000" font-family="sans-serif" font-size="14" lengthAdjust="spacingAndGlyphs" textLength="126" x="93.75" y="123.9951">SingleStationBean</text><text fill="#000000" font-family="sans-serif" font-size="10" lengthAdjust="spacingAndGlyphs" textLength="134" x="89.75" y="136.5791">de.unibremen.sfb.boundary</text><line style="stroke: #A80036; stroke-width: 1.5;" x1="7" x2="274" y1="143.9375" y2="143.9375"/><ellipse cx="17" cy="154.9375" fill="#84BE84" rx="3" ry="3" style="stroke: #038048; stroke-width: 1.0;"/><text fill="#000000" font-family="sans-serif" font-size="11" lengthAdjust="spacingAndGlyphs" textLength="243" x="26" y="158.1479">singleStation(ExperimentierStation): String</text><ellipse cx="17" cy="167.7422" fill="#84BE84" rx="3" ry="3" style="stroke: #038048; stroke-width: 1.0;"/><text fill="#000000" font-family="sans-serif" font-size="11" lengthAdjust="spacingAndGlyphs" textLength="114" x="26" y="170.9526">reportBroken(): void</text><ellipse cx="17" cy="180.5469" fill="#84BE84" rx="3" ry="3" style="stroke: #038048; stroke-width: 1.0;"/><text fill="#000000" font-family="sans-serif" font-size="11" lengthAdjust="spacingAndGlyphs" textLength="145" x="26" y="183.7573">getProben(): List&lt;Probe&gt;</text></a><!--MD5=[5a5af9b0547913863cbe0ddf55a9ab5e]
class java.io.Serializable--><a href="https://docs.oracle.com/en/java/javase/11/docs/api/java.base/java/io/Serializable.html?is-external=true" target="_top" title="https://docs.oracle.com/en/java/javase/11/docs/api/java.base/java/io/Serializable.html?is-external=true" xlink:actuate="onRequest" xlink:href="https://docs.oracle.com/en/java/javase/11/docs/api/java.base/java/io/Serializable.html?is-external=true" xlink:show="new" xlink:title="https://docs.oracle.com/en/java/javase/11/docs/api/java.base/java/io/Serializable.html?is-external=true" xlink:type="simple"><rect fill="#FEFECE" filter="url(#f1t1axenlkxlco)" height="37.9375" id="java.io.Serializable" style="stroke: #A80036; stroke-width: 1.5;" width="108" x="86.5" y="8"/><ellipse cx="101.5" cy="26.9688" fill="#B4A7E5" rx="11" ry="11" style="stroke: #A80036; stroke-width: 1.0;"/><path d="M97.4219,22.7344 L97.4219,20.5781 L104.8125,20.5781 L104.8125,22.7344 L102.3438,22.7344 L102.3438,30.8125 L104.8125,30.8125 L104.8125,32.9688 L97.4219,32.9688 L97.4219,30.8125 L99.8906,30.8125 L99.8906,22.7344 L97.4219,22.7344 Z "/><text fill="#000000" font-family="sans-serif" font-size="14" font-style="italic" lengthAdjust="spacingAndGlyphs" textLength="76" x="115.5" y="25.9951">Serializable</text><text fill="#000000" font-family="sans-serif" font-size="10" font-style="italic" lengthAdjust="spacingAndGlyphs" textLength="33" x="137" y="38.5791">java.io</text></a><!--MD5=[50442ef6c5044b614c13f0314fc8fe52]
reverse link java.io.Serializable to de.unibremen.sfb.boundary.SingleStationBean--><path d="M140.5,66.54 C140.5,79.08 140.5,93.05 140.5,105.78 " fill="none" id="java.io.Serializable&lt;-de.unibremen.sfb.boundary.SingleStationBean" style="stroke: #A80036; stroke-width: 1.0; stroke-dasharray: 7.0,7.0;"/><polygon fill="none" points="133.5,66.07,140.5,46.07,147.5,66.07,133.5,66.07" style="stroke: #A80036; stroke-width: 1.0;"/><text fill="#888888" font-family="sans-serif" font-size="10" lengthAdjust="spacingAndGlyphs" textLength="186" x="53.5" y="209.2822">UMLDoclet 2.0.7, PlantUML 1.2019.12</text><!--MD5=[c35d1fe1f088a84d163c63dab8d68d64]
@startuml
    set namespaceSeparator none
    hide empty fields
    hide empty methods

    class "<size:14>SingleStationBean\n<size:10>de.unibremen.sfb.boundary" as de.unibremen.sfb.boundary.SingleStationBean [[SingleStationBean.html]] {
        +singleStation(ExperimentierStation): String
        +reportBroken(): void
        +getProben(): List<Probe>
    }

    interface "<size:14>Serializable\n<size:10>java.io" as java.io.Serializable [[https://docs.oracle.com/en/java/javase/11/docs/api/java.base/java/io/Serializable.html?is-external=true]]

    java.io.Serializable <|.. de.unibremen.sfb.boundary.SingleStationBean

    center footer UMLDoclet 2.0.7, PlantUML 1.2019.12
@enduml

PlantUML version 1.2019.12(Sun Nov 03 11:24:54 CET 2019)
(APACHE source distribution)
Java Runtime: OpenJDK Runtime Environment
JVM: OpenJDK 64-Bit Server VM
Java Version: 13.0.2+8
Operating System: Linux
Default Encoding: UTF-8
Language: de
Country: DE
--></g></svg>