<?xml version="1.0" encoding="UTF-8" standalone="no"?><svg xmlns="http://www.w3.org/2000/svg" xmlns:xlink="http://www.w3.org/1999/xlink" contentScriptType="application/ecmascript" contentStyleType="text/css" height="235px" preserveAspectRatio="none" style="width:299px;height:235px;" version="1.1" viewBox="0 0 299 235" width="299px" zoomAndPan="magnify"><defs><filter height="300%" id="f2m5c14x1sknx" width="300%" x="-1" y="-1"><feGaussianBlur result="blurOut" stdDeviation="2.0"/><feColorMatrix in="blurOut" result="blurOut2" type="matrix" values="0 0 0 0 0 0 0 0 0 0 0 0 0 0 0 0 0 0 .4 0"/><feOffset dx="4.0" dy="4.0" in="blurOut2" result="blurOut3"/><feBlend in="SourceGraphic" in2="blurOut3" mode="normal"/></filter></defs><g><!--MD5=[6276cf07da18c4fdf63ba4d02f2ea14d]
class de.unibremen.sfb.boundary.SListView--><a href="SListView.html" target="_top" title="SListView.html" xlink:actuate="onRequest" xlink:href="SListView.html" xlink:show="new" xlink:title="SListView.html" xlink:type="simple"><rect fill="#FEFECE" filter="url(#f2m5c14x1sknx)" height="97.1563" id="de.unibremen.sfb.boundary.SListView" style="stroke: #A80036; stroke-width: 1.5;" width="282" x="6" y="106"/><ellipse cx="75.75" cy="124.9688" fill="#ADD1B2" rx="11" ry="11" style="stroke: #A80036; stroke-width: 1.0;"/><path d="M78.7188,130.6094 Q78.1406,130.9063 77.5,131.0469 Q76.8594,131.2031 76.1563,131.2031 Q73.6563,131.2031 72.3281,129.5625 Q71.0156,127.9063 71.0156,124.7813 Q71.0156,121.6563 72.3281,120 Q73.6563,118.3438 76.1563,118.3438 Q76.8594,118.3438 77.5,118.5 Q78.1563,118.6563 78.7188,118.9531 L78.7188,121.6719 Q78.0938,121.0938 77.5,120.8281 Q76.9063,120.5469 76.2813,120.5469 Q74.9375,120.5469 74.25,121.625 Q73.5625,122.6875 73.5625,124.7813 Q73.5625,126.875 74.25,127.9531 Q74.9375,129.0156 76.2813,129.0156 Q76.9063,129.0156 77.5,128.75 Q78.0938,128.4688 78.7188,127.8906 L78.7188,130.6094 Z "/><text fill="#000000" font-family="sans-serif" font-size="14" lengthAdjust="spacingAndGlyphs" textLength="64" x="131.25" y="123.9951">SListView</text><text fill="#000000" font-family="sans-serif" font-size="10" lengthAdjust="spacingAndGlyphs" textLength="134" x="96.25" y="136.5791">de.unibremen.sfb.boundary</text><line style="stroke: #A80036; stroke-width: 1.5;" x1="7" x2="287" y1="143.9375" y2="143.9375"/><ellipse cx="17" cy="154.9375" fill="#84BE84" rx="3" ry="3" style="stroke: #038048; stroke-width: 1.0;"/><text fill="#000000" font-family="sans-serif" font-size="11" lengthAdjust="spacingAndGlyphs" textLength="56" x="26" y="158.1479">init(): void</text><ellipse cx="17" cy="167.7422" fill="#84BE84" rx="3" ry="3" style="stroke: #038048; stroke-width: 1.0;"/><text fill="#000000" font-family="sans-serif" font-size="11" lengthAdjust="spacingAndGlyphs" textLength="130" x="26" y="170.9526">deleteStandorte(): void</text><ellipse cx="17" cy="180.5469" fill="#84BE84" rx="3" ry="3" style="stroke: #038048; stroke-width: 1.0;"/><text fill="#000000" font-family="sans-serif" font-size="11" lengthAdjust="spacingAndGlyphs" textLength="239" x="26" y="183.7573">onRowEdit(RowEditEvent&lt;Standort&gt;): void</text><ellipse cx="17" cy="193.3516" fill="#84BE84" rx="3" ry="3" style="stroke: #038048; stroke-width: 1.0;"/><text fill="#000000" font-family="sans-serif" font-size="11" lengthAdjust="spacingAndGlyphs" textLength="256" x="26" y="196.562">onRowCancel(RowEditEvent&lt;Standort&gt;): void</text></a><!--MD5=[5a5af9b0547913863cbe0ddf55a9ab5e]
class java.io.Serializable--><a href="https://docs.oracle.com/en/java/javase/11/docs/api/java.base/java/io/Serializable.html?is-external=true" target="_top" title="https://docs.oracle.com/en/java/javase/11/docs/api/java.base/java/io/Serializable.html?is-external=true" xlink:actuate="onRequest" xlink:href="https://docs.oracle.com/en/java/javase/11/docs/api/java.base/java/io/Serializable.html?is-external=true" xlink:show="new" xlink:title="https://docs.oracle.com/en/java/javase/11/docs/api/java.base/java/io/Serializable.html?is-external=true" xlink:type="simple"><rect fill="#FEFECE" filter="url(#f2m5c14x1sknx)" height="37.9375" id="java.io.Serializable" style="stroke: #A80036; stroke-width: 1.5;" width="108" x="93" y="8"/><ellipse cx="108" cy="26.9688" fill="#B4A7E5" rx="11" ry="11" style="stroke: #A80036; stroke-width: 1.0;"/><path d="M103.9219,22.7344 L103.9219,20.5781 L111.3125,20.5781 L111.3125,22.7344 L108.8438,22.7344 L108.8438,30.8125 L111.3125,30.8125 L111.3125,32.9688 L103.9219,32.9688 L103.9219,30.8125 L106.3906,30.8125 L106.3906,22.7344 L103.9219,22.7344 Z "/><text fill="#000000" font-family="sans-serif" font-size="14" font-style="italic" lengthAdjust="spacingAndGlyphs" textLength="76" x="122" y="25.9951">Serializable</text><text fill="#000000" font-family="sans-serif" font-size="10" font-style="italic" lengthAdjust="spacingAndGlyphs" textLength="33" x="143.5" y="38.5791">java.io</text></a><!--MD5=[1ffc731fef5568fa5cdb8e9ec0481a17]
reverse link java.io.Serializable to de.unibremen.sfb.boundary.SListView--><path d="M147,66.52 C147,78.97 147,92.93 147,105.96 " fill="none" id="java.io.Serializable&lt;-de.unibremen.sfb.boundary.SListView" style="stroke: #A80036; stroke-width: 1.0; stroke-dasharray: 7.0,7.0;"/><polygon fill="none" points="140,66.25,147,46.25,154,66.25,140,66.25" style="stroke: #A80036; stroke-width: 1.0;"/><text fill="#888888" font-family="sans-serif" font-size="10" lengthAdjust="spacingAndGlyphs" textLength="186" x="60" y="222.2822">UMLDoclet 2.0.7, PlantUML 1.2019.12</text><!--MD5=[644ad8793abfab8ecdc747ad0c8e5bde]
@startuml
    set namespaceSeparator none
    hide empty fields
    hide empty methods

    class "<size:14>SListView\n<size:10>de.unibremen.sfb.boundary" as de.unibremen.sfb.boundary.SListView [[SListView.html]] {
        +init(): void
        +deleteStandorte(): void
        +onRowEdit(RowEditEvent<Standort>): void
        +onRowCancel(RowEditEvent<Standort>): void
    }

    interface "<size:14>Serializable\n<size:10>java.io" as java.io.Serializable [[https://docs.oracle.com/en/java/javase/11/docs/api/java.base/java/io/Serializable.html?is-external=true]]

    java.io.Serializable <|.. de.unibremen.sfb.boundary.SListView

    center footer UMLDoclet 2.0.7, PlantUML 1.2019.12
@enduml

PlantUML version 1.2019.12(Sun Nov 03 11:24:54 CET 2019)
(APACHE source distribution)
Java Runtime: OpenJDK Runtime Environment
JVM: OpenJDK 64-Bit Server VM
Java Version: 13.0.2+8
Operating System: Linux
Default Encoding: UTF-8
Language: de
Country: DE
--></g></svg>