<?xml version="1.0" encoding="UTF-8" standalone="no"?><svg xmlns="http://www.w3.org/2000/svg" xmlns:xlink="http://www.w3.org/1999/xlink" contentScriptType="application/ecmascript" contentStyleType="text/css" height="248px" preserveAspectRatio="none" style="width:206px;height:248px;" version="1.1" viewBox="0 0 206 248" width="206px" zoomAndPan="magnify"><defs><filter height="300%" id="fz0dvvmzgbab8" width="300%" x="-1" y="-1"><feGaussianBlur result="blurOut" stdDeviation="2.0"/><feColorMatrix in="blurOut" result="blurOut2" type="matrix" values="0 0 0 0 0 0 0 0 0 0 0 0 0 0 0 0 0 0 .4 0"/><feOffset dx="4.0" dy="4.0" in="blurOut2" result="blurOut3"/><feBlend in="SourceGraphic" in2="blurOut3" mode="normal"/></filter></defs><g><!--MD5=[b345387847b58f0e27cbab3c73dbf505]
class de.unibremen.sfb.boundary.StandortView--><a href="StandortView.html" target="_top" title="StandortView.html" xlink:actuate="onRequest" xlink:href="StandortView.html" xlink:show="new" xlink:title="StandortView.html" xlink:type="simple"><rect fill="#FEFECE" filter="url(#fz0dvvmzgbab8)" height="109.9609" id="de.unibremen.sfb.boundary.StandortView" style="stroke: #A80036; stroke-width: 1.5;" width="178" x="6" y="106"/><ellipse cx="26.4" cy="124.9688" fill="#ADD1B2" rx="11" ry="11" style="stroke: #A80036; stroke-width: 1.0;"/><path d="M29.3688,130.6094 Q28.7906,130.9063 28.15,131.0469 Q27.5094,131.2031 26.8063,131.2031 Q24.3063,131.2031 22.9781,129.5625 Q21.6656,127.9063 21.6656,124.7813 Q21.6656,121.6563 22.9781,120 Q24.3063,118.3438 26.8063,118.3438 Q27.5094,118.3438 28.15,118.5 Q28.8063,118.6563 29.3688,118.9531 L29.3688,121.6719 Q28.7438,121.0938 28.15,120.8281 Q27.5563,120.5469 26.9313,120.5469 Q25.5875,120.5469 24.9,121.625 Q24.2125,122.6875 24.2125,124.7813 Q24.2125,126.875 24.9,127.9531 Q25.5875,129.0156 26.9313,129.0156 Q27.5563,129.0156 28.15,128.75 Q28.7438,128.4688 29.3688,127.8906 L29.3688,130.6094 Z "/><text fill="#000000" font-family="sans-serif" font-size="14" lengthAdjust="spacingAndGlyphs" textLength="91" x="63.1" y="123.9951">StandortView</text><text fill="#000000" font-family="sans-serif" font-size="10" lengthAdjust="spacingAndGlyphs" textLength="134" x="41.6" y="136.5791">de.unibremen.sfb.boundary</text><line style="stroke: #A80036; stroke-width: 1.5;" x1="7" x2="183" y1="143.9375" y2="143.9375"/><ellipse cx="17" cy="154.9375" fill="#84BE84" rx="3" ry="3" style="stroke: #038048; stroke-width: 1.0;"/><text fill="#000000" font-family="sans-serif" font-size="11" lengthAdjust="spacingAndGlyphs" textLength="109" x="26" y="158.1479">addStandort(): void</text><ellipse cx="17" cy="167.7422" fill="#84BE84" rx="3" ry="3" style="stroke: #038048; stroke-width: 1.0;"/><text fill="#000000" font-family="sans-serif" font-size="11" lengthAdjust="spacingAndGlyphs" textLength="152" x="26" y="170.9526">updateOnRowEdit(int): void</text><ellipse cx="17" cy="180.5469" fill="#84BE84" rx="3" ry="3" style="stroke: #038048; stroke-width: 1.0;"/><text fill="#000000" font-family="sans-serif" font-size="11" lengthAdjust="spacingAndGlyphs" textLength="135" x="26" y="183.7573">onRowEditCancel(): void</text><ellipse cx="17" cy="193.3516" fill="#84BE84" rx="3" ry="3" style="stroke: #038048; stroke-width: 1.0;"/><text fill="#000000" font-family="sans-serif" font-size="11" lengthAdjust="spacingAndGlyphs" textLength="96" x="26" y="196.562">remove(int): void</text><ellipse cx="17" cy="206.1563" fill="#84BE84" rx="3" ry="3" style="stroke: #038048; stroke-width: 1.0;"/><text fill="#000000" font-family="sans-serif" font-size="11" lengthAdjust="spacingAndGlyphs" textLength="134" x="26" y="209.3667">getAll(): List&lt;Standort&gt;</text></a><!--MD5=[5a5af9b0547913863cbe0ddf55a9ab5e]
class java.io.Serializable--><a href="https://docs.oracle.com/en/java/javase/11/docs/api/java.base/java/io/Serializable.html?is-external=true" target="_top" title="https://docs.oracle.com/en/java/javase/11/docs/api/java.base/java/io/Serializable.html?is-external=true" xlink:actuate="onRequest" xlink:href="https://docs.oracle.com/en/java/javase/11/docs/api/java.base/java/io/Serializable.html?is-external=true" xlink:show="new" xlink:title="https://docs.oracle.com/en/java/javase/11/docs/api/java.base/java/io/Serializable.html?is-external=true" xlink:type="simple"><rect fill="#FEFECE" filter="url(#fz0dvvmzgbab8)" height="37.9375" id="java.io.Serializable" style="stroke: #A80036; stroke-width: 1.5;" width="108" x="41" y="8"/><ellipse cx="56" cy="26.9688" fill="#B4A7E5" rx="11" ry="11" style="stroke: #A80036; stroke-width: 1.0;"/><path d="M51.9219,22.7344 L51.9219,20.5781 L59.3125,20.5781 L59.3125,22.7344 L56.8438,22.7344 L56.8438,30.8125 L59.3125,30.8125 L59.3125,32.9688 L51.9219,32.9688 L51.9219,30.8125 L54.3906,30.8125 L54.3906,22.7344 L51.9219,22.7344 Z "/><text fill="#000000" font-family="sans-serif" font-size="14" font-style="italic" lengthAdjust="spacingAndGlyphs" textLength="76" x="70" y="25.9951">Serializable</text><text fill="#000000" font-family="sans-serif" font-size="10" font-style="italic" lengthAdjust="spacingAndGlyphs" textLength="33" x="91.5" y="38.5791">java.io</text></a><!--MD5=[e700a4cfef029644b182cf912996e294]
reverse link java.io.Serializable to de.unibremen.sfb.boundary.StandortView--><path d="M95,66.19 C95,78.61 95,92.62 95,105.97 " fill="none" id="java.io.Serializable&lt;-de.unibremen.sfb.boundary.StandortView" style="stroke: #A80036; stroke-width: 1.0; stroke-dasharray: 7.0,7.0;"/><polygon fill="none" points="88,66.08,95,46.08,102,66.08,88,66.08" style="stroke: #A80036; stroke-width: 1.0;"/><text fill="#888888" font-family="sans-serif" font-size="10" lengthAdjust="spacingAndGlyphs" textLength="186" x="8" y="235.2822">UMLDoclet 2.0.7, PlantUML 1.2019.12</text><!--MD5=[2db48419534d88f00b45226ea2a62f03]
@startuml
    set namespaceSeparator none
    hide empty fields
    hide empty methods

    class "<size:14>StandortView\n<size:10>de.unibremen.sfb.boundary" as de.unibremen.sfb.boundary.StandortView [[StandortView.html]] {
        +addStandort(): void
        +updateOnRowEdit(int): void
        +onRowEditCancel(): void
        +remove(int): void
        +getAll(): List<Standort>
    }

    interface "<size:14>Serializable\n<size:10>java.io" as java.io.Serializable [[https://docs.oracle.com/en/java/javase/11/docs/api/java.base/java/io/Serializable.html?is-external=true]]

    java.io.Serializable <|.. de.unibremen.sfb.boundary.StandortView

    center footer UMLDoclet 2.0.7, PlantUML 1.2019.12
@enduml

PlantUML version 1.2019.12(Sun Nov 03 11:24:54 CET 2019)
(APACHE source distribution)
Java Runtime: OpenJDK Runtime Environment
JVM: OpenJDK 64-Bit Server VM
Java Version: 13.0.2+8
Operating System: Linux
Default Encoding: UTF-8
Language: de
Country: DE
--></g></svg>