<?xml version="1.0" encoding="UTF-8" standalone="no"?><svg xmlns="http://www.w3.org/2000/svg" xmlns:xlink="http://www.w3.org/1999/xlink" contentScriptType="application/ecmascript" contentStyleType="text/css" height="274px" preserveAspectRatio="none" style="width:302px;height:274px;" version="1.1" viewBox="0 0 302 274" width="302px" zoomAndPan="magnify"><defs><filter height="300%" id="f1nbxcz6shw6po" width="300%" x="-1" y="-1"><feGaussianBlur result="blurOut" stdDeviation="2.0"/><feColorMatrix in="blurOut" result="blurOut2" type="matrix" values="0 0 0 0 0 0 0 0 0 0 0 0 0 0 0 0 0 0 .4 0"/><feOffset dx="4.0" dy="4.0" in="blurOut2" result="blurOut3"/><feBlend in="SourceGraphic" in2="blurOut3" mode="normal"/></filter></defs><g><!--MD5=[064a5ed94d2fd880f577949c8e4477fd]
class de.unibremen.sfb.boundary.TransporterBean--><a href="TransporterBean.html" target="_top" title="TransporterBean.html" xlink:actuate="onRequest" xlink:href="TransporterBean.html" xlink:show="new" xlink:title="TransporterBean.html" xlink:type="simple"><rect fill="#FEFECE" filter="url(#f1nbxcz6shw6po)" height="135.5703" id="de.unibremen.sfb.boundary.TransporterBean" style="stroke: #A80036; stroke-width: 1.5;" width="285" x="6" y="106"/><ellipse cx="77.25" cy="124.9688" fill="#ADD1B2" rx="11" ry="11" style="stroke: #A80036; stroke-width: 1.0;"/><path d="M80.2188,130.6094 Q79.6406,130.9063 79,131.0469 Q78.3594,131.2031 77.6563,131.2031 Q75.1563,131.2031 73.8281,129.5625 Q72.5156,127.9063 72.5156,124.7813 Q72.5156,121.6563 73.8281,120 Q75.1563,118.3438 77.6563,118.3438 Q78.3594,118.3438 79,118.5 Q79.6563,118.6563 80.2188,118.9531 L80.2188,121.6719 Q79.5938,121.0938 79,120.8281 Q78.4063,120.5469 77.7813,120.5469 Q76.4375,120.5469 75.75,121.625 Q75.0625,122.6875 75.0625,124.7813 Q75.0625,126.875 75.75,127.9531 Q76.4375,129.0156 77.7813,129.0156 Q78.4063,129.0156 79,128.75 Q79.5938,128.4688 80.2188,127.8906 L80.2188,130.6094 Z "/><text fill="#000000" font-family="sans-serif" font-size="14" lengthAdjust="spacingAndGlyphs" textLength="117" x="106.25" y="123.9951">TransporterBean</text><text fill="#000000" font-family="sans-serif" font-size="10" lengthAdjust="spacingAndGlyphs" textLength="134" x="97.75" y="136.5791">de.unibremen.sfb.boundary</text><line style="stroke: #A80036; stroke-width: 1.5;" x1="7" x2="290" y1="143.9375" y2="143.9375"/><ellipse cx="17" cy="154.9375" fill="#84BE84" rx="3" ry="3" style="stroke: #038048; stroke-width: 1.0;"/><text fill="#000000" font-family="sans-serif" font-size="11" lengthAdjust="spacingAndGlyphs" textLength="215" x="26" y="158.1479">getAuftragList(): List&lt;ProzessSchritt&gt;</text><ellipse cx="17" cy="167.7422" fill="#84BE84" rx="3" ry="3" style="stroke: #038048; stroke-width: 1.0;"/><text fill="#000000" font-family="sans-serif" font-size="11" lengthAdjust="spacingAndGlyphs" textLength="247" x="26" y="170.9526">changeTransportZustandAbgeholt(int): void</text><ellipse cx="17" cy="180.5469" fill="#84BE84" rx="3" ry="3" style="stroke: #038048; stroke-width: 1.0;"/><text fill="#000000" font-family="sans-serif" font-size="11" lengthAdjust="spacingAndGlyphs" textLength="259" x="26" y="183.7573">changeTransportZustandAbgeliefert(int): void</text><ellipse cx="17" cy="193.3516" fill="#84BE84" rx="3" ry="3" style="stroke: #038048; stroke-width: 1.0;"/><text fill="#000000" font-family="sans-serif" font-size="11" lengthAdjust="spacingAndGlyphs" textLength="164" x="26" y="196.562">reportLostProbe(Probe): void</text><ellipse cx="17" cy="206.1563" fill="#84BE84" rx="3" ry="3" style="stroke: #038048; stroke-width: 1.0;"/><text fill="#000000" font-family="sans-serif" font-size="11" lengthAdjust="spacingAndGlyphs" textLength="145" x="26" y="209.3667">reportLostProbe(int): void</text><ellipse cx="17" cy="218.9609" fill="#84BE84" rx="3" ry="3" style="stroke: #038048; stroke-width: 1.0;"/><text fill="#000000" font-family="sans-serif" font-size="11" lengthAdjust="spacingAndGlyphs" textLength="126" x="26" y="222.1714">updateTabellen(): void</text><ellipse cx="17" cy="231.7656" fill="#84BE84" rx="3" ry="3" style="stroke: #038048; stroke-width: 1.0;"/><text fill="#000000" font-family="sans-serif" font-size="11" lengthAdjust="spacingAndGlyphs" textLength="205" x="26" y="234.9761">getTraegerByPS(int): List&lt;Traeger&gt;</text></a><!--MD5=[5a5af9b0547913863cbe0ddf55a9ab5e]
class java.io.Serializable--><a href="https://docs.oracle.com/en/java/javase/11/docs/api/java.base/java/io/Serializable.html?is-external=true" target="_top" title="https://docs.oracle.com/en/java/javase/11/docs/api/java.base/java/io/Serializable.html?is-external=true" xlink:actuate="onRequest" xlink:href="https://docs.oracle.com/en/java/javase/11/docs/api/java.base/java/io/Serializable.html?is-external=true" xlink:show="new" xlink:title="https://docs.oracle.com/en/java/javase/11/docs/api/java.base/java/io/Serializable.html?is-external=true" xlink:type="simple"><rect fill="#FEFECE" filter="url(#f1nbxcz6shw6po)" height="37.9375" id="java.io.Serializable" style="stroke: #A80036; stroke-width: 1.5;" width="108" x="94.5" y="8"/><ellipse cx="109.5" cy="26.9688" fill="#B4A7E5" rx="11" ry="11" style="stroke: #A80036; stroke-width: 1.0;"/><path d="M105.4219,22.7344 L105.4219,20.5781 L112.8125,20.5781 L112.8125,22.7344 L110.3438,22.7344 L110.3438,30.8125 L112.8125,30.8125 L112.8125,32.9688 L105.4219,32.9688 L105.4219,30.8125 L107.8906,30.8125 L107.8906,22.7344 L105.4219,22.7344 Z "/><text fill="#000000" font-family="sans-serif" font-size="14" font-style="italic" lengthAdjust="spacingAndGlyphs" textLength="76" x="123.5" y="25.9951">Serializable</text><text fill="#000000" font-family="sans-serif" font-size="10" font-style="italic" lengthAdjust="spacingAndGlyphs" textLength="33" x="145" y="38.5791">java.io</text></a><!--MD5=[2f58c3388f47687c0073bff633629ca4]
reverse link java.io.Serializable to de.unibremen.sfb.boundary.TransporterBean--><path d="M148.5,66.35 C148.5,78.53 148.5,92.37 148.5,105.96 " fill="none" id="java.io.Serializable&lt;-de.unibremen.sfb.boundary.TransporterBean" style="stroke: #A80036; stroke-width: 1.0; stroke-dasharray: 7.0,7.0;"/><polygon fill="none" points="141.5,66.07,148.5,46.07,155.5,66.07,141.5,66.07" style="stroke: #A80036; stroke-width: 1.0;"/><text fill="#888888" font-family="sans-serif" font-size="10" lengthAdjust="spacingAndGlyphs" textLength="186" x="61.5" y="261.2822">UMLDoclet 2.0.7, PlantUML 1.2019.12</text><!--MD5=[2ccfb377891e1bcdb66c5601039bf873]
@startuml
    set namespaceSeparator none
    hide empty fields
    hide empty methods

    class "<size:14>TransporterBean\n<size:10>de.unibremen.sfb.boundary" as de.unibremen.sfb.boundary.TransporterBean [[TransporterBean.html]] {
        +getAuftragList(): List<ProzessSchritt>
        +changeTransportZustandAbgeholt(int): void
        +changeTransportZustandAbgeliefert(int): void
        +reportLostProbe(Probe): void
        +reportLostProbe(int): void
        +updateTabellen(): void
        +getTraegerByPS(int): List<Traeger>
    }

    interface "<size:14>Serializable\n<size:10>java.io" as java.io.Serializable [[https://docs.oracle.com/en/java/javase/11/docs/api/java.base/java/io/Serializable.html?is-external=true]]

    java.io.Serializable <|.. de.unibremen.sfb.boundary.TransporterBean

    center footer UMLDoclet 2.0.7, PlantUML 1.2019.12
@enduml

PlantUML version 1.2019.12(Sun Nov 03 11:24:54 CET 2019)
(APACHE source distribution)
Java Runtime: OpenJDK Runtime Environment
JVM: OpenJDK 64-Bit Server VM
Java Version: 13.0.2+8
Operating System: Linux
Default Encoding: UTF-8
Language: de
Country: DE
--></g></svg>