<?xml version="1.0" encoding="UTF-8" standalone="no"?><svg xmlns="http://www.w3.org/2000/svg" xmlns:xlink="http://www.w3.org/1999/xlink" contentScriptType="application/ecmascript" contentStyleType="text/css" height="248px" preserveAspectRatio="none" style="width:357px;height:248px;" version="1.1" viewBox="0 0 357 248" width="357px" zoomAndPan="magnify"><defs><filter height="300%" id="fdj9sa4yzg8zo" width="300%" x="-1" y="-1"><feGaussianBlur result="blurOut" stdDeviation="2.0"/><feColorMatrix in="blurOut" result="blurOut2" type="matrix" values="0 0 0 0 0 0 0 0 0 0 0 0 0 0 0 0 0 0 .4 0"/><feOffset dx="4.0" dy="4.0" in="blurOut2" result="blurOut3"/><feBlend in="SourceGraphic" in2="blurOut3" mode="normal"/></filter></defs><g><!--MD5=[1c8cc42ffdc80a3e0fb68a378bac9025]
class de.unibremen.sfb.boundary.UpdatePSPView--><a href="UpdatePSPView.html" target="_top" title="UpdatePSPView.html" xlink:actuate="onRequest" xlink:href="UpdatePSPView.html" xlink:show="new" xlink:title="UpdatePSPView.html" xlink:type="simple"><rect fill="#FEFECE" filter="url(#fdj9sa4yzg8zo)" height="109.9609" id="de.unibremen.sfb.boundary.UpdatePSPView" style="stroke: #A80036; stroke-width: 1.5;" width="340" x="6" y="106"/><ellipse cx="104.75" cy="124.9688" fill="#ADD1B2" rx="11" ry="11" style="stroke: #A80036; stroke-width: 1.0;"/><path d="M107.7188,130.6094 Q107.1406,130.9063 106.5,131.0469 Q105.8594,131.2031 105.1563,131.2031 Q102.6563,131.2031 101.3281,129.5625 Q100.0156,127.9063 100.0156,124.7813 Q100.0156,121.6563 101.3281,120 Q102.6563,118.3438 105.1563,118.3438 Q105.8594,118.3438 106.5,118.5 Q107.1563,118.6563 107.7188,118.9531 L107.7188,121.6719 Q107.0938,121.0938 106.5,120.8281 Q105.9063,120.5469 105.2813,120.5469 Q103.9375,120.5469 103.25,121.625 Q102.5625,122.6875 102.5625,124.7813 Q102.5625,126.875 103.25,127.9531 Q103.9375,129.0156 105.2813,129.0156 Q105.9063,129.0156 106.5,128.75 Q107.0938,128.4688 107.7188,127.8906 L107.7188,130.6094 Z "/><text fill="#000000" font-family="sans-serif" font-size="14" lengthAdjust="spacingAndGlyphs" textLength="109" x="137.75" y="123.9951">UpdatePSPView</text><text fill="#000000" font-family="sans-serif" font-size="10" lengthAdjust="spacingAndGlyphs" textLength="134" x="125.25" y="136.5791">de.unibremen.sfb.boundary</text><line style="stroke: #A80036; stroke-width: 1.5;" x1="7" x2="345" y1="143.9375" y2="143.9375"/><ellipse cx="17" cy="154.9375" fill="#84BE84" rx="3" ry="3" style="stroke: #038048; stroke-width: 1.0;"/><text fill="#000000" font-family="sans-serif" font-size="11" lengthAdjust="spacingAndGlyphs" textLength="111" x="26" y="158.1479">updatePSP(): String</text><ellipse cx="17" cy="167.7422" fill="#84BE84" rx="3" ry="3" style="stroke: #038048; stroke-width: 1.0;"/><text fill="#000000" font-family="sans-serif" font-size="11" lengthAdjust="spacingAndGlyphs" textLength="314" x="26" y="170.9526">deleteGewaltQein(String): List&lt;QualitativeEigenschaft&gt;</text><ellipse cx="17" cy="180.5469" fill="#84BE84" rx="3" ry="3" style="stroke: #038048; stroke-width: 1.0;"/><text fill="#000000" font-family="sans-serif" font-size="11" lengthAdjust="spacingAndGlyphs" textLength="214" x="26" y="183.7573">listqlE(): List&lt;QualitativeEigenschaft&gt;</text><ellipse cx="17" cy="193.3516" fill="#84BE84" rx="3" ry="3" style="stroke: #038048; stroke-width: 1.0;"/><text fill="#000000" font-family="sans-serif" font-size="11" lengthAdjust="spacingAndGlyphs" textLength="223" x="26" y="196.562">listqtE(): List&lt;QuantitativeEigenschaft&gt;</text><ellipse cx="17" cy="206.1563" fill="#84BE84" rx="3" ry="3" style="stroke: #038048; stroke-width: 1.0;"/><text fill="#000000" font-family="sans-serif" font-size="11" lengthAdjust="spacingAndGlyphs" textLength="107" x="26" y="209.3667">select(String): void</text></a><!--MD5=[5a5af9b0547913863cbe0ddf55a9ab5e]
class java.io.Serializable--><a href="https://docs.oracle.com/en/java/javase/11/docs/api/java.base/java/io/Serializable.html?is-external=true" target="_top" title="https://docs.oracle.com/en/java/javase/11/docs/api/java.base/java/io/Serializable.html?is-external=true" xlink:actuate="onRequest" xlink:href="https://docs.oracle.com/en/java/javase/11/docs/api/java.base/java/io/Serializable.html?is-external=true" xlink:show="new" xlink:title="https://docs.oracle.com/en/java/javase/11/docs/api/java.base/java/io/Serializable.html?is-external=true" xlink:type="simple"><rect fill="#FEFECE" filter="url(#fdj9sa4yzg8zo)" height="37.9375" id="java.io.Serializable" style="stroke: #A80036; stroke-width: 1.5;" width="108" x="122" y="8"/><ellipse cx="137" cy="26.9688" fill="#B4A7E5" rx="11" ry="11" style="stroke: #A80036; stroke-width: 1.0;"/><path d="M132.9219,22.7344 L132.9219,20.5781 L140.3125,20.5781 L140.3125,22.7344 L137.8438,22.7344 L137.8438,30.8125 L140.3125,30.8125 L140.3125,32.9688 L132.9219,32.9688 L132.9219,30.8125 L135.3906,30.8125 L135.3906,22.7344 L132.9219,22.7344 Z "/><text fill="#000000" font-family="sans-serif" font-size="14" font-style="italic" lengthAdjust="spacingAndGlyphs" textLength="76" x="151" y="25.9951">Serializable</text><text fill="#000000" font-family="sans-serif" font-size="10" font-style="italic" lengthAdjust="spacingAndGlyphs" textLength="33" x="172.5" y="38.5791">java.io</text></a><!--MD5=[0d92fad3d77a958628d23029d11b4558]
reverse link java.io.Serializable to de.unibremen.sfb.boundary.UpdatePSPView--><path d="M176,66.19 C176,78.61 176,92.62 176,105.97 " fill="none" id="java.io.Serializable&lt;-de.unibremen.sfb.boundary.UpdatePSPView" style="stroke: #A80036; stroke-width: 1.0; stroke-dasharray: 7.0,7.0;"/><polygon fill="none" points="169,66.08,176,46.08,183,66.08,169,66.08" style="stroke: #A80036; stroke-width: 1.0;"/><text fill="#888888" font-family="sans-serif" font-size="10" lengthAdjust="spacingAndGlyphs" textLength="186" x="89" y="235.2822">UMLDoclet 2.0.7, PlantUML 1.2019.12</text><!--MD5=[4b04251b3f0108426140042545bdbabf]
@startuml
    set namespaceSeparator none
    hide empty fields
    hide empty methods

    class "<size:14>UpdatePSPView\n<size:10>de.unibremen.sfb.boundary" as de.unibremen.sfb.boundary.UpdatePSPView [[UpdatePSPView.html]] {
        +updatePSP(): String
        +deleteGewaltQein(String): List<QualitativeEigenschaft>
        +listqlE(): List<QualitativeEigenschaft>
        +listqtE(): List<QuantitativeEigenschaft>
        +select(String): void
    }

    interface "<size:14>Serializable\n<size:10>java.io" as java.io.Serializable [[https://docs.oracle.com/en/java/javase/11/docs/api/java.base/java/io/Serializable.html?is-external=true]]

    java.io.Serializable <|.. de.unibremen.sfb.boundary.UpdatePSPView

    center footer UMLDoclet 2.0.7, PlantUML 1.2019.12
@enduml

PlantUML version 1.2019.12(Sun Nov 03 11:24:54 CET 2019)
(APACHE source distribution)
Java Runtime: OpenJDK Runtime Environment
JVM: OpenJDK 64-Bit Server VM
Java Version: 13.0.2+8
Operating System: Linux
Default Encoding: UTF-8
Language: de
Country: DE
--></g></svg>