<?xml version="1.0" encoding="UTF-8" standalone="no"?><svg xmlns="http://www.w3.org/2000/svg" xmlns:xlink="http://www.w3.org/1999/xlink" contentScriptType="application/ecmascript" contentStyleType="text/css" height="74px" preserveAspectRatio="none" style="width:198px;height:74px;" version="1.1" viewBox="0 0 198 74" width="198px" zoomAndPan="magnify"><defs><filter height="300%" id="f1ft5mvkpdt258" width="300%" x="-1" y="-1"><feGaussianBlur result="blurOut" stdDeviation="2.0"/><feColorMatrix in="blurOut" result="blurOut2" type="matrix" values="0 0 0 0 0 0 0 0 0 0 0 0 0 0 0 0 0 0 .4 0"/><feOffset dx="4.0" dy="4.0" in="blurOut2" result="blurOut3"/><feBlend in="SourceGraphic" in2="blurOut3" mode="normal"/></filter></defs><g><!--MD5=[da3651629675c1f832f65cd798a26eb2]
class de.unibremen.sfb.service.ArchivService--><a href="ArchivService.html" target="_top" title="ArchivService.html" xlink:actuate="onRequest" xlink:href="ArchivService.html" xlink:show="new" xlink:title="ArchivService.html" xlink:type="simple"><rect fill="#FEFECE" filter="url(#f1ft5mvkpdt258)" height="37.9375" id="de.unibremen.sfb.service.ArchivService" style="stroke: #A80036; stroke-width: 1.5;" width="154" x="16" y="7"/><ellipse cx="31" cy="25.9688" fill="#ADD1B2" rx="11" ry="11" style="stroke: #A80036; stroke-width: 1.0;"/><path d="M33.9688,31.6094 Q33.3906,31.9063 32.75,32.0469 Q32.1094,32.2031 31.4063,32.2031 Q28.9063,32.2031 27.5781,30.5625 Q26.2656,28.9063 26.2656,25.7813 Q26.2656,22.6563 27.5781,21 Q28.9063,19.3438 31.4063,19.3438 Q32.1094,19.3438 32.75,19.5 Q33.4063,19.6563 33.9688,19.9531 L33.9688,22.6719 Q33.3438,22.0938 32.75,21.8281 Q32.1563,21.5469 31.5313,21.5469 Q30.1875,21.5469 29.5,22.625 Q28.8125,23.6875 28.8125,25.7813 Q28.8125,27.875 29.5,28.9531 Q30.1875,30.0156 31.5313,30.0156 Q32.1563,30.0156 32.75,29.75 Q33.3438,29.4688 33.9688,28.8906 L33.9688,31.6094 Z "/><text fill="#000000" font-family="sans-serif" font-size="14" lengthAdjust="spacingAndGlyphs" textLength="91" x="60.5" y="24.9951">ArchivService</text><text fill="#000000" font-family="sans-serif" font-size="10" lengthAdjust="spacingAndGlyphs" textLength="122" x="45" y="37.5791">de.unibremen.sfb.service</text></a><text fill="#888888" font-family="sans-serif" font-size="10" lengthAdjust="spacingAndGlyphs" textLength="186" x="0" y="61.2197">UMLDoclet 2.0.7, PlantUML 1.2019.12</text><!--MD5=[c5e7db2667bfbb9cb01bf8ad3700df68]
@startuml
    set namespaceSeparator none
    hide empty fields
    hide empty methods

    class "<size:14>ArchivService\n<size:10>de.unibremen.sfb.service" as de.unibremen.sfb.service.ArchivService [[ArchivService.html]]

    center footer UMLDoclet 2.0.7, PlantUML 1.2019.12
@enduml

PlantUML version 1.2019.12(Sun Nov 03 11:24:54 CET 2019)
(APACHE source distribution)
Java Runtime: OpenJDK Runtime Environment
JVM: OpenJDK 64-Bit Server VM
Java Version: 13.0.2+8
Operating System: Linux
Default Encoding: UTF-8
Language: de
Country: DE
--></g></svg>