<?xml version="1.0" encoding="UTF-8" standalone="no"?><svg xmlns="http://www.w3.org/2000/svg" xmlns:xlink="http://www.w3.org/1999/xlink" contentScriptType="application/ecmascript" contentStyleType="text/css" height="133px" preserveAspectRatio="none" style="width:280px;height:133px;" version="1.1" viewBox="0 0 280 133" width="280px" zoomAndPan="magnify"><defs><filter height="300%" id="f1sfsvbkg2559r" width="300%" x="-1" y="-1"><feGaussianBlur result="blurOut" stdDeviation="2.0"/><feColorMatrix in="blurOut" result="blurOut2" type="matrix" values="0 0 0 0 0 0 0 0 0 0 0 0 0 0 0 0 0 0 .4 0"/><feOffset dx="4.0" dy="4.0" in="blurOut2" result="blurOut3"/><feBlend in="SourceGraphic" in2="blurOut3" mode="normal"/></filter></defs><g><!--MD5=[080de76bbecfba5d78d0cb26f2b25544]
class de.unibremen.sfb.service.AuftragsLogsService--><a href="AuftragsLogsService.html" target="_top" title="AuftragsLogsService.html" xlink:actuate="onRequest" xlink:href="AuftragsLogsService.html" xlink:show="new" xlink:title="AuftragsLogsService.html" xlink:type="simple"><rect fill="#FEFECE" filter="url(#f1sfsvbkg2559r)" height="97.1563" id="de.unibremen.sfb.service.AuftragsLogsService" style="stroke: #A80036; stroke-width: 1.5;" width="262" x="7" y="7"/><ellipse cx="63.75" cy="25.9688" fill="#ADD1B2" rx="11" ry="11" style="stroke: #A80036; stroke-width: 1.0;"/><path d="M66.7188,31.6094 Q66.1406,31.9063 65.5,32.0469 Q64.8594,32.2031 64.1563,32.2031 Q61.6563,32.2031 60.3281,30.5625 Q59.0156,28.9063 59.0156,25.7813 Q59.0156,22.6563 60.3281,21 Q61.6563,19.3438 64.1563,19.3438 Q64.8594,19.3438 65.5,19.5 Q66.1563,19.6563 66.7188,19.9531 L66.7188,22.6719 Q66.0938,22.0938 65.5,21.8281 Q64.9063,21.5469 64.2813,21.5469 Q62.9375,21.5469 62.25,22.625 Q61.5625,23.6875 61.5625,25.7813 Q61.5625,27.875 62.25,28.9531 Q62.9375,30.0156 64.2813,30.0156 Q64.9063,30.0156 65.5,29.75 Q66.0938,29.4688 66.7188,28.8906 L66.7188,31.6094 Z "/><text fill="#000000" font-family="sans-serif" font-size="14" lengthAdjust="spacingAndGlyphs" textLength="140" x="84.25" y="24.9951">AuftragsLogsService</text><text fill="#000000" font-family="sans-serif" font-size="10" lengthAdjust="spacingAndGlyphs" textLength="122" x="93.25" y="37.5791">de.unibremen.sfb.service</text><line style="stroke: #A80036; stroke-width: 1.5;" x1="8" x2="268" y1="44.9375" y2="44.9375"/><ellipse cx="18" cy="55.9375" fill="#84BE84" rx="3" ry="3" style="stroke: #038048; stroke-width: 1.0;"/><text fill="#000000" font-family="sans-serif" font-size="11" lengthAdjust="spacingAndGlyphs" textLength="146" x="27" y="59.1479">update(AuftragsLog): void</text><ellipse cx="18" cy="68.7422" fill="#84BE84" rx="3" ry="3" style="stroke: #038048; stroke-width: 1.0;"/><text fill="#000000" font-family="sans-serif" font-size="11" lengthAdjust="spacingAndGlyphs" textLength="128" x="27" y="71.9526">add(AuftragsLog): void</text><ellipse cx="18" cy="81.5469" fill="#84BE84" rx="3" ry="3" style="stroke: #038048; stroke-width: 1.0;"/><text fill="#000000" font-family="sans-serif" font-size="11" lengthAdjust="spacingAndGlyphs" textLength="128" x="27" y="84.7573">edit(AuftragsLog): void</text><ellipse cx="18" cy="94.3516" fill="#84BE84" rx="3" ry="3" style="stroke: #038048; stroke-width: 1.0;"/><text fill="#000000" font-family="sans-serif" font-size="11" lengthAdjust="spacingAndGlyphs" textLength="236" x="27" y="97.562">delete(List&lt;ProzessKettenVorlage&gt;): void</text></a><text fill="#888888" font-family="sans-serif" font-size="10" lengthAdjust="spacingAndGlyphs" textLength="186" x="45" y="120.4385">UMLDoclet 2.0.7, PlantUML 1.2019.12</text><!--MD5=[99c6c45de73fcd8dbd802dd04041ab9e]
@startuml
    set namespaceSeparator none
    hide empty fields
    hide empty methods

    class "<size:14>AuftragsLogsService\n<size:10>de.unibremen.sfb.service" as de.unibremen.sfb.service.AuftragsLogsService [[AuftragsLogsService.html]] {
        +update(AuftragsLog): void
        +add(AuftragsLog): void
        +edit(AuftragsLog): void
        +delete(List<ProzessKettenVorlage>): void
    }

    center footer UMLDoclet 2.0.7, PlantUML 1.2019.12
@enduml

PlantUML version 1.2019.12(Sun Nov 03 11:24:54 CET 2019)
(APACHE source distribution)
Java Runtime: OpenJDK Runtime Environment
JVM: OpenJDK 64-Bit Server VM
Java Version: 13.0.2+8
Operating System: Linux
Default Encoding: UTF-8
Language: de
Country: DE
--></g></svg>