<?xml version="1.0" encoding="UTF-8" standalone="no"?><svg xmlns="http://www.w3.org/2000/svg" xmlns:xlink="http://www.w3.org/1999/xlink" contentScriptType="application/ecmascript" contentStyleType="text/css" height="222px" preserveAspectRatio="none" style="width:204px;height:222px;" version="1.1" viewBox="0 0 204 222" width="204px" zoomAndPan="magnify"><defs><filter height="300%" id="fl1fqnez1trer" width="300%" x="-1" y="-1"><feGaussianBlur result="blurOut" stdDeviation="2.0"/><feColorMatrix in="blurOut" result="blurOut2" type="matrix" values="0 0 0 0 0 0 0 0 0 0 0 0 0 0 0 0 0 0 .4 0"/><feOffset dx="4.0" dy="4.0" in="blurOut2" result="blurOut3"/><feBlend in="SourceGraphic" in2="blurOut3" mode="normal"/></filter></defs><g><!--MD5=[6353b06f1a960a8bcea6f45bfb847184]
class de.unibremen.sfb.service.BackupService--><a href="BackupService.html" target="_top" title="BackupService.html" xlink:actuate="onRequest" xlink:href="BackupService.html" xlink:show="new" xlink:title="BackupService.html" xlink:type="simple"><rect fill="#FEFECE" filter="url(#fl1fqnez1trer)" height="84.3516" id="de.unibremen.sfb.service.BackupService" style="stroke: #A80036; stroke-width: 1.5;" width="175" x="6" y="106"/><ellipse cx="30.45" cy="124.9688" fill="#ADD1B2" rx="11" ry="11" style="stroke: #A80036; stroke-width: 1.0;"/><path d="M33.4188,130.6094 Q32.8406,130.9063 32.2,131.0469 Q31.5594,131.2031 30.8563,131.2031 Q28.3563,131.2031 27.0281,129.5625 Q25.7156,127.9063 25.7156,124.7813 Q25.7156,121.6563 27.0281,120 Q28.3563,118.3438 30.8563,118.3438 Q31.5594,118.3438 32.2,118.5 Q32.8563,118.6563 33.4188,118.9531 L33.4188,121.6719 Q32.7938,121.0938 32.2,120.8281 Q31.6063,120.5469 30.9813,120.5469 Q29.6375,120.5469 28.95,121.625 Q28.2625,122.6875 28.2625,124.7813 Q28.2625,126.875 28.95,127.9531 Q29.6375,129.0156 30.9813,129.0156 Q31.6063,129.0156 32.2,128.75 Q32.7938,128.4688 33.4188,127.8906 L33.4188,130.6094 Z "/><text fill="#000000" font-family="sans-serif" font-size="14" lengthAdjust="spacingAndGlyphs" textLength="102" x="56.55" y="123.9951">BackupService</text><text fill="#000000" font-family="sans-serif" font-size="10" lengthAdjust="spacingAndGlyphs" textLength="122" x="46.55" y="136.5791">de.unibremen.sfb.service</text><line style="stroke: #A80036; stroke-width: 1.5;" x1="7" x2="180" y1="143.9375" y2="143.9375"/><ellipse cx="17" cy="154.9375" fill="#84BE84" rx="3" ry="3" style="stroke: #038048; stroke-width: 1.0;"/><text fill="#000000" font-family="sans-serif" font-size="11" lengthAdjust="spacingAndGlyphs" textLength="79" x="26" y="158.1479">backup(): void</text><ellipse cx="17" cy="167.7422" fill="#84BE84" rx="3" ry="3" style="stroke: #038048; stroke-width: 1.0;"/><text fill="#000000" font-family="sans-serif" font-size="11" lengthAdjust="spacingAndGlyphs" textLength="149" x="26" y="170.9526">upload(UploadedFile): void</text><ellipse cx="17" cy="180.5469" fill="#84BE84" rx="3" ry="3" style="stroke: #038048; stroke-width: 1.0;"/><text fill="#000000" font-family="sans-serif" font-size="11" lengthAdjust="spacingAndGlyphs" textLength="146" x="26" y="183.7573">toDisk(UploadedFile): void</text></a><!--MD5=[5a5af9b0547913863cbe0ddf55a9ab5e]
class java.io.Serializable--><a href="https://docs.oracle.com/en/java/javase/11/docs/api/java.base/java/io/Serializable.html?is-external=true" target="_top" title="https://docs.oracle.com/en/java/javase/11/docs/api/java.base/java/io/Serializable.html?is-external=true" xlink:actuate="onRequest" xlink:href="https://docs.oracle.com/en/java/javase/11/docs/api/java.base/java/io/Serializable.html?is-external=true" xlink:show="new" xlink:title="https://docs.oracle.com/en/java/javase/11/docs/api/java.base/java/io/Serializable.html?is-external=true" xlink:type="simple"><rect fill="#FEFECE" filter="url(#fl1fqnez1trer)" height="37.9375" id="java.io.Serializable" style="stroke: #A80036; stroke-width: 1.5;" width="108" x="39.5" y="8"/><ellipse cx="54.5" cy="26.9688" fill="#B4A7E5" rx="11" ry="11" style="stroke: #A80036; stroke-width: 1.0;"/><path d="M50.4219,22.7344 L50.4219,20.5781 L57.8125,20.5781 L57.8125,22.7344 L55.3438,22.7344 L55.3438,30.8125 L57.8125,30.8125 L57.8125,32.9688 L50.4219,32.9688 L50.4219,30.8125 L52.8906,30.8125 L52.8906,22.7344 L50.4219,22.7344 Z "/><text fill="#000000" font-family="sans-serif" font-size="14" font-style="italic" lengthAdjust="spacingAndGlyphs" textLength="76" x="68.5" y="25.9951">Serializable</text><text fill="#000000" font-family="sans-serif" font-size="10" font-style="italic" lengthAdjust="spacingAndGlyphs" textLength="33" x="90" y="38.5791">java.io</text></a><!--MD5=[3f25fc03c9da3b63342b5c341c41d57e]
reverse link java.io.Serializable to de.unibremen.sfb.service.BackupService--><path d="M93.5,66.54 C93.5,79.08 93.5,93.05 93.5,105.78 " fill="none" id="java.io.Serializable&lt;-de.unibremen.sfb.service.BackupService" style="stroke: #A80036; stroke-width: 1.0; stroke-dasharray: 7.0,7.0;"/><polygon fill="none" points="86.5,66.07,93.5,46.07,100.5,66.07,86.5,66.07" style="stroke: #A80036; stroke-width: 1.0;"/><text fill="#888888" font-family="sans-serif" font-size="10" lengthAdjust="spacingAndGlyphs" textLength="186" x="6.5" y="209.2822">UMLDoclet 2.0.7, PlantUML 1.2019.12</text><!--MD5=[8363ee463721a70dd5ce987a236fae1a]
@startuml
    set namespaceSeparator none
    hide empty fields
    hide empty methods

    class "<size:14>BackupService\n<size:10>de.unibremen.sfb.service" as de.unibremen.sfb.service.BackupService [[BackupService.html]] {
        +backup(): void
        +upload(UploadedFile): void
        +toDisk(UploadedFile): void
    }

    interface "<size:14>Serializable\n<size:10>java.io" as java.io.Serializable [[https://docs.oracle.com/en/java/javase/11/docs/api/java.base/java/io/Serializable.html?is-external=true]]

    java.io.Serializable <|.. de.unibremen.sfb.service.BackupService

    center footer UMLDoclet 2.0.7, PlantUML 1.2019.12
@enduml

PlantUML version 1.2019.12(Sun Nov 03 11:24:54 CET 2019)
(APACHE source distribution)
Java Runtime: OpenJDK Runtime Environment
JVM: OpenJDK 64-Bit Server VM
Java Version: 13.0.2+8
Operating System: Linux
Default Encoding: UTF-8
Language: de
Country: DE
--></g></svg>