<?xml version="1.0" encoding="UTF-8" standalone="no"?><svg xmlns="http://www.w3.org/2000/svg" xmlns:xlink="http://www.w3.org/1999/xlink" contentScriptType="application/ecmascript" contentStyleType="text/css" height="197px" preserveAspectRatio="none" style="width:252px;height:197px;" version="1.1" viewBox="0 0 252 197" width="252px" zoomAndPan="magnify"><defs><filter height="300%" id="f12lygdpmxv53y" width="300%" x="-1" y="-1"><feGaussianBlur result="blurOut" stdDeviation="2.0"/><feColorMatrix in="blurOut" result="blurOut2" type="matrix" values="0 0 0 0 0 0 0 0 0 0 0 0 0 0 0 0 0 0 .4 0"/><feOffset dx="4.0" dy="4.0" in="blurOut2" result="blurOut3"/><feBlend in="SourceGraphic" in2="blurOut3" mode="normal"/></filter></defs><g><!--MD5=[42b4c34caeddd9253ad69b515079ffea]
class de.unibremen.sfb.service.MailingService--><a href="MailingService.html" target="_top" title="MailingService.html" xlink:actuate="onRequest" xlink:href="MailingService.html" xlink:show="new" xlink:title="MailingService.html" xlink:type="simple"><rect fill="#FEFECE" filter="url(#f12lygdpmxv53y)" height="58.7422" id="de.unibremen.sfb.service.MailingService" style="stroke: #A80036; stroke-width: 1.5;" width="235" x="6" y="106"/><ellipse cx="58.25" cy="124.9688" fill="#ADD1B2" rx="11" ry="11" style="stroke: #A80036; stroke-width: 1.0;"/><path d="M61.2188,130.6094 Q60.6406,130.9063 60,131.0469 Q59.3594,131.2031 58.6563,131.2031 Q56.1563,131.2031 54.8281,129.5625 Q53.5156,127.9063 53.5156,124.7813 Q53.5156,121.6563 54.8281,120 Q56.1563,118.3438 58.6563,118.3438 Q59.3594,118.3438 60,118.5 Q60.6563,118.6563 61.2188,118.9531 L61.2188,121.6719 Q60.5938,121.0938 60,120.8281 Q59.4063,120.5469 58.7813,120.5469 Q57.4375,120.5469 56.75,121.625 Q56.0625,122.6875 56.0625,124.7813 Q56.0625,126.875 56.75,127.9531 Q57.4375,129.0156 58.7813,129.0156 Q59.4063,129.0156 60,128.75 Q60.5938,128.4688 61.2188,127.8906 L61.2188,130.6094 Z "/><text fill="#000000" font-family="sans-serif" font-size="14" lengthAdjust="spacingAndGlyphs" textLength="97" x="91.25" y="123.9951">MailingService</text><text fill="#000000" font-family="sans-serif" font-size="10" lengthAdjust="spacingAndGlyphs" textLength="122" x="78.75" y="136.5791">de.unibremen.sfb.service</text><line style="stroke: #A80036; stroke-width: 1.5;" x1="7" x2="240" y1="143.9375" y2="143.9375"/><ellipse cx="17" cy="154.9375" fill="#84BE84" rx="3" ry="3" style="stroke: #038048; stroke-width: 1.0;"/><text fill="#000000" font-family="sans-serif" font-size="11" lengthAdjust="spacingAndGlyphs" textLength="209" x="26" y="158.1479">sendmail(String, String, String): void</text></a><!--MD5=[5a5af9b0547913863cbe0ddf55a9ab5e]
class java.io.Serializable--><a href="https://docs.oracle.com/en/java/javase/11/docs/api/java.base/java/io/Serializable.html?is-external=true" target="_top" title="https://docs.oracle.com/en/java/javase/11/docs/api/java.base/java/io/Serializable.html?is-external=true" xlink:actuate="onRequest" xlink:href="https://docs.oracle.com/en/java/javase/11/docs/api/java.base/java/io/Serializable.html?is-external=true" xlink:show="new" xlink:title="https://docs.oracle.com/en/java/javase/11/docs/api/java.base/java/io/Serializable.html?is-external=true" xlink:type="simple"><rect fill="#FEFECE" filter="url(#f12lygdpmxv53y)" height="37.9375" id="java.io.Serializable" style="stroke: #A80036; stroke-width: 1.5;" width="108" x="69.5" y="8"/><ellipse cx="84.5" cy="26.9688" fill="#B4A7E5" rx="11" ry="11" style="stroke: #A80036; stroke-width: 1.0;"/><path d="M80.4219,22.7344 L80.4219,20.5781 L87.8125,20.5781 L87.8125,22.7344 L85.3438,22.7344 L85.3438,30.8125 L87.8125,30.8125 L87.8125,32.9688 L80.4219,32.9688 L80.4219,30.8125 L82.8906,30.8125 L82.8906,22.7344 L80.4219,22.7344 Z "/><text fill="#000000" font-family="sans-serif" font-size="14" font-style="italic" lengthAdjust="spacingAndGlyphs" textLength="76" x="98.5" y="25.9951">Serializable</text><text fill="#000000" font-family="sans-serif" font-size="10" font-style="italic" lengthAdjust="spacingAndGlyphs" textLength="33" x="120" y="38.5791">java.io</text></a><!--MD5=[82486c3b02e77ce5196fb4fb52c1c8d3]
reverse link java.io.Serializable to de.unibremen.sfb.service.MailingService--><path d="M123.5,66.22 C123.5,79.3 123.5,93.7 123.5,105.89 " fill="none" id="java.io.Serializable&lt;-de.unibremen.sfb.service.MailingService" style="stroke: #A80036; stroke-width: 1.0; stroke-dasharray: 7.0,7.0;"/><polygon fill="none" points="116.5,66.07,123.5,46.07,130.5,66.07,116.5,66.07" style="stroke: #A80036; stroke-width: 1.0;"/><text fill="#888888" font-family="sans-serif" font-size="10" lengthAdjust="spacingAndGlyphs" textLength="186" x="36.5" y="184.2822">UMLDoclet 2.0.7, PlantUML 1.2019.12</text><!--MD5=[ffc1ea614d23ad4138f83e0a4a79c744]
@startuml
    set namespaceSeparator none
    hide empty fields
    hide empty methods

    class "<size:14>MailingService\n<size:10>de.unibremen.sfb.service" as de.unibremen.sfb.service.MailingService [[MailingService.html]] {
        +sendmail(String, String, String): void
    }

    interface "<size:14>Serializable\n<size:10>java.io" as java.io.Serializable [[https://docs.oracle.com/en/java/javase/11/docs/api/java.base/java/io/Serializable.html?is-external=true]]

    java.io.Serializable <|.. de.unibremen.sfb.service.MailingService

    center footer UMLDoclet 2.0.7, PlantUML 1.2019.12
@enduml

PlantUML version 1.2019.12(Sun Nov 03 11:24:54 CET 2019)
(APACHE source distribution)
Java Runtime: OpenJDK Runtime Environment
JVM: OpenJDK 64-Bit Server VM
Java Version: 13.0.2+8
Operating System: Linux
Default Encoding: UTF-8
Language: de
Country: DE
--></g></svg>