<?xml version="1.0" encoding="UTF-8" standalone="no"?><svg xmlns="http://www.w3.org/2000/svg" xmlns:xlink="http://www.w3.org/1999/xlink" contentScriptType="application/ecmascript" contentStyleType="text/css" height="248px" preserveAspectRatio="none" style="width:258px;height:248px;" version="1.1" viewBox="0 0 258 248" width="258px" zoomAndPan="magnify"><defs><filter height="300%" id="fd3ey57t3snxn" width="300%" x="-1" y="-1"><feGaussianBlur result="blurOut" stdDeviation="2.0"/><feColorMatrix in="blurOut" result="blurOut2" type="matrix" values="0 0 0 0 0 0 0 0 0 0 0 0 0 0 0 0 0 0 .4 0"/><feOffset dx="4.0" dy="4.0" in="blurOut2" result="blurOut3"/><feBlend in="SourceGraphic" in2="blurOut3" mode="normal"/></filter></defs><g><!--MD5=[b0557d790bebfd2b678e28e66cbdd9c5]
class de.unibremen.sfb.service.ProzessKettenVorlageService--><a href="ProzessKettenVorlageService.html" target="_top" title="ProzessKettenVorlageService.html" xlink:actuate="onRequest" xlink:href="ProzessKettenVorlageService.html" xlink:show="new" xlink:title="ProzessKettenVorlageService.html" xlink:type="simple"><rect fill="#FEFECE" filter="url(#fd3ey57t3snxn)" height="109.9609" id="de.unibremen.sfb.service.ProzessKettenVorlageService" style="stroke: #A80036; stroke-width: 1.5;" width="241" x="6" y="106"/><ellipse cx="23.25" cy="124.9688" fill="#ADD1B2" rx="11" ry="11" style="stroke: #A80036; stroke-width: 1.0;"/><path d="M26.2188,130.6094 Q25.6406,130.9063 25,131.0469 Q24.3594,131.2031 23.6563,131.2031 Q21.1563,131.2031 19.8281,129.5625 Q18.5156,127.9063 18.5156,124.7813 Q18.5156,121.6563 19.8281,120 Q21.1563,118.3438 23.6563,118.3438 Q24.3594,118.3438 25,118.5 Q25.6563,118.6563 26.2188,118.9531 L26.2188,121.6719 Q25.5938,121.0938 25,120.8281 Q24.4063,120.5469 23.7813,120.5469 Q22.4375,120.5469 21.75,121.625 Q21.0625,122.6875 21.0625,124.7813 Q21.0625,126.875 21.75,127.9531 Q22.4375,129.0156 23.7813,129.0156 Q24.4063,129.0156 25,128.75 Q25.5938,128.4688 26.2188,127.8906 L26.2188,130.6094 Z "/><text fill="#000000" font-family="sans-serif" font-size="14" lengthAdjust="spacingAndGlyphs" textLength="204" x="37.75" y="123.9951">ProzessKettenVorlageService</text><text fill="#000000" font-family="sans-serif" font-size="10" lengthAdjust="spacingAndGlyphs" textLength="122" x="78.75" y="136.5791">de.unibremen.sfb.service</text><line style="stroke: #A80036; stroke-width: 1.5;" x1="7" x2="246" y1="143.9375" y2="143.9375"/><ellipse cx="17" cy="154.9375" fill="#84BE84" rx="3" ry="3" style="stroke: #038048; stroke-width: 1.0;"/><text fill="#000000" font-family="sans-serif" font-size="11" lengthAdjust="spacingAndGlyphs" textLength="203" x="26" y="158.1479">persist(ProzessKettenVorlage): void</text><ellipse cx="17" cy="167.7422" fill="#84BE84" rx="3" ry="3" style="stroke: #038048; stroke-width: 1.0;"/><text fill="#000000" font-family="sans-serif" font-size="11" lengthAdjust="spacingAndGlyphs" textLength="202" x="26" y="170.9526">update(ProzessKettenVorlage): void</text><ellipse cx="17" cy="180.5469" fill="#84BE84" rx="3" ry="3" style="stroke: #038048; stroke-width: 1.0;"/><text fill="#000000" font-family="sans-serif" font-size="11" lengthAdjust="spacingAndGlyphs" textLength="206" x="26" y="183.7573">remove(ProzessKettenVorlage): void</text><ellipse cx="17" cy="193.3516" fill="#84BE84" rx="3" ry="3" style="stroke: #038048; stroke-width: 1.0;"/><text fill="#000000" font-family="sans-serif" font-size="11" lengthAdjust="spacingAndGlyphs" textLength="215" x="26" y="196.562">getObjById(int): ProzessKettenVorlage</text><ellipse cx="17" cy="206.1563" fill="#84BE84" rx="3" ry="3" style="stroke: #038048; stroke-width: 1.0;"/><text fill="#000000" font-family="sans-serif" font-size="11" lengthAdjust="spacingAndGlyphs" textLength="209" x="26" y="209.3667">getAll(): List&lt;ProzessKettenVorlage&gt;</text></a><!--MD5=[5a5af9b0547913863cbe0ddf55a9ab5e]
class java.io.Serializable--><a href="https://docs.oracle.com/en/java/javase/11/docs/api/java.base/java/io/Serializable.html?is-external=true" target="_top" title="https://docs.oracle.com/en/java/javase/11/docs/api/java.base/java/io/Serializable.html?is-external=true" xlink:actuate="onRequest" xlink:href="https://docs.oracle.com/en/java/javase/11/docs/api/java.base/java/io/Serializable.html?is-external=true" xlink:show="new" xlink:title="https://docs.oracle.com/en/java/javase/11/docs/api/java.base/java/io/Serializable.html?is-external=true" xlink:type="simple"><rect fill="#FEFECE" filter="url(#fd3ey57t3snxn)" height="37.9375" id="java.io.Serializable" style="stroke: #A80036; stroke-width: 1.5;" width="108" x="72.5" y="8"/><ellipse cx="87.5" cy="26.9688" fill="#B4A7E5" rx="11" ry="11" style="stroke: #A80036; stroke-width: 1.0;"/><path d="M83.4219,22.7344 L83.4219,20.5781 L90.8125,20.5781 L90.8125,22.7344 L88.3438,22.7344 L88.3438,30.8125 L90.8125,30.8125 L90.8125,32.9688 L83.4219,32.9688 L83.4219,30.8125 L85.8906,30.8125 L85.8906,22.7344 L83.4219,22.7344 Z "/><text fill="#000000" font-family="sans-serif" font-size="14" font-style="italic" lengthAdjust="spacingAndGlyphs" textLength="76" x="101.5" y="25.9951">Serializable</text><text fill="#000000" font-family="sans-serif" font-size="10" font-style="italic" lengthAdjust="spacingAndGlyphs" textLength="33" x="123" y="38.5791">java.io</text></a><!--MD5=[b3765af2768b1cb7d71df8555914d88f]
reverse link java.io.Serializable to de.unibremen.sfb.service.ProzessKettenVorlageService--><path d="M126.5,66.19 C126.5,78.61 126.5,92.62 126.5,105.97 " fill="none" id="java.io.Serializable&lt;-de.unibremen.sfb.service.ProzessKettenVorlageService" style="stroke: #A80036; stroke-width: 1.0; stroke-dasharray: 7.0,7.0;"/><polygon fill="none" points="119.5,66.08,126.5,46.08,133.5,66.08,119.5,66.08" style="stroke: #A80036; stroke-width: 1.0;"/><text fill="#888888" font-family="sans-serif" font-size="10" lengthAdjust="spacingAndGlyphs" textLength="186" x="39.5" y="235.2822">UMLDoclet 2.0.7, PlantUML 1.2019.12</text><!--MD5=[7b995b3f94ee0ccf93fe1b23952fe565]
@startuml
    set namespaceSeparator none
    hide empty fields
    hide empty methods

    class "<size:14>ProzessKettenVorlageService\n<size:10>de.unibremen.sfb.service" as de.unibremen.sfb.service.ProzessKettenVorlageService [[ProzessKettenVorlageService.html]] {
        +persist(ProzessKettenVorlage): void
        +update(ProzessKettenVorlage): void
        +remove(ProzessKettenVorlage): void
        +getObjById(int): ProzessKettenVorlage
        +getAll(): List<ProzessKettenVorlage>
    }

    interface "<size:14>Serializable\n<size:10>java.io" as java.io.Serializable [[https://docs.oracle.com/en/java/javase/11/docs/api/java.base/java/io/Serializable.html?is-external=true]]

    java.io.Serializable <|.. de.unibremen.sfb.service.ProzessKettenVorlageService

    center footer UMLDoclet 2.0.7, PlantUML 1.2019.12
@enduml

PlantUML version 1.2019.12(Sun Nov 03 11:24:54 CET 2019)
(APACHE source distribution)
Java Runtime: OpenJDK Runtime Environment
JVM: OpenJDK 64-Bit Server VM
Java Version: 13.0.2+8
Operating System: Linux
Default Encoding: UTF-8
Language: de
Country: DE
--></g></svg>