<?xml version="1.0" encoding="UTF-8" standalone="no"?><svg xmlns="http://www.w3.org/2000/svg" xmlns:xlink="http://www.w3.org/1999/xlink" contentScriptType="application/ecmascript" contentStyleType="text/css" height="222px" preserveAspectRatio="none" style="width:238px;height:222px;" version="1.1" viewBox="0 0 238 222" width="238px" zoomAndPan="magnify"><defs><filter height="300%" id="frk4eo2yc4fqv" width="300%" x="-1" y="-1"><feGaussianBlur result="blurOut" stdDeviation="2.0"/><feColorMatrix in="blurOut" result="blurOut2" type="matrix" values="0 0 0 0 0 0 0 0 0 0 0 0 0 0 0 0 0 0 .4 0"/><feOffset dx="4.0" dy="4.0" in="blurOut2" result="blurOut3"/><feBlend in="SourceGraphic" in2="blurOut3" mode="normal"/></filter></defs><g><!--MD5=[f6c404291eff1f5744d017fb9ea6d88f]
class de.unibremen.sfb.service.ProzessSchrittLogService--><a href="ProzessSchrittLogService.html" target="_top" title="ProzessSchrittLogService.html" xlink:actuate="onRequest" xlink:href="ProzessSchrittLogService.html" xlink:show="new" xlink:title="ProzessSchrittLogService.html" xlink:type="simple"><rect fill="#FEFECE" filter="url(#frk4eo2yc4fqv)" height="84.3516" id="de.unibremen.sfb.service.ProzessSchrittLogService" style="stroke: #A80036; stroke-width: 1.5;" width="221" x="6" y="106"/><ellipse cx="27.3" cy="124.9688" fill="#ADD1B2" rx="11" ry="11" style="stroke: #A80036; stroke-width: 1.0;"/><path d="M30.2688,130.6094 Q29.6906,130.9063 29.05,131.0469 Q28.4094,131.2031 27.7063,131.2031 Q25.2063,131.2031 23.8781,129.5625 Q22.5656,127.9063 22.5656,124.7813 Q22.5656,121.6563 23.8781,120 Q25.2063,118.3438 27.7063,118.3438 Q28.4094,118.3438 29.05,118.5 Q29.7063,118.6563 30.2688,118.9531 L30.2688,121.6719 Q29.6438,121.0938 29.05,120.8281 Q28.4563,120.5469 27.8313,120.5469 Q26.4875,120.5469 25.8,121.625 Q25.1125,122.6875 25.1125,124.7813 Q25.1125,126.875 25.8,127.9531 Q26.4875,129.0156 27.8313,129.0156 Q28.4563,129.0156 29.05,128.75 Q29.6438,128.4688 30.2688,127.8906 L30.2688,130.6094 Z "/><text fill="#000000" font-family="sans-serif" font-size="14" lengthAdjust="spacingAndGlyphs" textLength="175" x="42.7" y="123.9951">ProzessSchrittLogService</text><text fill="#000000" font-family="sans-serif" font-size="10" lengthAdjust="spacingAndGlyphs" textLength="122" x="69.2" y="136.5791">de.unibremen.sfb.service</text><line style="stroke: #A80036; stroke-width: 1.5;" x1="7" x2="226" y1="143.9375" y2="143.9375"/><ellipse cx="17" cy="154.9375" fill="#84BE84" rx="3" ry="3" style="stroke: #038048; stroke-width: 1.0;"/><text fill="#000000" font-family="sans-serif" font-size="11" lengthAdjust="spacingAndGlyphs" textLength="191" x="26" y="158.1479">closeLog(ProzessSchrittLog): void</text><ellipse cx="17" cy="167.7422" fill="#84BE84" rx="3" ry="3" style="stroke: #038048; stroke-width: 1.0;"/><text fill="#000000" font-family="sans-serif" font-size="11" lengthAdjust="spacingAndGlyphs" textLength="195" x="26" y="170.9526">newLog(String): ProzessSchrittLog</text><ellipse cx="17" cy="180.5469" fill="#84BE84" rx="3" ry="3" style="stroke: #038048; stroke-width: 1.0;"/><text fill="#000000" font-family="sans-serif" font-size="11" lengthAdjust="spacingAndGlyphs" textLength="162" x="26" y="183.7573">add(ProzessSchrittLog): void</text></a><!--MD5=[5a5af9b0547913863cbe0ddf55a9ab5e]
class java.io.Serializable--><a href="https://docs.oracle.com/en/java/javase/11/docs/api/java.base/java/io/Serializable.html?is-external=true" target="_top" title="https://docs.oracle.com/en/java/javase/11/docs/api/java.base/java/io/Serializable.html?is-external=true" xlink:actuate="onRequest" xlink:href="https://docs.oracle.com/en/java/javase/11/docs/api/java.base/java/io/Serializable.html?is-external=true" xlink:show="new" xlink:title="https://docs.oracle.com/en/java/javase/11/docs/api/java.base/java/io/Serializable.html?is-external=true" xlink:type="simple"><rect fill="#FEFECE" filter="url(#frk4eo2yc4fqv)" height="37.9375" id="java.io.Serializable" style="stroke: #A80036; stroke-width: 1.5;" width="108" x="62.5" y="8"/><ellipse cx="77.5" cy="26.9688" fill="#B4A7E5" rx="11" ry="11" style="stroke: #A80036; stroke-width: 1.0;"/><path d="M73.4219,22.7344 L73.4219,20.5781 L80.8125,20.5781 L80.8125,22.7344 L78.3438,22.7344 L78.3438,30.8125 L80.8125,30.8125 L80.8125,32.9688 L73.4219,32.9688 L73.4219,30.8125 L75.8906,30.8125 L75.8906,22.7344 L73.4219,22.7344 Z "/><text fill="#000000" font-family="sans-serif" font-size="14" font-style="italic" lengthAdjust="spacingAndGlyphs" textLength="76" x="91.5" y="25.9951">Serializable</text><text fill="#000000" font-family="sans-serif" font-size="10" font-style="italic" lengthAdjust="spacingAndGlyphs" textLength="33" x="113" y="38.5791">java.io</text></a><!--MD5=[d42822d9afd6f55960f3f341cc09dbd2]
reverse link java.io.Serializable to de.unibremen.sfb.service.ProzessSchrittLogService--><path d="M116.5,66.54 C116.5,79.08 116.5,93.05 116.5,105.78 " fill="none" id="java.io.Serializable&lt;-de.unibremen.sfb.service.ProzessSchrittLogService" style="stroke: #A80036; stroke-width: 1.0; stroke-dasharray: 7.0,7.0;"/><polygon fill="none" points="109.5,66.07,116.5,46.07,123.5,66.07,109.5,66.07" style="stroke: #A80036; stroke-width: 1.0;"/><text fill="#888888" font-family="sans-serif" font-size="10" lengthAdjust="spacingAndGlyphs" textLength="186" x="29.5" y="209.2822">UMLDoclet 2.0.7, PlantUML 1.2019.12</text><!--MD5=[a81f0b7ea0e5c4bcc6d7cfc47dca571e]
@startuml
    set namespaceSeparator none
    hide empty fields
    hide empty methods

    class "<size:14>ProzessSchrittLogService\n<size:10>de.unibremen.sfb.service" as de.unibremen.sfb.service.ProzessSchrittLogService [[ProzessSchrittLogService.html]] {
        +closeLog(ProzessSchrittLog): void
        +newLog(String): ProzessSchrittLog
        +add(ProzessSchrittLog): void
    }

    interface "<size:14>Serializable\n<size:10>java.io" as java.io.Serializable [[https://docs.oracle.com/en/java/javase/11/docs/api/java.base/java/io/Serializable.html?is-external=true]]

    java.io.Serializable <|.. de.unibremen.sfb.service.ProzessSchrittLogService

    center footer UMLDoclet 2.0.7, PlantUML 1.2019.12
@enduml

PlantUML version 1.2019.12(Sun Nov 03 11:24:54 CET 2019)
(APACHE source distribution)
Java Runtime: OpenJDK Runtime Environment
JVM: OpenJDK 64-Bit Server VM
Java Version: 13.0.2+8
Operating System: Linux
Default Encoding: UTF-8
Language: de
Country: DE
--></g></svg>