<?xml version="1.0" encoding="UTF-8" standalone="no"?><svg xmlns="http://www.w3.org/2000/svg" xmlns:xlink="http://www.w3.org/1999/xlink" contentScriptType="application/ecmascript" contentStyleType="text/css" height="121px" preserveAspectRatio="none" style="width:258px;height:121px;" version="1.1" viewBox="0 0 258 121" width="258px" zoomAndPan="magnify"><defs><filter height="300%" id="f1xdh2sy8h0gf1" width="300%" x="-1" y="-1"><feGaussianBlur result="blurOut" stdDeviation="2.0"/><feColorMatrix in="blurOut" result="blurOut2" type="matrix" values="0 0 0 0 0 0 0 0 0 0 0 0 0 0 0 0 0 0 .4 0"/><feOffset dx="4.0" dy="4.0" in="blurOut2" result="blurOut3"/><feBlend in="SourceGraphic" in2="blurOut3" mode="normal"/></filter></defs><g><!--MD5=[5d61aad6896a8d33819a8b49ccf94e36]
class de.unibremen.sfb.service.RoleService--><a href="RoleService.html" target="_top" title="RoleService.html" xlink:actuate="onRequest" xlink:href="RoleService.html" xlink:show="new" xlink:title="RoleService.html" xlink:type="simple"><rect fill="#FEFECE" filter="url(#f1xdh2sy8h0gf1)" height="84.3516" id="de.unibremen.sfb.service.RoleService" style="stroke: #A80036; stroke-width: 1.5;" width="240" x="7" y="7"/><ellipse cx="61.75" cy="25.9688" fill="#ADD1B2" rx="11" ry="11" style="stroke: #A80036; stroke-width: 1.0;"/><path d="M64.7188,31.6094 Q64.1406,31.9063 63.5,32.0469 Q62.8594,32.2031 62.1563,32.2031 Q59.6563,32.2031 58.3281,30.5625 Q57.0156,28.9063 57.0156,25.7813 Q57.0156,22.6563 58.3281,21 Q59.6563,19.3438 62.1563,19.3438 Q62.8594,19.3438 63.5,19.5 Q64.1563,19.6563 64.7188,19.9531 L64.7188,22.6719 Q64.0938,22.0938 63.5,21.8281 Q62.9063,21.5469 62.2813,21.5469 Q60.9375,21.5469 60.25,22.625 Q59.5625,23.6875 59.5625,25.7813 Q59.5625,27.875 60.25,28.9531 Q60.9375,30.0156 62.2813,30.0156 Q62.9063,30.0156 63.5,29.75 Q64.0938,29.4688 64.7188,28.8906 L64.7188,31.6094 Z "/><text fill="#000000" font-family="sans-serif" font-size="14" lengthAdjust="spacingAndGlyphs" textLength="81" x="102.75" y="24.9951">RoleService</text><text fill="#000000" font-family="sans-serif" font-size="10" lengthAdjust="spacingAndGlyphs" textLength="122" x="82.25" y="37.5791">de.unibremen.sfb.service</text><line style="stroke: #A80036; stroke-width: 1.5;" x1="8" x2="246" y1="44.9375" y2="44.9375"/><ellipse cx="18" cy="55.9375" fill="#84BE84" rx="3" ry="3" style="stroke: #038048; stroke-width: 1.0;"/><text fill="#000000" font-family="sans-serif" font-size="11" lengthAdjust="spacingAndGlyphs" textLength="132" x="27" y="59.1479">clearRoles(String): void</text><ellipse cx="18" cy="68.7422" fill="#84BE84" rx="3" ry="3" style="stroke: #038048; stroke-width: 1.0;"/><text fill="#000000" font-family="sans-serif" font-size="11" lengthAdjust="spacingAndGlyphs" textLength="214" x="27" y="71.9526">applyRoles(List&lt;String&gt;, String): void</text><ellipse cx="18" cy="81.5469" fill="#84BE84" rx="3" ry="3" style="stroke: #038048; stroke-width: 1.0;"/><text fill="#000000" font-family="sans-serif" font-size="11" lengthAdjust="spacingAndGlyphs" textLength="202" x="27" y="84.7573">getRolesByUser(String): List&lt;Role&gt;</text></a><text fill="#888888" font-family="sans-serif" font-size="10" lengthAdjust="spacingAndGlyphs" textLength="186" x="34" y="107.6338">UMLDoclet 2.0.7, PlantUML 1.2019.12</text><!--MD5=[78f61c523d9a429f696cbe7fc1b8eeb5]
@startuml
    set namespaceSeparator none
    hide empty fields
    hide empty methods

    class "<size:14>RoleService\n<size:10>de.unibremen.sfb.service" as de.unibremen.sfb.service.RoleService [[RoleService.html]] {
        +clearRoles(String): void
        +applyRoles(List<String>, String): void
        +getRolesByUser(String): List<Role>
    }

    center footer UMLDoclet 2.0.7, PlantUML 1.2019.12
@enduml

PlantUML version 1.2019.12(Sun Nov 03 11:24:54 CET 2019)
(APACHE source distribution)
Java Runtime: OpenJDK Runtime Environment
JVM: OpenJDK 64-Bit Server VM
Java Version: 13.0.2+8
Operating System: Linux
Default Encoding: UTF-8
Language: de
Country: DE
--></g></svg>