<?xml version="1.0" encoding="UTF-8" standalone="no"?><svg xmlns="http://www.w3.org/2000/svg" xmlns:xlink="http://www.w3.org/1999/xlink" contentScriptType="application/ecmascript" contentStyleType="text/css" height="299px" preserveAspectRatio="none" style="width:224px;height:299px;" version="1.1" viewBox="0 0 224 299" width="224px" zoomAndPan="magnify"><defs><filter height="300%" id="f1j6o8vzc0a36a" width="300%" x="-1" y="-1"><feGaussianBlur result="blurOut" stdDeviation="2.0"/><feColorMatrix in="blurOut" result="blurOut2" type="matrix" values="0 0 0 0 0 0 0 0 0 0 0 0 0 0 0 0 0 0 .4 0"/><feOffset dx="4.0" dy="4.0" in="blurOut2" result="blurOut3"/><feBlend in="SourceGraphic" in2="blurOut3" mode="normal"/></filter></defs><g><!--MD5=[e0e4ca30e1e047b8603aa55c8f4ec0e5]
class de.unibremen.sfb.service.StandortService--><a href="StandortService.html" target="_top" title="StandortService.html" xlink:actuate="onRequest" xlink:href="StandortService.html" xlink:show="new" xlink:title="StandortService.html" xlink:type="simple"><rect fill="#FEFECE" filter="url(#f1j6o8vzc0a36a)" height="161.1797" id="de.unibremen.sfb.service.StandortService" style="stroke: #A80036; stroke-width: 1.5;" width="207" x="6" y="106"/><ellipse cx="44.85" cy="124.9688" fill="#ADD1B2" rx="11" ry="11" style="stroke: #A80036; stroke-width: 1.0;"/><path d="M47.8188,130.6094 Q47.2406,130.9063 46.6,131.0469 Q45.9594,131.2031 45.2563,131.2031 Q42.7563,131.2031 41.4281,129.5625 Q40.1156,127.9063 40.1156,124.7813 Q40.1156,121.6563 41.4281,120 Q42.7563,118.3438 45.2563,118.3438 Q45.9594,118.3438 46.6,118.5 Q47.2563,118.6563 47.8188,118.9531 L47.8188,121.6719 Q47.1938,121.0938 46.6,120.8281 Q46.0063,120.5469 45.3813,120.5469 Q44.0375,120.5469 43.35,121.625 Q42.6625,122.6875 42.6625,124.7813 Q42.6625,126.875 43.35,127.9531 Q44.0375,129.0156 45.3813,129.0156 Q46.0063,129.0156 46.6,128.75 Q47.1938,128.4688 47.8188,127.8906 L47.8188,130.6094 Z "/><text fill="#000000" font-family="sans-serif" font-size="14" lengthAdjust="spacingAndGlyphs" textLength="109" x="70.65" y="123.9951">StandortService</text><text fill="#000000" font-family="sans-serif" font-size="10" lengthAdjust="spacingAndGlyphs" textLength="122" x="64.15" y="136.5791">de.unibremen.sfb.service</text><line style="stroke: #A80036; stroke-width: 1.5;" x1="7" x2="212" y1="143.9375" y2="143.9375"/><ellipse cx="17" cy="154.9375" fill="#84BE84" rx="3" ry="3" style="stroke: #038048; stroke-width: 1.0;"/><text fill="#000000" font-family="sans-serif" font-size="11" lengthAdjust="spacingAndGlyphs" textLength="128" x="26" y="158.1479">persist(Standort): void</text><ellipse cx="17" cy="167.7422" fill="#84BE84" rx="3" ry="3" style="stroke: #038048; stroke-width: 1.0;"/><text fill="#000000" font-family="sans-serif" font-size="11" lengthAdjust="spacingAndGlyphs" textLength="56" x="26" y="170.9526">init(): void</text><ellipse cx="17" cy="180.5469" fill="#84BE84" rx="3" ry="3" style="stroke: #038048; stroke-width: 1.0;"/><text fill="#000000" font-family="sans-serif" font-size="11" lengthAdjust="spacingAndGlyphs" textLength="177" x="26" y="183.7573">getStandorte(): List&lt;Standort&gt;</text><ellipse cx="17" cy="193.3516" fill="#84BE84" rx="3" ry="3" style="stroke: #038048; stroke-width: 1.0;"/><text fill="#000000" font-family="sans-serif" font-size="11" lengthAdjust="spacingAndGlyphs" textLength="131" x="26" y="196.562">remove(Standort): void</text><ellipse cx="17" cy="206.1563" fill="#84BE84" rx="3" ry="3" style="stroke: #038048; stroke-width: 1.0;"/><text fill="#000000" font-family="sans-serif" font-size="11" lengthAdjust="spacingAndGlyphs" textLength="181" x="26" y="209.3667">findByLocation(String): Standort</text><ellipse cx="17" cy="218.9609" fill="#84BE84" rx="3" ry="3" style="stroke: #038048; stroke-width: 1.0;"/><text fill="#000000" font-family="sans-serif" font-size="11" lengthAdjust="spacingAndGlyphs" textLength="124" x="26" y="222.1714">findById(int): Standort</text><ellipse cx="17" cy="231.7656" fill="#84BE84" rx="3" ry="3" style="stroke: #038048; stroke-width: 1.0;"/><text fill="#000000" font-family="sans-serif" font-size="11" lengthAdjust="spacingAndGlyphs" textLength="109" x="26" y="234.9761">add(Standort): void</text><ellipse cx="17" cy="244.5703" fill="#84BE84" rx="3" ry="3" style="stroke: #038048; stroke-width: 1.0;"/><text fill="#000000" font-family="sans-serif" font-size="11" lengthAdjust="spacingAndGlyphs" textLength="127" x="26" y="247.7808">update(Standort): void</text><ellipse cx="17" cy="257.375" fill="#84BE84" rx="3" ry="3" style="stroke: #038048; stroke-width: 1.0;"/><text fill="#000000" font-family="sans-serif" font-size="11" lengthAdjust="spacingAndGlyphs" textLength="158" x="26" y="260.5854">addStandort(Standort): void</text></a><!--MD5=[5a5af9b0547913863cbe0ddf55a9ab5e]
class java.io.Serializable--><a href="https://docs.oracle.com/en/java/javase/11/docs/api/java.base/java/io/Serializable.html?is-external=true" target="_top" title="https://docs.oracle.com/en/java/javase/11/docs/api/java.base/java/io/Serializable.html?is-external=true" xlink:actuate="onRequest" xlink:href="https://docs.oracle.com/en/java/javase/11/docs/api/java.base/java/io/Serializable.html?is-external=true" xlink:show="new" xlink:title="https://docs.oracle.com/en/java/javase/11/docs/api/java.base/java/io/Serializable.html?is-external=true" xlink:type="simple"><rect fill="#FEFECE" filter="url(#f1j6o8vzc0a36a)" height="37.9375" id="java.io.Serializable" style="stroke: #A80036; stroke-width: 1.5;" width="108" x="55.5" y="8"/><ellipse cx="70.5" cy="26.9688" fill="#B4A7E5" rx="11" ry="11" style="stroke: #A80036; stroke-width: 1.0;"/><path d="M66.4219,22.7344 L66.4219,20.5781 L73.8125,20.5781 L73.8125,22.7344 L71.3438,22.7344 L71.3438,30.8125 L73.8125,30.8125 L73.8125,32.9688 L66.4219,32.9688 L66.4219,30.8125 L68.8906,30.8125 L68.8906,22.7344 L66.4219,22.7344 Z "/><text fill="#000000" font-family="sans-serif" font-size="14" font-style="italic" lengthAdjust="spacingAndGlyphs" textLength="76" x="84.5" y="25.9951">Serializable</text><text fill="#000000" font-family="sans-serif" font-size="10" font-style="italic" lengthAdjust="spacingAndGlyphs" textLength="33" x="106" y="38.5791">java.io</text></a><!--MD5=[9e514a1add647980bc3639704ba70793]
reverse link java.io.Serializable to de.unibremen.sfb.service.StandortService--><path d="M109.5,66.08 C109.5,78.14 109.5,91.96 109.5,105.82 " fill="none" id="java.io.Serializable&lt;-de.unibremen.sfb.service.StandortService" style="stroke: #A80036; stroke-width: 1.0; stroke-dasharray: 7.0,7.0;"/><polygon fill="none" points="102.5,66.07,109.5,46.07,116.5,66.07,102.5,66.07" style="stroke: #A80036; stroke-width: 1.0;"/><text fill="#888888" font-family="sans-serif" font-size="10" lengthAdjust="spacingAndGlyphs" textLength="186" x="22.5" y="286.2822">UMLDoclet 2.0.7, PlantUML 1.2019.12</text><!--MD5=[26197f17c845a576d48c21f279fe0c43]
@startuml
    set namespaceSeparator none
    hide empty fields
    hide empty methods

    class "<size:14>StandortService\n<size:10>de.unibremen.sfb.service" as de.unibremen.sfb.service.StandortService [[StandortService.html]] {
        +persist(Standort): void
        +init(): void
        +getStandorte(): List<Standort>
        +remove(Standort): void
        +findByLocation(String): Standort
        +findById(int): Standort
        +add(Standort): void
        +update(Standort): void
        +addStandort(Standort): void
    }

    interface "<size:14>Serializable\n<size:10>java.io" as java.io.Serializable [[https://docs.oracle.com/en/java/javase/11/docs/api/java.base/java/io/Serializable.html?is-external=true]]

    java.io.Serializable <|.. de.unibremen.sfb.service.StandortService

    center footer UMLDoclet 2.0.7, PlantUML 1.2019.12
@enduml

PlantUML version 1.2019.12(Sun Nov 03 11:24:54 CET 2019)
(APACHE source distribution)
Java Runtime: OpenJDK Runtime Environment
JVM: OpenJDK 64-Bit Server VM
Java Version: 13.0.2+8
Operating System: Linux
Default Encoding: UTF-8
Language: de
Country: DE
--></g></svg>