<?xml version="1.0" encoding="UTF-8" standalone="no"?><svg xmlns="http://www.w3.org/2000/svg" xmlns:xlink="http://www.w3.org/1999/xlink" contentScriptType="application/ecmascript" contentStyleType="text/css" height="248px" preserveAspectRatio="none" style="width:211px;height:248px;" version="1.1" viewBox="0 0 211 248" width="211px" zoomAndPan="magnify"><defs><filter height="300%" id="fss7xlj7ibl7j" width="300%" x="-1" y="-1"><feGaussianBlur result="blurOut" stdDeviation="2.0"/><feColorMatrix in="blurOut" result="blurOut2" type="matrix" values="0 0 0 0 0 0 0 0 0 0 0 0 0 0 0 0 0 0 .4 0"/><feOffset dx="4.0" dy="4.0" in="blurOut2" result="blurOut3"/><feBlend in="SourceGraphic" in2="blurOut3" mode="normal"/></filter></defs><g><!--MD5=[7e3a46e5999ff88721095c8e8d539d1c]
class de.unibremen.sfb.service.TraegerService--><a href="TraegerService.html" target="_top" title="TraegerService.html" xlink:actuate="onRequest" xlink:href="TraegerService.html" xlink:show="new" xlink:title="TraegerService.html" xlink:type="simple"><rect fill="#FEFECE" filter="url(#fss7xlj7ibl7j)" height="109.9609" id="de.unibremen.sfb.service.TraegerService" style="stroke: #A80036; stroke-width: 1.5;" width="188" x="6" y="106"/><ellipse cx="36.3" cy="124.9688" fill="#ADD1B2" rx="11" ry="11" style="stroke: #A80036; stroke-width: 1.0;"/><path d="M39.2688,130.6094 Q38.6906,130.9063 38.05,131.0469 Q37.4094,131.2031 36.7063,131.2031 Q34.2063,131.2031 32.8781,129.5625 Q31.5656,127.9063 31.5656,124.7813 Q31.5656,121.6563 32.8781,120 Q34.2063,118.3438 36.7063,118.3438 Q37.4094,118.3438 38.05,118.5 Q38.7063,118.6563 39.2688,118.9531 L39.2688,121.6719 Q38.6438,121.0938 38.05,120.8281 Q37.4563,120.5469 36.8313,120.5469 Q35.4875,120.5469 34.8,121.625 Q34.1125,122.6875 34.1125,124.7813 Q34.1125,126.875 34.8,127.9531 Q35.4875,129.0156 36.8313,129.0156 Q37.4563,129.0156 38.05,128.75 Q38.6438,128.4688 39.2688,127.8906 L39.2688,130.6094 Z "/><text fill="#000000" font-family="sans-serif" font-size="14" lengthAdjust="spacingAndGlyphs" textLength="104" x="62.7" y="123.9951">TraegerService</text><text fill="#000000" font-family="sans-serif" font-size="10" lengthAdjust="spacingAndGlyphs" textLength="122" x="53.7" y="136.5791">de.unibremen.sfb.service</text><line style="stroke: #A80036; stroke-width: 1.5;" x1="7" x2="193" y1="143.9375" y2="143.9375"/><ellipse cx="17" cy="154.9375" fill="#84BE84" rx="3" ry="3" style="stroke: #038048; stroke-width: 1.0;"/><text fill="#000000" font-family="sans-serif" font-size="11" lengthAdjust="spacingAndGlyphs" textLength="124" x="26" y="158.1479">persist(Traeger): void</text><ellipse cx="17" cy="167.7422" fill="#84BE84" rx="3" ry="3" style="stroke: #038048; stroke-width: 1.0;"/><text fill="#000000" font-family="sans-serif" font-size="11" lengthAdjust="spacingAndGlyphs" textLength="123" x="26" y="170.9526">update(Traeger): void</text><ellipse cx="17" cy="180.5469" fill="#84BE84" rx="3" ry="3" style="stroke: #038048; stroke-width: 1.0;"/><text fill="#000000" font-family="sans-serif" font-size="11" lengthAdjust="spacingAndGlyphs" textLength="127" x="26" y="183.7573">remove(Traeger): void</text><ellipse cx="17" cy="193.3516" fill="#84BE84" rx="3" ry="3" style="stroke: #038048; stroke-width: 1.0;"/><text fill="#000000" font-family="sans-serif" font-size="11" lengthAdjust="spacingAndGlyphs" textLength="162" x="26" y="196.562">getTraegerById(int): Traeger</text><ellipse cx="17" cy="206.1563" fill="#84BE84" rx="3" ry="3" style="stroke: #038048; stroke-width: 1.0;"/><text fill="#000000" font-family="sans-serif" font-size="11" lengthAdjust="spacingAndGlyphs" textLength="130" x="26" y="209.3667">getAll(): List&lt;Traeger&gt;</text></a><!--MD5=[5a5af9b0547913863cbe0ddf55a9ab5e]
class java.io.Serializable--><a href="https://docs.oracle.com/en/java/javase/11/docs/api/java.base/java/io/Serializable.html?is-external=true" target="_top" title="https://docs.oracle.com/en/java/javase/11/docs/api/java.base/java/io/Serializable.html?is-external=true" xlink:actuate="onRequest" xlink:href="https://docs.oracle.com/en/java/javase/11/docs/api/java.base/java/io/Serializable.html?is-external=true" xlink:show="new" xlink:title="https://docs.oracle.com/en/java/javase/11/docs/api/java.base/java/io/Serializable.html?is-external=true" xlink:type="simple"><rect fill="#FEFECE" filter="url(#fss7xlj7ibl7j)" height="37.9375" id="java.io.Serializable" style="stroke: #A80036; stroke-width: 1.5;" width="108" x="46" y="8"/><ellipse cx="61" cy="26.9688" fill="#B4A7E5" rx="11" ry="11" style="stroke: #A80036; stroke-width: 1.0;"/><path d="M56.9219,22.7344 L56.9219,20.5781 L64.3125,20.5781 L64.3125,22.7344 L61.8438,22.7344 L61.8438,30.8125 L64.3125,30.8125 L64.3125,32.9688 L56.9219,32.9688 L56.9219,30.8125 L59.3906,30.8125 L59.3906,22.7344 L56.9219,22.7344 Z "/><text fill="#000000" font-family="sans-serif" font-size="14" font-style="italic" lengthAdjust="spacingAndGlyphs" textLength="76" x="75" y="25.9951">Serializable</text><text fill="#000000" font-family="sans-serif" font-size="10" font-style="italic" lengthAdjust="spacingAndGlyphs" textLength="33" x="96.5" y="38.5791">java.io</text></a><!--MD5=[a575d99916b31dbcfcee2f98441a18ce]
reverse link java.io.Serializable to de.unibremen.sfb.service.TraegerService--><path d="M100,66.19 C100,78.61 100,92.62 100,105.97 " fill="none" id="java.io.Serializable&lt;-de.unibremen.sfb.service.TraegerService" style="stroke: #A80036; stroke-width: 1.0; stroke-dasharray: 7.0,7.0;"/><polygon fill="none" points="93,66.08,100,46.08,107,66.08,93,66.08" style="stroke: #A80036; stroke-width: 1.0;"/><text fill="#888888" font-family="sans-serif" font-size="10" lengthAdjust="spacingAndGlyphs" textLength="186" x="13" y="235.2822">UMLDoclet 2.0.7, PlantUML 1.2019.12</text><!--MD5=[890e4163224d4d2091b4ca361d41ab2e]
@startuml
    set namespaceSeparator none
    hide empty fields
    hide empty methods

    class "<size:14>TraegerService\n<size:10>de.unibremen.sfb.service" as de.unibremen.sfb.service.TraegerService [[TraegerService.html]] {
        +persist(Traeger): void
        +update(Traeger): void
        +remove(Traeger): void
        +getTraegerById(int): Traeger
        +getAll(): List<Traeger>
    }

    interface "<size:14>Serializable\n<size:10>java.io" as java.io.Serializable [[https://docs.oracle.com/en/java/javase/11/docs/api/java.base/java/io/Serializable.html?is-external=true]]

    java.io.Serializable <|.. de.unibremen.sfb.service.TraegerService

    center footer UMLDoclet 2.0.7, PlantUML 1.2019.12
@enduml

PlantUML version 1.2019.12(Sun Nov 03 11:24:54 CET 2019)
(APACHE source distribution)
Java Runtime: OpenJDK Runtime Environment
JVM: OpenJDK 64-Bit Server VM
Java Version: 13.0.2+8
Operating System: Linux
Default Encoding: UTF-8
Language: de
Country: DE
--></g></svg>