<?xml version="1.0" encoding="UTF-8" standalone="no"?><svg xmlns="http://www.w3.org/2000/svg" xmlns:xlink="http://www.w3.org/1999/xlink" contentScriptType="application/ecmascript" contentStyleType="text/css" height="261px" preserveAspectRatio="none" style="width:247px;height:261px;" version="1.1" viewBox="0 0 247 261" width="247px" zoomAndPan="magnify"><defs><filter height="300%" id="frvvqwmxjv862" width="300%" x="-1" y="-1"><feGaussianBlur result="blurOut" stdDeviation="2.0"/><feColorMatrix in="blurOut" result="blurOut2" type="matrix" values="0 0 0 0 0 0 0 0 0 0 0 0 0 0 0 0 0 0 .4 0"/><feOffset dx="4.0" dy="4.0" in="blurOut2" result="blurOut3"/><feBlend in="SourceGraphic" in2="blurOut3" mode="normal"/></filter></defs><g><!--MD5=[5936c65f10f6a08a208d1b9207ea210a]
class de.unibremen.sfb.service.TraegerArtService--><a href="TraegerArtService.html" target="_top" title="TraegerArtService.html" xlink:actuate="onRequest" xlink:href="TraegerArtService.html" xlink:show="new" xlink:title="TraegerArtService.html" xlink:type="simple"><rect fill="#FEFECE" filter="url(#frvvqwmxjv862)" height="122.7656" id="de.unibremen.sfb.service.TraegerArtService" style="stroke: #A80036; stroke-width: 1.5;" width="230" x="6" y="106"/><ellipse cx="55.25" cy="124.9688" fill="#ADD1B2" rx="11" ry="11" style="stroke: #A80036; stroke-width: 1.0;"/><path d="M58.2188,130.6094 Q57.6406,130.9063 57,131.0469 Q56.3594,131.2031 55.6563,131.2031 Q53.1563,131.2031 51.8281,129.5625 Q50.5156,127.9063 50.5156,124.7813 Q50.5156,121.6563 51.8281,120 Q53.1563,118.3438 55.6563,118.3438 Q56.3594,118.3438 57,118.5 Q57.6563,118.6563 58.2188,118.9531 L58.2188,121.6719 Q57.5938,121.0938 57,120.8281 Q56.4063,120.5469 55.7813,120.5469 Q54.4375,120.5469 53.75,121.625 Q53.0625,122.6875 53.0625,124.7813 Q53.0625,126.875 53.75,127.9531 Q54.4375,129.0156 55.7813,129.0156 Q56.4063,129.0156 57,128.75 Q57.5938,128.4688 58.2188,127.8906 L58.2188,130.6094 Z "/><text fill="#000000" font-family="sans-serif" font-size="14" lengthAdjust="spacingAndGlyphs" textLength="123" x="75.75" y="123.9951">TraegerArtService</text><text fill="#000000" font-family="sans-serif" font-size="10" lengthAdjust="spacingAndGlyphs" textLength="122" x="76.25" y="136.5791">de.unibremen.sfb.service</text><line style="stroke: #A80036; stroke-width: 1.5;" x1="7" x2="235" y1="143.9375" y2="143.9375"/><ellipse cx="17" cy="154.9375" fill="#84BE84" rx="3" ry="3" style="stroke: #038048; stroke-width: 1.0;"/><text fill="#000000" font-family="sans-serif" font-size="11" lengthAdjust="spacingAndGlyphs" textLength="182" x="26" y="158.1479">addTraegerArt(TraegerArt): void</text><ellipse cx="17" cy="167.7422" fill="#84BE84" rx="3" ry="3" style="stroke: #038048; stroke-width: 1.0;"/><text fill="#000000" font-family="sans-serif" font-size="11" lengthAdjust="spacingAndGlyphs" textLength="193" x="26" y="170.9526">updateTragerArt(TraegerArt): void</text><ellipse cx="17" cy="180.5469" fill="#84BE84" rx="3" ry="3" style="stroke: #038048; stroke-width: 1.0;"/><text fill="#000000" font-family="sans-serif" font-size="11" lengthAdjust="spacingAndGlyphs" textLength="204" x="26" y="183.7573">removeTraegerArt(TraegerArt): void</text><ellipse cx="17" cy="193.3516" fill="#84BE84" rx="3" ry="3" style="stroke: #038048; stroke-width: 1.0;"/><text fill="#000000" font-family="sans-serif" font-size="11" lengthAdjust="spacingAndGlyphs" textLength="176" x="26" y="196.562">getByName(String): TraegerArt</text><ellipse cx="17" cy="206.1563" fill="#84BE84" rx="3" ry="3" style="stroke: #038048; stroke-width: 1.0;"/><text fill="#000000" font-family="sans-serif" font-size="11" lengthAdjust="spacingAndGlyphs" textLength="133" x="26" y="209.3667">getById(int): TraegerArt</text><ellipse cx="17" cy="218.9609" fill="#84BE84" rx="3" ry="3" style="stroke: #038048; stroke-width: 1.0;"/><text fill="#000000" font-family="sans-serif" font-size="11" lengthAdjust="spacingAndGlyphs" textLength="146" x="26" y="222.1714">getAll(): List&lt;TraegerArt&gt;</text></a><!--MD5=[5a5af9b0547913863cbe0ddf55a9ab5e]
class java.io.Serializable--><a href="https://docs.oracle.com/en/java/javase/11/docs/api/java.base/java/io/Serializable.html?is-external=true" target="_top" title="https://docs.oracle.com/en/java/javase/11/docs/api/java.base/java/io/Serializable.html?is-external=true" xlink:actuate="onRequest" xlink:href="https://docs.oracle.com/en/java/javase/11/docs/api/java.base/java/io/Serializable.html?is-external=true" xlink:show="new" xlink:title="https://docs.oracle.com/en/java/javase/11/docs/api/java.base/java/io/Serializable.html?is-external=true" xlink:type="simple"><rect fill="#FEFECE" filter="url(#frvvqwmxjv862)" height="37.9375" id="java.io.Serializable" style="stroke: #A80036; stroke-width: 1.5;" width="108" x="67" y="8"/><ellipse cx="82" cy="26.9688" fill="#B4A7E5" rx="11" ry="11" style="stroke: #A80036; stroke-width: 1.0;"/><path d="M77.9219,22.7344 L77.9219,20.5781 L85.3125,20.5781 L85.3125,22.7344 L82.8438,22.7344 L82.8438,30.8125 L85.3125,30.8125 L85.3125,32.9688 L77.9219,32.9688 L77.9219,30.8125 L80.3906,30.8125 L80.3906,22.7344 L77.9219,22.7344 Z "/><text fill="#000000" font-family="sans-serif" font-size="14" font-style="italic" lengthAdjust="spacingAndGlyphs" textLength="76" x="96" y="25.9951">Serializable</text><text fill="#000000" font-family="sans-serif" font-size="10" font-style="italic" lengthAdjust="spacingAndGlyphs" textLength="33" x="117.5" y="38.5791">java.io</text></a><!--MD5=[768fb3a743bdf93984561e9384428651]
reverse link java.io.Serializable to de.unibremen.sfb.service.TraegerArtService--><path d="M121,66.43 C121,78.6 121,92.36 121,105.7 " fill="none" id="java.io.Serializable&lt;-de.unibremen.sfb.service.TraegerArtService" style="stroke: #A80036; stroke-width: 1.0; stroke-dasharray: 7.0,7.0;"/><polygon fill="none" points="114,66.11,121,46.11,128,66.11,114,66.11" style="stroke: #A80036; stroke-width: 1.0;"/><text fill="#888888" font-family="sans-serif" font-size="10" lengthAdjust="spacingAndGlyphs" textLength="186" x="34" y="248.2822">UMLDoclet 2.0.7, PlantUML 1.2019.12</text><!--MD5=[87c96a81164de6b4c9ebd2431f93dd4f]
@startuml
    set namespaceSeparator none
    hide empty fields
    hide empty methods

    class "<size:14>TraegerArtService\n<size:10>de.unibremen.sfb.service" as de.unibremen.sfb.service.TraegerArtService [[TraegerArtService.html]] {
        +addTraegerArt(TraegerArt): void
        +updateTragerArt(TraegerArt): void
        +removeTraegerArt(TraegerArt): void
        +getByName(String): TraegerArt
        +getById(int): TraegerArt
        +getAll(): List<TraegerArt>
    }

    interface "<size:14>Serializable\n<size:10>java.io" as java.io.Serializable [[https://docs.oracle.com/en/java/javase/11/docs/api/java.base/java/io/Serializable.html?is-external=true]]

    java.io.Serializable <|.. de.unibremen.sfb.service.TraegerArtService

    center footer UMLDoclet 2.0.7, PlantUML 1.2019.12
@enduml

PlantUML version 1.2019.12(Sun Nov 03 11:24:54 CET 2019)
(APACHE source distribution)
Java Runtime: OpenJDK Runtime Environment
JVM: OpenJDK 64-Bit Server VM
Java Version: 13.0.2+8
Operating System: Linux
Default Encoding: UTF-8
Language: de
Country: DE
--></g></svg>