<?xml version="1.0" encoding="UTF-8" standalone="no"?><svg xmlns="http://www.w3.org/2000/svg" xmlns:xlink="http://www.w3.org/1999/xlink" contentScriptType="application/ecmascript" contentStyleType="text/css" height="244px" preserveAspectRatio="none" style="width:373px;height:244px;" version="1.1" viewBox="0 0 373 244" width="373px" zoomAndPan="magnify"><defs><filter height="300%" id="f166c4vy2q8xf" width="300%" x="-1" y="-1"><feGaussianBlur result="blurOut" stdDeviation="2.0"/><feColorMatrix in="blurOut" result="blurOut2" type="matrix" values="0 0 0 0 0 0 0 0 0 0 0 0 0 0 0 0 0 0 .4 0"/><feOffset dx="4.0" dy="4.0" in="blurOut2" result="blurOut3"/><feBlend in="SourceGraphic" in2="blurOut3" mode="normal"/></filter></defs><g><!--MD5=[af45518d2ba9180478cfa20af8b89ae2]
class de.unibremen.sfb.converter.AuftragsConverter--><a href="AuftragsConverter.html" target="_top" title="AuftragsConverter.html" xlink:actuate="onRequest" xlink:href="AuftragsConverter.html" xlink:show="new" xlink:title="AuftragsConverter.html" xlink:type="simple"><rect fill="#FEFECE" filter="url(#f166c4vy2q8xf)" height="71.5469" id="de.unibremen.sfb.converter.AuftragsConverter" style="stroke: #A80036; stroke-width: 1.5;" width="353" x="6" y="140"/><ellipse cx="110.75" cy="158.9688" fill="#ADD1B2" rx="11" ry="11" style="stroke: #A80036; stroke-width: 1.0;"/><path d="M113.7188,164.6094 Q113.1406,164.9063 112.5,165.0469 Q111.8594,165.2031 111.1563,165.2031 Q108.6563,165.2031 107.3281,163.5625 Q106.0156,161.9063 106.0156,158.7813 Q106.0156,155.6563 107.3281,154 Q108.6563,152.3438 111.1563,152.3438 Q111.8594,152.3438 112.5,152.5 Q113.1563,152.6563 113.7188,152.9531 L113.7188,155.6719 Q113.0938,155.0938 112.5,154.8281 Q111.9063,154.5469 111.2813,154.5469 Q109.9375,154.5469 109.25,155.625 Q108.5625,156.6875 108.5625,158.7813 Q108.5625,160.875 109.25,161.9531 Q109.9375,163.0156 111.2813,163.0156 Q111.9063,163.0156 112.5,162.75 Q113.0938,162.4688 113.7188,161.8906 L113.7188,164.6094 Z "/><text fill="#000000" font-family="sans-serif" font-size="14" lengthAdjust="spacingAndGlyphs" textLength="125" x="136.25" y="157.9951">AuftragsConverter</text><text fill="#000000" font-family="sans-serif" font-size="10" lengthAdjust="spacingAndGlyphs" textLength="135" x="131.25" y="170.5791">de.unibremen.sfb.converter</text><line style="stroke: #A80036; stroke-width: 1.5;" x1="7" x2="358" y1="177.9375" y2="177.9375"/><ellipse cx="17" cy="188.9375" fill="#84BE84" rx="3" ry="3" style="stroke: #038048; stroke-width: 1.0;"/><text fill="#000000" font-family="sans-serif" font-size="11" lengthAdjust="spacingAndGlyphs" textLength="325" x="26" y="192.1479">getAsString(FacesContext, UIComponent, Auftrag): String</text><ellipse cx="17" cy="201.7422" fill="#84BE84" rx="3" ry="3" style="stroke: #038048; stroke-width: 1.0;"/><text fill="#000000" font-family="sans-serif" font-size="11" lengthAdjust="spacingAndGlyphs" textLength="327" x="26" y="204.9526">getAsObject(FacesContext, UIComponent, String): Auftrag</text></a><!--MD5=[b9bb928325669804c5452a494b906742]
class javax.faces.convert.Converter--><rect fill="#FEFECE" filter="url(#f166c4vy2q8xf)" height="71.5469" id="javax.faces.convert.Converter" style="stroke: #A80036; stroke-width: 1.5;" width="353" x="6" y="8"/><ellipse cx="104.25" cy="26.9688" fill="#B4A7E5" rx="11" ry="11" style="stroke: #A80036; stroke-width: 1.0;"/><path d="M100.1719,22.7344 L100.1719,20.5781 L107.5625,20.5781 L107.5625,22.7344 L105.0938,22.7344 L105.0938,30.8125 L107.5625,30.8125 L107.5625,32.9688 L100.1719,32.9688 L100.1719,30.8125 L102.6406,30.8125 L102.6406,22.7344 L100.1719,22.7344 Z "/><text fill="#000000" font-family="sans-serif" font-size="14" font-style="italic" lengthAdjust="spacingAndGlyphs" textLength="69" x="139.25" y="25.9951">Converter</text><text fill="#000000" font-family="sans-serif" font-size="10" font-style="italic" lengthAdjust="spacingAndGlyphs" textLength="98" x="124.75" y="38.5791">javax.faces.convert</text><rect fill="#FFFFFF" height="15.9688" style="stroke: #000000; stroke-width: 1.0; stroke-dasharray: 2.0,2.0;" width="48" x="314" y="5"/><text fill="#000000" font-family="sans-serif" font-size="12" font-style="italic" lengthAdjust="spacingAndGlyphs" textLength="46" x="315" y="17.1387">Auftrag</text><line style="stroke: #A80036; stroke-width: 1.5;" x1="7" x2="358" y1="45.9375" y2="45.9375"/><ellipse cx="17" cy="56.9375" fill="#84BE84" rx="3" ry="3" style="stroke: #038048; stroke-width: 1.0;"/><text fill="#000000" font-family="sans-serif" font-size="11" font-style="italic" lengthAdjust="spacingAndGlyphs" textLength="327" x="26" y="60.1479">getAsObject(FacesContext, UIComponent, String): Auftrag</text><ellipse cx="17" cy="69.7422" fill="#84BE84" rx="3" ry="3" style="stroke: #038048; stroke-width: 1.0;"/><text fill="#000000" font-family="sans-serif" font-size="11" font-style="italic" lengthAdjust="spacingAndGlyphs" textLength="324" x="26" y="72.9526">getAsString(FacesContext, UIComponent, Auftrag): String</text><!--MD5=[86e0a99bb1914a17704e6fbed17c03f2]
reverse link javax.faces.convert.Converter to de.unibremen.sfb.converter.AuftragsConverter--><path d="M182.5,100.38 C182.5,113.74 182.5,127.65 182.5,139.79 " fill="none" id="javax.faces.convert.Converter&lt;-de.unibremen.sfb.converter.AuftragsConverter" style="stroke: #A80036; stroke-width: 1.0; stroke-dasharray: 7.0,7.0;"/><polygon fill="none" points="175.5,100.18,182.5,80.18,189.5,100.18,175.5,100.18" style="stroke: #A80036; stroke-width: 1.0;"/><text fill="#888888" font-family="sans-serif" font-size="10" lengthAdjust="spacingAndGlyphs" textLength="186" x="95.5" y="231.2822">UMLDoclet 2.0.7, PlantUML 1.2019.12</text><!--MD5=[ef29f67ef07ace86e890c1f339728c17]
@startuml
    set namespaceSeparator none
    hide empty fields
    hide empty methods

    class "<size:14>AuftragsConverter\n<size:10>de.unibremen.sfb.converter" as de.unibremen.sfb.converter.AuftragsConverter [[AuftragsConverter.html]] {
        +getAsString(FacesContext, UIComponent, Auftrag): String
        +getAsObject(FacesContext, UIComponent, String): Auftrag
    }

    interface "<size:14>Converter\n<size:10>javax.faces.convert" as javax.faces.convert.Converter<Auftrag> {
        {abstract} +getAsObject(FacesContext, UIComponent, String): Auftrag
        {abstract} +getAsString(FacesContext, UIComponent, Auftrag): String
    }

    javax.faces.convert.Converter <|.. de.unibremen.sfb.converter.AuftragsConverter

    center footer UMLDoclet 2.0.7, PlantUML 1.2019.12
@enduml

PlantUML version 1.2019.12(Sun Nov 03 11:24:54 CET 2019)
(APACHE source distribution)
Java Runtime: OpenJDK Runtime Environment
JVM: OpenJDK 64-Bit Server VM
Java Version: 13.0.2+8
Operating System: Linux
Default Encoding: UTF-8
Language: de
Country: DE
--></g></svg>