<?xml version="1.0" encoding="UTF-8" standalone="no"?><svg xmlns="http://www.w3.org/2000/svg" xmlns:xlink="http://www.w3.org/1999/xlink" contentScriptType="application/ecmascript" contentStyleType="text/css" height="244px" preserveAspectRatio="none" style="width:450px;height:244px;" version="1.1" viewBox="0 0 450 244" width="450px" zoomAndPan="magnify"><defs><filter height="300%" id="f10i140jf2ioy8" width="300%" x="-1" y="-1"><feGaussianBlur result="blurOut" stdDeviation="2.0"/><feColorMatrix in="blurOut" result="blurOut2" type="matrix" values="0 0 0 0 0 0 0 0 0 0 0 0 0 0 0 0 0 0 .4 0"/><feOffset dx="4.0" dy="4.0" in="blurOut2" result="blurOut3"/><feBlend in="SourceGraphic" in2="blurOut3" mode="normal"/></filter></defs><g><!--MD5=[b225a34ce372bc2d101c10c146527322]
class de.unibremen.sfb.converter.ExperimentierStationConverter--><a href="ExperimentierStationConverter.html" target="_top" title="ExperimentierStationConverter.html" xlink:actuate="onRequest" xlink:href="ExperimentierStationConverter.html" xlink:show="new" xlink:title="ExperimentierStationConverter.html" xlink:type="simple"><rect fill="#FEFECE" filter="url(#f10i140jf2ioy8)" height="71.5469" id="de.unibremen.sfb.converter.ExperimentierStationConverter" style="stroke: #A80036; stroke-width: 1.5;" width="431" x="6" y="140"/><ellipse cx="111.75" cy="158.9688" fill="#ADD1B2" rx="11" ry="11" style="stroke: #A80036; stroke-width: 1.0;"/><path d="M114.7188,164.6094 Q114.1406,164.9063 113.5,165.0469 Q112.8594,165.2031 112.1563,165.2031 Q109.6563,165.2031 108.3281,163.5625 Q107.0156,161.9063 107.0156,158.7813 Q107.0156,155.6563 108.3281,154 Q109.6563,152.3438 112.1563,152.3438 Q112.8594,152.3438 113.5,152.5 Q114.1563,152.6563 114.7188,152.9531 L114.7188,155.6719 Q114.0938,155.0938 113.5,154.8281 Q112.9063,154.5469 112.2813,154.5469 Q110.9375,154.5469 110.25,155.625 Q109.5625,156.6875 109.5625,158.7813 Q109.5625,160.875 110.25,161.9531 Q110.9375,163.0156 112.2813,163.0156 Q112.9063,163.0156 113.5,162.75 Q114.0938,162.4688 114.7188,161.8906 L114.7188,164.6094 Z "/><text fill="#000000" font-family="sans-serif" font-size="14" lengthAdjust="spacingAndGlyphs" textLength="211" x="132.25" y="157.9951">ExperimentierStationConverter</text><text fill="#000000" font-family="sans-serif" font-size="10" lengthAdjust="spacingAndGlyphs" textLength="135" x="170.25" y="170.5791">de.unibremen.sfb.converter</text><line style="stroke: #A80036; stroke-width: 1.5;" x1="7" x2="436" y1="177.9375" y2="177.9375"/><ellipse cx="17" cy="188.9375" fill="#84BE84" rx="3" ry="3" style="stroke: #038048; stroke-width: 1.0;"/><text fill="#000000" font-family="sans-serif" font-size="11" lengthAdjust="spacingAndGlyphs" textLength="403" x="26" y="192.1479">getAsString(FacesContext, UIComponent, ExperimentierStation): String</text><ellipse cx="17" cy="201.7422" fill="#84BE84" rx="3" ry="3" style="stroke: #038048; stroke-width: 1.0;"/><text fill="#000000" font-family="sans-serif" font-size="11" lengthAdjust="spacingAndGlyphs" textLength="405" x="26" y="204.9526">getAsObject(FacesContext, UIComponent, String): ExperimentierStation</text></a><!--MD5=[b9bb928325669804c5452a494b906742]
class javax.faces.convert.Converter--><rect fill="#FEFECE" filter="url(#f10i140jf2ioy8)" height="71.5469" id="javax.faces.convert.Converter" style="stroke: #A80036; stroke-width: 1.5;" width="430" x="6.5" y="8"/><ellipse cx="100.25" cy="26.9688" fill="#B4A7E5" rx="11" ry="11" style="stroke: #A80036; stroke-width: 1.0;"/><path d="M96.1719,22.7344 L96.1719,20.5781 L103.5625,20.5781 L103.5625,22.7344 L101.0938,22.7344 L101.0938,30.8125 L103.5625,30.8125 L103.5625,32.9688 L96.1719,32.9688 L96.1719,30.8125 L98.6406,30.8125 L98.6406,22.7344 L96.1719,22.7344 Z "/><text fill="#000000" font-family="sans-serif" font-size="14" font-style="italic" lengthAdjust="spacingAndGlyphs" textLength="69" x="135.25" y="25.9951">Converter</text><text fill="#000000" font-family="sans-serif" font-size="10" font-style="italic" lengthAdjust="spacingAndGlyphs" textLength="98" x="120.75" y="38.5791">javax.faces.convert</text><rect fill="#FFFFFF" height="15.9688" style="stroke: #000000; stroke-width: 1.0; stroke-dasharray: 2.0,2.0;" width="134" x="305.5" y="5"/><text fill="#000000" font-family="sans-serif" font-size="12" font-style="italic" lengthAdjust="spacingAndGlyphs" textLength="132" x="306.5" y="17.1387">ExperimentierStation</text><line style="stroke: #A80036; stroke-width: 1.5;" x1="7.5" x2="435.5" y1="45.9375" y2="45.9375"/><ellipse cx="17.5" cy="56.9375" fill="#84BE84" rx="3" ry="3" style="stroke: #038048; stroke-width: 1.0;"/><text fill="#000000" font-family="sans-serif" font-size="11" font-style="italic" lengthAdjust="spacingAndGlyphs" textLength="404" x="26.5" y="60.1479">getAsObject(FacesContext, UIComponent, String): ExperimentierStation</text><ellipse cx="17.5" cy="69.7422" fill="#84BE84" rx="3" ry="3" style="stroke: #038048; stroke-width: 1.0;"/><text fill="#000000" font-family="sans-serif" font-size="11" font-style="italic" lengthAdjust="spacingAndGlyphs" textLength="401" x="26.5" y="72.9526">getAsString(FacesContext, UIComponent, ExperimentierStation): String</text><!--MD5=[43ce58cbf290865af9fb276ff3a98028]
reverse link javax.faces.convert.Converter to de.unibremen.sfb.converter.ExperimentierStationConverter--><path d="M221.5,100.38 C221.5,113.74 221.5,127.65 221.5,139.79 " fill="none" id="javax.faces.convert.Converter&lt;-de.unibremen.sfb.converter.ExperimentierStationConverter" style="stroke: #A80036; stroke-width: 1.0; stroke-dasharray: 7.0,7.0;"/><polygon fill="none" points="214.5,100.18,221.5,80.18,228.5,100.18,214.5,100.18" style="stroke: #A80036; stroke-width: 1.0;"/><text fill="#888888" font-family="sans-serif" font-size="10" lengthAdjust="spacingAndGlyphs" textLength="186" x="134.5" y="231.2822">UMLDoclet 2.0.7, PlantUML 1.2019.12</text><!--MD5=[8113a1a13ec4a1acf728b93267793eee]
@startuml
    set namespaceSeparator none
    hide empty fields
    hide empty methods

    class "<size:14>ExperimentierStationConverter\n<size:10>de.unibremen.sfb.converter" as de.unibremen.sfb.converter.ExperimentierStationConverter [[ExperimentierStationConverter.html]] {
        +getAsString(FacesContext, UIComponent, ExperimentierStation): String
        +getAsObject(FacesContext, UIComponent, String): ExperimentierStation
    }

    interface "<size:14>Converter\n<size:10>javax.faces.convert" as javax.faces.convert.Converter<ExperimentierStation> {
        {abstract} +getAsObject(FacesContext, UIComponent, String): ExperimentierStation
        {abstract} +getAsString(FacesContext, UIComponent, ExperimentierStation): String
    }

    javax.faces.convert.Converter <|.. de.unibremen.sfb.converter.ExperimentierStationConverter

    center footer UMLDoclet 2.0.7, PlantUML 1.2019.12
@enduml

PlantUML version 1.2019.12(Sun Nov 03 11:24:54 CET 2019)
(APACHE source distribution)
Java Runtime: OpenJDK Runtime Environment
JVM: OpenJDK 64-Bit Server VM
Java Version: 13.0.2+8
Operating System: Linux
Default Encoding: UTF-8
Language: de
Country: DE
--></g></svg>