<?xml version="1.0" encoding="UTF-8" standalone="no"?><svg xmlns="http://www.w3.org/2000/svg" xmlns:xlink="http://www.w3.org/1999/xlink" contentScriptType="application/ecmascript" contentStyleType="text/css" height="358px" preserveAspectRatio="none" style="width:2538px;height:358px;" version="1.1" viewBox="0 0 2538 358" width="2538px" zoomAndPan="magnify"><defs><filter height="300%" id="fyhih0z1yp5nq" width="300%" x="-1" y="-1"><feGaussianBlur result="blurOut" stdDeviation="2.0"/><feColorMatrix in="blurOut" result="blurOut2" type="matrix" values="0 0 0 0 0 0 0 0 0 0 0 0 0 0 0 0 0 0 .4 0"/><feOffset dx="4.0" dy="4.0" in="blurOut2" result="blurOut3"/><feBlend in="SourceGraphic" in2="blurOut3" mode="normal"/></filter></defs><g><!--MD5=[83c291fc535c9cf0be667fec13599b9b]
cluster de.unibremen.sfb.converter--><polygon fill="#FFFFFF" filter="url(#fyhih0z1yp5nq)" points="22,185,251,185,258,207.2969,2516,207.2969,2516,310,22,310,22,185" style="stroke: #000000; stroke-width: 1.5;"/><line style="stroke: #000000; stroke-width: 1.5;" x1="22" x2="258" y1="207.2969" y2="207.2969"/><text fill="#000000" font-family="sans-serif" font-size="14" font-weight="bold" lengthAdjust="spacingAndGlyphs" textLength="223" x="26" y="199.9951">de.unibremen.sfb.converter</text><!--MD5=[8263f4002e1013bdbda2f91ffe2260ad]
cluster javax.faces.convert--><polygon fill="#FFFFFF" filter="url(#fyhih0z1yp5nq)" points="989,24,1149,24,1156,46.2969,1545,46.2969,1545,161,989,161,989,24" style="stroke: #000000; stroke-width: 1.5;"/><line style="stroke: #000000; stroke-width: 1.5;" x1="989" x2="1156" y1="46.2969" y2="46.2969"/><text fill="#000000" font-family="sans-serif" font-size="14" font-weight="bold" lengthAdjust="spacingAndGlyphs" textLength="154" x="993" y="38.9951">javax.faces.convert</text><!--MD5=[9d90528c4e89eb935bde012729c8f43b]
class de.unibremen.sfb.converter.UserConverter--><a href="UserConverter.html" target="_top" title="UserConverter.html" xlink:actuate="onRequest" xlink:href="UserConverter.html" xlink:show="new" xlink:title="UserConverter.html" xlink:type="simple"><rect fill="#FEFECE" filter="url(#fyhih0z1yp5nq)" height="73.6094" id="de.unibremen.sfb.converter.UserConverter" style="stroke: #A80036; stroke-width: 1.5;" width="339" x="2160.5" y="220"/><ellipse cx="2280.75" cy="236" fill="#ADD1B2" rx="11" ry="11" style="stroke: #A80036; stroke-width: 1.0;"/><path d="M2283.7188,241.6406 Q2283.1406,241.9375 2282.5,242.0781 Q2281.8594,242.2344 2281.1563,242.2344 Q2278.6563,242.2344 2277.3281,240.5938 Q2276.0156,238.9375 2276.0156,235.8125 Q2276.0156,232.6875 2277.3281,231.0313 Q2278.6563,229.375 2281.1563,229.375 Q2281.8594,229.375 2282.5,229.5313 Q2283.1563,229.6875 2283.7188,229.9844 L2283.7188,232.7031 Q2283.0938,232.125 2282.5,231.8594 Q2281.9063,231.5781 2281.2813,231.5781 Q2279.9375,231.5781 2279.25,232.6563 Q2278.5625,233.7188 2278.5625,235.8125 Q2278.5625,237.9063 2279.25,238.9844 Q2279.9375,240.0469 2281.2813,240.0469 Q2281.9063,240.0469 2282.5,239.7813 Q2283.0938,239.5 2283.7188,238.9219 L2283.7188,241.6406 Z "/><text fill="#000000" font-family="sans-serif" font-size="12" lengthAdjust="spacingAndGlyphs" textLength="90" x="2301.25" y="240.1543">UserConverter</text><line style="stroke: #A80036; stroke-width: 1.5;" x1="2161.5" x2="2498.5" y1="252" y2="252"/><line style="stroke: #A80036; stroke-width: 1.5;" x1="2161.5" x2="2498.5" y1="260" y2="260"/><ellipse cx="2171.5" cy="271" fill="#84BE84" rx="3" ry="3" style="stroke: #038048; stroke-width: 1.0;"/><text fill="#000000" font-family="sans-serif" font-size="11" lengthAdjust="spacingAndGlyphs" textLength="311" x="2180.5" y="274.2104">getAsString(FacesContext, UIComponent, User): String</text><ellipse cx="2171.5" cy="283.8047" fill="#84BE84" rx="3" ry="3" style="stroke: #038048; stroke-width: 1.0;"/><text fill="#000000" font-family="sans-serif" font-size="11" lengthAdjust="spacingAndGlyphs" textLength="313" x="2180.5" y="287.0151">getAsObject(FacesContext, UIComponent, String): User</text></a><!--MD5=[b225a34ce372bc2d101c10c146527322]
class de.unibremen.sfb.converter.ExperimentierStationConverter--><a href="ExperimentierStationConverter.html" target="_top" title="ExperimentierStationConverter.html" xlink:actuate="onRequest" xlink:href="ExperimentierStationConverter.html" xlink:show="new" xlink:title="ExperimentierStationConverter.html" xlink:type="simple"><rect fill="#FEFECE" filter="url(#fyhih0z1yp5nq)" height="73.6094" id="de.unibremen.sfb.converter.ExperimentierStationConverter" style="stroke: #A80036; stroke-width: 1.5;" width="431" x="1694.5" y="220"/><ellipse cx="1809.75" cy="236" fill="#ADD1B2" rx="11" ry="11" style="stroke: #A80036; stroke-width: 1.0;"/><path d="M1812.7188,241.6406 Q1812.1406,241.9375 1811.5,242.0781 Q1810.8594,242.2344 1810.1563,242.2344 Q1807.6563,242.2344 1806.3281,240.5938 Q1805.0156,238.9375 1805.0156,235.8125 Q1805.0156,232.6875 1806.3281,231.0313 Q1807.6563,229.375 1810.1563,229.375 Q1810.8594,229.375 1811.5,229.5313 Q1812.1563,229.6875 1812.7188,229.9844 L1812.7188,232.7031 Q1812.0938,232.125 1811.5,231.8594 Q1810.9063,231.5781 1810.2813,231.5781 Q1808.9375,231.5781 1808.25,232.6563 Q1807.5625,233.7188 1807.5625,235.8125 Q1807.5625,237.9063 1808.25,238.9844 Q1808.9375,240.0469 1810.2813,240.0469 Q1810.9063,240.0469 1811.5,239.7813 Q1812.0938,239.5 1812.7188,238.9219 L1812.7188,241.6406 Z "/><text fill="#000000" font-family="sans-serif" font-size="12" lengthAdjust="spacingAndGlyphs" textLength="192" x="1830.25" y="240.1543">ExperimentierStationConverter</text><line style="stroke: #A80036; stroke-width: 1.5;" x1="1695.5" x2="2124.5" y1="252" y2="252"/><line style="stroke: #A80036; stroke-width: 1.5;" x1="1695.5" x2="2124.5" y1="260" y2="260"/><ellipse cx="1705.5" cy="271" fill="#84BE84" rx="3" ry="3" style="stroke: #038048; stroke-width: 1.0;"/><text fill="#000000" font-family="sans-serif" font-size="11" lengthAdjust="spacingAndGlyphs" textLength="403" x="1714.5" y="274.2104">getAsString(FacesContext, UIComponent, ExperimentierStation): String</text><ellipse cx="1705.5" cy="283.8047" fill="#84BE84" rx="3" ry="3" style="stroke: #038048; stroke-width: 1.0;"/><text fill="#000000" font-family="sans-serif" font-size="11" lengthAdjust="spacingAndGlyphs" textLength="405" x="1714.5" y="287.0151">getAsObject(FacesContext, UIComponent, String): ExperimentierStation</text></a><!--MD5=[52308e9b1ae2c86274af9f59b0cb43d2]
class de.unibremen.sfb.converter.psvConverter--><a href="psvConverter.html" target="_top" title="psvConverter.html" xlink:actuate="onRequest" xlink:href="psvConverter.html" xlink:show="new" xlink:title="psvConverter.html" xlink:type="simple"><rect fill="#FEFECE" filter="url(#fyhih0z1yp5nq)" height="73.6094" id="de.unibremen.sfb.converter.psvConverter" style="stroke: #A80036; stroke-width: 1.5;" width="348" x="1311" y="220"/><ellipse cx="1439.75" cy="236" fill="#ADD1B2" rx="11" ry="11" style="stroke: #A80036; stroke-width: 1.0;"/><path d="M1442.7188,241.6406 Q1442.1406,241.9375 1441.5,242.0781 Q1440.8594,242.2344 1440.1563,242.2344 Q1437.6563,242.2344 1436.3281,240.5938 Q1435.0156,238.9375 1435.0156,235.8125 Q1435.0156,232.6875 1436.3281,231.0313 Q1437.6563,229.375 1440.1563,229.375 Q1440.8594,229.375 1441.5,229.5313 Q1442.1563,229.6875 1442.7188,229.9844 L1442.7188,232.7031 Q1442.0938,232.125 1441.5,231.8594 Q1440.9063,231.5781 1440.2813,231.5781 Q1438.9375,231.5781 1438.25,232.6563 Q1437.5625,233.7188 1437.5625,235.8125 Q1437.5625,237.9063 1438.25,238.9844 Q1438.9375,240.0469 1440.2813,240.0469 Q1440.9063,240.0469 1441.5,239.7813 Q1442.0938,239.5 1442.7188,238.9219 L1442.7188,241.6406 Z "/><text fill="#000000" font-family="sans-serif" font-size="12" lengthAdjust="spacingAndGlyphs" textLength="82" x="1460.25" y="240.1543">psvConverter</text><line style="stroke: #A80036; stroke-width: 1.5;" x1="1312" x2="1658" y1="252" y2="252"/><line style="stroke: #A80036; stroke-width: 1.5;" x1="1312" x2="1658" y1="260" y2="260"/><ellipse cx="1322" cy="271" fill="#84BE84" rx="3" ry="3" style="stroke: #038048; stroke-width: 1.0;"/><text fill="#000000" font-family="sans-serif" font-size="11" lengthAdjust="spacingAndGlyphs" textLength="322" x="1331" y="274.2104">getAsObject(FacesContext, UIComponent, String): Object</text><ellipse cx="1322" cy="283.8047" fill="#84BE84" rx="3" ry="3" style="stroke: #038048; stroke-width: 1.0;"/><text fill="#000000" font-family="sans-serif" font-size="11" lengthAdjust="spacingAndGlyphs" textLength="320" x="1331" y="287.0151">getAsString(FacesContext, UIComponent, Object): String</text></a><!--MD5=[a2f155da011b1f17ac9d9e76a2417251]
class de.unibremen.sfb.converter.ProzessSchrittParameterConverter--><a href="ProzessSchrittParameterConverter.html" target="_top" title="ProzessSchrittParameterConverter.html" xlink:actuate="onRequest" xlink:href="ProzessSchrittParameterConverter.html" xlink:show="new" xlink:title="ProzessSchrittParameterConverter.html" xlink:type="simple"><rect fill="#FEFECE" filter="url(#fyhih0z1yp5nq)" height="73.6094" id="de.unibremen.sfb.converter.ProzessSchrittParameterConverter" style="stroke: #A80036; stroke-width: 1.5;" width="454" x="822" y="220"/><ellipse cx="936.75" cy="236" fill="#ADD1B2" rx="11" ry="11" style="stroke: #A80036; stroke-width: 1.0;"/><path d="M939.7188,241.6406 Q939.1406,241.9375 938.5,242.0781 Q937.8594,242.2344 937.1563,242.2344 Q934.6563,242.2344 933.3281,240.5938 Q932.0156,238.9375 932.0156,235.8125 Q932.0156,232.6875 933.3281,231.0313 Q934.6563,229.375 937.1563,229.375 Q937.8594,229.375 938.5,229.5313 Q939.1563,229.6875 939.7188,229.9844 L939.7188,232.7031 Q939.0938,232.125 938.5,231.8594 Q937.9063,231.5781 937.2813,231.5781 Q935.9375,231.5781 935.25,232.6563 Q934.5625,233.7188 934.5625,235.8125 Q934.5625,237.9063 935.25,238.9844 Q935.9375,240.0469 937.2813,240.0469 Q937.9063,240.0469 938.5,239.7813 Q939.0938,239.5 939.7188,238.9219 L939.7188,241.6406 Z "/><text fill="#000000" font-family="sans-serif" font-size="12" lengthAdjust="spacingAndGlyphs" textLength="216" x="957.25" y="240.1543">ProzessSchrittParameterConverter</text><line style="stroke: #A80036; stroke-width: 1.5;" x1="823" x2="1275" y1="252" y2="252"/><line style="stroke: #A80036; stroke-width: 1.5;" x1="823" x2="1275" y1="260" y2="260"/><ellipse cx="833" cy="271" fill="#84BE84" rx="3" ry="3" style="stroke: #038048; stroke-width: 1.0;"/><text fill="#000000" font-family="sans-serif" font-size="11" lengthAdjust="spacingAndGlyphs" textLength="426" x="842" y="274.2104">getAsString(FacesContext, UIComponent, ProzessSchrittParameter): String</text><ellipse cx="833" cy="283.8047" fill="#84BE84" rx="3" ry="3" style="stroke: #038048; stroke-width: 1.0;"/><text fill="#000000" font-family="sans-serif" font-size="11" lengthAdjust="spacingAndGlyphs" textLength="428" x="842" y="287.0151">getAsObject(FacesContext, UIComponent, String): ProzessSchrittParameter</text></a><!--MD5=[af45518d2ba9180478cfa20af8b89ae2]
class de.unibremen.sfb.converter.AuftragsConverter--><a href="AuftragsConverter.html" target="_top" title="AuftragsConverter.html" xlink:actuate="onRequest" xlink:href="AuftragsConverter.html" xlink:show="new" xlink:title="AuftragsConverter.html" xlink:type="simple"><rect fill="#FEFECE" filter="url(#fyhih0z1yp5nq)" height="73.6094" id="de.unibremen.sfb.converter.AuftragsConverter" style="stroke: #A80036; stroke-width: 1.5;" width="353" x="433.5" y="220"/><ellipse cx="548.75" cy="236" fill="#ADD1B2" rx="11" ry="11" style="stroke: #A80036; stroke-width: 1.0;"/><path d="M551.7188,241.6406 Q551.1406,241.9375 550.5,242.0781 Q549.8594,242.2344 549.1563,242.2344 Q546.6563,242.2344 545.3281,240.5938 Q544.0156,238.9375 544.0156,235.8125 Q544.0156,232.6875 545.3281,231.0313 Q546.6563,229.375 549.1563,229.375 Q549.8594,229.375 550.5,229.5313 Q551.1563,229.6875 551.7188,229.9844 L551.7188,232.7031 Q551.0938,232.125 550.5,231.8594 Q549.9063,231.5781 549.2813,231.5781 Q547.9375,231.5781 547.25,232.6563 Q546.5625,233.7188 546.5625,235.8125 Q546.5625,237.9063 547.25,238.9844 Q547.9375,240.0469 549.2813,240.0469 Q549.9063,240.0469 550.5,239.7813 Q551.0938,239.5 551.7188,238.9219 L551.7188,241.6406 Z "/><text fill="#000000" font-family="sans-serif" font-size="12" lengthAdjust="spacingAndGlyphs" textLength="114" x="569.25" y="240.1543">AuftragsConverter</text><line style="stroke: #A80036; stroke-width: 1.5;" x1="434.5" x2="785.5" y1="252" y2="252"/><line style="stroke: #A80036; stroke-width: 1.5;" x1="434.5" x2="785.5" y1="260" y2="260"/><ellipse cx="444.5" cy="271" fill="#84BE84" rx="3" ry="3" style="stroke: #038048; stroke-width: 1.0;"/><text fill="#000000" font-family="sans-serif" font-size="11" lengthAdjust="spacingAndGlyphs" textLength="325" x="453.5" y="274.2104">getAsString(FacesContext, UIComponent, Auftrag): String</text><ellipse cx="444.5" cy="283.8047" fill="#84BE84" rx="3" ry="3" style="stroke: #038048; stroke-width: 1.0;"/><text fill="#000000" font-family="sans-serif" font-size="11" lengthAdjust="spacingAndGlyphs" textLength="327" x="453.5" y="287.0151">getAsObject(FacesContext, UIComponent, String): Auftrag</text></a><!--MD5=[85c8d9a29b24e609c605ae9fce6d45fb]
class de.unibremen.sfb.converter.StandortConverter--><a href="StandortConverter.html" target="_top" title="StandortConverter.html" xlink:actuate="onRequest" xlink:href="StandortConverter.html" xlink:show="new" xlink:title="StandortConverter.html" xlink:type="simple"><rect fill="#FEFECE" filter="url(#fyhih0z1yp5nq)" height="73.6094" id="de.unibremen.sfb.converter.StandortConverter" style="stroke: #A80036; stroke-width: 1.5;" width="361" x="37.5" y="220"/><ellipse cx="155.75" cy="236" fill="#ADD1B2" rx="11" ry="11" style="stroke: #A80036; stroke-width: 1.0;"/><path d="M158.7188,241.6406 Q158.1406,241.9375 157.5,242.0781 Q156.8594,242.2344 156.1563,242.2344 Q153.6563,242.2344 152.3281,240.5938 Q151.0156,238.9375 151.0156,235.8125 Q151.0156,232.6875 152.3281,231.0313 Q153.6563,229.375 156.1563,229.375 Q156.8594,229.375 157.5,229.5313 Q158.1563,229.6875 158.7188,229.9844 L158.7188,232.7031 Q158.0938,232.125 157.5,231.8594 Q156.9063,231.5781 156.2813,231.5781 Q154.9375,231.5781 154.25,232.6563 Q153.5625,233.7188 153.5625,235.8125 Q153.5625,237.9063 154.25,238.9844 Q154.9375,240.0469 156.2813,240.0469 Q156.9063,240.0469 157.5,239.7813 Q158.0938,239.5 158.7188,238.9219 L158.7188,241.6406 Z "/><text fill="#000000" font-family="sans-serif" font-size="12" lengthAdjust="spacingAndGlyphs" textLength="116" x="176.25" y="240.1543">StandortConverter</text><line style="stroke: #A80036; stroke-width: 1.5;" x1="38.5" x2="397.5" y1="252" y2="252"/><line style="stroke: #A80036; stroke-width: 1.5;" x1="38.5" x2="397.5" y1="260" y2="260"/><ellipse cx="48.5" cy="271" fill="#84BE84" rx="3" ry="3" style="stroke: #038048; stroke-width: 1.0;"/><text fill="#000000" font-family="sans-serif" font-size="11" lengthAdjust="spacingAndGlyphs" textLength="333" x="57.5" y="274.2104">getAsString(FacesContext, UIComponent, Standort): String</text><ellipse cx="48.5" cy="283.8047" fill="#84BE84" rx="3" ry="3" style="stroke: #038048; stroke-width: 1.0;"/><text fill="#000000" font-family="sans-serif" font-size="11" lengthAdjust="spacingAndGlyphs" textLength="335" x="57.5" y="287.0151">getAsObject(FacesContext, UIComponent, String): Standort</text></a><!--MD5=[b9bb928325669804c5452a494b906742]
class javax.faces.convert.Converter--><rect fill="#FEFECE" filter="url(#fyhih0z1yp5nq)" height="86.4141" id="javax.faces.convert.Converter" style="stroke: #A80036; stroke-width: 1.5;" width="524" x="1005" y="59"/><ellipse cx="1226.75" cy="75" fill="#B4A7E5" rx="11" ry="11" style="stroke: #A80036; stroke-width: 1.0;"/><path d="M1222.6719,70.7656 L1222.6719,68.6094 L1230.0625,68.6094 L1230.0625,70.7656 L1227.5938,70.7656 L1227.5938,78.8438 L1230.0625,78.8438 L1230.0625,81 L1222.6719,81 L1222.6719,78.8438 L1225.1406,78.8438 L1225.1406,70.7656 L1222.6719,70.7656 Z "/><text fill="#000000" font-family="sans-serif" font-size="12" font-style="italic" lengthAdjust="spacingAndGlyphs" textLength="61" x="1247.25" y="79.1543">Converter</text><rect fill="#FFFFFF" height="15.9688" style="stroke: #000000; stroke-width: 1.0; stroke-dasharray: 2.0,2.0;" width="9" x="1523" y="56"/><text fill="#000000" font-family="sans-serif" font-size="12" font-style="italic" lengthAdjust="spacingAndGlyphs" textLength="7" x="1524" y="68.1387">T</text><line style="stroke: #A80036; stroke-width: 1.5;" x1="1006" x2="1528" y1="91" y2="91"/><ellipse cx="1016" cy="102" fill="none" rx="3" ry="3" style="stroke: #038048; stroke-width: 1.0;"/><text fill="#000000" font-family="sans-serif" font-size="11" lengthAdjust="spacingAndGlyphs" text-decoration="underline" textLength="498" x="1025" y="105.2104">DATETIMECONVERTER_DEFAULT_TIMEZONE_IS_SYSTEM_TIMEZONE_PARAM_NAME: String</text><line style="stroke: #A80036; stroke-width: 1.5;" x1="1006" x2="1528" y1="111.8047" y2="111.8047"/><ellipse cx="1016" cy="122.8047" fill="#84BE84" rx="3" ry="3" style="stroke: #038048; stroke-width: 1.0;"/><text fill="#000000" font-family="sans-serif" font-size="11" font-style="italic" lengthAdjust="spacingAndGlyphs" textLength="292" x="1025" y="126.0151">getAsObject(FacesContext, UIComponent, String): T</text><ellipse cx="1016" cy="135.6094" fill="#84BE84" rx="3" ry="3" style="stroke: #038048; stroke-width: 1.0;"/><text fill="#000000" font-family="sans-serif" font-size="11" font-style="italic" lengthAdjust="spacingAndGlyphs" textLength="289" x="1025" y="138.8198">getAsString(FacesContext, UIComponent, T): String</text><!--MD5=[b3b1680e2c37fb6a6a3ab71a2c79ffae]
reverse link javax.faces.convert.Converter to de.unibremen.sfb.converter.UserConverter--><path d="M1549.13,117.21 C1761.56,129.72 2034.12,150.12 2143,177 C2182.86,186.84 2225.17,204.08 2259.44,219.96 " fill="none" id="javax.faces.convert.Converter&lt;-de.unibremen.sfb.converter.UserConverter" style="stroke: #A80036; stroke-width: 1.0; stroke-dasharray: 7.0,7.0;"/><polygon fill="none" points="1548.65,124.2,1529.09,116.04,1549.47,110.22,1548.65,124.2" style="stroke: #A80036; stroke-width: 1.0;"/><!--MD5=[43ce58cbf290865af9fb276ff3a98028]
reverse link javax.faces.convert.Converter to de.unibremen.sfb.converter.ExperimentierStationConverter--><path d="M1548.85,148.17 C1592,156.73 1635.85,166.37 1677,177 C1722.8,188.83 1772.58,205.21 1814.33,219.99 " fill="none" id="javax.faces.convert.Converter&lt;-de.unibremen.sfb.converter.ExperimentierStationConverter" style="stroke: #A80036; stroke-width: 1.0; stroke-dasharray: 7.0,7.0;"/><polygon fill="none" points="1547.37,155.02,1529.08,144.32,1550.05,141.27,1547.37,155.02" style="stroke: #A80036; stroke-width: 1.0;"/><!--MD5=[8484fe9a8c9751aaa31810bf3d423341]
reverse link javax.faces.convert.Converter to de.unibremen.sfb.converter.psvConverter--><path d="M1343.44,156.65 C1373.22,177.55 1406.57,200.96 1433.42,219.8 " fill="none" id="javax.faces.convert.Converter&lt;-de.unibremen.sfb.converter.psvConverter" style="stroke: #A80036; stroke-width: 1.0; stroke-dasharray: 7.0,7.0;"/><polygon fill="none" points="1339.21,162.23,1326.86,145.01,1347.25,150.77,1339.21,162.23" style="stroke: #A80036; stroke-width: 1.0;"/><!--MD5=[b2f0fd3d7b7043733dcc4e4640d9b46b]
reverse link javax.faces.convert.Converter to de.unibremen.sfb.converter.ProzessSchrittParameterConverter--><path d="M1190.56,156.65 C1160.78,177.55 1127.43,200.96 1100.58,219.8 " fill="none" id="javax.faces.convert.Converter&lt;-de.unibremen.sfb.converter.ProzessSchrittParameterConverter" style="stroke: #A80036; stroke-width: 1.0; stroke-dasharray: 7.0,7.0;"/><polygon fill="none" points="1186.75,150.77,1207.14,145.01,1194.79,162.23,1186.75,150.77" style="stroke: #A80036; stroke-width: 1.0;"/><!--MD5=[86e0a99bb1914a17704e6fbed17c03f2]
reverse link javax.faces.convert.Converter to de.unibremen.sfb.converter.AuftragsConverter--><path d="M985.05,137.76 C925.07,148.04 862.51,160.97 805,177 C765.24,188.08 722.59,204.78 687.34,219.96 " fill="none" id="javax.faces.convert.Converter&lt;-de.unibremen.sfb.converter.AuftragsConverter" style="stroke: #A80036; stroke-width: 1.0; stroke-dasharray: 7.0,7.0;"/><polygon fill="none" points="983.97,130.84,1004.85,134.45,986.29,144.65,983.97,130.84" style="stroke: #A80036; stroke-width: 1.0;"/><!--MD5=[01f5518c1a788998edbcd3badb9548f9]
reverse link javax.faces.convert.Converter to de.unibremen.sfb.converter.StandortConverter--><path d="M984.4,106.91 C817.18,114.31 602.31,132.75 416,177 C374.23,186.92 329.66,204.07 293.4,219.86 " fill="none" id="javax.faces.convert.Converter&lt;-de.unibremen.sfb.converter.StandortConverter" style="stroke: #A80036; stroke-width: 1.0; stroke-dasharray: 7.0,7.0;"/><polygon fill="none" points="984.27,99.9,1004.55,106.06,984.86,113.89,984.27,99.9" style="stroke: #A80036; stroke-width: 1.0;"/><text fill="#888888" font-family="sans-serif" font-size="10" lengthAdjust="spacingAndGlyphs" textLength="186" x="1182" y="345.2822">UMLDoclet 2.0.7, PlantUML 1.2019.12</text><!--MD5=[b57370c33ac819f46198646698a198f2]
@startuml
    namespace de.unibremen.sfb.converter {

        class UserConverter [[UserConverter.html]] {
            +getAsString(FacesContext, UIComponent, User): String
            +getAsObject(FacesContext, UIComponent, String): User
        }

        class ExperimentierStationConverter [[ExperimentierStationConverter.html]] {
            +getAsString(FacesContext, UIComponent, ExperimentierStation): String
            +getAsObject(FacesContext, UIComponent, String): ExperimentierStation
        }

        class psvConverter [[psvConverter.html]] {
            +getAsObject(FacesContext, UIComponent, String): Object
            +getAsString(FacesContext, UIComponent, Object): String
        }

        class ProzessSchrittParameterConverter [[ProzessSchrittParameterConverter.html]] {
            +getAsString(FacesContext, UIComponent, ProzessSchrittParameter): String
            +getAsObject(FacesContext, UIComponent, String): ProzessSchrittParameter
        }

        class AuftragsConverter [[AuftragsConverter.html]] {
            +getAsString(FacesContext, UIComponent, Auftrag): String
            +getAsObject(FacesContext, UIComponent, String): Auftrag
        }

        class StandortConverter [[StandortConverter.html]] {
            +getAsString(FacesContext, UIComponent, Standort): String
            +getAsObject(FacesContext, UIComponent, String): Standort
        }

        javax.faces.convert.Converter <|.. UserConverter
        javax.faces.convert.Converter <|.. ExperimentierStationConverter
        javax.faces.convert.Converter <|.. psvConverter
        javax.faces.convert.Converter <|.. ProzessSchrittParameterConverter
        javax.faces.convert.Converter <|.. AuftragsConverter
        javax.faces.convert.Converter <|.. StandortConverter
    }

    namespace javax.faces.convert {
        interface Converter<T> {
            {static} +DATETIMECONVERTER_DEFAULT_TIMEZONE_IS_SYSTEM_TIMEZONE_PARAM_NAME: String
            {abstract} +getAsObject(FacesContext, UIComponent, String): T
            {abstract} +getAsString(FacesContext, UIComponent, T): String
        }
    }

    center footer UMLDoclet 2.0.7, PlantUML 1.2019.12
@enduml

PlantUML version 1.2019.12(Sun Nov 03 11:24:54 CET 2019)
(APACHE source distribution)
Java Runtime: OpenJDK Runtime Environment
JVM: OpenJDK 64-Bit Server VM
Java Version: 13.0.2+8
Operating System: Linux
Default Encoding: UTF-8
Language: de
Country: DE
--></g></svg>