<?xml version="1.0" encoding="UTF-8" standalone="no"?><svg xmlns="http://www.w3.org/2000/svg" xmlns:xlink="http://www.w3.org/1999/xlink" contentScriptType="application/ecmascript" contentStyleType="text/css" height="244px" preserveAspectRatio="none" style="width:472px;height:244px;" version="1.1" viewBox="0 0 472 244" width="472px" zoomAndPan="magnify"><defs><filter height="300%" id="fbksxs5fzkhyl" width="300%" x="-1" y="-1"><feGaussianBlur result="blurOut" stdDeviation="2.0"/><feColorMatrix in="blurOut" result="blurOut2" type="matrix" values="0 0 0 0 0 0 0 0 0 0 0 0 0 0 0 0 0 0 .4 0"/><feOffset dx="4.0" dy="4.0" in="blurOut2" result="blurOut3"/><feBlend in="SourceGraphic" in2="blurOut3" mode="normal"/></filter></defs><g><!--MD5=[a2f155da011b1f17ac9d9e76a2417251]
class de.unibremen.sfb.converter.ProzessSchrittParameterConverter--><a href="ProzessSchrittParameterConverter.html" target="_top" title="ProzessSchrittParameterConverter.html" xlink:actuate="onRequest" xlink:href="ProzessSchrittParameterConverter.html" xlink:show="new" xlink:title="ProzessSchrittParameterConverter.html" xlink:type="simple"><rect fill="#FEFECE" filter="url(#fbksxs5fzkhyl)" height="71.5469" id="de.unibremen.sfb.converter.ProzessSchrittParameterConverter" style="stroke: #A80036; stroke-width: 1.5;" width="454" x="6" y="140"/><ellipse cx="109.25" cy="158.9688" fill="#ADD1B2" rx="11" ry="11" style="stroke: #A80036; stroke-width: 1.0;"/><path d="M112.2188,164.6094 Q111.6406,164.9063 111,165.0469 Q110.3594,165.2031 109.6563,165.2031 Q107.1563,165.2031 105.8281,163.5625 Q104.5156,161.9063 104.5156,158.7813 Q104.5156,155.6563 105.8281,154 Q107.1563,152.3438 109.6563,152.3438 Q110.3594,152.3438 111,152.5 Q111.6563,152.6563 112.2188,152.9531 L112.2188,155.6719 Q111.5938,155.0938 111,154.8281 Q110.4063,154.5469 109.7813,154.5469 Q108.4375,154.5469 107.75,155.625 Q107.0625,156.6875 107.0625,158.7813 Q107.0625,160.875 107.75,161.9531 Q108.4375,163.0156 109.7813,163.0156 Q110.4063,163.0156 111,162.75 Q111.5938,162.4688 112.2188,161.8906 L112.2188,164.6094 Z "/><text fill="#000000" font-family="sans-serif" font-size="14" lengthAdjust="spacingAndGlyphs" textLength="239" x="129.75" y="157.9951">ProzessSchrittParameterConverter</text><text fill="#000000" font-family="sans-serif" font-size="10" lengthAdjust="spacingAndGlyphs" textLength="135" x="181.75" y="170.5791">de.unibremen.sfb.converter</text><line style="stroke: #A80036; stroke-width: 1.5;" x1="7" x2="459" y1="177.9375" y2="177.9375"/><ellipse cx="17" cy="188.9375" fill="#84BE84" rx="3" ry="3" style="stroke: #038048; stroke-width: 1.0;"/><text fill="#000000" font-family="sans-serif" font-size="11" lengthAdjust="spacingAndGlyphs" textLength="426" x="26" y="192.1479">getAsString(FacesContext, UIComponent, ProzessSchrittParameter): String</text><ellipse cx="17" cy="201.7422" fill="#84BE84" rx="3" ry="3" style="stroke: #038048; stroke-width: 1.0;"/><text fill="#000000" font-family="sans-serif" font-size="11" lengthAdjust="spacingAndGlyphs" textLength="428" x="26" y="204.9526">getAsObject(FacesContext, UIComponent, String): ProzessSchrittParameter</text></a><!--MD5=[b9bb928325669804c5452a494b906742]
class javax.faces.convert.Converter--><rect fill="#FEFECE" filter="url(#fbksxs5fzkhyl)" height="71.5469" id="javax.faces.convert.Converter" style="stroke: #A80036; stroke-width: 1.5;" width="451" x="7.5" y="8"/><ellipse cx="101.75" cy="26.9688" fill="#B4A7E5" rx="11" ry="11" style="stroke: #A80036; stroke-width: 1.0;"/><path d="M97.6719,22.7344 L97.6719,20.5781 L105.0625,20.5781 L105.0625,22.7344 L102.5938,22.7344 L102.5938,30.8125 L105.0625,30.8125 L105.0625,32.9688 L97.6719,32.9688 L97.6719,30.8125 L100.1406,30.8125 L100.1406,22.7344 L97.6719,22.7344 Z "/><text fill="#000000" font-family="sans-serif" font-size="14" font-style="italic" lengthAdjust="spacingAndGlyphs" textLength="69" x="136.75" y="25.9951">Converter</text><text fill="#000000" font-family="sans-serif" font-size="10" font-style="italic" lengthAdjust="spacingAndGlyphs" textLength="98" x="122.25" y="38.5791">javax.faces.convert</text><rect fill="#FFFFFF" height="15.9688" style="stroke: #000000; stroke-width: 1.0; stroke-dasharray: 2.0,2.0;" width="154" x="307.5" y="5"/><text fill="#000000" font-family="sans-serif" font-size="12" font-style="italic" lengthAdjust="spacingAndGlyphs" textLength="152" x="308.5" y="17.1387">ProzessSchrittParameter</text><line style="stroke: #A80036; stroke-width: 1.5;" x1="8.5" x2="457.5" y1="45.9375" y2="45.9375"/><ellipse cx="18.5" cy="56.9375" fill="#84BE84" rx="3" ry="3" style="stroke: #038048; stroke-width: 1.0;"/><text fill="#000000" font-family="sans-serif" font-size="11" font-style="italic" lengthAdjust="spacingAndGlyphs" textLength="425" x="27.5" y="60.1479">getAsObject(FacesContext, UIComponent, String): ProzessSchrittParameter</text><ellipse cx="18.5" cy="69.7422" fill="#84BE84" rx="3" ry="3" style="stroke: #038048; stroke-width: 1.0;"/><text fill="#000000" font-family="sans-serif" font-size="11" font-style="italic" lengthAdjust="spacingAndGlyphs" textLength="422" x="27.5" y="72.9526">getAsString(FacesContext, UIComponent, ProzessSchrittParameter): String</text><!--MD5=[b2f0fd3d7b7043733dcc4e4640d9b46b]
reverse link javax.faces.convert.Converter to de.unibremen.sfb.converter.ProzessSchrittParameterConverter--><path d="M233,100.38 C233,113.74 233,127.65 233,139.79 " fill="none" id="javax.faces.convert.Converter&lt;-de.unibremen.sfb.converter.ProzessSchrittParameterConverter" style="stroke: #A80036; stroke-width: 1.0; stroke-dasharray: 7.0,7.0;"/><polygon fill="none" points="226,100.18,233,80.18,240,100.18,226,100.18" style="stroke: #A80036; stroke-width: 1.0;"/><text fill="#888888" font-family="sans-serif" font-size="10" lengthAdjust="spacingAndGlyphs" textLength="186" x="146" y="231.2822">UMLDoclet 2.0.7, PlantUML 1.2019.12</text><!--MD5=[22c2d47c7822501da05475b53c225420]
@startuml
    set namespaceSeparator none
    hide empty fields
    hide empty methods

    class "<size:14>ProzessSchrittParameterConverter\n<size:10>de.unibremen.sfb.converter" as de.unibremen.sfb.converter.ProzessSchrittParameterConverter [[ProzessSchrittParameterConverter.html]] {
        +getAsString(FacesContext, UIComponent, ProzessSchrittParameter): String
        +getAsObject(FacesContext, UIComponent, String): ProzessSchrittParameter
    }

    interface "<size:14>Converter\n<size:10>javax.faces.convert" as javax.faces.convert.Converter<ProzessSchrittParameter> {
        {abstract} +getAsObject(FacesContext, UIComponent, String): ProzessSchrittParameter
        {abstract} +getAsString(FacesContext, UIComponent, ProzessSchrittParameter): String
    }

    javax.faces.convert.Converter <|.. de.unibremen.sfb.converter.ProzessSchrittParameterConverter

    center footer UMLDoclet 2.0.7, PlantUML 1.2019.12
@enduml

PlantUML version 1.2019.12(Sun Nov 03 11:24:54 CET 2019)
(APACHE source distribution)
Java Runtime: OpenJDK Runtime Environment
JVM: OpenJDK 64-Bit Server VM
Java Version: 13.0.2+8
Operating System: Linux
Default Encoding: UTF-8
Language: de
Country: DE
--></g></svg>