<?xml version="1.0" encoding="UTF-8" standalone="no"?><svg xmlns="http://www.w3.org/2000/svg" xmlns:xlink="http://www.w3.org/1999/xlink" contentScriptType="application/ecmascript" contentStyleType="text/css" height="244px" preserveAspectRatio="none" style="width:365px;height:244px;" version="1.1" viewBox="0 0 365 244" width="365px" zoomAndPan="magnify"><defs><filter height="300%" id="f14z8he6dvjqnj" width="300%" x="-1" y="-1"><feGaussianBlur result="blurOut" stdDeviation="2.0"/><feColorMatrix in="blurOut" result="blurOut2" type="matrix" values="0 0 0 0 0 0 0 0 0 0 0 0 0 0 0 0 0 0 .4 0"/><feOffset dx="4.0" dy="4.0" in="blurOut2" result="blurOut3"/><feBlend in="SourceGraphic" in2="blurOut3" mode="normal"/></filter></defs><g><!--MD5=[52308e9b1ae2c86274af9f59b0cb43d2]
class de.unibremen.sfb.converter.psvConverter--><a href="psvConverter.html" target="_top" title="psvConverter.html" xlink:actuate="onRequest" xlink:href="psvConverter.html" xlink:show="new" xlink:title="psvConverter.html" xlink:type="simple"><rect fill="#FEFECE" filter="url(#f14z8he6dvjqnj)" height="71.5469" id="de.unibremen.sfb.converter.psvConverter" style="stroke: #A80036; stroke-width: 1.5;" width="348" x="6" y="140"/><ellipse cx="108.25" cy="158.9688" fill="#ADD1B2" rx="11" ry="11" style="stroke: #A80036; stroke-width: 1.0;"/><path d="M111.2188,164.6094 Q110.6406,164.9063 110,165.0469 Q109.3594,165.2031 108.6563,165.2031 Q106.1563,165.2031 104.8281,163.5625 Q103.5156,161.9063 103.5156,158.7813 Q103.5156,155.6563 104.8281,154 Q106.1563,152.3438 108.6563,152.3438 Q109.3594,152.3438 110,152.5 Q110.6563,152.6563 111.2188,152.9531 L111.2188,155.6719 Q110.5938,155.0938 110,154.8281 Q109.4063,154.5469 108.7813,154.5469 Q107.4375,154.5469 106.75,155.625 Q106.0625,156.6875 106.0625,158.7813 Q106.0625,160.875 106.75,161.9531 Q107.4375,163.0156 108.7813,163.0156 Q109.4063,163.0156 110,162.75 Q110.5938,162.4688 111.2188,161.8906 L111.2188,164.6094 Z "/><text fill="#000000" font-family="sans-serif" font-size="14" lengthAdjust="spacingAndGlyphs" textLength="92" x="150.25" y="157.9951">psvConverter</text><text fill="#000000" font-family="sans-serif" font-size="10" lengthAdjust="spacingAndGlyphs" textLength="135" x="128.75" y="170.5791">de.unibremen.sfb.converter</text><line style="stroke: #A80036; stroke-width: 1.5;" x1="7" x2="353" y1="177.9375" y2="177.9375"/><ellipse cx="17" cy="188.9375" fill="#84BE84" rx="3" ry="3" style="stroke: #038048; stroke-width: 1.0;"/><text fill="#000000" font-family="sans-serif" font-size="11" lengthAdjust="spacingAndGlyphs" textLength="322" x="26" y="192.1479">getAsObject(FacesContext, UIComponent, String): Object</text><ellipse cx="17" cy="201.7422" fill="#84BE84" rx="3" ry="3" style="stroke: #038048; stroke-width: 1.0;"/><text fill="#000000" font-family="sans-serif" font-size="11" lengthAdjust="spacingAndGlyphs" textLength="320" x="26" y="204.9526">getAsString(FacesContext, UIComponent, Object): String</text></a><!--MD5=[b9bb928325669804c5452a494b906742]
class javax.faces.convert.Converter--><rect fill="#FEFECE" filter="url(#f14z8he6dvjqnj)" height="71.5469" id="javax.faces.convert.Converter" style="stroke: #A80036; stroke-width: 1.5;" width="318" x="21" y="8"/><ellipse cx="121.25" cy="26.9688" fill="#B4A7E5" rx="11" ry="11" style="stroke: #A80036; stroke-width: 1.0;"/><path d="M117.1719,22.7344 L117.1719,20.5781 L124.5625,20.5781 L124.5625,22.7344 L122.0938,22.7344 L122.0938,30.8125 L124.5625,30.8125 L124.5625,32.9688 L117.1719,32.9688 L117.1719,30.8125 L119.6406,30.8125 L119.6406,22.7344 L117.1719,22.7344 Z "/><text fill="#000000" font-family="sans-serif" font-size="14" font-style="italic" lengthAdjust="spacingAndGlyphs" textLength="69" x="156.25" y="25.9951">Converter</text><text fill="#000000" font-family="sans-serif" font-size="10" font-style="italic" lengthAdjust="spacingAndGlyphs" textLength="98" x="141.75" y="38.5791">javax.faces.convert</text><rect fill="#FFFFFF" height="15.9688" style="stroke: #000000; stroke-width: 1.0; stroke-dasharray: 2.0,2.0;" width="9" x="333" y="5"/><text fill="#000000" font-family="sans-serif" font-size="12" font-style="italic" lengthAdjust="spacingAndGlyphs" textLength="7" x="334" y="17.1387">T</text><line style="stroke: #A80036; stroke-width: 1.5;" x1="22" x2="338" y1="45.9375" y2="45.9375"/><ellipse cx="32" cy="56.9375" fill="#84BE84" rx="3" ry="3" style="stroke: #038048; stroke-width: 1.0;"/><text fill="#000000" font-family="sans-serif" font-size="11" font-style="italic" lengthAdjust="spacingAndGlyphs" textLength="292" x="41" y="60.1479">getAsObject(FacesContext, UIComponent, String): T</text><ellipse cx="32" cy="69.7422" fill="#84BE84" rx="3" ry="3" style="stroke: #038048; stroke-width: 1.0;"/><text fill="#000000" font-family="sans-serif" font-size="11" font-style="italic" lengthAdjust="spacingAndGlyphs" textLength="289" x="41" y="72.9526">getAsString(FacesContext, UIComponent, T): String</text><!--MD5=[8484fe9a8c9751aaa31810bf3d423341]
reverse link javax.faces.convert.Converter to de.unibremen.sfb.converter.psvConverter--><path d="M180,100.38 C180,113.74 180,127.65 180,139.79 " fill="none" id="javax.faces.convert.Converter&lt;-de.unibremen.sfb.converter.psvConverter" style="stroke: #A80036; stroke-width: 1.0; stroke-dasharray: 7.0,7.0;"/><polygon fill="none" points="173,100.18,180,80.18,187,100.18,173,100.18" style="stroke: #A80036; stroke-width: 1.0;"/><text fill="#888888" font-family="sans-serif" font-size="10" lengthAdjust="spacingAndGlyphs" textLength="186" x="93" y="231.2822">UMLDoclet 2.0.7, PlantUML 1.2019.12</text><!--MD5=[5cb80492ef50f020195cce9b7e186115]
@startuml
    set namespaceSeparator none
    hide empty fields
    hide empty methods

    class "<size:14>psvConverter\n<size:10>de.unibremen.sfb.converter" as de.unibremen.sfb.converter.psvConverter [[psvConverter.html]] {
        +getAsObject(FacesContext, UIComponent, String): Object
        +getAsString(FacesContext, UIComponent, Object): String
    }

    interface "<size:14>Converter\n<size:10>javax.faces.convert" as javax.faces.convert.Converter<T> {
        {abstract} +getAsObject(FacesContext, UIComponent, String): T
        {abstract} +getAsString(FacesContext, UIComponent, T): String
    }

    javax.faces.convert.Converter <|.. de.unibremen.sfb.converter.psvConverter

    center footer UMLDoclet 2.0.7, PlantUML 1.2019.12
@enduml

PlantUML version 1.2019.12(Sun Nov 03 11:24:54 CET 2019)
(APACHE source distribution)
Java Runtime: OpenJDK Runtime Environment
JVM: OpenJDK 64-Bit Server VM
Java Version: 13.0.2+8
Operating System: Linux
Default Encoding: UTF-8
Language: de
Country: DE
--></g></svg>