<?xml version="1.0" encoding="UTF-8" standalone="no"?><svg xmlns="http://www.w3.org/2000/svg" xmlns:xlink="http://www.w3.org/1999/xlink" contentScriptType="application/ecmascript" contentStyleType="text/css" height="244px" preserveAspectRatio="none" style="width:380px;height:244px;" version="1.1" viewBox="0 0 380 244" width="380px" zoomAndPan="magnify"><defs><filter height="300%" id="ffuahsb0fnff4" width="300%" x="-1" y="-1"><feGaussianBlur result="blurOut" stdDeviation="2.0"/><feColorMatrix in="blurOut" result="blurOut2" type="matrix" values="0 0 0 0 0 0 0 0 0 0 0 0 0 0 0 0 0 0 .4 0"/><feOffset dx="4.0" dy="4.0" in="blurOut2" result="blurOut3"/><feBlend in="SourceGraphic" in2="blurOut3" mode="normal"/></filter></defs><g><!--MD5=[85c8d9a29b24e609c605ae9fce6d45fb]
class de.unibremen.sfb.converter.StandortConverter--><a href="StandortConverter.html" target="_top" title="StandortConverter.html" xlink:actuate="onRequest" xlink:href="StandortConverter.html" xlink:show="new" xlink:title="StandortConverter.html" xlink:type="simple"><rect fill="#FEFECE" filter="url(#ffuahsb0fnff4)" height="71.5469" id="de.unibremen.sfb.converter.StandortConverter" style="stroke: #A80036; stroke-width: 1.5;" width="361" x="6" y="140"/><ellipse cx="114.75" cy="158.9688" fill="#ADD1B2" rx="11" ry="11" style="stroke: #A80036; stroke-width: 1.0;"/><path d="M117.7188,164.6094 Q117.1406,164.9063 116.5,165.0469 Q115.8594,165.2031 115.1563,165.2031 Q112.6563,165.2031 111.3281,163.5625 Q110.0156,161.9063 110.0156,158.7813 Q110.0156,155.6563 111.3281,154 Q112.6563,152.3438 115.1563,152.3438 Q115.8594,152.3438 116.5,152.5 Q117.1563,152.6563 117.7188,152.9531 L117.7188,155.6719 Q117.0938,155.0938 116.5,154.8281 Q115.9063,154.5469 115.2813,154.5469 Q113.9375,154.5469 113.25,155.625 Q112.5625,156.6875 112.5625,158.7813 Q112.5625,160.875 113.25,161.9531 Q113.9375,163.0156 115.2813,163.0156 Q115.9063,163.0156 116.5,162.75 Q117.0938,162.4688 117.7188,161.8906 L117.7188,164.6094 Z "/><text fill="#000000" font-family="sans-serif" font-size="14" lengthAdjust="spacingAndGlyphs" textLength="127" x="139.25" y="157.9951">StandortConverter</text><text fill="#000000" font-family="sans-serif" font-size="10" lengthAdjust="spacingAndGlyphs" textLength="135" x="135.25" y="170.5791">de.unibremen.sfb.converter</text><line style="stroke: #A80036; stroke-width: 1.5;" x1="7" x2="366" y1="177.9375" y2="177.9375"/><ellipse cx="17" cy="188.9375" fill="#84BE84" rx="3" ry="3" style="stroke: #038048; stroke-width: 1.0;"/><text fill="#000000" font-family="sans-serif" font-size="11" lengthAdjust="spacingAndGlyphs" textLength="333" x="26" y="192.1479">getAsString(FacesContext, UIComponent, Standort): String</text><ellipse cx="17" cy="201.7422" fill="#84BE84" rx="3" ry="3" style="stroke: #038048; stroke-width: 1.0;"/><text fill="#000000" font-family="sans-serif" font-size="11" lengthAdjust="spacingAndGlyphs" textLength="335" x="26" y="204.9526">getAsObject(FacesContext, UIComponent, String): Standort</text></a><!--MD5=[b9bb928325669804c5452a494b906742]
class javax.faces.convert.Converter--><rect fill="#FEFECE" filter="url(#ffuahsb0fnff4)" height="71.5469" id="javax.faces.convert.Converter" style="stroke: #A80036; stroke-width: 1.5;" width="359" x="7" y="8"/><ellipse cx="103.75" cy="26.9688" fill="#B4A7E5" rx="11" ry="11" style="stroke: #A80036; stroke-width: 1.0;"/><path d="M99.6719,22.7344 L99.6719,20.5781 L107.0625,20.5781 L107.0625,22.7344 L104.5938,22.7344 L104.5938,30.8125 L107.0625,30.8125 L107.0625,32.9688 L99.6719,32.9688 L99.6719,30.8125 L102.1406,30.8125 L102.1406,22.7344 L99.6719,22.7344 Z "/><text fill="#000000" font-family="sans-serif" font-size="14" font-style="italic" lengthAdjust="spacingAndGlyphs" textLength="69" x="138.75" y="25.9951">Converter</text><text fill="#000000" font-family="sans-serif" font-size="10" font-style="italic" lengthAdjust="spacingAndGlyphs" textLength="98" x="124.25" y="38.5791">javax.faces.convert</text><rect fill="#FFFFFF" height="15.9688" style="stroke: #000000; stroke-width: 1.0; stroke-dasharray: 2.0,2.0;" width="57" x="312" y="5"/><text fill="#000000" font-family="sans-serif" font-size="12" font-style="italic" lengthAdjust="spacingAndGlyphs" textLength="55" x="313" y="17.1387">Standort</text><line style="stroke: #A80036; stroke-width: 1.5;" x1="8" x2="365" y1="45.9375" y2="45.9375"/><ellipse cx="18" cy="56.9375" fill="#84BE84" rx="3" ry="3" style="stroke: #038048; stroke-width: 1.0;"/><text fill="#000000" font-family="sans-serif" font-size="11" font-style="italic" lengthAdjust="spacingAndGlyphs" textLength="333" x="27" y="60.1479">getAsObject(FacesContext, UIComponent, String): Standort</text><ellipse cx="18" cy="69.7422" fill="#84BE84" rx="3" ry="3" style="stroke: #038048; stroke-width: 1.0;"/><text fill="#000000" font-family="sans-serif" font-size="11" font-style="italic" lengthAdjust="spacingAndGlyphs" textLength="330" x="27" y="72.9526">getAsString(FacesContext, UIComponent, Standort): String</text><!--MD5=[01f5518c1a788998edbcd3badb9548f9]
reverse link javax.faces.convert.Converter to de.unibremen.sfb.converter.StandortConverter--><path d="M186.5,100.38 C186.5,113.74 186.5,127.65 186.5,139.79 " fill="none" id="javax.faces.convert.Converter&lt;-de.unibremen.sfb.converter.StandortConverter" style="stroke: #A80036; stroke-width: 1.0; stroke-dasharray: 7.0,7.0;"/><polygon fill="none" points="179.5,100.18,186.5,80.18,193.5,100.18,179.5,100.18" style="stroke: #A80036; stroke-width: 1.0;"/><text fill="#888888" font-family="sans-serif" font-size="10" lengthAdjust="spacingAndGlyphs" textLength="186" x="99.5" y="231.2822">UMLDoclet 2.0.7, PlantUML 1.2019.12</text><!--MD5=[665f98047d969678839b1daafb7596a1]
@startuml
    set namespaceSeparator none
    hide empty fields
    hide empty methods

    class "<size:14>StandortConverter\n<size:10>de.unibremen.sfb.converter" as de.unibremen.sfb.converter.StandortConverter [[StandortConverter.html]] {
        +getAsString(FacesContext, UIComponent, Standort): String
        +getAsObject(FacesContext, UIComponent, String): Standort
    }

    interface "<size:14>Converter\n<size:10>javax.faces.convert" as javax.faces.convert.Converter<Standort> {
        {abstract} +getAsObject(FacesContext, UIComponent, String): Standort
        {abstract} +getAsString(FacesContext, UIComponent, Standort): String
    }

    javax.faces.convert.Converter <|.. de.unibremen.sfb.converter.StandortConverter

    center footer UMLDoclet 2.0.7, PlantUML 1.2019.12
@enduml

PlantUML version 1.2019.12(Sun Nov 03 11:24:54 CET 2019)
(APACHE source distribution)
Java Runtime: OpenJDK Runtime Environment
JVM: OpenJDK 64-Bit Server VM
Java Version: 13.0.2+8
Operating System: Linux
Default Encoding: UTF-8
Language: de
Country: DE
--></g></svg>