<?xml version="1.0" encoding="UTF-8" standalone="no"?><svg xmlns="http://www.w3.org/2000/svg" xmlns:xlink="http://www.w3.org/1999/xlink" contentScriptType="application/ecmascript" contentStyleType="text/css" height="297px" preserveAspectRatio="none" style="width:235px;height:297px;" version="1.1" viewBox="0 0 235 297" width="235px" zoomAndPan="magnify"><defs><filter height="300%" id="f5a9d9yunbb1e" width="300%" x="-1" y="-1"><feGaussianBlur result="blurOut" stdDeviation="2.0"/><feColorMatrix in="blurOut" result="blurOut2" type="matrix" values="0 0 0 0 0 0 0 0 0 0 0 0 0 0 0 0 0 0 .4 0"/><feOffset dx="4.0" dy="4.0" in="blurOut2" result="blurOut3"/><feBlend in="SourceGraphic" in2="blurOut3" mode="normal"/></filter></defs><g><!--MD5=[d30dbf9482e2d68fe84c0a08e8b27665]
class de.unibremen.sfb.persistence.ArchivDAO--><a href="ArchivDAO.html" target="_top" title="ArchivDAO.html" xlink:actuate="onRequest" xlink:href="ArchivDAO.html" xlink:show="new" xlink:title="ArchivDAO.html" xlink:type="simple"><rect fill="#FEFECE" filter="url(#f5a9d9yunbb1e)" height="111.041" id="de.unibremen.sfb.persistence.ArchivDAO" style="stroke: #A80036; stroke-width: 1.5;" width="176" x="25.5" y="153"/><ellipse cx="40.5" cy="172.1328" fill="#ADD1B2" rx="11" ry="11" style="stroke: #A80036; stroke-width: 1.0;"/><path d="M42.9731,178.2759 Q42.3921,178.5747 41.7529,178.7241 Q41.1138,178.8735 40.4082,178.8735 Q37.9014,178.8735 36.5815,177.2217 Q35.2617,175.5698 35.2617,172.4487 Q35.2617,169.3193 36.5815,167.6675 Q37.9014,166.0156 40.4082,166.0156 Q41.1138,166.0156 41.7612,166.165 Q42.4087,166.3145 42.9731,166.6133 L42.9731,169.3359 Q42.3423,168.7549 41.7488,168.4851 Q41.1553,168.2153 40.5244,168.2153 Q39.1797,168.2153 38.4949,169.282 Q37.8101,170.3486 37.8101,172.4487 Q37.8101,174.5405 38.4949,175.6072 Q39.1797,176.6738 40.5244,176.6738 Q41.1553,176.6738 41.7488,176.4041 Q42.3423,176.1343 42.9731,175.5532 Z "/><text fill="#000000" font-family="sans-serif" font-size="14" lengthAdjust="spacingAndGlyphs" textLength="74" x="89.5" y="171.5352">ArchivDAO</text><text fill="#000000" font-family="sans-serif" font-size="10" lengthAdjust="spacingAndGlyphs" textLength="144" x="54.5" y="184.1563">de.unibremen.sfb.persistence</text><line style="stroke: #A80036; stroke-width: 1.5;" x1="26.5" x2="200.5" y1="191.2656" y2="191.2656"/><ellipse cx="36.5" cy="202.2656" fill="#84BE84" rx="3" ry="3" style="stroke: #038048; stroke-width: 1.0;"/><text fill="#000000" font-family="sans-serif" font-size="11" lengthAdjust="spacingAndGlyphs" textLength="109" x="45.5" y="205.9004">persist(Archiv): void</text><ellipse cx="36.5" cy="215.2207" fill="#84BE84" rx="3" ry="3" style="stroke: #038048; stroke-width: 1.0;"/><text fill="#000000" font-family="sans-serif" font-size="11" lengthAdjust="spacingAndGlyphs" textLength="109" x="45.5" y="218.8555">update(Archiv): void</text><ellipse cx="36.5" cy="228.1758" fill="#84BE84" rx="3" ry="3" style="stroke: #038048; stroke-width: 1.0;"/><text fill="#000000" font-family="sans-serif" font-size="11" lengthAdjust="spacingAndGlyphs" textLength="112" x="45.5" y="231.8105">remove(Archiv): void</text><ellipse cx="36.5" cy="241.1309" fill="#84BE84" rx="3" ry="3" style="stroke: #038048; stroke-width: 1.0;"/><text fill="#000000" font-family="sans-serif" font-size="11" lengthAdjust="spacingAndGlyphs" textLength="113" x="45.5" y="244.7656">get(): Class&lt;Archiv&gt;</text><ellipse cx="36.5" cy="254.0859" fill="#84BE84" rx="3" ry="3" style="stroke: #038048; stroke-width: 1.0;"/><text fill="#000000" font-family="sans-serif" font-size="11" lengthAdjust="spacingAndGlyphs" textLength="121" x="45.5" y="257.7207">getObjById(int): Archiv</text></a><!--MD5=[c2518cd8a4e20c7ae6025dfd14468712]
class de.unibremen.sfb.persistence.ObjectDAO--><a href="ObjectDAO.html" target="_top" title="ObjectDAO.html" xlink:actuate="onRequest" xlink:href="ObjectDAO.html" xlink:show="new" xlink:title="ObjectDAO.html" xlink:type="simple"><rect fill="#FEFECE" filter="url(#f5a9d9yunbb1e)" height="85.1309" id="de.unibremen.sfb.persistence.ObjectDAO" style="stroke: #A80036; stroke-width: 1.5;" width="215" x="6" y="8"/><ellipse cx="21" cy="27.1328" fill="#A9DCDF" rx="11" ry="11" style="stroke: #A80036; stroke-width: 1.0;"/><path d="M21.1133,22.731 L19.9595,27.8027 L22.2754,27.8027 Z M19.6191,20.4897 L22.6157,20.4897 L25.9609,32.8828 L23.5122,32.8828 L22.7485,29.8198 L19.4697,29.8198 L18.7227,32.8828 L16.2739,32.8828 Z "/><text fill="#000000" font-family="sans-serif" font-size="14" font-style="italic" lengthAdjust="spacingAndGlyphs" textLength="75" x="69.5" y="26.5352">ObjectDAO</text><text fill="#000000" font-family="sans-serif" font-size="10" font-style="italic" lengthAdjust="spacingAndGlyphs" textLength="144" x="35" y="39.1563">de.unibremen.sfb.persistence</text><rect fill="#FFFFFF" height="16.1328" style="stroke: #000000; stroke-width: 1.0; stroke-dasharray: 2.0,2.0;" width="37" x="187" y="5"/><text fill="#000000" font-family="sans-serif" font-size="12" font-style="italic" lengthAdjust="spacingAndGlyphs" textLength="35" x="188" y="17.6016">Archiv</text><line style="stroke: #A80036; stroke-width: 1.5;" x1="7" x2="220" y1="46.2656" y2="46.2656"/><ellipse cx="17" cy="57.2656" fill="#84BE84" rx="3" ry="3" style="stroke: #038048; stroke-width: 1.0;"/><text fill="#000000" font-family="sans-serif" font-size="11" font-style="italic" lengthAdjust="spacingAndGlyphs" textLength="109" x="26" y="60.9004">persist(Archiv): void</text><ellipse cx="17" cy="70.2207" fill="#84BE84" rx="3" ry="3" style="stroke: #038048; stroke-width: 1.0;"/><text fill="#000000" font-family="sans-serif" font-size="11" font-style="italic" lengthAdjust="spacingAndGlyphs" textLength="109" x="26" y="73.8555">update(Archiv): void</text><ellipse cx="17" cy="83.1758" fill="#84BE84" rx="3" ry="3" style="stroke: #038048; stroke-width: 1.0;"/><text fill="#000000" font-family="sans-serif" font-size="11" font-style="italic" lengthAdjust="spacingAndGlyphs" textLength="112" x="26" y="86.8105">remove(Archiv): void</text></a><!--MD5=[4f8dbf4238e70e85093f9cb805b42a0f]
reverse link de.unibremen.sfb.persistence.ObjectDAO to de.unibremen.sfb.persistence.ArchivDAO--><path d="M113.5,113.65 C113.5,126.65 113.5,140.25 113.5,152.94 " fill="none" id="de.unibremen.sfb.persistence.ObjectDAO&lt;-de.unibremen.sfb.persistence.ArchivDAO" style="stroke: #A80036; stroke-width: 1.0;"/><polygon fill="none" points="106.5,113.31,113.5,93.31,120.5,113.31,106.5,113.31" style="stroke: #A80036; stroke-width: 1.0;"/><text fill="#888888" font-family="sans-serif" font-size="10" lengthAdjust="spacingAndGlyphs" textLength="182" x="28.5" y="283.668">UMLDoclet 2.0.7, PlantUML 1.2019.12</text><!--MD5=[e95c220f2db97895404056d8a451ca3c]
@startuml
    set namespaceSeparator none
    hide empty fields
    hide empty methods

    class "<size:14>ArchivDAO\n<size:10>de.unibremen.sfb.persistence" as de.unibremen.sfb.persistence.ArchivDAO [[ArchivDAO.html]] {
        +persist(Archiv): void
        +update(Archiv): void
        +remove(Archiv): void
        +get(): Class<Archiv>
        +getObjById(int): Archiv
    }

    abstract class "<size:14>ObjectDAO\n<size:10>de.unibremen.sfb.persistence" as de.unibremen.sfb.persistence.ObjectDAO<Archiv> [[ObjectDAO.html]] {
        {abstract} +persist(Archiv): void
        {abstract} +update(Archiv): void
        {abstract} +remove(Archiv): void
    }

    de.unibremen.sfb.persistence.ObjectDAO <|- - de.unibremen.sfb.persistence.ArchivDAO

    center footer UMLDoclet 2.0.7, PlantUML 1.2019.12
@enduml

PlantUML version 1.2019.12(Sun Nov 03 11:24:54 CET 2019)
(APACHE source distribution)
Java Runtime: Java(TM) SE Runtime Environment
JVM: Java HotSpot(TM) 64-Bit Server VM
Java Version: 13.0.1+9
Operating System: Mac OS X
Default Encoding: UTF-8
Language: de
Country: DE
--></g></svg>