<?xml version="1.0" encoding="UTF-8" standalone="no"?><svg xmlns="http://www.w3.org/2000/svg" xmlns:xlink="http://www.w3.org/1999/xlink" contentScriptType="application/ecmascript" contentStyleType="text/css" height="284px" preserveAspectRatio="none" style="width:268px;height:284px;" version="1.1" viewBox="0 0 268 284" width="268px" zoomAndPan="magnify"><defs><filter height="300%" id="f16f4efsiuyfiy" width="300%" x="-1" y="-1"><feGaussianBlur result="blurOut" stdDeviation="2.0"/><feColorMatrix in="blurOut" result="blurOut2" type="matrix" values="0 0 0 0 0 0 0 0 0 0 0 0 0 0 0 0 0 0 .4 0"/><feOffset dx="4.0" dy="4.0" in="blurOut2" result="blurOut3"/><feBlend in="SourceGraphic" in2="blurOut3" mode="normal"/></filter></defs><g><!--MD5=[75388d876e1fd4a5b4ba3e5653e1141d]
class de.unibremen.sfb.persistence.AuftragsLogDAO--><a href="AuftragsLogDAO.html" target="_top" title="AuftragsLogDAO.html" xlink:actuate="onRequest" xlink:href="AuftragsLogDAO.html" xlink:show="new" xlink:title="AuftragsLogDAO.html" xlink:type="simple"><rect fill="#FEFECE" filter="url(#f16f4efsiuyfiy)" height="98.0859" id="de.unibremen.sfb.persistence.AuftragsLogDAO" style="stroke: #A80036; stroke-width: 1.5;" width="176" x="42" y="153"/><ellipse cx="57" cy="172.1328" fill="#ADD1B2" rx="11" ry="11" style="stroke: #A80036; stroke-width: 1.0;"/><path d="M59.4731,178.2759 Q58.8921,178.5747 58.2529,178.7241 Q57.6138,178.8735 56.9082,178.8735 Q54.4014,178.8735 53.0815,177.2217 Q51.7617,175.5698 51.7617,172.4487 Q51.7617,169.3193 53.0815,167.6675 Q54.4014,166.0156 56.9082,166.0156 Q57.6138,166.0156 58.2612,166.165 Q58.9087,166.3145 59.4731,166.6133 L59.4731,169.3359 Q58.8423,168.7549 58.2488,168.4851 Q57.6553,168.2153 57.0244,168.2153 Q55.6797,168.2153 54.9949,169.282 Q54.3101,170.3486 54.3101,172.4487 Q54.3101,174.5405 54.9949,175.6072 Q55.6797,176.6738 57.0244,176.6738 Q57.6553,176.6738 58.2488,176.4041 Q58.8423,176.1343 59.4731,175.5532 Z "/><text fill="#000000" font-family="sans-serif" font-size="14" lengthAdjust="spacingAndGlyphs" textLength="115" x="85.5" y="171.5352">AuftragsLogDAO</text><text fill="#000000" font-family="sans-serif" font-size="10" lengthAdjust="spacingAndGlyphs" textLength="144" x="71" y="184.1563">de.unibremen.sfb.persistence</text><line style="stroke: #A80036; stroke-width: 1.5;" x1="43" x2="217" y1="191.2656" y2="191.2656"/><ellipse cx="53" cy="202.2656" fill="#84BE84" rx="3" ry="3" style="stroke: #038048; stroke-width: 1.0;"/><text fill="#000000" font-family="sans-serif" font-size="11" lengthAdjust="spacingAndGlyphs" textLength="141" x="62" y="205.9004">persist(AuftragsLog): void</text><ellipse cx="53" cy="215.2207" fill="#84BE84" rx="3" ry="3" style="stroke: #038048; stroke-width: 1.0;"/><text fill="#000000" font-family="sans-serif" font-size="11" lengthAdjust="spacingAndGlyphs" textLength="141" x="62" y="218.8555">update(AuftragsLog): void</text><ellipse cx="53" cy="228.1758" fill="#84BE84" rx="3" ry="3" style="stroke: #038048; stroke-width: 1.0;"/><text fill="#000000" font-family="sans-serif" font-size="11" lengthAdjust="spacingAndGlyphs" textLength="144" x="62" y="231.8105">remove(AuftragsLog): void</text><ellipse cx="53" cy="241.1309" fill="#84BE84" rx="3" ry="3" style="stroke: #038048; stroke-width: 1.0;"/><text fill="#000000" font-family="sans-serif" font-size="11" lengthAdjust="spacingAndGlyphs" textLength="145" x="62" y="244.7656">get(): Class&lt;AuftragsLog&gt;</text></a><!--MD5=[c2518cd8a4e20c7ae6025dfd14468712]
class de.unibremen.sfb.persistence.ObjectDAO--><a href="ObjectDAO.html" target="_top" title="ObjectDAO.html" xlink:actuate="onRequest" xlink:href="ObjectDAO.html" xlink:show="new" xlink:title="ObjectDAO.html" xlink:type="simple"><rect fill="#FEFECE" filter="url(#f16f4efsiuyfiy)" height="85.1309" id="de.unibremen.sfb.persistence.ObjectDAO" style="stroke: #A80036; stroke-width: 1.5;" width="248" x="6" y="8"/><ellipse cx="21" cy="27.1328" fill="#A9DCDF" rx="11" ry="11" style="stroke: #A80036; stroke-width: 1.0;"/><path d="M21.1133,22.731 L19.9595,27.8027 L22.2754,27.8027 Z M19.6191,20.4897 L22.6157,20.4897 L25.9609,32.8828 L23.5122,32.8828 L22.7485,29.8198 L19.4697,29.8198 L18.7227,32.8828 L16.2739,32.8828 Z "/><text fill="#000000" font-family="sans-serif" font-size="14" font-style="italic" lengthAdjust="spacingAndGlyphs" textLength="75" x="69.5" y="26.5352">ObjectDAO</text><text fill="#000000" font-family="sans-serif" font-size="10" font-style="italic" lengthAdjust="spacingAndGlyphs" textLength="144" x="35" y="39.1563">de.unibremen.sfb.persistence</text><rect fill="#FFFFFF" height="16.1328" style="stroke: #000000; stroke-width: 1.0; stroke-dasharray: 2.0,2.0;" width="70" x="187" y="5"/><text fill="#000000" font-family="sans-serif" font-size="12" font-style="italic" lengthAdjust="spacingAndGlyphs" textLength="68" x="188" y="17.6016">AuftragsLog</text><line style="stroke: #A80036; stroke-width: 1.5;" x1="7" x2="253" y1="46.2656" y2="46.2656"/><ellipse cx="17" cy="57.2656" fill="#84BE84" rx="3" ry="3" style="stroke: #038048; stroke-width: 1.0;"/><text fill="#000000" font-family="sans-serif" font-size="11" font-style="italic" lengthAdjust="spacingAndGlyphs" textLength="141" x="26" y="60.9004">persist(AuftragsLog): void</text><ellipse cx="17" cy="70.2207" fill="#84BE84" rx="3" ry="3" style="stroke: #038048; stroke-width: 1.0;"/><text fill="#000000" font-family="sans-serif" font-size="11" font-style="italic" lengthAdjust="spacingAndGlyphs" textLength="141" x="26" y="73.8555">update(AuftragsLog): void</text><ellipse cx="17" cy="83.1758" fill="#84BE84" rx="3" ry="3" style="stroke: #038048; stroke-width: 1.0;"/><text fill="#000000" font-family="sans-serif" font-size="11" font-style="italic" lengthAdjust="spacingAndGlyphs" textLength="144" x="26" y="86.8105">remove(AuftragsLog): void</text></a><!--MD5=[8dfb8f69d8a723890b915bde94266584]
reverse link de.unibremen.sfb.persistence.ObjectDAO to de.unibremen.sfb.persistence.AuftragsLogDAO--><path d="M130,113.26 C130,126.52 130,140.34 130,152.98 " fill="none" id="de.unibremen.sfb.persistence.ObjectDAO&lt;-de.unibremen.sfb.persistence.AuftragsLogDAO" style="stroke: #A80036; stroke-width: 1.0;"/><polygon fill="none" points="123,113.14,130,93.14,137,113.14,123,113.14" style="stroke: #A80036; stroke-width: 1.0;"/><text fill="#888888" font-family="sans-serif" font-size="10" lengthAdjust="spacingAndGlyphs" textLength="182" x="45" y="270.668">UMLDoclet 2.0.7, PlantUML 1.2019.12</text><!--MD5=[0203f42edcc2044c8ec64a98b2dfae4d]
@startuml
    set namespaceSeparator none
    hide empty fields
    hide empty methods

    class "<size:14>AuftragsLogDAO\n<size:10>de.unibremen.sfb.persistence" as de.unibremen.sfb.persistence.AuftragsLogDAO [[AuftragsLogDAO.html]] {
        +persist(AuftragsLog): void
        +update(AuftragsLog): void
        +remove(AuftragsLog): void
        +get(): Class<AuftragsLog>
    }

    abstract class "<size:14>ObjectDAO\n<size:10>de.unibremen.sfb.persistence" as de.unibremen.sfb.persistence.ObjectDAO<AuftragsLog> [[ObjectDAO.html]] {
        {abstract} +persist(AuftragsLog): void
        {abstract} +update(AuftragsLog): void
        {abstract} +remove(AuftragsLog): void
    }

    de.unibremen.sfb.persistence.ObjectDAO <|- - de.unibremen.sfb.persistence.AuftragsLogDAO

    center footer UMLDoclet 2.0.7, PlantUML 1.2019.12
@enduml

PlantUML version 1.2019.12(Sun Nov 03 11:24:54 CET 2019)
(APACHE source distribution)
Java Runtime: Java(TM) SE Runtime Environment
JVM: Java HotSpot(TM) 64-Bit Server VM
Java Version: 13.0.1+9
Operating System: Mac OS X
Default Encoding: UTF-8
Language: de
Country: DE
--></g></svg>