<?xml version="1.0" encoding="UTF-8" standalone="no"?><svg xmlns="http://www.w3.org/2000/svg" xmlns:xlink="http://www.w3.org/1999/xlink" contentScriptType="application/ecmascript" contentStyleType="text/css" height="220px" preserveAspectRatio="none" style="width:212px;height:220px;" version="1.1" viewBox="0 0 212 220" width="212px" zoomAndPan="magnify"><defs><filter height="300%" id="f13651bcpwr4tc" width="300%" x="-1" y="-1"><feGaussianBlur result="blurOut" stdDeviation="2.0"/><feColorMatrix in="blurOut" result="blurOut2" type="matrix" values="0 0 0 0 0 0 0 0 0 0 0 0 0 0 0 0 0 0 .4 0"/><feOffset dx="4.0" dy="4.0" in="blurOut2" result="blurOut3"/><feBlend in="SourceGraphic" in2="blurOut3" mode="normal"/></filter></defs><g><!--MD5=[70ee0dcd1ff217e93850f2e3c0a0bae7]
class de.unibremen.sfb.controller.AuftragController--><a href="AuftragController.html" target="_top" title="AuftragController.html" xlink:actuate="onRequest" xlink:href="AuftragController.html" xlink:show="new" xlink:title="AuftragController.html" xlink:type="simple"><rect fill="#FEFECE" filter="url(#f13651bcpwr4tc)" height="183.8164" id="de.unibremen.sfb.controller.AuftragController" style="stroke: #A80036; stroke-width: 1.5;" width="194" x="7" y="7"/><ellipse cx="33.25" cy="26.1328" fill="#ADD1B2" rx="11" ry="11" style="stroke: #A80036; stroke-width: 1.0;"/><path d="M35.7231,32.2759 Q35.1421,32.5747 34.5029,32.7241 Q33.8638,32.8735 33.1582,32.8735 Q30.6514,32.8735 29.3315,31.2217 Q28.0117,29.5698 28.0117,26.4487 Q28.0117,23.3193 29.3315,21.6675 Q30.6514,20.0156 33.1582,20.0156 Q33.8638,20.0156 34.5112,20.165 Q35.1587,20.3145 35.7231,20.6133 L35.7231,23.3359 Q35.0923,22.7549 34.4988,22.4851 Q33.9053,22.2153 33.2744,22.2153 Q31.9297,22.2153 31.2449,23.282 Q30.5601,24.3486 30.5601,26.4487 Q30.5601,28.5405 31.2449,29.6072 Q31.9297,30.6738 33.2744,30.6738 Q33.9053,30.6738 34.4988,30.4041 Q35.0923,30.1343 35.7231,29.5532 Z "/><text fill="#000000" font-family="sans-serif" font-size="14" lengthAdjust="spacingAndGlyphs" textLength="122" x="57.25" y="25.5352">AuftragController</text><text fill="#000000" font-family="sans-serif" font-size="10" lengthAdjust="spacingAndGlyphs" textLength="137" x="49.75" y="38.1563">de.unibremen.sfb.controller</text><line style="stroke: #A80036; stroke-width: 1.5;" x1="8" x2="200" y1="45.2656" y2="45.2656"/><ellipse cx="18" cy="56.2656" fill="none" rx="3" ry="3" style="stroke: #038048; stroke-width: 1.0;"/><text fill="#000000" font-family="sans-serif" font-size="11" lengthAdjust="spacingAndGlyphs" textLength="86" x="27" y="59.9004">auftrag: Auftrag</text><line style="stroke: #A80036; stroke-width: 1.5;" x1="8" x2="200" y1="66.2207" y2="66.2207"/><ellipse cx="18" cy="77.2207" fill="#84BE84" rx="3" ry="3" style="stroke: #038048; stroke-width: 1.0;"/><text fill="#000000" font-family="sans-serif" font-size="11" lengthAdjust="spacingAndGlyphs" textLength="56" x="27" y="80.8555">getID(): int</text><ellipse cx="18" cy="90.1758" fill="#84BE84" rx="3" ry="3" style="stroke: #038048; stroke-width: 1.0;"/><text fill="#000000" font-family="sans-serif" font-size="11" lengthAdjust="spacingAndGlyphs" textLength="168" x="27" y="93.8105">getPKV(): ProzessKettenVorlage</text><ellipse cx="18" cy="103.1309" fill="#84BE84" rx="3" ry="3" style="stroke: #038048; stroke-width: 1.0;"/><text fill="#000000" font-family="sans-serif" font-size="11" lengthAdjust="spacingAndGlyphs" textLength="118" x="27" y="106.7656">getLog(): AuftragsLog</text><ellipse cx="18" cy="116.0859" fill="#84BE84" rx="3" ry="3" style="stroke: #038048; stroke-width: 1.0;"/><text fill="#000000" font-family="sans-serif" font-size="11" lengthAdjust="spacingAndGlyphs" textLength="140" x="27" y="119.7207">setLog(AuftragsLog): void</text><ellipse cx="18" cy="129.041" fill="#84BE84" rx="3" ry="3" style="stroke: #038048; stroke-width: 1.0;"/><text fill="#000000" font-family="sans-serif" font-size="11" lengthAdjust="spacingAndGlyphs" textLength="142" x="27" y="132.6758">getPKZ(): AuftragsZustand</text><ellipse cx="18" cy="141.9961" fill="#84BE84" rx="3" ry="3" style="stroke: #038048; stroke-width: 1.0;"/><text fill="#000000" font-family="sans-serif" font-size="11" lengthAdjust="spacingAndGlyphs" textLength="73" x="27" y="145.6309">setPKZ(): void</text><ellipse cx="18" cy="154.9512" fill="#84BE84" rx="3" ry="3" style="stroke: #038048; stroke-width: 1.0;"/><text fill="#000000" font-family="sans-serif" font-size="11" lengthAdjust="spacingAndGlyphs" textLength="148" x="27" y="158.5859">getPrio(): AuftragsPrioritaet</text><ellipse cx="18" cy="167.9063" fill="#84BE84" rx="3" ry="3" style="stroke: #038048; stroke-width: 1.0;"/><text fill="#000000" font-family="sans-serif" font-size="11" lengthAdjust="spacingAndGlyphs" textLength="74" x="27" y="171.541">setPrio(): void</text><ellipse cx="18" cy="180.8613" fill="#84BE84" rx="3" ry="3" style="stroke: #038048; stroke-width: 1.0;"/><text fill="#000000" font-family="sans-serif" font-size="11" lengthAdjust="spacingAndGlyphs" textLength="154" x="27" y="184.4961">getPS(): Set&lt;ProzessSchritt&gt;</text></a><text fill="#888888" font-family="sans-serif" font-size="10" lengthAdjust="spacingAndGlyphs" textLength="182" x="13" y="207.4844">UMLDoclet 2.0.7, PlantUML 1.2019.12</text><!--MD5=[2f627ffafb7b16d838e6d1b413b32c9f]
@startuml
    set namespaceSeparator none
    hide empty fields
    hide empty methods

    class "<size:14>AuftragController\n<size:10>de.unibremen.sfb.controller" as de.unibremen.sfb.controller.AuftragController [[AuftragController.html]] {
        +auftrag: Auftrag
        +getID(): int
        +getPKV(): ProzessKettenVorlage
        +getLog(): AuftragsLog
        +setLog(AuftragsLog): void
        +getPKZ(): AuftragsZustand
        +setPKZ(): void
        +getPrio(): AuftragsPrioritaet
        +setPrio(): void
        +getPS(): Set<ProzessSchritt>
    }

    center footer UMLDoclet 2.0.7, PlantUML 1.2019.12
@enduml

PlantUML version 1.2019.12(Sun Nov 03 11:24:54 CET 2019)
(APACHE source distribution)
Java Runtime: Java(TM) SE Runtime Environment
JVM: Java HotSpot(TM) 64-Bit Server VM
Java Version: 13.0.1+9
Operating System: Mac OS X
Default Encoding: UTF-8
Language: de
Country: DE
--></g></svg>