<?xml version="1.0" encoding="UTF-8" standalone="no"?><svg xmlns="http://www.w3.org/2000/svg" xmlns:xlink="http://www.w3.org/1999/xlink" contentScriptType="application/ecmascript" contentStyleType="text/css" height="323px" preserveAspectRatio="none" style="width:242px;height:323px;" version="1.1" viewBox="0 0 242 323" width="242px" zoomAndPan="magnify"><defs><filter height="300%" id="fautjx462vtr7" width="300%" x="-1" y="-1"><feGaussianBlur result="blurOut" stdDeviation="2.0"/><feColorMatrix in="blurOut" result="blurOut2" type="matrix" values="0 0 0 0 0 0 0 0 0 0 0 0 0 0 0 0 0 0 .4 0"/><feOffset dx="4.0" dy="4.0" in="blurOut2" result="blurOut3"/><feBlend in="SourceGraphic" in2="blurOut3" mode="normal"/></filter></defs><g><!--MD5=[88b52ecb92a87ced7d765496a9726920]
class de.unibremen.sfb.Persistence.AuftragDAO--><a href="AuftragDAO.html" target="_top" title="AuftragDAO.html" xlink:actuate="onRequest" xlink:href="AuftragDAO.html" xlink:show="new" xlink:title="AuftragDAO.html" xlink:type="simple"><rect fill="#FEFECE" filter="url(#fautjx462vtr7)" height="136.9512" id="de.unibremen.sfb.Persistence.AuftragDAO" style="stroke: #A80036; stroke-width: 1.5;" width="183" x="25.5" y="153"/><ellipse cx="43.65" cy="172.1328" fill="#ADD1B2" rx="11" ry="11" style="stroke: #A80036; stroke-width: 1.0;"/><path d="M46.1231,178.2759 Q45.5421,178.5747 44.9029,178.7241 Q44.2638,178.8735 43.5582,178.8735 Q41.0514,178.8735 39.7315,177.2217 Q38.4117,175.5698 38.4117,172.4487 Q38.4117,169.3193 39.7315,167.6675 Q41.0514,166.0156 43.5582,166.0156 Q44.2638,166.0156 44.9112,166.165 Q45.5587,166.3145 46.1231,166.6133 L46.1231,169.3359 Q45.4923,168.7549 44.8988,168.4851 Q44.3053,168.2153 43.6744,168.2153 Q42.3297,168.2153 41.6449,169.282 Q40.9601,170.3486 40.9601,172.4487 Q40.9601,174.5405 41.6449,175.6072 Q42.3297,176.6738 43.6744,176.6738 Q44.3053,176.6738 44.8988,176.4041 Q45.4923,176.1343 46.1231,175.5532 Z "/><text fill="#000000" font-family="sans-serif" font-size="14" lengthAdjust="spacingAndGlyphs" textLength="83" x="88.85" y="171.5352">AuftragDAO</text><text fill="#000000" font-family="sans-serif" font-size="10" lengthAdjust="spacingAndGlyphs" textLength="144" x="58.35" y="184.1563">de.unibremen.sfb.Persistence</text><line style="stroke: #A80036; stroke-width: 1.5;" x1="26.5" x2="207.5" y1="191.2656" y2="191.2656"/><ellipse cx="36.5" cy="202.2656" fill="#84BE84" rx="3" ry="3" style="stroke: #038048; stroke-width: 1.0;"/><text fill="#000000" font-family="sans-serif" font-size="11" lengthAdjust="spacingAndGlyphs" textLength="115" x="45.5" y="205.9004">persist(Auftrag): void</text><ellipse cx="36.5" cy="215.2207" fill="#84BE84" rx="3" ry="3" style="stroke: #038048; stroke-width: 1.0;"/><text fill="#000000" font-family="sans-serif" font-size="11" lengthAdjust="spacingAndGlyphs" textLength="115" x="45.5" y="218.8555">update(Auftrag): void</text><ellipse cx="36.5" cy="228.1758" fill="#84BE84" rx="3" ry="3" style="stroke: #038048; stroke-width: 1.0;"/><text fill="#000000" font-family="sans-serif" font-size="11" lengthAdjust="spacingAndGlyphs" textLength="118" x="45.5" y="231.8105">remove(Auftrag): void</text><ellipse cx="36.5" cy="241.1309" fill="#84BE84" rx="3" ry="3" style="stroke: #038048; stroke-width: 1.0;"/><text fill="#000000" font-family="sans-serif" font-size="11" lengthAdjust="spacingAndGlyphs" textLength="119" x="45.5" y="244.7656">get(): Class&lt;Auftrag&gt;</text><ellipse cx="36.5" cy="254.0859" fill="#84BE84" rx="3" ry="3" style="stroke: #038048; stroke-width: 1.0;"/><text fill="#000000" font-family="sans-serif" font-size="11" lengthAdjust="spacingAndGlyphs" textLength="127" x="45.5" y="257.7207">getObjById(int): Auftrag</text><ellipse cx="36.5" cy="267.041" fill="#84BE84" rx="3" ry="3" style="stroke: #038048; stroke-width: 1.0;"/><text fill="#000000" font-family="sans-serif" font-size="11" lengthAdjust="spacingAndGlyphs" textLength="81" x="45.5" y="270.6758">getUser(): User</text><ellipse cx="36.5" cy="279.9961" fill="#84BE84" rx="3" ry="3" style="stroke: #038048; stroke-width: 1.0;"/><text fill="#000000" font-family="sans-serif" font-size="11" lengthAdjust="spacingAndGlyphs" textLength="157" x="45.5" y="283.6309">getPS(): List&lt;ProzessSchritt&gt;</text></a><!--MD5=[c2518cd8a4e20c7ae6025dfd14468712]
class de.unibremen.sfb.Persistence.ObjectDAO--><a href="ObjectDAO.html" target="_top" title="ObjectDAO.html" xlink:actuate="onRequest" xlink:href="ObjectDAO.html" xlink:show="new" xlink:title="ObjectDAO.html" xlink:type="simple"><rect fill="#FEFECE" filter="url(#fautjx462vtr7)" height="85.1309" id="de.unibremen.sfb.Persistence.ObjectDAO" style="stroke: #A80036; stroke-width: 1.5;" width="222" x="6" y="8"/><ellipse cx="21" cy="27.1328" fill="#A9DCDF" rx="11" ry="11" style="stroke: #A80036; stroke-width: 1.0;"/><path d="M21.1133,22.731 L19.9595,27.8027 L22.2754,27.8027 Z M19.6191,20.4897 L22.6157,20.4897 L25.9609,32.8828 L23.5122,32.8828 L22.7485,29.8198 L19.4697,29.8198 L18.7227,32.8828 L16.2739,32.8828 Z "/><text fill="#000000" font-family="sans-serif" font-size="14" font-style="italic" lengthAdjust="spacingAndGlyphs" textLength="75" x="69.5" y="26.5352">ObjectDAO</text><text fill="#000000" font-family="sans-serif" font-size="10" font-style="italic" lengthAdjust="spacingAndGlyphs" textLength="144" x="35" y="39.1563">de.unibremen.sfb.Persistence</text><rect fill="#FFFFFF" height="16.1328" style="stroke: #000000; stroke-width: 1.0; stroke-dasharray: 2.0,2.0;" width="44" x="187" y="5"/><text fill="#000000" font-family="sans-serif" font-size="12" font-style="italic" lengthAdjust="spacingAndGlyphs" textLength="42" x="188" y="17.6016">Auftrag</text><line style="stroke: #A80036; stroke-width: 1.5;" x1="7" x2="227" y1="46.2656" y2="46.2656"/><ellipse cx="17" cy="57.2656" fill="#84BE84" rx="3" ry="3" style="stroke: #038048; stroke-width: 1.0;"/><text fill="#000000" font-family="sans-serif" font-size="11" font-style="italic" lengthAdjust="spacingAndGlyphs" textLength="115" x="26" y="60.9004">persist(Auftrag): void</text><ellipse cx="17" cy="70.2207" fill="#84BE84" rx="3" ry="3" style="stroke: #038048; stroke-width: 1.0;"/><text fill="#000000" font-family="sans-serif" font-size="11" font-style="italic" lengthAdjust="spacingAndGlyphs" textLength="115" x="26" y="73.8555">update(Auftrag): void</text><ellipse cx="17" cy="83.1758" fill="#84BE84" rx="3" ry="3" style="stroke: #038048; stroke-width: 1.0;"/><text fill="#000000" font-family="sans-serif" font-size="11" font-style="italic" lengthAdjust="spacingAndGlyphs" textLength="118" x="26" y="86.8105">remove(Auftrag): void</text></a><!--MD5=[9bece04245882a2324b223b508c88c68]
reverse link de.unibremen.sfb.Persistence.ObjectDAO to de.unibremen.sfb.Persistence.AuftragDAO--><path d="M117,113.33 C117,126.2 117,139.83 117,152.9 " fill="none" id="de.unibremen.sfb.Persistence.ObjectDAO&lt;-de.unibremen.sfb.Persistence.AuftragDAO" style="stroke: #A80036; stroke-width: 1.0;"/><polygon fill="none" points="110,113.28,117,93.28,124,113.28,110,113.28" style="stroke: #A80036; stroke-width: 1.0;"/><text fill="#888888" font-family="sans-serif" font-size="10" lengthAdjust="spacingAndGlyphs" textLength="182" x="32" y="309.668">UMLDoclet 2.0.7, PlantUML 1.2019.12</text><!--MD5=[8b9bb51c89f9424c7bdcf074355c1628]
@startuml
    set namespaceSeparator none
    hide empty fields
    hide empty methods

    class "<size:14>AuftragDAO\n<size:10>de.unibremen.sfb.Persistence" as de.unibremen.sfb.Persistence.AuftragDAO [[AuftragDAO.html]] {
        +persist(Auftrag): void
        +update(Auftrag): void
        +remove(Auftrag): void
        +get(): Class<Auftrag>
        +getObjById(int): Auftrag
        +getUser(): User
        +getPS(): List<ProzessSchritt>
    }

    abstract class "<size:14>ObjectDAO\n<size:10>de.unibremen.sfb.Persistence" as de.unibremen.sfb.Persistence.ObjectDAO<Auftrag> [[ObjectDAO.html]] {
        {abstract} +persist(Auftrag): void
        {abstract} +update(Auftrag): void
        {abstract} +remove(Auftrag): void
    }

    de.unibremen.sfb.Persistence.ObjectDAO <|- - de.unibremen.sfb.Persistence.AuftragDAO

    center footer UMLDoclet 2.0.7, PlantUML 1.2019.12
@enduml

PlantUML version 1.2019.12(Sun Nov 03 11:24:54 CET 2019)
(APACHE source distribution)
Java Runtime: Java(TM) SE Runtime Environment
JVM: Java HotSpot(TM) 64-Bit Server VM
Java Version: 13.0.1+9
Operating System: Mac OS X
Default Encoding: UTF-8
Language: de
Country: DE
--></g></svg>