<?xml version="1.0" encoding="UTF-8" standalone="no"?><svg xmlns="http://www.w3.org/2000/svg" xmlns:xlink="http://www.w3.org/1999/xlink" contentScriptType="application/ecmascript" contentStyleType="text/css" height="75px" preserveAspectRatio="none" style="width:194px;height:75px;" version="1.1" viewBox="0 0 194 75" width="194px" zoomAndPan="magnify"><defs><filter height="300%" id="f1lgsdi3jo9360" width="300%" x="-1" y="-1"><feGaussianBlur result="blurOut" stdDeviation="2.0"/><feColorMatrix in="blurOut" result="blurOut2" type="matrix" values="0 0 0 0 0 0 0 0 0 0 0 0 0 0 0 0 0 0 .4 0"/><feOffset dx="4.0" dy="4.0" in="blurOut2" result="blurOut3"/><feBlend in="SourceGraphic" in2="blurOut3" mode="normal"/></filter></defs><g><!--MD5=[5edfb830a8b02e336391931b87dd645c]
class de.unibremen.sfb.Model.Auftrag--><a href="Auftrag.html" target="_top" title="Auftrag.html" xlink:actuate="onRequest" xlink:href="Auftrag.html" xlink:show="new" xlink:title="Auftrag.html" xlink:type="simple"><rect fill="#FEFECE" filter="url(#f1lgsdi3jo9360)" height="38.2656" id="de.unibremen.sfb.Model.Auftrag" style="stroke: #A80036; stroke-width: 1.5;" width="150" x="16" y="7"/><ellipse cx="31" cy="26.1328" fill="#ADD1B2" rx="11" ry="11" style="stroke: #A80036; stroke-width: 1.0;"/><path d="M33.4731,32.2759 Q32.8921,32.5747 32.2529,32.7241 Q31.6138,32.8735 30.9082,32.8735 Q28.4014,32.8735 27.0815,31.2217 Q25.7617,29.5698 25.7617,26.4487 Q25.7617,23.3193 27.0815,21.6675 Q28.4014,20.0156 30.9082,20.0156 Q31.6138,20.0156 32.2612,20.165 Q32.9087,20.3145 33.4731,20.6133 L33.4731,23.3359 Q32.8423,22.7549 32.2488,22.4851 Q31.6553,22.2153 31.0244,22.2153 Q29.6797,22.2153 28.9949,23.282 Q28.3101,24.3486 28.3101,26.4487 Q28.3101,28.5405 28.9949,29.6072 Q29.6797,30.6738 31.0244,30.6738 Q31.6553,30.6738 32.2488,30.4041 Q32.8423,30.1343 33.4731,29.5532 Z "/><text fill="#000000" font-family="sans-serif" font-size="14" lengthAdjust="spacingAndGlyphs" textLength="52" x="78" y="25.5352">Auftrag</text><text fill="#000000" font-family="sans-serif" font-size="10" lengthAdjust="spacingAndGlyphs" textLength="118" x="45" y="38.1563">de.unibremen.sfb.Model</text></a><text fill="#888888" font-family="sans-serif" font-size="10" lengthAdjust="spacingAndGlyphs" textLength="182" x="0" y="61.9336">UMLDoclet 2.0.7, PlantUML 1.2019.12</text><!--MD5=[f0f617b88b2ef61b02468665b879f810]
@startuml
    set namespaceSeparator none
    hide empty fields
    hide empty methods

    class "<size:14>Auftrag\n<size:10>de.unibremen.sfb.Model" as de.unibremen.sfb.Model.Auftrag [[Auftrag.html]]

    center footer UMLDoclet 2.0.7, PlantUML 1.2019.12
@enduml

PlantUML version 1.2019.12(Sun Nov 03 11:24:54 CET 2019)
(APACHE source distribution)
Java Runtime: Java(TM) SE Runtime Environment
JVM: Java HotSpot(TM) 64-Bit Server VM
Java Version: 13.0.1+9
Operating System: Mac OS X
Default Encoding: UTF-8
Language: de
Country: DE
--></g></svg>