<?xml version="1.0" encoding="UTF-8" standalone="no"?><svg xmlns="http://www.w3.org/2000/svg" xmlns:xlink="http://www.w3.org/1999/xlink" contentScriptType="application/ecmascript" contentStyleType="text/css" height="284px" preserveAspectRatio="none" style="width:260px;height:284px;" version="1.1" viewBox="0 0 260 284" width="260px" zoomAndPan="magnify"><defs><filter height="300%" id="f1sode6nnk68s0" width="300%" x="-1" y="-1"><feGaussianBlur result="blurOut" stdDeviation="2.0"/><feColorMatrix in="blurOut" result="blurOut2" type="matrix" values="0 0 0 0 0 0 0 0 0 0 0 0 0 0 0 0 0 0 .4 0"/><feOffset dx="4.0" dy="4.0" in="blurOut2" result="blurOut3"/><feBlend in="SourceGraphic" in2="blurOut3" mode="normal"/></filter></defs><g><!--MD5=[5cf4a5b90784d873865fafd3e9a63c9f]
class de.unibremen.sfb.persistence.BindungungDAO--><a href="BindungungDAO.html" target="_top" title="BindungungDAO.html" xlink:actuate="onRequest" xlink:href="BindungungDAO.html" xlink:show="new" xlink:title="BindungungDAO.html" xlink:type="simple"><rect fill="#FEFECE" filter="url(#f1sode6nnk68s0)" height="98.0859" id="de.unibremen.sfb.persistence.BindungungDAO" style="stroke: #A80036; stroke-width: 1.5;" width="176" x="38" y="153"/><ellipse cx="53" cy="172.1328" fill="#ADD1B2" rx="11" ry="11" style="stroke: #A80036; stroke-width: 1.0;"/><path d="M55.4731,178.2759 Q54.8921,178.5747 54.2529,178.7241 Q53.6138,178.8735 52.9082,178.8735 Q50.4014,178.8735 49.0815,177.2217 Q47.7617,175.5698 47.7617,172.4487 Q47.7617,169.3193 49.0815,167.6675 Q50.4014,166.0156 52.9082,166.0156 Q53.6138,166.0156 54.2612,166.165 Q54.9087,166.3145 55.4731,166.6133 L55.4731,169.3359 Q54.8423,168.7549 54.2488,168.4851 Q53.6553,168.2153 53.0244,168.2153 Q51.6797,168.2153 50.9949,169.282 Q50.3101,170.3486 50.3101,172.4487 Q50.3101,174.5405 50.9949,175.6072 Q51.6797,176.6738 53.0244,176.6738 Q53.6553,176.6738 54.2488,176.4041 Q54.8423,176.1343 55.4731,175.5532 Z "/><text fill="#000000" font-family="sans-serif" font-size="14" lengthAdjust="spacingAndGlyphs" textLength="115" x="81.5" y="171.5352">BindungungDAO</text><text fill="#000000" font-family="sans-serif" font-size="10" lengthAdjust="spacingAndGlyphs" textLength="144" x="67" y="184.1563">de.unibremen.sfb.persistence</text><line style="stroke: #A80036; stroke-width: 1.5;" x1="39" x2="213" y1="191.2656" y2="191.2656"/><ellipse cx="49" cy="202.2656" fill="#84BE84" rx="3" ry="3" style="stroke: #038048; stroke-width: 1.0;"/><text fill="#000000" font-family="sans-serif" font-size="11" lengthAdjust="spacingAndGlyphs" textLength="131" x="58" y="205.9004">persist(Bedingung): void</text><ellipse cx="49" cy="215.2207" fill="#84BE84" rx="3" ry="3" style="stroke: #038048; stroke-width: 1.0;"/><text fill="#000000" font-family="sans-serif" font-size="11" lengthAdjust="spacingAndGlyphs" textLength="131" x="58" y="218.8555">update(Bedingung): void</text><ellipse cx="49" cy="228.1758" fill="#84BE84" rx="3" ry="3" style="stroke: #038048; stroke-width: 1.0;"/><text fill="#000000" font-family="sans-serif" font-size="11" lengthAdjust="spacingAndGlyphs" textLength="134" x="58" y="231.8105">remove(Bedingung): void</text><ellipse cx="49" cy="241.1309" fill="#84BE84" rx="3" ry="3" style="stroke: #038048; stroke-width: 1.0;"/><text fill="#000000" font-family="sans-serif" font-size="11" lengthAdjust="spacingAndGlyphs" textLength="135" x="58" y="244.7656">get(): Class&lt;Bedingung&gt;</text></a><!--MD5=[c2518cd8a4e20c7ae6025dfd14468712]
class de.unibremen.sfb.persistence.ObjectDAO--><a href="ObjectDAO.html" target="_top" title="ObjectDAO.html" xlink:actuate="onRequest" xlink:href="ObjectDAO.html" xlink:show="new" xlink:title="ObjectDAO.html" xlink:type="simple"><rect fill="#FEFECE" filter="url(#f1sode6nnk68s0)" height="85.1309" id="de.unibremen.sfb.persistence.ObjectDAO" style="stroke: #A80036; stroke-width: 1.5;" width="240" x="6" y="8"/><ellipse cx="21" cy="27.1328" fill="#A9DCDF" rx="11" ry="11" style="stroke: #A80036; stroke-width: 1.0;"/><path d="M21.1133,22.731 L19.9595,27.8027 L22.2754,27.8027 Z M19.6191,20.4897 L22.6157,20.4897 L25.9609,32.8828 L23.5122,32.8828 L22.7485,29.8198 L19.4697,29.8198 L18.7227,32.8828 L16.2739,32.8828 Z "/><text fill="#000000" font-family="sans-serif" font-size="14" font-style="italic" lengthAdjust="spacingAndGlyphs" textLength="75" x="69.5" y="26.5352">ObjectDAO</text><text fill="#000000" font-family="sans-serif" font-size="10" font-style="italic" lengthAdjust="spacingAndGlyphs" textLength="144" x="35" y="39.1563">de.unibremen.sfb.persistence</text><rect fill="#FFFFFF" height="16.1328" style="stroke: #000000; stroke-width: 1.0; stroke-dasharray: 2.0,2.0;" width="62" x="187" y="5"/><text fill="#000000" font-family="sans-serif" font-size="12" font-style="italic" lengthAdjust="spacingAndGlyphs" textLength="60" x="188" y="17.6016">Bedingung</text><line style="stroke: #A80036; stroke-width: 1.5;" x1="7" x2="245" y1="46.2656" y2="46.2656"/><ellipse cx="17" cy="57.2656" fill="#84BE84" rx="3" ry="3" style="stroke: #038048; stroke-width: 1.0;"/><text fill="#000000" font-family="sans-serif" font-size="11" font-style="italic" lengthAdjust="spacingAndGlyphs" textLength="131" x="26" y="60.9004">persist(Bedingung): void</text><ellipse cx="17" cy="70.2207" fill="#84BE84" rx="3" ry="3" style="stroke: #038048; stroke-width: 1.0;"/><text fill="#000000" font-family="sans-serif" font-size="11" font-style="italic" lengthAdjust="spacingAndGlyphs" textLength="131" x="26" y="73.8555">update(Bedingung): void</text><ellipse cx="17" cy="83.1758" fill="#84BE84" rx="3" ry="3" style="stroke: #038048; stroke-width: 1.0;"/><text fill="#000000" font-family="sans-serif" font-size="11" font-style="italic" lengthAdjust="spacingAndGlyphs" textLength="134" x="26" y="86.8105">remove(Bedingung): void</text></a><!--MD5=[3d78ea3226d0fe98fb8f9722f2401ba5]
reverse link de.unibremen.sfb.persistence.ObjectDAO to de.unibremen.sfb.persistence.BindungungDAO--><path d="M126,113.26 C126,126.52 126,140.34 126,152.98 " fill="none" id="de.unibremen.sfb.persistence.ObjectDAO&lt;-de.unibremen.sfb.persistence.BindungungDAO" style="stroke: #A80036; stroke-width: 1.0;"/><polygon fill="none" points="119,113.14,126,93.14,133,113.14,119,113.14" style="stroke: #A80036; stroke-width: 1.0;"/><text fill="#888888" font-family="sans-serif" font-size="10" lengthAdjust="spacingAndGlyphs" textLength="182" x="41" y="270.668">UMLDoclet 2.0.7, PlantUML 1.2019.12</text><!--MD5=[c5929e723b7734f43eecbef51fb6221c]
@startuml
    set namespaceSeparator none
    hide empty fields
    hide empty methods

    class "<size:14>BindungungDAO\n<size:10>de.unibremen.sfb.persistence" as de.unibremen.sfb.persistence.BindungungDAO [[BindungungDAO.html]] {
        +persist(Bedingung): void
        +update(Bedingung): void
        +remove(Bedingung): void
        +get(): Class<Bedingung>
    }

    abstract class "<size:14>ObjectDAO\n<size:10>de.unibremen.sfb.persistence" as de.unibremen.sfb.persistence.ObjectDAO<Bedingung> [[ObjectDAO.html]] {
        {abstract} +persist(Bedingung): void
        {abstract} +update(Bedingung): void
        {abstract} +remove(Bedingung): void
    }

    de.unibremen.sfb.persistence.ObjectDAO <|- - de.unibremen.sfb.persistence.BindungungDAO

    center footer UMLDoclet 2.0.7, PlantUML 1.2019.12
@enduml

PlantUML version 1.2019.12(Sun Nov 03 11:24:54 CET 2019)
(APACHE source distribution)
Java Runtime: Java(TM) SE Runtime Environment
JVM: Java HotSpot(TM) 64-Bit Server VM
Java Version: 13.0.1+9
Operating System: Mac OS X
Default Encoding: UTF-8
Language: de
Country: DE
--></g></svg>