<?xml version="1.0" encoding="UTF-8" standalone="no"?><svg xmlns="http://www.w3.org/2000/svg" xmlns:xlink="http://www.w3.org/1999/xlink" contentScriptType="application/ecmascript" contentStyleType="text/css" height="245px" preserveAspectRatio="none" style="width:370px;height:245px;" version="1.1" viewBox="0 0 370 245" width="370px" zoomAndPan="magnify"><defs><filter height="300%" id="f2oqwlaj1cryi" width="300%" x="-1" y="-1"><feGaussianBlur result="blurOut" stdDeviation="2.0"/><feColorMatrix in="blurOut" result="blurOut2" type="matrix" values="0 0 0 0 0 0 0 0 0 0 0 0 0 0 0 0 0 0 .4 0"/><feOffset dx="4.0" dy="4.0" in="blurOut2" result="blurOut3"/><feBlend in="SourceGraphic" in2="blurOut3" mode="normal"/></filter></defs><g><!--MD5=[52ca425c759738225da34e9f1c5643c6]
class de.unibremen.sfb.control.CustomerConverter--><a href="CustomerConverter.html" target="_top" title="CustomerConverter.html" xlink:actuate="onRequest" xlink:href="CustomerConverter.html" xlink:show="new" xlink:title="CustomerConverter.html" xlink:type="simple"><rect fill="#FEFECE" filter="url(#f2oqwlaj1cryi)" height="72.1758" id="de.unibremen.sfb.control.CustomerConverter" style="stroke: #A80036; stroke-width: 1.5;" width="350" x="6" y="140"/><ellipse cx="109.25" cy="159.1328" fill="#ADD1B2" rx="11" ry="11" style="stroke: #A80036; stroke-width: 1.0;"/><path d="M111.7231,165.2759 Q111.1421,165.5747 110.5029,165.7241 Q109.8638,165.8735 109.1582,165.8735 Q106.6514,165.8735 105.3315,164.2217 Q104.0117,162.5698 104.0117,159.4487 Q104.0117,156.3193 105.3315,154.6675 Q106.6514,153.0156 109.1582,153.0156 Q109.8638,153.0156 110.5112,153.165 Q111.1587,153.3145 111.7231,153.6133 L111.7231,156.3359 Q111.0923,155.7549 110.4988,155.4851 Q109.9053,155.2153 109.2744,155.2153 Q107.9297,155.2153 107.2449,156.282 Q106.5601,157.3486 106.5601,159.4487 Q106.5601,161.5405 107.2449,162.6072 Q107.9297,163.6738 109.2744,163.6738 Q109.9053,163.6738 110.4988,163.4041 Q111.0923,163.1343 111.7231,162.5532 Z "/><text fill="#000000" font-family="sans-serif" font-size="14" lengthAdjust="spacingAndGlyphs" textLength="135" x="129.75" y="158.5352">CustomerConverter</text><text fill="#000000" font-family="sans-serif" font-size="10" lengthAdjust="spacingAndGlyphs" textLength="122" x="136.25" y="171.1563">de.unibremen.sfb.control</text><line style="stroke: #A80036; stroke-width: 1.5;" x1="7" x2="355" y1="178.2656" y2="178.2656"/><ellipse cx="17" cy="189.2656" fill="#84BE84" rx="3" ry="3" style="stroke: #038048; stroke-width: 1.0;"/><text fill="#000000" font-family="sans-serif" font-size="11" lengthAdjust="spacingAndGlyphs" textLength="321" x="26" y="192.9004">getAsString(FacesContext, UIComponent, Customer): String</text><ellipse cx="17" cy="202.2207" fill="#84BE84" rx="3" ry="3" style="stroke: #038048; stroke-width: 1.0;"/><text fill="#000000" font-family="sans-serif" font-size="11" lengthAdjust="spacingAndGlyphs" textLength="324" x="26" y="205.8555">getAsObject(FacesContext, UIComponent, String): Customer</text></a><!--MD5=[b9bb928325669804c5452a494b906742]
class javax.faces.convert.Converter--><rect fill="#FEFECE" filter="url(#f2oqwlaj1cryi)" height="72.1758" id="javax.faces.convert.Converter" style="stroke: #A80036; stroke-width: 1.5;" width="350" x="6" y="8"/><ellipse cx="100.25" cy="27.1328" fill="#B4A7E5" rx="11" ry="11" style="stroke: #A80036; stroke-width: 1.0;"/><path d="M96.6777,23.3979 L96.6777,21.2397 L104.0571,21.2397 L104.0571,23.3979 L101.5918,23.3979 L101.5918,31.4746 L104.0571,31.4746 L104.0571,33.6328 L96.6777,33.6328 L96.6777,31.4746 L99.1431,31.4746 L99.1431,23.3979 Z "/><text fill="#000000" font-family="sans-serif" font-size="14" font-style="italic" lengthAdjust="spacingAndGlyphs" textLength="68" x="133.75" y="26.5352">Converter</text><text fill="#000000" font-family="sans-serif" font-size="10" font-style="italic" lengthAdjust="spacingAndGlyphs" textLength="94" x="120.75" y="39.1563">javax.faces.convert</text><rect fill="#FFFFFF" height="16.1328" style="stroke: #000000; stroke-width: 1.0; stroke-dasharray: 2.0,2.0;" width="57" x="302" y="5"/><text fill="#000000" font-family="sans-serif" font-size="12" font-style="italic" lengthAdjust="spacingAndGlyphs" textLength="55" x="303" y="17.6016">Customer</text><line style="stroke: #A80036; stroke-width: 1.5;" x1="7" x2="355" y1="46.2656" y2="46.2656"/><ellipse cx="17" cy="57.2656" fill="#84BE84" rx="3" ry="3" style="stroke: #038048; stroke-width: 1.0;"/><text fill="#000000" font-family="sans-serif" font-size="11" font-style="italic" lengthAdjust="spacingAndGlyphs" textLength="324" x="26" y="60.9004">getAsObject(FacesContext, UIComponent, String): Customer</text><ellipse cx="17" cy="70.2207" fill="#84BE84" rx="3" ry="3" style="stroke: #038048; stroke-width: 1.0;"/><text fill="#000000" font-family="sans-serif" font-size="11" font-style="italic" lengthAdjust="spacingAndGlyphs" textLength="321" x="26" y="73.8555">getAsString(FacesContext, UIComponent, Customer): String</text><!--MD5=[c4f5fc3b47d4b59b518f9c135d1e1b3a]
reverse link javax.faces.convert.Converter to de.unibremen.sfb.control.CustomerConverter--><path d="M181,100.38 C181,113.74 181,127.65 181,139.79 " fill="none" id="javax.faces.convert.Converter&lt;-de.unibremen.sfb.control.CustomerConverter" style="stroke: #A80036; stroke-width: 1.0; stroke-dasharray: 7.0,7.0;"/><polygon fill="none" points="174,100.18,181,80.18,188,100.18,174,100.18" style="stroke: #A80036; stroke-width: 1.0;"/><text fill="#888888" font-family="sans-serif" font-size="10" lengthAdjust="spacingAndGlyphs" textLength="182" x="96" y="231.668">UMLDoclet 2.0.7, PlantUML 1.2019.12</text><!--MD5=[062ac4e71080ad2d3c1a0e59c19cc396]
@startuml
    set namespaceSeparator none
    hide empty fields
    hide empty methods

    class "<size:14>CustomerConverter\n<size:10>de.unibremen.sfb.control" as de.unibremen.sfb.control.CustomerConverter [[CustomerConverter.html]] {
        +getAsString(FacesContext, UIComponent, Customer): String
        +getAsObject(FacesContext, UIComponent, String): Customer
    }

    interface "<size:14>Converter\n<size:10>javax.faces.convert" as javax.faces.convert.Converter<Customer> {
        {abstract} +getAsObject(FacesContext, UIComponent, String): Customer
        {abstract} +getAsString(FacesContext, UIComponent, Customer): String
    }

    javax.faces.convert.Converter <|.. de.unibremen.sfb.control.CustomerConverter

    center footer UMLDoclet 2.0.7, PlantUML 1.2019.12
@enduml

PlantUML version 1.2019.12(Sun Nov 03 11:24:54 CET 2019)
(APACHE source distribution)
Java Runtime: Java(TM) SE Runtime Environment
JVM: Java HotSpot(TM) 64-Bit Server VM
Java Version: 13.0.1+9
Operating System: Mac OS X
Default Encoding: UTF-8
Language: de
Country: DE
--></g></svg>