<?xml version="1.0" encoding="UTF-8" standalone="no"?><svg xmlns="http://www.w3.org/2000/svg" xmlns:xlink="http://www.w3.org/1999/xlink" contentScriptType="application/ecmascript" contentStyleType="text/css" height="177px" preserveAspectRatio="none" style="width:399px;height:177px;" version="1.1" viewBox="0 0 399 177" width="399px" zoomAndPan="magnify"><defs><filter height="300%" id="fed5b2k9xf0vn" width="300%" x="-1" y="-1"><feGaussianBlur result="blurOut" stdDeviation="2.0"/><feColorMatrix in="blurOut" result="blurOut2" type="matrix" values="0 0 0 0 0 0 0 0 0 0 0 0 0 0 0 0 0 0 .4 0"/><feOffset dx="4.0" dy="4.0" in="blurOut2" result="blurOut3"/><feBlend in="SourceGraphic" in2="blurOut3" mode="normal"/></filter></defs><g><!--MD5=[c8cc27357ebbb91b57b20adf0cfb8188]
class de.unibremen.sfb.exception.DuplicateProzessSchrittZustandsAutomatException--><a href="DuplicateProzessSchrittZustandsAutomatException.html" target="_top" title="DuplicateProzessSchrittZustandsAutomatException.html" xlink:actuate="onRequest" xlink:href="DuplicateProzessSchrittZustandsAutomatException.html" xlink:show="new" xlink:title="DuplicateProzessSchrittZustandsAutomatException.html" xlink:type="simple"><rect fill="#FEFECE" filter="url(#fed5b2k9xf0vn)" height="38.2656" id="de.unibremen.sfb.exception.DuplicateProzessSchrittZustandsAutomatException" style="stroke: #A80036; stroke-width: 1.5;" width="382" x="6" y="106"/><ellipse cx="21" cy="125.1328" fill="#ADD1B2" rx="11" ry="11" style="stroke: #A80036; stroke-width: 1.0;"/><path d="M23.4731,131.2759 Q22.8921,131.5747 22.2529,131.7241 Q21.6138,131.8735 20.9082,131.8735 Q18.4014,131.8735 17.0815,130.2217 Q15.7617,128.5698 15.7617,125.4487 Q15.7617,122.3193 17.0815,120.6675 Q18.4014,119.0156 20.9082,119.0156 Q21.6138,119.0156 22.2612,119.165 Q22.9087,119.3145 23.4731,119.6133 L23.4731,122.3359 Q22.8423,121.7549 22.2488,121.4851 Q21.6553,121.2153 21.0244,121.2153 Q19.6797,121.2153 18.9949,122.282 Q18.3101,123.3486 18.3101,125.4487 Q18.3101,127.5405 18.9949,128.6072 Q19.6797,129.6738 21.0244,129.6738 Q21.6553,129.6738 22.2488,129.4041 Q22.8423,129.1343 23.4731,128.5532 Z "/><text fill="#000000" font-family="sans-serif" font-size="14" lengthAdjust="spacingAndGlyphs" textLength="350" x="35" y="124.5352">DuplicateProzessSchrittZustandsAutomatException</text><text fill="#000000" font-family="sans-serif" font-size="10" lengthAdjust="spacingAndGlyphs" textLength="135" x="142.5" y="137.1563">de.unibremen.sfb.exception</text></a><!--MD5=[46c05dfe24a0851e179497c4631d3ff2]
class java.lang.exception--><a href="https://docs.oracle.com/en/java/javase/11/docs/api/java.base/java/lang/Exception.html?is-external=true" target="_top" title="https://docs.oracle.com/en/java/javase/11/docs/api/java.base/java/lang/Exception.html?is-external=true" xlink:actuate="onRequest" xlink:href="https://docs.oracle.com/en/java/javase/11/docs/api/java.base/java/lang/Exception.html?is-external=true" xlink:show="new" xlink:title="https://docs.oracle.com/en/java/javase/11/docs/api/java.base/java/lang/Exception.html?is-external=true" xlink:type="simple"><rect fill="#FEFECE" filter="url(#fed5b2k9xf0vn)" height="38.2656" id="java.lang.Exception" style="stroke: #A80036; stroke-width: 1.5;" width="100" x="147" y="8"/><ellipse cx="162" cy="27.1328" fill="#ADD1B2" rx="11" ry="11" style="stroke: #A80036; stroke-width: 1.0;"/><path d="M164.4731,33.2759 Q163.8921,33.5747 163.2529,33.7241 Q162.6138,33.8735 161.9082,33.8735 Q159.4014,33.8735 158.0815,32.2217 Q156.7617,30.5698 156.7617,27.4487 Q156.7617,24.3193 158.0815,22.6675 Q159.4014,21.0156 161.9082,21.0156 Q162.6138,21.0156 163.2612,21.165 Q163.9087,21.3145 164.4731,21.6133 L164.4731,24.3359 Q163.8423,23.7549 163.2488,23.4851 Q162.6553,23.2153 162.0244,23.2153 Q160.6797,23.2153 159.9949,24.282 Q159.3101,25.3486 159.3101,27.4487 Q159.3101,29.5405 159.9949,30.6072 Q160.6797,31.6738 162.0244,31.6738 Q162.6553,31.6738 163.2488,31.4041 Q163.8423,31.1343 164.4731,30.5532 Z "/><text fill="#000000" font-family="sans-serif" font-size="14" lengthAdjust="spacingAndGlyphs" textLength="68" x="176" y="26.5352">Exception</text><text fill="#000000" font-family="sans-serif" font-size="10" lengthAdjust="spacingAndGlyphs" textLength="44" x="188" y="39.1563">java.lang</text></a><!--MD5=[a9ab18e0085ca05deb467c21ddf723cd]
reverse link java.lang.exception to de.unibremen.sfb.exception.DuplicateProzessSchrittZustandsAutomatException--><path d="M197,66.43 C197,79.98 197,94.59 197,105.7 " fill="none" id="java.lang.Exception&lt;-de.unibremen.sfb.exception.DuplicateProzessSchrittZustandsAutomatException" style="stroke: #A80036; stroke-width: 1.0;"/><polygon fill="none" points="190,66.06,197,46.06,204,66.06,190,66.06" style="stroke: #A80036; stroke-width: 1.0;"/><text fill="#888888" font-family="sans-serif" font-size="10" lengthAdjust="spacingAndGlyphs" textLength="182" x="112" y="163.668">UMLDoclet 2.0.7, PlantUML 1.2019.12</text><!--MD5=[27decc8ad42b776eee410b4a4e2967ca]
@startuml
    set namespaceSeparator none
    hide empty fields
    hide empty methods

    class "<size:14>DuplicateProzessSchrittZustandsAutomatException\n<size:10>de.unibremen.sfb.exception" as de.unibremen.sfb.exception.DuplicateProzessSchrittZustandsAutomatException [[DuplicateProzessSchrittZustandsAutomatException.html]]

    class "<size:14>exception\n<size:10>java.lang" as java.lang.exception [[https://docs.oracle.com/en/java/javase/11/docs/api/java.base/java/lang/Exception.html?is-external=true]]

    java.lang.exception <|- - de.unibremen.sfb.exception.DuplicateProzessSchrittZustandsAutomatException

    center footer UMLDoclet 2.0.7, PlantUML 1.2019.12
@enduml

PlantUML version 1.2019.12(Sun Nov 03 11:24:54 CET 2019)
(APACHE source distribution)
Java Runtime: Java(TM) SE Runtime Environment
JVM: Java HotSpot(TM) 64-Bit Server VM
Java Version: 13.0.1+9
Operating System: Mac OS X
Default Encoding: UTF-8
Language: de
Country: DE
--></g></svg>