<?xml version="1.0" encoding="UTF-8" standalone="no"?><svg xmlns="http://www.w3.org/2000/svg" xmlns:xlink="http://www.w3.org/1999/xlink" contentScriptType="application/ecmascript" contentStyleType="text/css" height="177px" preserveAspectRatio="none" style="width:330px;height:177px;" version="1.1" viewBox="0 0 330 177" width="330px" zoomAndPan="magnify"><defs><filter height="300%" id="f1aofjv5pjtuwv" width="300%" x="-1" y="-1"><feGaussianBlur result="blurOut" stdDeviation="2.0"/><feColorMatrix in="blurOut" result="blurOut2" type="matrix" values="0 0 0 0 0 0 0 0 0 0 0 0 0 0 0 0 0 0 .4 0"/><feOffset dx="4.0" dy="4.0" in="blurOut2" result="blurOut3"/><feBlend in="SourceGraphic" in2="blurOut3" mode="normal"/></filter></defs><g><!--MD5=[79c5f7a05cb183818b7926429a7a528e]
class de.unibremen.sfb.Exception.ExperimentierStationNotFoundException--><a href="ExperimentierStationNotFoundException.html" target="_top" title="ExperimentierStationNotFoundException.html" xlink:actuate="onRequest" xlink:href="ExperimentierStationNotFoundException.html" xlink:show="new" xlink:title="ExperimentierStationNotFoundException.html" xlink:type="simple"><rect fill="#FEFECE" filter="url(#f1aofjv5pjtuwv)" height="38.2656" id="de.unibremen.sfb.Exception.ExperimentierStationNotFoundException" style="stroke: #A80036; stroke-width: 1.5;" width="313" x="6" y="106"/><ellipse cx="21" cy="125.1328" fill="#ADD1B2" rx="11" ry="11" style="stroke: #A80036; stroke-width: 1.0;"/><path d="M23.4731,131.2759 Q22.8921,131.5747 22.2529,131.7241 Q21.6138,131.8735 20.9082,131.8735 Q18.4014,131.8735 17.0815,130.2217 Q15.7617,128.5698 15.7617,125.4487 Q15.7617,122.3193 17.0815,120.6675 Q18.4014,119.0156 20.9082,119.0156 Q21.6138,119.0156 22.2612,119.165 Q22.9087,119.3145 23.4731,119.6133 L23.4731,122.3359 Q22.8423,121.7549 22.2488,121.4851 Q21.6553,121.2153 21.0244,121.2153 Q19.6797,121.2153 18.9949,122.282 Q18.3101,123.3486 18.3101,125.4487 Q18.3101,127.5405 18.9949,128.6072 Q19.6797,129.6738 21.0244,129.6738 Q21.6553,129.6738 22.2488,129.4041 Q22.8423,129.1343 23.4731,128.5532 Z "/><text fill="#000000" font-family="sans-serif" font-size="14" lengthAdjust="spacingAndGlyphs" textLength="281" x="35" y="124.5352">ExperimentierStationNotFoundException</text><text fill="#000000" font-family="sans-serif" font-size="10" lengthAdjust="spacingAndGlyphs" textLength="135" x="108" y="137.1563">de.unibremen.sfb.Exception</text></a><!--MD5=[46c05dfe24a0851e179497c4631d3ff2]
class java.lang.Exception--><a href="https://docs.oracle.com/en/java/javase/11/docs/api/java.base/java/lang/Exception.html?is-external=true" target="_top" title="https://docs.oracle.com/en/java/javase/11/docs/api/java.base/java/lang/Exception.html?is-external=true" xlink:actuate="onRequest" xlink:href="https://docs.oracle.com/en/java/javase/11/docs/api/java.base/java/lang/Exception.html?is-external=true" xlink:show="new" xlink:title="https://docs.oracle.com/en/java/javase/11/docs/api/java.base/java/lang/Exception.html?is-external=true" xlink:type="simple"><rect fill="#FEFECE" filter="url(#f1aofjv5pjtuwv)" height="38.2656" id="java.lang.Exception" style="stroke: #A80036; stroke-width: 1.5;" width="100" x="112.5" y="8"/><ellipse cx="127.5" cy="27.1328" fill="#ADD1B2" rx="11" ry="11" style="stroke: #A80036; stroke-width: 1.0;"/><path d="M129.9731,33.2759 Q129.3921,33.5747 128.7529,33.7241 Q128.1138,33.8735 127.4082,33.8735 Q124.9014,33.8735 123.5815,32.2217 Q122.2617,30.5698 122.2617,27.4487 Q122.2617,24.3193 123.5815,22.6675 Q124.9014,21.0156 127.4082,21.0156 Q128.1138,21.0156 128.7612,21.165 Q129.4087,21.3145 129.9731,21.6133 L129.9731,24.3359 Q129.3423,23.7549 128.7488,23.4851 Q128.1553,23.2153 127.5244,23.2153 Q126.1797,23.2153 125.4949,24.282 Q124.8101,25.3486 124.8101,27.4487 Q124.8101,29.5405 125.4949,30.6072 Q126.1797,31.6738 127.5244,31.6738 Q128.1553,31.6738 128.7488,31.4041 Q129.3423,31.1343 129.9731,30.5532 Z "/><text fill="#000000" font-family="sans-serif" font-size="14" lengthAdjust="spacingAndGlyphs" textLength="68" x="141.5" y="26.5352">Exception</text><text fill="#000000" font-family="sans-serif" font-size="10" lengthAdjust="spacingAndGlyphs" textLength="44" x="153.5" y="39.1563">java.lang</text></a><!--MD5=[9cb05aaf60268c92a06494a4b6ea28c4]
reverse link java.lang.Exception to de.unibremen.sfb.Exception.ExperimentierStationNotFoundException--><path d="M162.5,66.43 C162.5,79.98 162.5,94.59 162.5,105.7 " fill="none" id="java.lang.Exception&lt;-de.unibremen.sfb.Exception.ExperimentierStationNotFoundException" style="stroke: #A80036; stroke-width: 1.0;"/><polygon fill="none" points="155.5,66.06,162.5,46.06,169.5,66.06,155.5,66.06" style="stroke: #A80036; stroke-width: 1.0;"/><text fill="#888888" font-family="sans-serif" font-size="10" lengthAdjust="spacingAndGlyphs" textLength="182" x="77.5" y="163.668">UMLDoclet 2.0.7, PlantUML 1.2019.12</text><!--MD5=[261bb52e991ba0b3a8e71b52317a728e]
@startuml
    set namespaceSeparator none
    hide empty fields
    hide empty methods

    class "<size:14>ExperimentierStationNotFoundException\n<size:10>de.unibremen.sfb.Exception" as de.unibremen.sfb.Exception.ExperimentierStationNotFoundException [[ExperimentierStationNotFoundException.html]]

    class "<size:14>Exception\n<size:10>java.lang" as java.lang.Exception [[https://docs.oracle.com/en/java/javase/11/docs/api/java.base/java/lang/Exception.html?is-external=true]]

    java.lang.Exception <|- - de.unibremen.sfb.Exception.ExperimentierStationNotFoundException

    center footer UMLDoclet 2.0.7, PlantUML 1.2019.12
@enduml

PlantUML version 1.2019.12(Sun Nov 03 11:24:54 CET 2019)
(APACHE source distribution)
Java Runtime: Java(TM) SE Runtime Environment
JVM: Java HotSpot(TM) 64-Bit Server VM
Java Version: 13.0.1+9
Operating System: Mac OS X
Default Encoding: UTF-8
Language: de
Country: DE
--></g></svg>