<?xml version="1.0" encoding="UTF-8" standalone="no"?><svg xmlns="http://www.w3.org/2000/svg" xmlns:xlink="http://www.w3.org/1999/xlink" contentScriptType="application/ecmascript" contentStyleType="text/css" height="122px" preserveAspectRatio="none" style="width:256px;height:122px;" version="1.1" viewBox="0 0 256 122" width="256px" zoomAndPan="magnify"><defs><filter height="300%" id="fy10a23brjh9d" width="300%" x="-1" y="-1"><feGaussianBlur result="blurOut" stdDeviation="2.0"/><feColorMatrix in="blurOut" result="blurOut2" type="matrix" values="0 0 0 0 0 0 0 0 0 0 0 0 0 0 0 0 0 0 .4 0"/><feOffset dx="4.0" dy="4.0" in="blurOut2" result="blurOut3"/><feBlend in="SourceGraphic" in2="blurOut3" mode="normal"/></filter></defs><g><!--MD5=[39914ee9b98f4ae2aeda844a71b63736]
class de.unibremen.sfb.boundary.IndexBean2--><a href="IndexBean2.html" target="_top" title="IndexBean2.html" xlink:actuate="onRequest" xlink:href="IndexBean2.html" xlink:show="new" xlink:title="IndexBean2.html" xlink:type="simple"><rect fill="#FEFECE" filter="url(#fy10a23brjh9d)" height="85.1309" id="de.unibremen.sfb.boundary.IndexBean2" style="stroke: #A80036; stroke-width: 1.5;" width="238" x="7" y="7"/><ellipse cx="55.25" cy="26.1328" fill="#ADD1B2" rx="11" ry="11" style="stroke: #A80036; stroke-width: 1.0;"/><path d="M57.7231,32.2759 Q57.1421,32.5747 56.5029,32.7241 Q55.8638,32.8735 55.1582,32.8735 Q52.6514,32.8735 51.3315,31.2217 Q50.0117,29.5698 50.0117,26.4487 Q50.0117,23.3193 51.3315,21.6675 Q52.6514,20.0156 55.1582,20.0156 Q55.8638,20.0156 56.5112,20.165 Q57.1587,20.3145 57.7231,20.6133 L57.7231,23.3359 Q57.0923,22.7549 56.4988,22.4851 Q55.9053,22.2153 55.2744,22.2153 Q53.9297,22.2153 53.2449,23.282 Q52.5601,24.3486 52.5601,26.4487 Q52.5601,28.5405 53.2449,29.6072 Q53.9297,30.6738 55.2744,30.6738 Q55.9053,30.6738 56.4988,30.4041 Q57.0923,30.1343 57.7231,29.5532 Z "/><text fill="#000000" font-family="sans-serif" font-size="14" lengthAdjust="spacingAndGlyphs" textLength="81" x="101.75" y="25.5352">IndexBean2</text><text fill="#000000" font-family="sans-serif" font-size="10" lengthAdjust="spacingAndGlyphs" textLength="133" x="75.75" y="38.1563">de.unibremen.sfb.boundary</text><line style="stroke: #A80036; stroke-width: 1.5;" x1="8" x2="244" y1="45.2656" y2="45.2656"/><ellipse cx="18" cy="56.2656" fill="#84BE84" rx="3" ry="3" style="stroke: #038048; stroke-width: 1.0;"/><text fill="#000000" font-family="sans-serif" font-size="11" lengthAdjust="spacingAndGlyphs" textLength="54" x="27" y="59.9004">init(): void</text><ellipse cx="18" cy="69.2207" fill="#84BE84" rx="3" ry="3" style="stroke: #038048; stroke-width: 1.0;"/><text fill="#000000" font-family="sans-serif" font-size="11" lengthAdjust="spacingAndGlyphs" textLength="212" x="27" y="72.8555">getCustomerBarModel(): BarChartModel</text><ellipse cx="18" cy="82.1758" fill="#84BE84" rx="3" ry="3" style="stroke: #038048; stroke-width: 1.0;"/><text fill="#000000" font-family="sans-serif" font-size="11" lengthAdjust="spacingAndGlyphs" textLength="138" x="27" y="85.8105">getOrders(): List&lt;Order&gt;</text></a><text fill="#888888" font-family="sans-serif" font-size="10" lengthAdjust="spacingAndGlyphs" textLength="182" x="35" y="108.7988">UMLDoclet 2.0.7, PlantUML 1.2019.12</text><!--MD5=[777fa7c7a9887b336d4b9f22edca8348]
@startuml
    set namespaceSeparator none
    hide empty fields
    hide empty methods

    class "<size:14>IndexBean2\n<size:10>de.unibremen.sfb.boundary" as de.unibremen.sfb.boundary.IndexBean2 [[IndexBean2.html]] {
        +init(): void
        +getCustomerBarModel(): BarChartModel
        +getOrders(): List<Order>
    }

    center footer UMLDoclet 2.0.7, PlantUML 1.2019.12
@enduml

PlantUML version 1.2019.12(Sun Nov 03 11:24:54 CET 2019)
(APACHE source distribution)
Java Runtime: Java(TM) SE Runtime Environment
JVM: Java HotSpot(TM) 64-Bit Server VM
Java Version: 13.0.1+9
Operating System: Mac OS X
Default Encoding: UTF-8
Language: de
Country: DE
--></g></svg>