<?xml version="1.0" encoding="UTF-8" standalone="no"?><svg xmlns="http://www.w3.org/2000/svg" xmlns:xlink="http://www.w3.org/1999/xlink" contentScriptType="application/ecmascript" contentStyleType="text/css" height="75px" preserveAspectRatio="none" style="width:194px;height:75px;" version="1.1" viewBox="0 0 194 75" width="194px" zoomAndPan="magnify"><defs><filter height="300%" id="f16njsb1hzs1xp" width="300%" x="-1" y="-1"><feGaussianBlur result="blurOut" stdDeviation="2.0"/><feColorMatrix in="blurOut" result="blurOut2" type="matrix" values="0 0 0 0 0 0 0 0 0 0 0 0 0 0 0 0 0 0 .4 0"/><feOffset dx="4.0" dy="4.0" in="blurOut2" result="blurOut3"/><feBlend in="SourceGraphic" in2="blurOut3" mode="normal"/></filter></defs><g><!--MD5=[9278a6c531181515d8e58d1f41f39402]
class de.unibremen.sfb.model.ProzessSchrittLog--><a href="ProzessSchrittLog.html" target="_top" title="ProzessSchrittLog.html" xlink:actuate="onRequest" xlink:href="ProzessSchrittLog.html" xlink:show="new" xlink:title="ProzessSchrittLog.html" xlink:type="simple"><rect fill="#FEFECE" filter="url(#f16njsb1hzs1xp)" height="38.2656" id="de.unibremen.sfb.model.ProzessSchrittLog" style="stroke: #A80036; stroke-width: 1.5;" width="154" x="14" y="7"/><ellipse cx="29" cy="26.1328" fill="#ADD1B2" rx="11" ry="11" style="stroke: #A80036; stroke-width: 1.0;"/><path d="M31.4731,32.2759 Q30.8921,32.5747 30.2529,32.7241 Q29.6138,32.8735 28.9082,32.8735 Q26.4014,32.8735 25.0815,31.2217 Q23.7617,29.5698 23.7617,26.4487 Q23.7617,23.3193 25.0815,21.6675 Q26.4014,20.0156 28.9082,20.0156 Q29.6138,20.0156 30.2612,20.165 Q30.9087,20.3145 31.4731,20.6133 L31.4731,23.3359 Q30.8423,22.7549 30.2488,22.4851 Q29.6553,22.2153 29.0244,22.2153 Q27.6797,22.2153 26.9949,23.282 Q26.3101,24.3486 26.3101,26.4487 Q26.3101,28.5405 26.9949,29.6072 Q27.6797,30.6738 29.0244,30.6738 Q29.6553,30.6738 30.2488,30.4041 Q30.8423,30.1343 31.4731,29.5532 Z "/><text fill="#000000" font-family="sans-serif" font-size="14" lengthAdjust="spacingAndGlyphs" textLength="122" x="43" y="25.5352">ProzessSchrittLog</text><text fill="#000000" font-family="sans-serif" font-size="10" lengthAdjust="spacingAndGlyphs" textLength="118" x="45" y="38.1563">de.unibremen.sfb.model</text></a><text fill="#888888" font-family="sans-serif" font-size="10" lengthAdjust="spacingAndGlyphs" textLength="182" x="0" y="61.9336">UMLDoclet 2.0.7, PlantUML 1.2019.12</text><!--MD5=[01c168f2556e871474c9542a103e4a2f]
@startuml
    set namespaceSeparator none
    hide empty fields
    hide empty methods

    class "<size:14>ProzessSchrittLog\n<size:10>de.unibremen.sfb.model" as de.unibremen.sfb.model.ProzessSchrittLog [[ProzessSchrittLog.html]]

    center footer UMLDoclet 2.0.7, PlantUML 1.2019.12
@enduml

PlantUML version 1.2019.12(Sun Nov 03 11:24:54 CET 2019)
(APACHE source distribution)
Java Runtime: Java(TM) SE Runtime Environment
JVM: Java HotSpot(TM) 64-Bit Server VM
Java Version: 13.0.1+9
Operating System: Mac OS X
Default Encoding: UTF-8
Language: de
Country: DE
--></g></svg>