<?xml version="1.0" encoding="UTF-8" standalone="no"?><svg xmlns="http://www.w3.org/2000/svg" xmlns:xlink="http://www.w3.org/1999/xlink" contentScriptType="application/ecmascript" contentStyleType="text/css" height="177px" preserveAspectRatio="none" style="width:308px;height:177px;" version="1.1" viewBox="0 0 308 177" width="308px" zoomAndPan="magnify"><defs><filter height="300%" id="f16bnvyyz3bldb" width="300%" x="-1" y="-1"><feGaussianBlur result="blurOut" stdDeviation="2.0"/><feColorMatrix in="blurOut" result="blurOut2" type="matrix" values="0 0 0 0 0 0 0 0 0 0 0 0 0 0 0 0 0 0 .4 0"/><feOffset dx="4.0" dy="4.0" in="blurOut2" result="blurOut3"/><feBlend in="SourceGraphic" in2="blurOut3" mode="normal"/></filter></defs><g><!--MD5=[cc83d9ce3cbef904a0eda18ef7009329]
class de.unibremen.sfb.exception.ProzessParameterNotFoundException--><a href="ProzessParameterNotFoundException.html" target="_top" title="ProzessParameterNotFoundException.html" xlink:actuate="onRequest" xlink:href="ProzessParameterNotFoundException.html" xlink:show="new" xlink:title="ProzessParameterNotFoundException.html" xlink:type="simple"><rect fill="#FEFECE" filter="url(#f16bnvyyz3bldb)" height="38.2656" id="de.unibremen.sfb.exception.ProzessParameterNotFoundException" style="stroke: #A80036; stroke-width: 1.5;" width="291" x="6" y="106"/><ellipse cx="21" cy="125.1328" fill="#ADD1B2" rx="11" ry="11" style="stroke: #A80036; stroke-width: 1.0;"/><path d="M23.4731,131.2759 Q22.8921,131.5747 22.2529,131.7241 Q21.6138,131.8735 20.9082,131.8735 Q18.4014,131.8735 17.0815,130.2217 Q15.7617,128.5698 15.7617,125.4487 Q15.7617,122.3193 17.0815,120.6675 Q18.4014,119.0156 20.9082,119.0156 Q21.6138,119.0156 22.2612,119.165 Q22.9087,119.3145 23.4731,119.6133 L23.4731,122.3359 Q22.8423,121.7549 22.2488,121.4851 Q21.6553,121.2153 21.0244,121.2153 Q19.6797,121.2153 18.9949,122.282 Q18.3101,123.3486 18.3101,125.4487 Q18.3101,127.5405 18.9949,128.6072 Q19.6797,129.6738 21.0244,129.6738 Q21.6553,129.6738 22.2488,129.4041 Q22.8423,129.1343 23.4731,128.5532 Z "/><text fill="#000000" font-family="sans-serif" font-size="14" lengthAdjust="spacingAndGlyphs" textLength="259" x="35" y="124.5352">ProzessParameterNotFoundException</text><text fill="#000000" font-family="sans-serif" font-size="10" lengthAdjust="spacingAndGlyphs" textLength="135" x="97" y="137.1563">de.unibremen.sfb.exception</text></a><!--MD5=[46c05dfe24a0851e179497c4631d3ff2]
class java.lang.exception--><rect fill="#FEFECE" filter="url(#f16bnvyyz3bldb)" height="38.2656" id="java.lang.Exception" style="stroke: #A80036; stroke-width: 1.5;" width="100" x="101.5" y="8"/><ellipse cx="116.5" cy="27.1328" fill="#ADD1B2" rx="11" ry="11" style="stroke: #A80036; stroke-width: 1.0;"/><path d="M118.9731,33.2759 Q118.3921,33.5747 117.7529,33.7241 Q117.1138,33.8735 116.4082,33.8735 Q113.9014,33.8735 112.5815,32.2217 Q111.2617,30.5698 111.2617,27.4487 Q111.2617,24.3193 112.5815,22.6675 Q113.9014,21.0156 116.4082,21.0156 Q117.1138,21.0156 117.7612,21.165 Q118.4087,21.3145 118.9731,21.6133 L118.9731,24.3359 Q118.3423,23.7549 117.7488,23.4851 Q117.1553,23.2153 116.5244,23.2153 Q115.1797,23.2153 114.4949,24.282 Q113.8101,25.3486 113.8101,27.4487 Q113.8101,29.5405 114.4949,30.6072 Q115.1797,31.6738 116.5244,31.6738 Q117.1553,31.6738 117.7488,31.4041 Q118.3423,31.1343 118.9731,30.5532 Z "/><text fill="#000000" font-family="sans-serif" font-size="14" lengthAdjust="spacingAndGlyphs" textLength="68" x="130.5" y="26.5352">Exception</text><text fill="#000000" font-family="sans-serif" font-size="10" lengthAdjust="spacingAndGlyphs" textLength="44" x="142.5" y="39.1563">java.lang</text><!--MD5=[765a5787141aead374b1cd1188894e7c]
reverse link java.lang.exception to de.unibremen.sfb.exception.ProzessParameterNotFoundException--><path d="M151.5,66.43 C151.5,79.98 151.5,94.59 151.5,105.7 " fill="none" id="java.lang.Exception&lt;-de.unibremen.sfb.exception.ProzessParameterNotFoundException" style="stroke: #A80036; stroke-width: 1.0;"/><polygon fill="none" points="144.5,66.06,151.5,46.06,158.5,66.06,144.5,66.06" style="stroke: #A80036; stroke-width: 1.0;"/><text fill="#888888" font-family="sans-serif" font-size="10" lengthAdjust="spacingAndGlyphs" textLength="182" x="66.5" y="163.668">UMLDoclet 2.0.7, PlantUML 1.2019.12</text><!--MD5=[482408afde9c8abf674974903ef63fbe]
@startuml
    set namespaceSeparator none
    hide empty fields
    hide empty methods

    class "<size:14>ProzessParameterNotFoundException\n<size:10>de.unibremen.sfb.exception" as de.unibremen.sfb.exception.ProzessParameterNotFoundException [[ProzessParameterNotFoundException.html]]

    class "<size:14>exception\n<size:10>java.lang" as java.lang.exception

    java.lang.exception <|- - de.unibremen.sfb.exception.ProzessParameterNotFoundException

    center footer UMLDoclet 2.0.7, PlantUML 1.2019.12
@enduml

PlantUML version 1.2019.12(Sun Nov 03 11:24:54 CET 2019)
(APACHE source distribution)
Java Runtime: Java(TM) SE Runtime Environment
JVM: Java HotSpot(TM) 64-Bit Server VM
Java Version: 13.0.1+9
Operating System: Mac OS X
Default Encoding: UTF-8
Language: de
Country: DE
--></g></svg>