<?xml version="1.0" encoding="UTF-8" standalone="no"?><svg xmlns="http://www.w3.org/2000/svg" xmlns:xlink="http://www.w3.org/1999/xlink" contentScriptType="application/ecmascript" contentStyleType="text/css" height="130px" preserveAspectRatio="none" style="width:257px;height:130px;" version="1.1" viewBox="0 0 257 130" width="257px" zoomAndPan="magnify"><defs><filter height="300%" id="fflgwu4btavf" width="300%" x="-1" y="-1"><feGaussianBlur result="blurOut" stdDeviation="2.0"/><feColorMatrix in="blurOut" result="blurOut2" type="matrix" values="0 0 0 0 0 0 0 0 0 0 0 0 0 0 0 0 0 0 .4 0"/><feOffset dx="4.0" dy="4.0" in="blurOut2" result="blurOut3"/><feBlend in="SourceGraphic" in2="blurOut3" mode="normal"/></filter></defs><g><!--MD5=[cfa3a073a0a0651f8cc2c10b416b0c59]
class de.unibremen.sfb.Controller.ProzessSchrittArtController--><a href="ProzessSchrittArtController.html" target="_top" title="ProzessSchrittArtController.html" xlink:actuate="onRequest" xlink:href="ProzessSchrittArtController.html" xlink:show="new" xlink:title="ProzessSchrittArtController.html" xlink:type="simple"><rect fill="#FEFECE" filter="url(#fflgwu4btavf)" height="93.1309" id="de.unibremen.sfb.Controller.ProzessSchrittArtController" style="stroke: #A80036; stroke-width: 1.5;" width="239" x="7" y="7"/><ellipse cx="30.55" cy="26.1328" fill="#ADD1B2" rx="11" ry="11" style="stroke: #A80036; stroke-width: 1.0;"/><path d="M33.0231,32.2759 Q32.4421,32.5747 31.8029,32.7241 Q31.1638,32.8735 30.4582,32.8735 Q27.9514,32.8735 26.6315,31.2217 Q25.3117,29.5698 25.3117,26.4487 Q25.3117,23.3193 26.6315,21.6675 Q27.9514,20.0156 30.4582,20.0156 Q31.1638,20.0156 31.8112,20.165 Q32.4587,20.3145 33.0231,20.6133 L33.0231,23.3359 Q32.3923,22.7549 31.7988,22.4851 Q31.2053,22.2153 30.5744,22.2153 Q29.2297,22.2153 28.5449,23.282 Q27.8601,24.3486 27.8601,26.4487 Q27.8601,28.5405 28.5449,29.6072 Q29.2297,30.6738 30.5744,30.6738 Q31.2053,30.6738 31.7988,30.4041 Q32.3923,30.1343 33.0231,29.5532 Z "/><text fill="#000000" font-family="sans-serif" font-size="14" lengthAdjust="spacingAndGlyphs" textLength="188" x="46.45" y="25.5352">ProzessSchrittArtController</text><text fill="#000000" font-family="sans-serif" font-size="10" lengthAdjust="spacingAndGlyphs" textLength="137" x="71.95" y="38.1563">de.unibremen.sfb.Controller</text><line style="stroke: #A80036; stroke-width: 1.5;" x1="8" x2="245" y1="45.2656" y2="45.2656"/><ellipse cx="18" cy="56.2656" fill="none" rx="3" ry="3" style="stroke: #038048; stroke-width: 1.0;"/><text fill="#000000" font-family="sans-serif" font-size="11" lengthAdjust="spacingAndGlyphs" textLength="119" x="27" y="59.9004">psa: ProzessSchrittArt</text><line style="stroke: #A80036; stroke-width: 1.5;" x1="8" x2="245" y1="66.2207" y2="66.2207"/><ellipse cx="18" cy="77.2207" fill="#84BE84" rx="3" ry="3" style="stroke: #038048; stroke-width: 1.0;"/><text fill="#000000" font-family="sans-serif" font-size="11" lengthAdjust="spacingAndGlyphs" textLength="213" x="27" y="80.8555">setProzessSchrittArt(Set&lt;String&gt;): void</text><ellipse cx="18" cy="90.1758" fill="#84BE84" rx="3" ry="3" style="stroke: #038048; stroke-width: 1.0;"/><text fill="#000000" font-family="sans-serif" font-size="11" lengthAdjust="spacingAndGlyphs" textLength="191" x="27" y="93.8105">getProzessSchrittArt(): Set&lt;String&gt;</text></a><text fill="#888888" font-family="sans-serif" font-size="10" lengthAdjust="spacingAndGlyphs" textLength="182" x="35.5" y="116.7988">UMLDoclet 2.0.7, PlantUML 1.2019.12</text><!--MD5=[840522766ce31ec1066b3e7f1729e5bc]
@startuml
    set namespaceSeparator none
    hide empty fields
    hide empty methods

    class "<size:14>ProzessSchrittArtController\n<size:10>de.unibremen.sfb.Controller" as de.unibremen.sfb.Controller.ProzessSchrittArtController [[ProzessSchrittArtController.html]] {
        +psa: ProzessSchrittArt
        +setProzessSchrittArt(Set<String>): void
        +getProzessSchrittArt(): Set<String>
    }

    center footer UMLDoclet 2.0.7, PlantUML 1.2019.12
@enduml

PlantUML version 1.2019.12(Sun Nov 03 11:24:54 CET 2019)
(APACHE source distribution)
Java Runtime: Java(TM) SE Runtime Environment
JVM: Java HotSpot(TM) 64-Bit Server VM
Java Version: 13.0.1+9
Operating System: Mac OS X
Default Encoding: UTF-8
Language: de
Country: DE
--></g></svg>