<?xml version="1.0" encoding="UTF-8" standalone="no"?><svg xmlns="http://www.w3.org/2000/svg" xmlns:xlink="http://www.w3.org/1999/xlink" contentScriptType="application/ecmascript" contentStyleType="text/css" height="174px" preserveAspectRatio="none" style="width:249px;height:174px;" version="1.1" viewBox="0 0 249 174" width="249px" zoomAndPan="magnify"><defs><filter height="300%" id="f174xgpl04b8ey" width="300%" x="-1" y="-1"><feGaussianBlur result="blurOut" stdDeviation="2.0"/><feColorMatrix in="blurOut" result="blurOut2" type="matrix" values="0 0 0 0 0 0 0 0 0 0 0 0 0 0 0 0 0 0 .4 0"/><feOffset dx="4.0" dy="4.0" in="blurOut2" result="blurOut3"/><feBlend in="SourceGraphic" in2="blurOut3" mode="normal"/></filter></defs><g><!--MD5=[ecdc60945d80c99343c60ab457df0d8f]
class de.unibremen.sfb.model.ProzessSchrittVorlage--><a href="ProzessSchrittVorlage.html" target="_top" title="ProzessSchrittVorlage.html" xlink:actuate="onRequest" xlink:href="ProzessSchrittVorlage.html" xlink:show="new" xlink:title="ProzessSchrittVorlage.html" xlink:type="simple"><rect fill="#FEFECE" filter="url(#f174xgpl04b8ey)" height="136.9512" id="de.unibremen.sfb.model.ProzessSchrittVorlage" style="stroke: #A80036; stroke-width: 1.5;" width="231" x="7" y="7"/><ellipse cx="44.05" cy="26.1328" fill="#ADD1B2" rx="11" ry="11" style="stroke: #A80036; stroke-width: 1.0;"/><path d="M46.5231,32.2759 Q45.9421,32.5747 45.3029,32.7241 Q44.6638,32.8735 43.9582,32.8735 Q41.4514,32.8735 40.1315,31.2217 Q38.8117,29.5698 38.8117,26.4487 Q38.8117,23.3193 40.1315,21.6675 Q41.4514,20.0156 43.9582,20.0156 Q44.6638,20.0156 45.3112,20.165 Q45.9587,20.3145 46.5231,20.6133 L46.5231,23.3359 Q45.8923,22.7549 45.2988,22.4851 Q44.7053,22.2153 44.0744,22.2153 Q42.7297,22.2153 42.0449,23.282 Q41.3601,24.3486 41.3601,26.4487 Q41.3601,28.5405 42.0449,29.6072 Q42.7297,30.6738 44.0744,30.6738 Q44.7053,30.6738 45.2988,30.4041 Q45.8923,30.1343 46.5231,29.5532 Z "/><text fill="#000000" font-family="sans-serif" font-size="14" lengthAdjust="spacingAndGlyphs" textLength="150" x="62.95" y="25.5352">ProzessSchrittVorlage</text><text fill="#000000" font-family="sans-serif" font-size="10" lengthAdjust="spacingAndGlyphs" textLength="118" x="78.95" y="38.1563">de.unibremen.sfb.model</text><line style="stroke: #A80036; stroke-width: 1.5;" x1="8" x2="237" y1="45.2656" y2="45.2656"/><ellipse cx="18" cy="56.2656" fill="none" rx="3" ry="3" style="stroke: #038048; stroke-width: 1.0;"/><text fill="#000000" font-family="sans-serif" font-size="11" lengthAdjust="spacingAndGlyphs" textLength="51" x="27" y="59.9004">psVID: int</text><ellipse cx="18" cy="69.2207" fill="none" rx="3" ry="3" style="stroke: #038048; stroke-width: 1.0;"/><text fill="#000000" font-family="sans-serif" font-size="11" lengthAdjust="spacingAndGlyphs" textLength="130" x="27" y="72.8555">zustaende: List&lt;String&gt;</text><ellipse cx="18" cy="82.1758" fill="none" rx="3" ry="3" style="stroke: #038048; stroke-width: 1.0;"/><text fill="#000000" font-family="sans-serif" font-size="11" lengthAdjust="spacingAndGlyphs" textLength="84" x="27" y="85.8105">dauer: Duration</text><ellipse cx="18" cy="95.1309" fill="none" rx="3" ry="3" style="stroke: #038048; stroke-width: 1.0;"/><text fill="#000000" font-family="sans-serif" font-size="11" lengthAdjust="spacingAndGlyphs" textLength="186" x="27" y="98.7656">eingabeTraeger: List&lt;TraegerArt&gt;</text><ellipse cx="18" cy="108.0859" fill="none" rx="3" ry="3" style="stroke: #038048; stroke-width: 1.0;"/><text fill="#000000" font-family="sans-serif" font-size="11" lengthAdjust="spacingAndGlyphs" textLength="189" x="27" y="111.7207">ausgabeTraeger: List&lt;TraegerArt&gt;</text><ellipse cx="18" cy="121.041" fill="none" rx="3" ry="3" style="stroke: #038048; stroke-width: 1.0;"/><text fill="#000000" font-family="sans-serif" font-size="11" lengthAdjust="spacingAndGlyphs" textLength="115" x="27" y="124.6758">art: ProzessSchrittArt</text><ellipse cx="18" cy="133.9961" fill="none" rx="3" ry="3" style="stroke: #038048; stroke-width: 1.0;"/><text fill="#000000" font-family="sans-serif" font-size="11" lengthAdjust="spacingAndGlyphs" textLength="205" x="27" y="137.6309">stationen: List&lt;ExperimentierStation&gt;</text></a><text fill="#888888" font-family="sans-serif" font-size="10" lengthAdjust="spacingAndGlyphs" textLength="182" x="31.5" y="160.6191">UMLDoclet 2.0.7, PlantUML 1.2019.12</text><!--MD5=[4e8e3b8203566097a6c256337287006a]
@startuml
    set namespaceSeparator none
    hide empty fields
    hide empty methods

    class "<size:14>ProzessSchrittVorlage\n<size:10>de.unibremen.sfb.model" as de.unibremen.sfb.model.ProzessSchrittVorlage [[ProzessSchrittVorlage.html]] {
        +psVID: int
        +zustaende: List<String>
        +dauer: Duration
        +eingabeTraeger: List<TraegerArt>
        +ausgabeTraeger: List<TraegerArt>
        +art: ProzessSchrittArt
        +stationen: List<ExperimentierStation>
    }

    center footer UMLDoclet 2.0.7, PlantUML 1.2019.12
@enduml

PlantUML version 1.2019.12(Sun Nov 03 11:24:54 CET 2019)
(APACHE source distribution)
Java Runtime: Java(TM) SE Runtime Environment
JVM: Java HotSpot(TM) 64-Bit Server VM
Java Version: 13.0.1+9
Operating System: Mac OS X
Default Encoding: UTF-8
Language: de
Country: DE
--></g></svg>