<?xml version="1.0" encoding="UTF-8" standalone="no"?><svg xmlns="http://www.w3.org/2000/svg" xmlns:xlink="http://www.w3.org/1999/xlink" contentScriptType="application/ecmascript" contentStyleType="text/css" height="122px" preserveAspectRatio="none" style="width:273px;height:122px;" version="1.1" viewBox="0 0 273 122" width="273px" zoomAndPan="magnify"><defs><filter height="300%" id="f1trm94c9ororu" width="300%" x="-1" y="-1"><feGaussianBlur result="blurOut" stdDeviation="2.0"/><feColorMatrix in="blurOut" result="blurOut2" type="matrix" values="0 0 0 0 0 0 0 0 0 0 0 0 0 0 0 0 0 0 .4 0"/><feOffset dx="4.0" dy="4.0" in="blurOut2" result="blurOut3"/><feBlend in="SourceGraphic" in2="blurOut3" mode="normal"/></filter></defs><g><!--MD5=[42a60f29e289646ec794d8677a0dcf7d]
class de.unibremen.sfb.model.QualitativeEigenschaft--><a href="QualitativeEigenschaft.html" target="_top" title="QualitativeEigenschaft.html" xlink:actuate="onRequest" xlink:href="QualitativeEigenschaft.html" xlink:show="new" xlink:title="QualitativeEigenschaft.html" xlink:type="simple"><rect fill="#FEFECE" filter="url(#f1trm94c9ororu)" height="85.1309" id="de.unibremen.sfb.model.QualitativeEigenschaft" style="stroke: #A80036; stroke-width: 1.5;" width="255" x="7" y="7"/><ellipse cx="54.25" cy="26.1328" fill="#ADD1B2" rx="11" ry="11" style="stroke: #A80036; stroke-width: 1.0;"/><path d="M56.7231,32.2759 Q56.1421,32.5747 55.5029,32.7241 Q54.8638,32.8735 54.1582,32.8735 Q51.6514,32.8735 50.3315,31.2217 Q49.0117,29.5698 49.0117,26.4487 Q49.0117,23.3193 50.3315,21.6675 Q51.6514,20.0156 54.1582,20.0156 Q54.8638,20.0156 55.5112,20.165 Q56.1587,20.3145 56.7231,20.6133 L56.7231,23.3359 Q56.0923,22.7549 55.4988,22.4851 Q54.9053,22.2153 54.2744,22.2153 Q52.9297,22.2153 52.2449,23.282 Q51.5601,24.3486 51.5601,26.4487 Q51.5601,28.5405 52.2449,29.6072 Q52.9297,30.6738 54.2744,30.6738 Q54.9053,30.6738 55.4988,30.4041 Q56.0923,30.1343 56.7231,29.5532 Z "/><text fill="#000000" font-family="sans-serif" font-size="14" lengthAdjust="spacingAndGlyphs" textLength="152" x="74.75" y="25.5352">QualitativeEigenschaft</text><text fill="#000000" font-family="sans-serif" font-size="10" lengthAdjust="spacingAndGlyphs" textLength="118" x="91.75" y="38.1563">de.unibremen.sfb.model</text><line style="stroke: #A80036; stroke-width: 1.5;" x1="8" x2="261" y1="45.2656" y2="45.2656"/><ellipse cx="18" cy="56.2656" fill="none" rx="3" ry="3" style="stroke: #038048; stroke-width: 1.0;"/><text fill="#000000" font-family="sans-serif" font-size="11" lengthAdjust="spacingAndGlyphs" textLength="67" x="27" y="59.9004">name: String</text><ellipse cx="18" cy="69.2207" fill="none" rx="3" ry="3" style="stroke: #038048; stroke-width: 1.0;"/><text fill="#000000" font-family="sans-serif" font-size="11" lengthAdjust="spacingAndGlyphs" textLength="113" x="27" y="72.8555">proben: List&lt;Probe&gt;</text><ellipse cx="18" cy="82.1758" fill="none" rx="3" ry="3" style="stroke: #038048; stroke-width: 1.0;"/><text fill="#000000" font-family="sans-serif" font-size="11" lengthAdjust="spacingAndGlyphs" textLength="229" x="27" y="85.8105">parameter: List&lt;ProzessSchrittParameter&gt;</text></a><text fill="#888888" font-family="sans-serif" font-size="10" lengthAdjust="spacingAndGlyphs" textLength="182" x="43.5" y="108.7988">UMLDoclet 2.0.7, PlantUML 1.2019.12</text><!--MD5=[0f9d7c7854eb94db13c0b4e0da75636f]
@startuml
    set namespaceSeparator none
    hide empty fields
    hide empty methods

    class "<size:14>QualitativeEigenschaft\n<size:10>de.unibremen.sfb.model" as de.unibremen.sfb.model.QualitativeEigenschaft [[QualitativeEigenschaft.html]] {
        +name: String
        +proben: List<Probe>
        +parameter: List<ProzessSchrittParameter>
    }

    center footer UMLDoclet 2.0.7, PlantUML 1.2019.12
@enduml

PlantUML version 1.2019.12(Sun Nov 03 11:24:54 CET 2019)
(APACHE source distribution)
Java Runtime: Java(TM) SE Runtime Environment
JVM: Java HotSpot(TM) 64-Bit Server VM
Java Version: 13.0.1+9
Operating System: Mac OS X
Default Encoding: UTF-8
Language: de
Country: DE
--></g></svg>