<?xml version="1.0" encoding="UTF-8" standalone="no"?><svg xmlns="http://www.w3.org/2000/svg" xmlns:xlink="http://www.w3.org/1999/xlink" contentScriptType="application/ecmascript" contentStyleType="text/css" height="130px" preserveAspectRatio="none" style="width:286px;height:130px;" version="1.1" viewBox="0 0 286 130" width="286px" zoomAndPan="magnify"><defs><filter height="300%" id="f1hszmevpm5t1v" width="300%" x="-1" y="-1"><feGaussianBlur result="blurOut" stdDeviation="2.0"/><feColorMatrix in="blurOut" result="blurOut2" type="matrix" values="0 0 0 0 0 0 0 0 0 0 0 0 0 0 0 0 0 0 .4 0"/><feOffset dx="4.0" dy="4.0" in="blurOut2" result="blurOut3"/><feBlend in="SourceGraphic" in2="blurOut3" mode="normal"/></filter></defs><g><!--MD5=[344d4e3397f33bdf82d611c592c47547]
class de.unibremen.sfb.controller.QualitativeEigenschaftController--><a href="QualitativeEigenschaftController.html" target="_top" title="QualitativeEigenschaftController.html" xlink:actuate="onRequest" xlink:href="QualitativeEigenschaftController.html" xlink:show="new" xlink:title="QualitativeEigenschaftController.html" xlink:type="simple"><rect fill="#FEFECE" filter="url(#f1hszmevpm5t1v)" height="93.1309" id="de.unibremen.sfb.controller.QualitativeEigenschaftController" style="stroke: #A80036; stroke-width: 1.5;" width="268" x="7" y="7"/><ellipse cx="28.3" cy="26.1328" fill="#ADD1B2" rx="11" ry="11" style="stroke: #A80036; stroke-width: 1.0;"/><path d="M30.7731,32.2759 Q30.1921,32.5747 29.5529,32.7241 Q28.9138,32.8735 28.2082,32.8735 Q25.7014,32.8735 24.3815,31.2217 Q23.0617,29.5698 23.0617,26.4487 Q23.0617,23.3193 24.3815,21.6675 Q25.7014,20.0156 28.2082,20.0156 Q28.9138,20.0156 29.5612,20.165 Q30.2087,20.3145 30.7731,20.6133 L30.7731,23.3359 Q30.1423,22.7549 29.5488,22.4851 Q28.9553,22.2153 28.3244,22.2153 Q26.9797,22.2153 26.2949,23.282 Q25.6101,24.3486 25.6101,26.4487 Q25.6101,28.5405 26.2949,29.6072 Q26.9797,30.6738 28.3244,30.6738 Q28.9553,30.6738 29.5488,30.4041 Q30.1423,30.1343 30.7731,29.5532 Z "/><text fill="#000000" font-family="sans-serif" font-size="14" lengthAdjust="spacingAndGlyphs" textLength="222" x="43.7" y="25.5352">QualitativeEigenschaftController</text><text fill="#000000" font-family="sans-serif" font-size="10" lengthAdjust="spacingAndGlyphs" textLength="137" x="86.2" y="38.1563">de.unibremen.sfb.controller</text><line style="stroke: #A80036; stroke-width: 1.5;" x1="8" x2="274" y1="45.2656" y2="45.2656"/><ellipse cx="18" cy="56.2656" fill="none" rx="3" ry="3" style="stroke: #038048; stroke-width: 1.0;"/><text fill="#000000" font-family="sans-serif" font-size="11" lengthAdjust="spacingAndGlyphs" textLength="242" x="27" y="59.9004">qualitativeEigenschaft: QualitativeEigenschaft</text><line style="stroke: #A80036; stroke-width: 1.5;" x1="8" x2="274" y1="66.2207" y2="66.2207"/><ellipse cx="18" cy="77.2207" fill="#84BE84" rx="3" ry="3" style="stroke: #038048; stroke-width: 1.0;"/><text fill="#000000" font-family="sans-serif" font-size="11" lengthAdjust="spacingAndGlyphs" textLength="147" x="27" y="80.8555">setEigenschaft(String): void</text><ellipse cx="18" cy="90.1758" fill="#84BE84" rx="3" ry="3" style="stroke: #038048; stroke-width: 1.0;"/><text fill="#000000" font-family="sans-serif" font-size="11" lengthAdjust="spacingAndGlyphs" textLength="125" x="27" y="93.8105">getEigenschaft(): String</text></a><text fill="#888888" font-family="sans-serif" font-size="10" lengthAdjust="spacingAndGlyphs" textLength="182" x="50" y="116.7988">UMLDoclet 2.0.7, PlantUML 1.2019.12</text><!--MD5=[bfe9f9b2d51ea67c518b1c7ba41bdcd2]
@startuml
    set namespaceSeparator none
    hide empty fields
    hide empty methods

    class "<size:14>QualitativeEigenschaftController\n<size:10>de.unibremen.sfb.controller" as de.unibremen.sfb.controller.QualitativeEigenschaftController [[QualitativeEigenschaftController.html]] {
        +qualitativeEigenschaft: QualitativeEigenschaft
        +setEigenschaft(String): void
        +getEigenschaft(): String
    }

    center footer UMLDoclet 2.0.7, PlantUML 1.2019.12
@enduml

PlantUML version 1.2019.12(Sun Nov 03 11:24:54 CET 2019)
(APACHE source distribution)
Java Runtime: Java(TM) SE Runtime Environment
JVM: Java HotSpot(TM) 64-Bit Server VM
Java Version: 13.0.1+9
Operating System: Mac OS X
Default Encoding: UTF-8
Language: de
Country: DE
--></g></svg>