<?xml version="1.0" encoding="UTF-8" standalone="no"?><svg xmlns="http://www.w3.org/2000/svg" xmlns:xlink="http://www.w3.org/1999/xlink" contentScriptType="application/ecmascript" contentStyleType="text/css" height="177px" preserveAspectRatio="none" style="width:337px;height:177px;" version="1.1" viewBox="0 0 337 177" width="337px" zoomAndPan="magnify"><defs><filter height="300%" id="f1eiubmgs490c3" width="300%" x="-1" y="-1"><feGaussianBlur result="blurOut" stdDeviation="2.0"/><feColorMatrix in="blurOut" result="blurOut2" type="matrix" values="0 0 0 0 0 0 0 0 0 0 0 0 0 0 0 0 0 0 .4 0"/><feOffset dx="4.0" dy="4.0" in="blurOut2" result="blurOut3"/><feBlend in="SourceGraphic" in2="blurOut3" mode="normal"/></filter></defs><g><!--MD5=[f7ed2771fee3daf046bd9604977a7ff6]
class de.unibremen.sfb.Exception.QualitativeEigenschaftNotFoundException--><a href="QualitativeEigenschaftNotFoundException.html" target="_top" title="QualitativeEigenschaftNotFoundException.html" xlink:actuate="onRequest" xlink:href="QualitativeEigenschaftNotFoundException.html" xlink:show="new" xlink:title="QualitativeEigenschaftNotFoundException.html" xlink:type="simple"><rect fill="#FEFECE" filter="url(#f1eiubmgs490c3)" height="38.2656" id="de.unibremen.sfb.Exception.QualitativeEigenschaftNotFoundException" style="stroke: #A80036; stroke-width: 1.5;" width="320" x="6" y="106"/><ellipse cx="21" cy="125.1328" fill="#ADD1B2" rx="11" ry="11" style="stroke: #A80036; stroke-width: 1.0;"/><path d="M23.4731,131.2759 Q22.8921,131.5747 22.2529,131.7241 Q21.6138,131.8735 20.9082,131.8735 Q18.4014,131.8735 17.0815,130.2217 Q15.7617,128.5698 15.7617,125.4487 Q15.7617,122.3193 17.0815,120.6675 Q18.4014,119.0156 20.9082,119.0156 Q21.6138,119.0156 22.2612,119.165 Q22.9087,119.3145 23.4731,119.6133 L23.4731,122.3359 Q22.8423,121.7549 22.2488,121.4851 Q21.6553,121.2153 21.0244,121.2153 Q19.6797,121.2153 18.9949,122.282 Q18.3101,123.3486 18.3101,125.4487 Q18.3101,127.5405 18.9949,128.6072 Q19.6797,129.6738 21.0244,129.6738 Q21.6553,129.6738 22.2488,129.4041 Q22.8423,129.1343 23.4731,128.5532 Z "/><text fill="#000000" font-family="sans-serif" font-size="14" lengthAdjust="spacingAndGlyphs" textLength="288" x="35" y="124.5352">QualitativeEigenschaftNotFoundException</text><text fill="#000000" font-family="sans-serif" font-size="10" lengthAdjust="spacingAndGlyphs" textLength="135" x="111.5" y="137.1563">de.unibremen.sfb.Exception</text></a><!--MD5=[46c05dfe24a0851e179497c4631d3ff2]
class java.lang.Exception--><a href="https://docs.oracle.com/en/java/javase/11/docs/api/java.base/java/lang/Exception.html?is-external=true" target="_top" title="https://docs.oracle.com/en/java/javase/11/docs/api/java.base/java/lang/Exception.html?is-external=true" xlink:actuate="onRequest" xlink:href="https://docs.oracle.com/en/java/javase/11/docs/api/java.base/java/lang/Exception.html?is-external=true" xlink:show="new" xlink:title="https://docs.oracle.com/en/java/javase/11/docs/api/java.base/java/lang/Exception.html?is-external=true" xlink:type="simple"><rect fill="#FEFECE" filter="url(#f1eiubmgs490c3)" height="38.2656" id="java.lang.Exception" style="stroke: #A80036; stroke-width: 1.5;" width="100" x="116" y="8"/><ellipse cx="131" cy="27.1328" fill="#ADD1B2" rx="11" ry="11" style="stroke: #A80036; stroke-width: 1.0;"/><path d="M133.4731,33.2759 Q132.8921,33.5747 132.2529,33.7241 Q131.6138,33.8735 130.9082,33.8735 Q128.4014,33.8735 127.0815,32.2217 Q125.7617,30.5698 125.7617,27.4487 Q125.7617,24.3193 127.0815,22.6675 Q128.4014,21.0156 130.9082,21.0156 Q131.6138,21.0156 132.2612,21.165 Q132.9087,21.3145 133.4731,21.6133 L133.4731,24.3359 Q132.8423,23.7549 132.2488,23.4851 Q131.6553,23.2153 131.0244,23.2153 Q129.6797,23.2153 128.9949,24.282 Q128.3101,25.3486 128.3101,27.4487 Q128.3101,29.5405 128.9949,30.6072 Q129.6797,31.6738 131.0244,31.6738 Q131.6553,31.6738 132.2488,31.4041 Q132.8423,31.1343 133.4731,30.5532 Z "/><text fill="#000000" font-family="sans-serif" font-size="14" lengthAdjust="spacingAndGlyphs" textLength="68" x="145" y="26.5352">Exception</text><text fill="#000000" font-family="sans-serif" font-size="10" lengthAdjust="spacingAndGlyphs" textLength="44" x="157" y="39.1563">java.lang</text></a><!--MD5=[beb9b9cd4d705f2e7b40735dfb96012d]
reverse link java.lang.Exception to de.unibremen.sfb.Exception.QualitativeEigenschaftNotFoundException--><path d="M166,66.43 C166,79.98 166,94.59 166,105.7 " fill="none" id="java.lang.Exception&lt;-de.unibremen.sfb.Exception.QualitativeEigenschaftNotFoundException" style="stroke: #A80036; stroke-width: 1.0;"/><polygon fill="none" points="159,66.06,166,46.06,173,66.06,159,66.06" style="stroke: #A80036; stroke-width: 1.0;"/><text fill="#888888" font-family="sans-serif" font-size="10" lengthAdjust="spacingAndGlyphs" textLength="182" x="81" y="163.668">UMLDoclet 2.0.7, PlantUML 1.2019.12</text><!--MD5=[0987621a0290de347171adbf83d8915d]
@startuml
    set namespaceSeparator none
    hide empty fields
    hide empty methods

    class "<size:14>QualitativeEigenschaftNotFoundException\n<size:10>de.unibremen.sfb.Exception" as de.unibremen.sfb.Exception.QualitativeEigenschaftNotFoundException [[QualitativeEigenschaftNotFoundException.html]]

    class "<size:14>Exception\n<size:10>java.lang" as java.lang.Exception [[https://docs.oracle.com/en/java/javase/11/docs/api/java.base/java/lang/Exception.html?is-external=true]]

    java.lang.Exception <|- - de.unibremen.sfb.Exception.QualitativeEigenschaftNotFoundException

    center footer UMLDoclet 2.0.7, PlantUML 1.2019.12
@enduml

PlantUML version 1.2019.12(Sun Nov 03 11:24:54 CET 2019)
(APACHE source distribution)
Java Runtime: Java(TM) SE Runtime Environment
JVM: Java HotSpot(TM) 64-Bit Server VM
Java Version: 13.0.1+9
Operating System: Mac OS X
Default Encoding: UTF-8
Language: de
Country: DE
--></g></svg>