<?xml version="1.0" encoding="UTF-8" standalone="no"?><svg xmlns="http://www.w3.org/2000/svg" xmlns:xlink="http://www.w3.org/1999/xlink" contentScriptType="application/ecmascript" contentStyleType="text/css" height="237px" preserveAspectRatio="none" style="width:281px;height:237px;" version="1.1" viewBox="0 0 281 237" width="281px" zoomAndPan="magnify"><defs><filter height="300%" id="fndmt700b6ri0" width="300%" x="-1" y="-1"><feGaussianBlur result="blurOut" stdDeviation="2.0"/><feColorMatrix in="blurOut" result="blurOut2" type="matrix" values="0 0 0 0 0 0 0 0 0 0 0 0 0 0 0 0 0 0 .4 0"/><feOffset dx="4.0" dy="4.0" in="blurOut2" result="blurOut3"/><feBlend in="SourceGraphic" in2="blurOut3" mode="normal"/></filter></defs><g><!--MD5=[1af2b5487d88088dd09a2659ca2c4c99]
class de.unibremen.sfb.controller.QuantitativeEigenschaftController--><a href="QuantitativeEigenschaftController.html" target="_top" title="QuantitativeEigenschaftController.html" xlink:actuate="onRequest" xlink:href="QuantitativeEigenschaftController.html" xlink:show="new" xlink:title="QuantitativeEigenschaftController.html" xlink:type="simple"><rect fill="#FEFECE" filter="url(#fndmt700b6ri0)" height="98.0859" id="de.unibremen.sfb.controller.QuantitativeEigenschaftController" style="stroke: #A80036; stroke-width: 1.5;" width="264" x="6" y="106"/><ellipse cx="21" cy="125.1328" fill="#ADD1B2" rx="11" ry="11" style="stroke: #A80036; stroke-width: 1.0;"/><path d="M23.4731,131.2759 Q22.8921,131.5747 22.2529,131.7241 Q21.6138,131.8735 20.9082,131.8735 Q18.4014,131.8735 17.0815,130.2217 Q15.7617,128.5698 15.7617,125.4487 Q15.7617,122.3193 17.0815,120.6675 Q18.4014,119.0156 20.9082,119.0156 Q21.6138,119.0156 22.2612,119.165 Q22.9087,119.3145 23.4731,119.6133 L23.4731,122.3359 Q22.8423,121.7549 22.2488,121.4851 Q21.6553,121.2153 21.0244,121.2153 Q19.6797,121.2153 18.9949,122.282 Q18.3101,123.3486 18.3101,125.4487 Q18.3101,127.5405 18.9949,128.6072 Q19.6797,129.6738 21.0244,129.6738 Q21.6553,129.6738 22.2488,129.4041 Q22.8423,129.1343 23.4731,128.5532 Z "/><text fill="#000000" font-family="sans-serif" font-size="14" lengthAdjust="spacingAndGlyphs" textLength="232" x="35" y="124.5352">QuantitativeEigenschaftController</text><text fill="#000000" font-family="sans-serif" font-size="10" lengthAdjust="spacingAndGlyphs" textLength="137" x="82.5" y="137.1563">de.unibremen.sfb.controller</text><line style="stroke: #A80036; stroke-width: 1.5;" x1="7" x2="269" y1="144.2656" y2="144.2656"/><ellipse cx="17" cy="155.2656" fill="#84BE84" rx="3" ry="3" style="stroke: #038048; stroke-width: 1.0;"/><text fill="#000000" font-family="sans-serif" font-size="11" lengthAdjust="spacingAndGlyphs" textLength="120" x="26" y="158.9004">setWert(Number): void</text><ellipse cx="17" cy="168.2207" fill="#84BE84" rx="3" ry="3" style="stroke: #038048; stroke-width: 1.0;"/><text fill="#000000" font-family="sans-serif" font-size="11" lengthAdjust="spacingAndGlyphs" textLength="98" x="26" y="171.8555">getWert(): Number</text><ellipse cx="17" cy="181.1758" fill="#84BE84" rx="3" ry="3" style="stroke: #038048; stroke-width: 1.0;"/><text fill="#000000" font-family="sans-serif" font-size="11" lengthAdjust="spacingAndGlyphs" textLength="98" x="26" y="184.8105">setEinheit(SI): void</text><ellipse cx="17" cy="194.1309" fill="#84BE84" rx="3" ry="3" style="stroke: #038048; stroke-width: 1.0;"/><text fill="#000000" font-family="sans-serif" font-size="11" lengthAdjust="spacingAndGlyphs" textLength="76" x="26" y="197.7656">getEinheit(): SI</text></a><!--MD5=[344d4e3397f33bdf82d611c592c47547]
class de.unibremen.sfb.controller.QualitativeEigenschaftController--><a href="QualitativeEigenschaftController.html" target="_top" title="QualitativeEigenschaftController.html" xlink:actuate="onRequest" xlink:href="QualitativeEigenschaftController.html" xlink:show="new" xlink:title="QualitativeEigenschaftController.html" xlink:type="simple"><rect fill="#FEFECE" filter="url(#fndmt700b6ri0)" height="38.2656" id="de.unibremen.sfb.controller.QualitativeEigenschaftController" style="stroke: #A80036; stroke-width: 1.5;" width="254" x="11" y="8"/><ellipse cx="26" cy="27.1328" fill="#ADD1B2" rx="11" ry="11" style="stroke: #A80036; stroke-width: 1.0;"/><path d="M28.4731,33.2759 Q27.8921,33.5747 27.2529,33.7241 Q26.6138,33.8735 25.9082,33.8735 Q23.4014,33.8735 22.0815,32.2217 Q20.7617,30.5698 20.7617,27.4487 Q20.7617,24.3193 22.0815,22.6675 Q23.4014,21.0156 25.9082,21.0156 Q26.6138,21.0156 27.2612,21.165 Q27.9087,21.3145 28.4731,21.6133 L28.4731,24.3359 Q27.8423,23.7549 27.2488,23.4851 Q26.6553,23.2153 26.0244,23.2153 Q24.6797,23.2153 23.9949,24.282 Q23.3101,25.3486 23.3101,27.4487 Q23.3101,29.5405 23.9949,30.6072 Q24.6797,31.6738 26.0244,31.6738 Q26.6553,31.6738 27.2488,31.4041 Q27.8423,31.1343 28.4731,30.5532 Z "/><text fill="#000000" font-family="sans-serif" font-size="14" lengthAdjust="spacingAndGlyphs" textLength="222" x="40" y="26.5352">QualitativeEigenschaftController</text><text fill="#000000" font-family="sans-serif" font-size="10" lengthAdjust="spacingAndGlyphs" textLength="137" x="82.5" y="39.1563">de.unibremen.sfb.controller</text></a><!--MD5=[91a27cb264fccbc702e908228c880251]
reverse link de.unibremen.sfb.controller.QualitativeEigenschaftController to de.unibremen.sfb.controller.QuantitativeEigenschaftController--><path d="M138,66.29 C138,78.74 138,92.72 138,105.8 " fill="none" id="de.unibremen.sfb.controller.QualitativeEigenschaftController&lt;-de.unibremen.sfb.controller.QuantitativeEigenschaftController" style="stroke: #A80036; stroke-width: 1.0;"/><polygon fill="none" points="131,66.05,138,46.05,145,66.05,131,66.05" style="stroke: #A80036; stroke-width: 1.0;"/><text fill="#888888" font-family="sans-serif" font-size="10" lengthAdjust="spacingAndGlyphs" textLength="182" x="53" y="223.668">UMLDoclet 2.0.7, PlantUML 1.2019.12</text><!--MD5=[88fe46241c2934dd198c2cbb4bc83da2]
@startuml
    set namespaceSeparator none
    hide empty fields
    hide empty methods

    class "<size:14>QuantitativeEigenschaftController\n<size:10>de.unibremen.sfb.controller" as de.unibremen.sfb.controller.QuantitativeEigenschaftController [[QuantitativeEigenschaftController.html]] {
        +setWert(Number): void
        +getWert(): Number
        +setEinheit(SI): void
        +getEinheit(): SI
    }

    class "<size:14>QualitativeEigenschaftController\n<size:10>de.unibremen.sfb.controller" as de.unibremen.sfb.controller.QualitativeEigenschaftController [[QualitativeEigenschaftController.html]]

    de.unibremen.sfb.controller.QualitativeEigenschaftController <|- - de.unibremen.sfb.controller.QuantitativeEigenschaftController

    center footer UMLDoclet 2.0.7, PlantUML 1.2019.12
@enduml

PlantUML version 1.2019.12(Sun Nov 03 11:24:54 CET 2019)
(APACHE source distribution)
Java Runtime: Java(TM) SE Runtime Environment
JVM: Java HotSpot(TM) 64-Bit Server VM
Java Version: 13.0.1+9
Operating System: Mac OS X
Default Encoding: UTF-8
Language: de
Country: DE
--></g></svg>