<?xml version="1.0" encoding="UTF-8" standalone="no"?><svg xmlns="http://www.w3.org/2000/svg" xmlns:xlink="http://www.w3.org/1999/xlink" contentScriptType="application/ecmascript" contentStyleType="text/css" height="297px" preserveAspectRatio="none" style="width:248px;height:297px;" version="1.1" viewBox="0 0 248 297" width="248px" zoomAndPan="magnify"><defs><filter height="300%" id="fyxgvxs85to1i" width="300%" x="-1" y="-1"><feGaussianBlur result="blurOut" stdDeviation="2.0"/><feColorMatrix in="blurOut" result="blurOut2" type="matrix" values="0 0 0 0 0 0 0 0 0 0 0 0 0 0 0 0 0 0 .4 0"/><feOffset dx="4.0" dy="4.0" in="blurOut2" result="blurOut3"/><feBlend in="SourceGraphic" in2="blurOut3" mode="normal"/></filter></defs><g><!--MD5=[6e6ff2d05a68391e1ca586bf3cb1e4a3]
class de.unibremen.sfb.persistence.psvDAO--><a href="psvDAO.html" target="_top" title="StandortDAO.html" xlink:actuate="onRequest" xlink:href="StandortDAO.html" xlink:show="new" xlink:title="StandortDAO.html" xlink:type="simple"><rect fill="#FEFECE" filter="url(#fyxgvxs85to1i)" height="111.041" id="de.unibremen.sfb.persistence.StandortDAO" style="stroke: #A80036; stroke-width: 1.5;" width="176" x="32" y="153"/><ellipse cx="47" cy="172.1328" fill="#ADD1B2" rx="11" ry="11" style="stroke: #A80036; stroke-width: 1.0;"/><path d="M49.4731,178.2759 Q48.8921,178.5747 48.2529,178.7241 Q47.6138,178.8735 46.9082,178.8735 Q44.4014,178.8735 43.0815,177.2217 Q41.7617,175.5698 41.7617,172.4487 Q41.7617,169.3193 43.0815,167.6675 Q44.4014,166.0156 46.9082,166.0156 Q47.6138,166.0156 48.2612,166.165 Q48.9087,166.3145 49.4731,166.6133 L49.4731,169.3359 Q48.8423,168.7549 48.2488,168.4851 Q47.6553,168.2153 47.0244,168.2153 Q45.6797,168.2153 44.9949,169.282 Q44.3101,170.3486 44.3101,172.4487 Q44.3101,174.5405 44.9949,175.6072 Q45.6797,176.6738 47.0244,176.6738 Q47.6553,176.6738 48.2488,176.4041 Q48.8423,176.1343 49.4731,175.5532 Z "/><text fill="#000000" font-family="sans-serif" font-size="14" lengthAdjust="spacingAndGlyphs" textLength="90" x="88" y="171.5352">StandortDAO</text><text fill="#000000" font-family="sans-serif" font-size="10" lengthAdjust="spacingAndGlyphs" textLength="144" x="61" y="184.1563">de.unibremen.sfb.persistence</text><line style="stroke: #A80036; stroke-width: 1.5;" x1="33" x2="207" y1="191.2656" y2="191.2656"/><ellipse cx="43" cy="202.2656" fill="#84BE84" rx="3" ry="3" style="stroke: #038048; stroke-width: 1.0;"/><text fill="#000000" font-family="sans-serif" font-size="11" lengthAdjust="spacingAndGlyphs" textLength="120" x="52" y="205.9004">persist(Standort): void</text><ellipse cx="43" cy="215.2207" fill="#84BE84" rx="3" ry="3" style="stroke: #038048; stroke-width: 1.0;"/><text fill="#000000" font-family="sans-serif" font-size="11" lengthAdjust="spacingAndGlyphs" textLength="120" x="52" y="218.8555">update(Standort): void</text><ellipse cx="43" cy="228.1758" fill="#84BE84" rx="3" ry="3" style="stroke: #038048; stroke-width: 1.0;"/><text fill="#000000" font-family="sans-serif" font-size="11" lengthAdjust="spacingAndGlyphs" textLength="123" x="52" y="231.8105">remove(Standort): void</text><ellipse cx="43" cy="241.1309" fill="#84BE84" rx="3" ry="3" style="stroke: #038048; stroke-width: 1.0;"/><text fill="#000000" font-family="sans-serif" font-size="11" lengthAdjust="spacingAndGlyphs" textLength="124" x="52" y="244.7656">get(): Class&lt;Standort&gt;</text><ellipse cx="43" cy="254.0859" fill="#84BE84" rx="3" ry="3" style="stroke: #038048; stroke-width: 1.0;"/><text fill="#000000" font-family="sans-serif" font-size="11" lengthAdjust="spacingAndGlyphs" textLength="132" x="52" y="257.7207">getObjById(int): Standort</text></a><!--MD5=[c2518cd8a4e20c7ae6025dfd14468712]
class de.unibremen.sfb.persistence.ObjectDAO--><a href="ObjectDAO.html" target="_top" title="ObjectDAO.html" xlink:actuate="onRequest" xlink:href="ObjectDAO.html" xlink:show="new" xlink:title="ObjectDAO.html" xlink:type="simple"><rect fill="#FEFECE" filter="url(#fyxgvxs85to1i)" height="85.1309" id="de.unibremen.sfb.persistence.ObjectDAO" style="stroke: #A80036; stroke-width: 1.5;" width="228" x="6" y="8"/><ellipse cx="21" cy="27.1328" fill="#A9DCDF" rx="11" ry="11" style="stroke: #A80036; stroke-width: 1.0;"/><path d="M21.1133,22.731 L19.9595,27.8027 L22.2754,27.8027 Z M19.6191,20.4897 L22.6157,20.4897 L25.9609,32.8828 L23.5122,32.8828 L22.7485,29.8198 L19.4697,29.8198 L18.7227,32.8828 L16.2739,32.8828 Z "/><text fill="#000000" font-family="sans-serif" font-size="14" font-style="italic" lengthAdjust="spacingAndGlyphs" textLength="75" x="69.5" y="26.5352">ObjectDAO</text><text fill="#000000" font-family="sans-serif" font-size="10" font-style="italic" lengthAdjust="spacingAndGlyphs" textLength="144" x="35" y="39.1563">de.unibremen.sfb.persistence</text><rect fill="#FFFFFF" height="16.1328" style="stroke: #000000; stroke-width: 1.0; stroke-dasharray: 2.0,2.0;" width="50" x="187" y="5"/><text fill="#000000" font-family="sans-serif" font-size="12" font-style="italic" lengthAdjust="spacingAndGlyphs" textLength="48" x="188" y="17.6016">Standort</text><line style="stroke: #A80036; stroke-width: 1.5;" x1="7" x2="233" y1="46.2656" y2="46.2656"/><ellipse cx="17" cy="57.2656" fill="#84BE84" rx="3" ry="3" style="stroke: #038048; stroke-width: 1.0;"/><text fill="#000000" font-family="sans-serif" font-size="11" font-style="italic" lengthAdjust="spacingAndGlyphs" textLength="120" x="26" y="60.9004">persist(Standort): void</text><ellipse cx="17" cy="70.2207" fill="#84BE84" rx="3" ry="3" style="stroke: #038048; stroke-width: 1.0;"/><text fill="#000000" font-family="sans-serif" font-size="11" font-style="italic" lengthAdjust="spacingAndGlyphs" textLength="120" x="26" y="73.8555">update(Standort): void</text><ellipse cx="17" cy="83.1758" fill="#84BE84" rx="3" ry="3" style="stroke: #038048; stroke-width: 1.0;"/><text fill="#000000" font-family="sans-serif" font-size="11" font-style="italic" lengthAdjust="spacingAndGlyphs" textLength="123" x="26" y="86.8105">remove(Standort): void</text></a><!--MD5=[372deb2cce21591171ac0d8a1951b220]
reverse link de.unibremen.sfb.persistence.ObjectDAO to de.unibremen.sfb.persistence.StandortDAO--><path d="M120,113.65 C120,126.65 120,140.25 120,152.94 " fill="none" id="de.unibremen.sfb.persistence.ObjectDAO&lt;-de.unibremen.sfb.persistence.StandortDAO" style="stroke: #A80036; stroke-width: 1.0;"/><polygon fill="none" points="113,113.31,120,93.31,127,113.31,113,113.31" style="stroke: #A80036; stroke-width: 1.0;"/><text fill="#888888" font-family="sans-serif" font-size="10" lengthAdjust="spacingAndGlyphs" textLength="182" x="35" y="283.668">UMLDoclet 2.0.7, PlantUML 1.2019.12</text><!--MD5=[ab477104cf860755e6b759d597b4299d]
@startuml
    set namespaceSeparator none
    hide empty fields
    hide empty methods

    class "<size:14>StandortDAO\n<size:10>de.unibremen.sfb.persistence" as de.unibremen.sfb.persistence.StandortDAO [[StandortDAO.html]] {
        +persist(Standort): void
        +update(Standort): void
        +remove(Standort): void
        +get(): Class<Standort>
        +getObjById(int): Standort
    }

    abstract class "<size:14>ObjectDAO\n<size:10>de.unibremen.sfb.persistence" as de.unibremen.sfb.persistence.ObjectDAO<Standort> [[ObjectDAO.html]] {
        {abstract} +persist(Standort): void
        {abstract} +update(Standort): void
        {abstract} +remove(Standort): void
    }

    de.unibremen.sfb.persistence.ObjectDAO <|- - de.unibremen.sfb.persistence.StandortDAO

    center footer UMLDoclet 2.0.7, PlantUML 1.2019.12
@enduml

PlantUML version 1.2019.12(Sun Nov 03 11:24:54 CET 2019)
(APACHE source distribution)
Java Runtime: Java(TM) SE Runtime Environment
JVM: Java HotSpot(TM) 64-Bit Server VM
Java Version: 13.0.1+9
Operating System: Mac OS X
Default Encoding: UTF-8
Language: de
Country: DE
--></g></svg>