<?xml version="1.0" encoding="UTF-8" standalone="no"?><svg xmlns="http://www.w3.org/2000/svg" xmlns:xlink="http://www.w3.org/1999/xlink" contentScriptType="application/ecmascript" contentStyleType="text/css" height="323px" preserveAspectRatio="none" style="width:246px;height:323px;" version="1.1" viewBox="0 0 246 323" width="246px" zoomAndPan="magnify"><defs><filter height="300%" id="fetr7w7nethbx" width="300%" x="-1" y="-1"><feGaussianBlur result="blurOut" stdDeviation="2.0"/><feColorMatrix in="blurOut" result="blurOut2" type="matrix" values="0 0 0 0 0 0 0 0 0 0 0 0 0 0 0 0 0 0 .4 0"/><feOffset dx="4.0" dy="4.0" in="blurOut2" result="blurOut3"/><feBlend in="SourceGraphic" in2="blurOut3" mode="normal"/></filter></defs><g><!--MD5=[6ee07e421d3bf18f35b5f3de25975954]
class de.unibremen.sfb.Persistence.TraegerDAO--><a href="TraegerDAO.html" target="_top" title="TraegerDAO.html" xlink:actuate="onRequest" xlink:href="TraegerDAO.html" xlink:show="new" xlink:title="TraegerDAO.html" xlink:type="simple"><rect fill="#FEFECE" filter="url(#fetr7w7nethbx)" height="136.9512" id="de.unibremen.sfb.Persistence.TraegerDAO" style="stroke: #A80036; stroke-width: 1.5;" width="176" x="31" y="153"/><ellipse cx="46" cy="172.1328" fill="#ADD1B2" rx="11" ry="11" style="stroke: #A80036; stroke-width: 1.0;"/><path d="M48.4731,178.2759 Q47.8921,178.5747 47.2529,178.7241 Q46.6138,178.8735 45.9082,178.8735 Q43.4014,178.8735 42.0815,177.2217 Q40.7617,175.5698 40.7617,172.4487 Q40.7617,169.3193 42.0815,167.6675 Q43.4014,166.0156 45.9082,166.0156 Q46.6138,166.0156 47.2612,166.165 Q47.9087,166.3145 48.4731,166.6133 L48.4731,169.3359 Q47.8423,168.7549 47.2488,168.4851 Q46.6553,168.2153 46.0244,168.2153 Q44.6797,168.2153 43.9949,169.282 Q43.3101,170.3486 43.3101,172.4487 Q43.3101,174.5405 43.9949,175.6072 Q44.6797,176.6738 46.0244,176.6738 Q46.6553,176.6738 47.2488,176.4041 Q47.8423,176.1343 48.4731,175.5532 Z "/><text fill="#000000" font-family="sans-serif" font-size="14" lengthAdjust="spacingAndGlyphs" textLength="85" x="89.5" y="171.5352">TraegerDAO</text><text fill="#000000" font-family="sans-serif" font-size="10" lengthAdjust="spacingAndGlyphs" textLength="144" x="60" y="184.1563">de.unibremen.sfb.Persistence</text><line style="stroke: #A80036; stroke-width: 1.5;" x1="32" x2="206" y1="191.2656" y2="191.2656"/><ellipse cx="42" cy="202.2656" fill="#84BE84" rx="3" ry="3" style="stroke: #038048; stroke-width: 1.0;"/><text fill="#000000" font-family="sans-serif" font-size="11" lengthAdjust="spacingAndGlyphs" textLength="116" x="51" y="205.9004">persist(Traeger): void</text><ellipse cx="42" cy="215.2207" fill="#84BE84" rx="3" ry="3" style="stroke: #038048; stroke-width: 1.0;"/><text fill="#000000" font-family="sans-serif" font-size="11" lengthAdjust="spacingAndGlyphs" textLength="116" x="51" y="218.8555">update(Traeger): void</text><ellipse cx="42" cy="228.1758" fill="#84BE84" rx="3" ry="3" style="stroke: #038048; stroke-width: 1.0;"/><text fill="#000000" font-family="sans-serif" font-size="11" lengthAdjust="spacingAndGlyphs" textLength="119" x="51" y="231.8105">remove(Traeger): void</text><ellipse cx="42" cy="241.1309" fill="#84BE84" rx="3" ry="3" style="stroke: #038048; stroke-width: 1.0;"/><text fill="#000000" font-family="sans-serif" font-size="11" lengthAdjust="spacingAndGlyphs" textLength="120" x="51" y="244.7656">get(): Class&lt;Traeger&gt;</text><ellipse cx="42" cy="254.0859" fill="#84BE84" rx="3" ry="3" style="stroke: #038048; stroke-width: 1.0;"/><text fill="#000000" font-family="sans-serif" font-size="11" lengthAdjust="spacingAndGlyphs" textLength="128" x="51" y="257.7207">getObjById(int): Traeger</text><ellipse cx="42" cy="267.041" fill="#84BE84" rx="3" ry="3" style="stroke: #038048; stroke-width: 1.0;"/><text fill="#000000" font-family="sans-serif" font-size="11" lengthAdjust="spacingAndGlyphs" textLength="123" x="51" y="270.6758">getLocation(): Standort</text><ellipse cx="42" cy="279.9961" fill="#84BE84" rx="3" ry="3" style="stroke: #038048; stroke-width: 1.0;"/><text fill="#000000" font-family="sans-serif" font-size="11" lengthAdjust="spacingAndGlyphs" textLength="137" x="51" y="283.6309">getProben(): List&lt;Probe&gt;</text></a><!--MD5=[c2518cd8a4e20c7ae6025dfd14468712]
class de.unibremen.sfb.Persistence.ObjectDAO--><a href="ObjectDAO.html" target="_top" title="ObjectDAO.html" xlink:actuate="onRequest" xlink:href="ObjectDAO.html" xlink:show="new" xlink:title="ObjectDAO.html" xlink:type="simple"><rect fill="#FEFECE" filter="url(#fetr7w7nethbx)" height="85.1309" id="de.unibremen.sfb.Persistence.ObjectDAO" style="stroke: #A80036; stroke-width: 1.5;" width="226" x="6" y="8"/><ellipse cx="21" cy="27.1328" fill="#A9DCDF" rx="11" ry="11" style="stroke: #A80036; stroke-width: 1.0;"/><path d="M21.1133,22.731 L19.9595,27.8027 L22.2754,27.8027 Z M19.6191,20.4897 L22.6157,20.4897 L25.9609,32.8828 L23.5122,32.8828 L22.7485,29.8198 L19.4697,29.8198 L18.7227,32.8828 L16.2739,32.8828 Z "/><text fill="#000000" font-family="sans-serif" font-size="14" font-style="italic" lengthAdjust="spacingAndGlyphs" textLength="75" x="69.5" y="26.5352">ObjectDAO</text><text fill="#000000" font-family="sans-serif" font-size="10" font-style="italic" lengthAdjust="spacingAndGlyphs" textLength="144" x="35" y="39.1563">de.unibremen.sfb.Persistence</text><rect fill="#FFFFFF" height="16.1328" style="stroke: #000000; stroke-width: 1.0; stroke-dasharray: 2.0,2.0;" width="48" x="187" y="5"/><text fill="#000000" font-family="sans-serif" font-size="12" font-style="italic" lengthAdjust="spacingAndGlyphs" textLength="46" x="188" y="17.6016">Traeger</text><line style="stroke: #A80036; stroke-width: 1.5;" x1="7" x2="231" y1="46.2656" y2="46.2656"/><ellipse cx="17" cy="57.2656" fill="#84BE84" rx="3" ry="3" style="stroke: #038048; stroke-width: 1.0;"/><text fill="#000000" font-family="sans-serif" font-size="11" font-style="italic" lengthAdjust="spacingAndGlyphs" textLength="116" x="26" y="60.9004">persist(Traeger): void</text><ellipse cx="17" cy="70.2207" fill="#84BE84" rx="3" ry="3" style="stroke: #038048; stroke-width: 1.0;"/><text fill="#000000" font-family="sans-serif" font-size="11" font-style="italic" lengthAdjust="spacingAndGlyphs" textLength="116" x="26" y="73.8555">update(Traeger): void</text><ellipse cx="17" cy="83.1758" fill="#84BE84" rx="3" ry="3" style="stroke: #038048; stroke-width: 1.0;"/><text fill="#000000" font-family="sans-serif" font-size="11" font-style="italic" lengthAdjust="spacingAndGlyphs" textLength="119" x="26" y="86.8105">remove(Traeger): void</text></a><!--MD5=[f8fdd51011c0c3faa98eb51f103f6760]
reverse link de.unibremen.sfb.Persistence.ObjectDAO to de.unibremen.sfb.Persistence.TraegerDAO--><path d="M119,113.33 C119,126.2 119,139.83 119,152.9 " fill="none" id="de.unibremen.sfb.Persistence.ObjectDAO&lt;-de.unibremen.sfb.Persistence.TraegerDAO" style="stroke: #A80036; stroke-width: 1.0;"/><polygon fill="none" points="112,113.28,119,93.28,126,113.28,112,113.28" style="stroke: #A80036; stroke-width: 1.0;"/><text fill="#888888" font-family="sans-serif" font-size="10" lengthAdjust="spacingAndGlyphs" textLength="182" x="34" y="309.668">UMLDoclet 2.0.7, PlantUML 1.2019.12</text><!--MD5=[d298d44b1457a2f9f7f39e8a3203cbf0]
@startuml
    set namespaceSeparator none
    hide empty fields
    hide empty methods

    class "<size:14>TraegerDAO\n<size:10>de.unibremen.sfb.Persistence" as de.unibremen.sfb.Persistence.TraegerDAO [[TraegerDAO.html]] {
        +persist(Traeger): void
        +update(Traeger): void
        +remove(Traeger): void
        +get(): Class<Traeger>
        +getObjById(int): Traeger
        +getLocation(): Standort
        +getProben(): List<Probe>
    }

    abstract class "<size:14>ObjectDAO\n<size:10>de.unibremen.sfb.Persistence" as de.unibremen.sfb.Persistence.ObjectDAO<Traeger> [[ObjectDAO.html]] {
        {abstract} +persist(Traeger): void
        {abstract} +update(Traeger): void
        {abstract} +remove(Traeger): void
    }

    de.unibremen.sfb.Persistence.ObjectDAO <|- - de.unibremen.sfb.Persistence.TraegerDAO

    center footer UMLDoclet 2.0.7, PlantUML 1.2019.12
@enduml

PlantUML version 1.2019.12(Sun Nov 03 11:24:54 CET 2019)
(APACHE source distribution)
Java Runtime: Java(TM) SE Runtime Environment
JVM: Java HotSpot(TM) 64-Bit Server VM
Java Version: 13.0.1+9
Operating System: Mac OS X
Default Encoding: UTF-8
Language: de
Country: DE
--></g></svg>