<?xml version="1.0" encoding="UTF-8" standalone="no"?><svg xmlns="http://www.w3.org/2000/svg" xmlns:xlink="http://www.w3.org/1999/xlink" contentScriptType="application/ecmascript" contentStyleType="text/css" height="284px" preserveAspectRatio="none" style="width:263px;height:284px;" version="1.1" viewBox="0 0 263 284" width="263px" zoomAndPan="magnify"><defs><filter height="300%" id="fycglif2cwtlg" width="300%" x="-1" y="-1"><feGaussianBlur result="blurOut" stdDeviation="2.0"/><feColorMatrix in="blurOut" result="blurOut2" type="matrix" values="0 0 0 0 0 0 0 0 0 0 0 0 0 0 0 0 0 0 .4 0"/><feOffset dx="4.0" dy="4.0" in="blurOut2" result="blurOut3"/><feBlend in="SourceGraphic" in2="blurOut3" mode="normal"/></filter></defs><g><!--MD5=[1c875b96ea0aa7217968b7a5479985cd]
class de.unibremen.sfb.persistence.TraegerArtDAO--><a href="TraegerArtDAO.html" target="_top" title="TraegerArtDAO.html" xlink:actuate="onRequest" xlink:href="TraegerArtDAO.html" xlink:show="new" xlink:title="TraegerArtDAO.html" xlink:type="simple"><rect fill="#FEFECE" filter="url(#fycglif2cwtlg)" height="98.0859" id="de.unibremen.sfb.persistence.TraegerArtDAO" style="stroke: #A80036; stroke-width: 1.5;" width="176" x="39.5" y="153"/><ellipse cx="54.5" cy="172.1328" fill="#ADD1B2" rx="11" ry="11" style="stroke: #A80036; stroke-width: 1.0;"/><path d="M56.9731,178.2759 Q56.3921,178.5747 55.7529,178.7241 Q55.1138,178.8735 54.4082,178.8735 Q51.9014,178.8735 50.5815,177.2217 Q49.2617,175.5698 49.2617,172.4487 Q49.2617,169.3193 50.5815,167.6675 Q51.9014,166.0156 54.4082,166.0156 Q55.1138,166.0156 55.7612,166.165 Q56.4087,166.3145 56.9731,166.6133 L56.9731,169.3359 Q56.3423,168.7549 55.7488,168.4851 Q55.1553,168.2153 54.5244,168.2153 Q53.1797,168.2153 52.4949,169.282 Q51.8101,170.3486 51.8101,172.4487 Q51.8101,174.5405 52.4949,175.6072 Q53.1797,176.6738 54.5244,176.6738 Q55.1553,176.6738 55.7488,176.4041 Q56.3423,176.1343 56.9731,175.5532 Z "/><text fill="#000000" font-family="sans-serif" font-size="14" lengthAdjust="spacingAndGlyphs" textLength="106" x="87.5" y="171.5352">TraegerArtDAO</text><text fill="#000000" font-family="sans-serif" font-size="10" lengthAdjust="spacingAndGlyphs" textLength="144" x="68.5" y="184.1563">de.unibremen.sfb.persistence</text><line style="stroke: #A80036; stroke-width: 1.5;" x1="40.5" x2="214.5" y1="191.2656" y2="191.2656"/><ellipse cx="50.5" cy="202.2656" fill="#84BE84" rx="3" ry="3" style="stroke: #038048; stroke-width: 1.0;"/><text fill="#000000" font-family="sans-serif" font-size="11" lengthAdjust="spacingAndGlyphs" textLength="133" x="59.5" y="205.9004">persist(TraegerArt): void</text><ellipse cx="50.5" cy="215.2207" fill="#84BE84" rx="3" ry="3" style="stroke: #038048; stroke-width: 1.0;"/><text fill="#000000" font-family="sans-serif" font-size="11" lengthAdjust="spacingAndGlyphs" textLength="133" x="59.5" y="218.8555">update(TraegerArt): void</text><ellipse cx="50.5" cy="228.1758" fill="#84BE84" rx="3" ry="3" style="stroke: #038048; stroke-width: 1.0;"/><text fill="#000000" font-family="sans-serif" font-size="11" lengthAdjust="spacingAndGlyphs" textLength="136" x="59.5" y="231.8105">remove(TraegerArt): void</text><ellipse cx="50.5" cy="241.1309" fill="#84BE84" rx="3" ry="3" style="stroke: #038048; stroke-width: 1.0;"/><text fill="#000000" font-family="sans-serif" font-size="11" lengthAdjust="spacingAndGlyphs" textLength="137" x="59.5" y="244.7656">get(): Class&lt;TraegerArt&gt;</text></a><!--MD5=[c2518cd8a4e20c7ae6025dfd14468712]
class de.unibremen.sfb.persistence.ObjectDAO--><a href="ObjectDAO.html" target="_top" title="ObjectDAO.html" xlink:actuate="onRequest" xlink:href="ObjectDAO.html" xlink:show="new" xlink:title="ObjectDAO.html" xlink:type="simple"><rect fill="#FEFECE" filter="url(#fycglif2cwtlg)" height="85.1309" id="de.unibremen.sfb.persistence.ObjectDAO" style="stroke: #A80036; stroke-width: 1.5;" width="243" x="6" y="8"/><ellipse cx="21" cy="27.1328" fill="#A9DCDF" rx="11" ry="11" style="stroke: #A80036; stroke-width: 1.0;"/><path d="M21.1133,22.731 L19.9595,27.8027 L22.2754,27.8027 Z M19.6191,20.4897 L22.6157,20.4897 L25.9609,32.8828 L23.5122,32.8828 L22.7485,29.8198 L19.4697,29.8198 L18.7227,32.8828 L16.2739,32.8828 Z "/><text fill="#000000" font-family="sans-serif" font-size="14" font-style="italic" lengthAdjust="spacingAndGlyphs" textLength="75" x="69.5" y="26.5352">ObjectDAO</text><text fill="#000000" font-family="sans-serif" font-size="10" font-style="italic" lengthAdjust="spacingAndGlyphs" textLength="144" x="35" y="39.1563">de.unibremen.sfb.persistence</text><rect fill="#FFFFFF" height="16.1328" style="stroke: #000000; stroke-width: 1.0; stroke-dasharray: 2.0,2.0;" width="65" x="187" y="5"/><text fill="#000000" font-family="sans-serif" font-size="12" font-style="italic" lengthAdjust="spacingAndGlyphs" textLength="63" x="188" y="17.6016">TraegerArt</text><line style="stroke: #A80036; stroke-width: 1.5;" x1="7" x2="248" y1="46.2656" y2="46.2656"/><ellipse cx="17" cy="57.2656" fill="#84BE84" rx="3" ry="3" style="stroke: #038048; stroke-width: 1.0;"/><text fill="#000000" font-family="sans-serif" font-size="11" font-style="italic" lengthAdjust="spacingAndGlyphs" textLength="133" x="26" y="60.9004">persist(TraegerArt): void</text><ellipse cx="17" cy="70.2207" fill="#84BE84" rx="3" ry="3" style="stroke: #038048; stroke-width: 1.0;"/><text fill="#000000" font-family="sans-serif" font-size="11" font-style="italic" lengthAdjust="spacingAndGlyphs" textLength="133" x="26" y="73.8555">update(TraegerArt): void</text><ellipse cx="17" cy="83.1758" fill="#84BE84" rx="3" ry="3" style="stroke: #038048; stroke-width: 1.0;"/><text fill="#000000" font-family="sans-serif" font-size="11" font-style="italic" lengthAdjust="spacingAndGlyphs" textLength="136" x="26" y="86.8105">remove(TraegerArt): void</text></a><!--MD5=[19b6f1b8c7808f9ce8717d2b3157e5aa]
reverse link de.unibremen.sfb.persistence.ObjectDAO to de.unibremen.sfb.persistence.TraegerArtDAO--><path d="M127.5,113.26 C127.5,126.52 127.5,140.34 127.5,152.98 " fill="none" id="de.unibremen.sfb.persistence.ObjectDAO&lt;-de.unibremen.sfb.persistence.TraegerArtDAO" style="stroke: #A80036; stroke-width: 1.0;"/><polygon fill="none" points="120.5,113.14,127.5,93.14,134.5,113.14,120.5,113.14" style="stroke: #A80036; stroke-width: 1.0;"/><text fill="#888888" font-family="sans-serif" font-size="10" lengthAdjust="spacingAndGlyphs" textLength="182" x="42.5" y="270.668">UMLDoclet 2.0.7, PlantUML 1.2019.12</text><!--MD5=[fd611edddec9b913c434bfa4ebca60c0]
@startuml
    set namespaceSeparator none
    hide empty fields
    hide empty methods

    class "<size:14>TraegerArtDAO\n<size:10>de.unibremen.sfb.persistence" as de.unibremen.sfb.persistence.TraegerArtDAO [[TraegerArtDAO.html]] {
        +persist(TraegerArt): void
        +update(TraegerArt): void
        +remove(TraegerArt): void
        +get(): Class<TraegerArt>
    }

    abstract class "<size:14>ObjectDAO\n<size:10>de.unibremen.sfb.persistence" as de.unibremen.sfb.persistence.ObjectDAO<TraegerArt> [[ObjectDAO.html]] {
        {abstract} +persist(TraegerArt): void
        {abstract} +update(TraegerArt): void
        {abstract} +remove(TraegerArt): void
    }

    de.unibremen.sfb.persistence.ObjectDAO <|- - de.unibremen.sfb.persistence.TraegerArtDAO

    center footer UMLDoclet 2.0.7, PlantUML 1.2019.12
@enduml

PlantUML version 1.2019.12(Sun Nov 03 11:24:54 CET 2019)
(APACHE source distribution)
Java Runtime: Java(TM) SE Runtime Environment
JVM: Java HotSpot(TM) 64-Bit Server VM
Java Version: 13.0.1+9
Operating System: Mac OS X
Default Encoding: UTF-8
Language: de
Country: DE
--></g></svg>