<?xml version="1.0" encoding="UTF-8" standalone="no"?><svg xmlns="http://www.w3.org/2000/svg" xmlns:xlink="http://www.w3.org/1999/xlink" contentScriptType="application/ecmascript" contentStyleType="text/css" height="143px" preserveAspectRatio="none" style="width:210px;height:143px;" version="1.1" viewBox="0 0 210 143" width="210px" zoomAndPan="magnify"><defs><filter height="300%" id="fj4e3y8mwgfhg" width="300%" x="-1" y="-1"><feGaussianBlur result="blurOut" stdDeviation="2.0"/><feColorMatrix in="blurOut" result="blurOut2" type="matrix" values="0 0 0 0 0 0 0 0 0 0 0 0 0 0 0 0 0 0 .4 0"/><feOffset dx="4.0" dy="4.0" in="blurOut2" result="blurOut3"/><feBlend in="SourceGraphic" in2="blurOut3" mode="normal"/></filter></defs><g><!--MD5=[b73a63f74d013b3f5440bab8a6f4a928]
class de.unibremen.sfb.controller.TransporterBean--><a href="TransporterBean.html" target="_top" title="TransporterBean.html" xlink:actuate="onRequest" xlink:href="TransporterBean.html" xlink:show="new" xlink:title="TransporterBean.html" xlink:type="simple"><rect fill="#FEFECE" filter="url(#fj4e3y8mwgfhg)" height="106.0859" id="de.unibremen.sfb.controller.TransporterBean" style="stroke: #A80036; stroke-width: 1.5;" width="192" x="7" y="7"/><ellipse cx="32.35" cy="26.1328" fill="#ADD1B2" rx="11" ry="11" style="stroke: #A80036; stroke-width: 1.0;"/><path d="M34.8231,32.2759 Q34.2421,32.5747 33.6029,32.7241 Q32.9638,32.8735 32.2582,32.8735 Q29.7514,32.8735 28.4315,31.2217 Q27.1117,29.5698 27.1117,26.4487 Q27.1117,23.3193 28.4315,21.6675 Q29.7514,20.0156 32.2582,20.0156 Q32.9638,20.0156 33.6112,20.165 Q34.2587,20.3145 34.8231,20.6133 L34.8231,23.3359 Q34.1923,22.7549 33.5988,22.4851 Q33.0053,22.2153 32.3744,22.2153 Q31.0297,22.2153 30.3449,23.282 Q29.6601,24.3486 29.6601,26.4487 Q29.6601,28.5405 30.3449,29.6072 Q31.0297,30.6738 32.3744,30.6738 Q33.0053,30.6738 33.5988,30.4041 Q34.1923,30.1343 34.8231,29.5532 Z "/><text fill="#000000" font-family="sans-serif" font-size="14" lengthAdjust="spacingAndGlyphs" textLength="115" x="59.65" y="25.5352">TransporterBean</text><text fill="#000000" font-family="sans-serif" font-size="10" lengthAdjust="spacingAndGlyphs" textLength="137" x="48.65" y="38.1563">de.unibremen.sfb.controller</text><line style="stroke: #A80036; stroke-width: 1.5;" x1="8" x2="198" y1="45.2656" y2="45.2656"/><ellipse cx="18" cy="56.2656" fill="none" rx="3" ry="3" style="stroke: #038048; stroke-width: 1.0;"/><text fill="#000000" font-family="sans-serif" font-size="11" lengthAdjust="spacingAndGlyphs" textLength="93" x="27" y="59.9004">transporter: User</text><line style="stroke: #A80036; stroke-width: 1.5;" x1="8" x2="198" y1="66.2207" y2="66.2207"/><ellipse cx="18" cy="77.2207" fill="#84BE84" rx="3" ry="3" style="stroke: #038048; stroke-width: 1.0;"/><text fill="#000000" font-family="sans-serif" font-size="11" lengthAdjust="spacingAndGlyphs" textLength="166" x="27" y="80.8555">getAuftragList(): Set&lt;Auftrag&gt;</text><ellipse cx="18" cy="90.1758" fill="#84BE84" rx="3" ry="3" style="stroke: #038048; stroke-width: 1.0;"/><text fill="#000000" font-family="sans-serif" font-size="11" lengthAdjust="spacingAndGlyphs" textLength="156" x="27" y="93.8105">reportLostProbe(Probe): void</text><ellipse cx="18" cy="103.1309" fill="#84BE84" rx="3" ry="3" style="stroke: #038048; stroke-width: 1.0;"/><text fill="#000000" font-family="sans-serif" font-size="11" lengthAdjust="spacingAndGlyphs" textLength="139" x="27" y="106.7656">reportLostProbe(int): void</text></a><text fill="#888888" font-family="sans-serif" font-size="10" lengthAdjust="spacingAndGlyphs" textLength="182" x="12" y="129.7539">UMLDoclet 2.0.7, PlantUML 1.2019.12</text><!--MD5=[998ce382fe778693415844340d83e24b]
@startuml
    set namespaceSeparator none
    hide empty fields
    hide empty methods

    class "<size:14>TransporterBean\n<size:10>de.unibremen.sfb.controller" as de.unibremen.sfb.controller.TransporterBean [[TransporterBean.html]] {
        +transporter: User
        +getAuftragList(): Set<Auftrag>
        +reportLostProbe(Probe): void
        +reportLostProbe(int): void
    }

    center footer UMLDoclet 2.0.7, PlantUML 1.2019.12
@enduml

PlantUML version 1.2019.12(Sun Nov 03 11:24:54 CET 2019)
(APACHE source distribution)
Java Runtime: Java(TM) SE Runtime Environment
JVM: Java HotSpot(TM) 64-Bit Server VM
Java Version: 13.0.1+9
Operating System: Mac OS X
Default Encoding: UTF-8
Language: de
Country: DE
--></g></svg>