<?xml version="1.0" encoding="UTF-8" standalone="no"?><svg xmlns="http://www.w3.org/2000/svg" xmlns:xlink="http://www.w3.org/1999/xlink" contentScriptType="application/ecmascript" contentStyleType="text/css" height="323px" preserveAspectRatio="none" style="width:226px;height:323px;" version="1.1" viewBox="0 0 226 323" width="226px" zoomAndPan="magnify"><defs><filter height="300%" id="f1f28mzgkqym4k" width="300%" x="-1" y="-1"><feGaussianBlur result="blurOut" stdDeviation="2.0"/><feColorMatrix in="blurOut" result="blurOut2" type="matrix" values="0 0 0 0 0 0 0 0 0 0 0 0 0 0 0 0 0 0 .4 0"/><feOffset dx="4.0" dy="4.0" in="blurOut2" result="blurOut3"/><feBlend in="SourceGraphic" in2="blurOut3" mode="normal"/></filter></defs><g><!--MD5=[103a9bcd7b0c62d322e6ae2b027098d3]
class de.unibremen.sfb.persistence.UserDAO--><a href="UserDAO.html" target="_top" title="UserDAO.html" xlink:actuate="onRequest" xlink:href="UserDAO.html" xlink:show="new" xlink:title="UserDAO.html" xlink:type="simple"><rect fill="#FEFECE" filter="url(#f1f28mzgkqym4k)" height="136.9512" id="de.unibremen.sfb.persistence.UserDAO" style="stroke: #A80036; stroke-width: 1.5;" width="181" x="18.5" y="153"/><ellipse cx="35.75" cy="172.1328" fill="#ADD1B2" rx="11" ry="11" style="stroke: #A80036; stroke-width: 1.0;"/><path d="M38.2231,178.2759 Q37.6421,178.5747 37.0029,178.7241 Q36.3638,178.8735 35.6582,178.8735 Q33.1514,178.8735 31.8315,177.2217 Q30.5117,175.5698 30.5117,172.4487 Q30.5117,169.3193 31.8315,167.6675 Q33.1514,166.0156 35.6582,166.0156 Q36.3638,166.0156 37.0112,166.165 Q37.6587,166.3145 38.2231,166.6133 L38.2231,169.3359 Q37.5923,168.7549 36.9988,168.4851 Q36.4053,168.2153 35.7744,168.2153 Q34.4297,168.2153 33.7449,169.282 Q33.0601,170.3486 33.0601,172.4487 Q33.0601,174.5405 33.7449,175.6072 Q34.4297,176.6738 35.7744,176.6738 Q36.4053,176.6738 36.9988,176.4041 Q37.5923,176.1343 38.2231,175.5532 Z "/><text fill="#000000" font-family="sans-serif" font-size="14" lengthAdjust="spacingAndGlyphs" textLength="62" x="91.25" y="171.5352">UserDAO</text><text fill="#000000" font-family="sans-serif" font-size="10" lengthAdjust="spacingAndGlyphs" textLength="144" x="50.25" y="184.1563">de.unibremen.sfb.persistence</text><line style="stroke: #A80036; stroke-width: 1.5;" x1="19.5" x2="198.5" y1="191.2656" y2="191.2656"/><ellipse cx="29.5" cy="202.2656" fill="#84BE84" rx="3" ry="3" style="stroke: #038048; stroke-width: 1.0;"/><text fill="#000000" font-family="sans-serif" font-size="11" lengthAdjust="spacingAndGlyphs" textLength="99" x="38.5" y="205.9004">persist(User): void</text><ellipse cx="29.5" cy="215.2207" fill="#84BE84" rx="3" ry="3" style="stroke: #038048; stroke-width: 1.0;"/><text fill="#000000" font-family="sans-serif" font-size="11" lengthAdjust="spacingAndGlyphs" textLength="99" x="38.5" y="218.8555">update(User): void</text><ellipse cx="29.5" cy="228.1758" fill="#84BE84" rx="3" ry="3" style="stroke: #038048; stroke-width: 1.0;"/><text fill="#000000" font-family="sans-serif" font-size="11" lengthAdjust="spacingAndGlyphs" textLength="102" x="38.5" y="231.8105">remove(User): void</text><ellipse cx="29.5" cy="241.1309" fill="#84BE84" rx="3" ry="3" style="stroke: #038048; stroke-width: 1.0;"/><text fill="#000000" font-family="sans-serif" font-size="11" lengthAdjust="spacingAndGlyphs" textLength="103" x="38.5" y="244.7656">get(): Class&lt;User&gt;</text><ellipse cx="29.5" cy="254.0859" fill="#84BE84" rx="3" ry="3" style="stroke: #038048; stroke-width: 1.0;"/><text fill="#000000" font-family="sans-serif" font-size="11" lengthAdjust="spacingAndGlyphs" textLength="117" x="38.5" y="257.7207">getUserById(int): User</text><ellipse cx="29.5" cy="267.041" fill="#84BE84" rx="3" ry="3" style="stroke: #038048; stroke-width: 1.0;"/><text fill="#000000" font-family="sans-serif" font-size="11" lengthAdjust="spacingAndGlyphs" textLength="155" x="38.5" y="270.6758">getUserByName(String): User</text><ellipse cx="29.5" cy="279.9961" fill="#84BE84" rx="3" ry="3" style="stroke: #038048; stroke-width: 1.0;"/><text fill="#000000" font-family="sans-serif" font-size="11" lengthAdjust="spacingAndGlyphs" textLength="146" x="38.5" y="283.6309">getUserByMail(String): User</text></a><!--MD5=[c2518cd8a4e20c7ae6025dfd14468712]
class de.unibremen.sfb.persistence.ObjectDAO--><a href="ObjectDAO.html" target="_top" title="ObjectDAO.html" xlink:actuate="onRequest" xlink:href="ObjectDAO.html" xlink:show="new" xlink:title="ObjectDAO.html" xlink:type="simple"><rect fill="#FEFECE" filter="url(#f1f28mzgkqym4k)" height="85.1309" id="de.unibremen.sfb.persistence.ObjectDAO" style="stroke: #A80036; stroke-width: 1.5;" width="206" x="6" y="8"/><ellipse cx="21" cy="27.1328" fill="#A9DCDF" rx="11" ry="11" style="stroke: #A80036; stroke-width: 1.0;"/><path d="M21.1133,22.731 L19.9595,27.8027 L22.2754,27.8027 Z M19.6191,20.4897 L22.6157,20.4897 L25.9609,32.8828 L23.5122,32.8828 L22.7485,29.8198 L19.4697,29.8198 L18.7227,32.8828 L16.2739,32.8828 Z "/><text fill="#000000" font-family="sans-serif" font-size="14" font-style="italic" lengthAdjust="spacingAndGlyphs" textLength="75" x="69.5" y="26.5352">ObjectDAO</text><text fill="#000000" font-family="sans-serif" font-size="10" font-style="italic" lengthAdjust="spacingAndGlyphs" textLength="144" x="35" y="39.1563">de.unibremen.sfb.persistence</text><rect fill="#FFFFFF" height="16.1328" style="stroke: #000000; stroke-width: 1.0; stroke-dasharray: 2.0,2.0;" width="28" x="187" y="5"/><text fill="#000000" font-family="sans-serif" font-size="12" font-style="italic" lengthAdjust="spacingAndGlyphs" textLength="26" x="188" y="17.6016">User</text><line style="stroke: #A80036; stroke-width: 1.5;" x1="7" x2="211" y1="46.2656" y2="46.2656"/><ellipse cx="17" cy="57.2656" fill="#84BE84" rx="3" ry="3" style="stroke: #038048; stroke-width: 1.0;"/><text fill="#000000" font-family="sans-serif" font-size="11" font-style="italic" lengthAdjust="spacingAndGlyphs" textLength="99" x="26" y="60.9004">persist(User): void</text><ellipse cx="17" cy="70.2207" fill="#84BE84" rx="3" ry="3" style="stroke: #038048; stroke-width: 1.0;"/><text fill="#000000" font-family="sans-serif" font-size="11" font-style="italic" lengthAdjust="spacingAndGlyphs" textLength="99" x="26" y="73.8555">update(User): void</text><ellipse cx="17" cy="83.1758" fill="#84BE84" rx="3" ry="3" style="stroke: #038048; stroke-width: 1.0;"/><text fill="#000000" font-family="sans-serif" font-size="11" font-style="italic" lengthAdjust="spacingAndGlyphs" textLength="102" x="26" y="86.8105">remove(User): void</text></a><!--MD5=[8cdaf35b700501acb088dff9e7bff5cc]
reverse link de.unibremen.sfb.persistence.ObjectDAO to de.unibremen.sfb.persistence.UserDAO--><path d="M109,113.33 C109,126.2 109,139.83 109,152.9 " fill="none" id="de.unibremen.sfb.persistence.ObjectDAO&lt;-de.unibremen.sfb.persistence.UserDAO" style="stroke: #A80036; stroke-width: 1.0;"/><polygon fill="none" points="102,113.28,109,93.28,116,113.28,102,113.28" style="stroke: #A80036; stroke-width: 1.0;"/><text fill="#888888" font-family="sans-serif" font-size="10" lengthAdjust="spacingAndGlyphs" textLength="182" x="24" y="309.668">UMLDoclet 2.0.7, PlantUML 1.2019.12</text><!--MD5=[30237aad6f5b0d73701945df1d1882cb]
@startuml
    set namespaceSeparator none
    hide empty fields
    hide empty methods

    class "<size:14>UserDAO\n<size:10>de.unibremen.sfb.persistence" as de.unibremen.sfb.persistence.UserDAO [[UserDAO.html]] {
        +persist(User): void
        +update(User): void
        +remove(User): void
        +get(): Class<User>
        +getUserById(int): User
        +getUserByName(String): User
        +getUserByMail(String): User
    }

    abstract class "<size:14>ObjectDAO\n<size:10>de.unibremen.sfb.persistence" as de.unibremen.sfb.persistence.ObjectDAO<User> [[ObjectDAO.html]] {
        {abstract} +persist(User): void
        {abstract} +update(User): void
        {abstract} +remove(User): void
    }

    de.unibremen.sfb.persistence.ObjectDAO <|- - de.unibremen.sfb.persistence.UserDAO

    center footer UMLDoclet 2.0.7, PlantUML 1.2019.12
@enduml

PlantUML version 1.2019.12(Sun Nov 03 11:24:54 CET 2019)
(APACHE source distribution)
Java Runtime: Java(TM) SE Runtime Environment
JVM: Java HotSpot(TM) 64-Bit Server VM
Java Version: 13.0.1+9
Operating System: Mac OS X
Default Encoding: UTF-8
Language: de
Country: DE
--></g></svg>